<svg width="40" height="40" viewBox="0 0 40 40" fill="none" xmlns="http://www.w3.org/2000/svg">
<path d="M11.4634 24.7565L16.4235 18.2748L22.0814 22.7415L26.9355 16.4415" stroke="#2E3758" stroke-width="4.16667" stroke-linecap="round" stroke-linejoin="round"/>
<path fill-rule="evenodd" clip-rule="evenodd" d="M32.5934 3.91666C34.3534 3.91666 35.7787 5.34999 35.7787 7.11999C35.7787 8.88832 34.3534 10.3233 32.5934 10.3233C30.8334 10.3233 29.4082 8.88832 29.4082 7.11999C29.4082 5.34999 30.8334 3.91666 32.5934 3.91666Z" stroke="#2E3758" stroke-width="4.16667" stroke-linecap="round" stroke-linejoin="round"/>
<path d="M34.3972 15.4483C34.6176 16.94 34.7187 18.62 34.7187 20.505C34.7187 32.0683 30.8871 35.9217 19.3891 35.9217C7.89279 35.9217 4.05957 32.0683 4.05957 20.505C4.05957 8.94332 7.89279 5.08832 19.3891 5.08832C21.2287 5.08832 22.871 5.18665 24.3327 5.39998" stroke="#2E3758" stroke-width="4.16667" stroke-linecap="round" stroke-linejoin="round"/>
</svg>
