<svg width="40" height="40" viewBox="0 0 40 40" fill="none" xmlns="http://www.w3.org/2000/svg">
<path d="M11.4634 24.7566L16.4235 18.275L22.0814 22.7417L26.9355 16.4417" stroke="white" stroke-width="4.16667" stroke-linecap="round" stroke-linejoin="round"/>
<path fill-rule="evenodd" clip-rule="evenodd" d="M32.5933 3.91675C34.3533 3.91675 35.7786 5.35008 35.7786 7.12008C35.7786 8.88841 34.3533 10.3234 32.5933 10.3234C30.8333 10.3234 29.4081 8.88841 29.4081 7.12008C29.4081 5.35008 30.8333 3.91675 32.5933 3.91675Z" stroke="white" stroke-width="4.16667" stroke-linecap="round" stroke-linejoin="round"/>
<path d="M34.3971 15.4484C34.6175 16.94 34.7186 18.62 34.7186 20.505C34.7186 32.0684 30.887 35.9217 19.389 35.9217C7.89267 35.9217 4.05945 32.0684 4.05945 20.505C4.05945 8.94338 7.89267 5.08838 19.389 5.08838C21.2286 5.08838 22.8709 5.18671 24.3326 5.40005" stroke="white" stroke-width="4.16667" stroke-linecap="round" stroke-linejoin="round"/>
</svg>
