<svg width="97" height="97" viewBox="0 0 97 97" fill="none" xmlns="http://www.w3.org/2000/svg">
<circle cx="48.5" cy="48.5002" r="48.3" fill="#4349FF"/>
<mask id="mask0_33_10479" style="mask-type:alpha" maskUnits="userSpaceOnUse" x="0" y="0" width="97" height="97">
<circle cx="48.3" cy="48.3" r="48.3" fill="#4349FF"/>
</mask>
<g mask="url(#mask0_33_10479)">
<mask id="mask1_33_10479" style="mask-type:alpha" maskUnits="userSpaceOnUse" x="0" y="-18" width="153" height="165">
<rect y="-17.71" width="152.145" height="163.848" rx="30" fill="#D9D9D9"/>
</mask>
<g mask="url(#mask1_33_10479)">
<path d="M61.3922 40.5736C61.3887 40.5736 61.3858 40.5706 61.386 40.567C61.4044 40.1952 61.3267 39.8234 61.3463 39.4582C61.3988 38.4543 62.1337 37.6341 62.7832 36.8664C66.9837 31.878 68.9849 25.458 71.9581 19.6491C73.4241 16.7847 74.5711 13.2424 72.5335 10.752C71.0834 8.987 68.6294 7.91093 66.4445 8.57363C64.9288 9.03293 63.7281 10.2402 62.9407 11.6181C62.1533 12.996 61.7334 14.5445 61.3135 16.0733C61.0051 17.2019 60.7164 18.4682 61.2872 19.4852C61.3857 19.6624 61.5103 19.8264 61.5497 20.0298C61.5956 20.2529 61.5234 20.476 61.4578 20.6925C60.0603 25.0887 58.9054 29.5636 58 34.0844C57.9147 34.5043 57.8359 34.9505 57.9869 35.3507C58.1405 35.7581 58.6386 36.645 58.452 37.0384C55.8985 42.4235 53.3499 47.8135 50.7956 53.1977C50.1722 54.51 49.5423 56.006 50.0672 57.3577C50.0847 57.3927 50.1348 57.3972 50.1603 57.3676C54.0734 52.8226 57.3454 47.676 60.5655 42.588C60.958 41.9665 61.3636 41.3124 61.3985 40.5801C61.3986 40.5766 61.3958 40.5736 61.3922 40.5736Z" fill="#FEB2B6"/>
<path d="M74.7217 23.9827C74.7204 23.984 74.7181 23.9831 74.7181 23.9813C74.6726 21.6996 74.8952 19.4047 74.7313 17.1295C74.68 16.455 73.8584 16.2731 73.5067 16.851C69.5746 23.3137 67.6703 31.0557 62.783 36.8597C62.1334 37.6273 61.3986 38.4475 61.3461 39.4514C61.3264 39.8254 61.4051 40.1994 61.3854 40.5669C61.3461 41.3017 60.9458 41.9579 60.5521 42.5812C57.9503 46.6925 55.3144 50.842 52.3339 54.6814C51.0044 56.394 50.7301 58.9031 52.8097 59.5162C55.4999 60.297 58.4591 59.5162 60.8277 58.0202C63.1964 56.5176 65.0598 54.3655 66.8052 52.1674C70.5837 47.4175 74.0212 42.2248 75.6259 36.3892C75.7761 35.8429 75.8125 35.2726 75.7582 34.7086L74.7252 23.984C74.725 23.9823 74.7229 23.9815 74.7217 23.9827Z" fill="#D88185"/>
<path d="M145.123 -1.92441C135.858 4.88633 125.006 9.13812 114.291 13.3112C110.931 14.6235 107.546 15.9423 103.996 16.5919C100.781 17.1824 97.4871 17.2218 94.2195 17.1365C89.7118 17.0184 85.2107 16.6706 80.7096 16.3229C68.7416 15.3977 56.7145 14.4725 45.0287 11.7364C34.6395 9.30906 13.6267 0.660225 2.04089 -3.98413C0.452369 -4.62092 -0.585205 -6.15536 -0.585205 -7.86677C-0.585205 -10.8114 2.37895 -12.8233 5.11163 -11.7263C16.766 -7.04774 34.2501 -0.0301037 43.7492 2.19616C55.4351 4.93226 67.4621 5.86398 79.4301 6.78258C83.9312 7.13033 88.4324 7.47808 92.94 7.59619C96.2076 7.68149 99.5014 7.64212 102.717 7.05159C106.266 6.39545 109.652 5.07661 113.011 3.77089C121.353 0.51713 135.163 -6.56524 145.243 -12.7534C148.419 -14.7031 152.73 -12.454 152.73 -8.72735C152.73 -7.05192 151.809 -5.51219 150.333 -4.72L145.123 -1.92441Z" fill="#4EB0A9"/>
<path d="M78.7854 14.2235C78.7822 14.2235 78.7795 14.2211 78.7792 14.2179C78.5239 11.8083 78.8004 9.34716 79.572 7.0544C79.7311 6.5817 80.2051 6.50769 80.1839 7.006C80.0986 8.90224 79.928 10.8116 80.2495 12.6816C80.2889 12.9244 80.3414 13.1803 80.2627 13.4165C80.1511 13.738 79.823 13.9283 79.495 14.007L78.7872 14.2233C78.7866 14.2234 78.786 14.2235 78.7854 14.2235Z" fill="#3A3B3C"/>
<path d="M83.0381 13.9611C82.6536 13.9713 82.3545 13.6283 82.4342 13.252C82.8845 11.1263 83.7481 9.08493 84.962 7.28379C85.2429 6.86713 85.7231 6.923 85.5642 7.39967C84.9802 9.20406 84.3044 11.0019 84.1207 12.885C84.0945 13.1278 84.0748 13.3902 83.937 13.5936C83.7467 13.8692 83.3793 13.9676 83.0381 13.9611Z" fill="#3A3B3C"/>
<path d="M81.3462 13.587C80.9693 13.6516 80.6268 13.3552 80.6537 12.9737C80.8071 10.8019 81.3819 8.66029 82.3416 6.70527C82.5626 6.2552 83.05 6.24488 82.9538 6.73692C82.6191 8.60036 82.1992 10.4769 82.2714 12.3732C82.278 12.6225 82.2976 12.8784 82.1861 13.1015C82.0352 13.4033 81.6809 13.5542 81.3462 13.587Z" fill="#3A3B3C"/>
<path d="M72.5614 59.0677C72.559 59.0664 72.5596 59.0628 72.5624 59.0625C84.6385 57.8472 96.2034 53.2826 108.293 52.2133C109.992 52.0624 111.961 52.0887 113.063 53.3944C114.139 54.6607 113.883 56.5504 113.516 58.1711C112.958 60.6119 112.249 63.0593 110.865 65.1459C109.612 67.0421 107.847 68.5512 106.01 69.8897C104.231 71.1889 102.335 72.3634 100.262 73.1048C97.67 74.03 94.8814 74.2596 92.1256 74.3121C87.3227 74.404 82.4344 73.9775 77.9595 72.2322C76.5751 71.6941 75.2234 71.0183 74.0752 70.0735C72.0936 68.4397 70.7945 65.9923 70.5583 63.4333C70.4205 61.9439 70.7354 60.2379 71.9755 59.3981L72.5615 59.0725C72.5635 59.0715 72.5634 59.0687 72.5614 59.0677Z" fill="#FFE5B8"/>
<path d="M17.0706 39.3531C17.2018 39.2612 17.3003 39.1497 17.379 39.0053C17.484 38.8019 17.274 38.5985 17.0706 38.697C16.9722 38.7494 16.8738 38.7954 16.7688 38.8479C16.6638 38.9004 16.631 39.0578 16.6901 39.1563C16.7163 39.1956 16.736 39.235 16.7622 39.2744C16.9131 39.5171 17.3003 39.294 17.1493 39.0513C17.1199 39.007 17.0563 39.0158 17.043 39.0673C17.0412 39.0741 17.0395 39.0809 17.0377 39.0877C17.0225 39.1469 17.0851 39.1965 17.14 39.1695C17.1549 39.1622 17.1698 39.1548 17.1848 39.1475C17.2417 39.1197 17.254 39.0444 17.2093 38.9997C17.1872 38.9775 17.1652 38.9556 17.1432 38.9336C17.0676 38.858 16.9481 38.8855 16.865 38.9528C16.8594 38.9573 16.8536 38.9617 16.8475 38.966C16.6179 39.1366 16.841 39.5237 17.0706 39.3531Z" fill="#FEB2B6"/>
<path d="M52.5508 59.4987C52.6617 59.5817 52.7983 59.4898 52.882 59.3794C53.504 58.5586 54.0332 57.6695 54.4695 56.7331C54.5252 56.6134 54.3833 56.5246 54.2979 56.6253C54.2423 56.6907 54.1369 56.6746 54.104 56.5953L54.0893 56.5598C54.0731 56.5207 54.04 56.491 53.9994 56.4789C53.8002 56.4199 53.6013 56.3593 53.4027 56.2971C52.3076 55.9542 51.2322 56.9001 51.6912 57.9518C51.89 58.4075 52.1165 58.8513 52.3708 59.2799C52.4177 59.3592 52.4784 59.4445 52.5508 59.4987Z" fill="#FFE5B8"/>
<path d="M16.9521 39.1642C16.9521 39.1637 16.9523 39.1632 16.9528 39.1629C16.9799 39.1441 17.0049 39.1241 17.0279 39.1029C17.0844 39.051 17.0219 38.9801 16.9531 39.0142C16.938 39.0217 16.923 39.0293 16.9081 39.037C16.8927 39.0449 16.8875 39.0642 16.8965 39.0789L16.9491 39.165C16.9499 39.1664 16.9521 39.1658 16.9521 39.1642Z" fill="#FEB2B6"/>
<path d="M136.842 66.1373C136.625 65.5908 136.51 65.0093 136.501 64.4213C136.419 58.9655 136.228 53.4253 134.361 48.31C134.145 47.7195 134.105 46.7943 134.729 46.7418C134.899 46.7287 135.083 46.7943 135.228 46.7025C135.405 46.5909 135.378 46.3285 135.332 46.1185C134.112 40.7723 132.401 35.539 130.229 30.5036C129.623 29.0979 129.757 27.1522 129.139 25.7519C128.299 23.8556 127.551 21.9069 126.999 19.9057C126.271 17.2483 125.877 14.4794 124.723 11.9795C123.711 9.78949 121.944 7.77572 119.686 7.07191C119.071 6.88012 118.495 6.41237 117.853 6.36295C115.766 6.16611 113.588 7.26186 112.545 9.08593C111.606 10.7197 111.58 12.7013 111.574 14.5909C111.561 20.1289 111.548 25.6668 111.535 31.2048C111.535 31.3664 111.697 31.4778 111.848 31.4221C112 31.3662 112.158 31.4834 112.152 31.6454C111.939 37.638 111.688 43.6939 110.104 49.4779C109.297 52.428 108.048 56.1628 107.997 59.2208C107.991 59.5808 108.015 59.9413 108.07 60.2977C108.122 60.652 108.208 61.0326 108.07 61.3672C107.958 61.6428 107.716 61.8396 107.486 62.0233C98.3852 69.1322 85.4115 70.922 74.7252 66.5435C74.6945 66.5309 74.6662 66.5133 74.6413 66.4914C74.5628 66.4223 74.5259 66.3172 74.5446 66.2143C75.2688 62.2102 76.4394 58.2841 78.0186 54.5368C78.4222 53.5801 78.8573 52.6101 79.2055 51.6236C79.9089 49.6305 81.9106 47.0135 82.6903 45.049C84.1798 41.2762 84.7113 37.1359 84.2323 33.1138C84.1995 32.8513 84.1798 32.5495 84.3569 32.3658C84.5407 32.1755 84.8359 32.1886 85.0918 32.1165C85.912 31.8934 86.1679 30.8632 86.2335 30.0102C86.6206 25.1876 85.8004 20.3519 84.9803 15.5817C84.7375 14.1645 84.475 12.7013 83.6549 11.5268C82.8347 10.3457 81.2928 9.53867 79.9477 10.0242C79.4425 10.2539 79.0291 10.6475 78.7797 11.1462C76.8573 14.9059 75.066 18.7378 73.4125 22.6221C73.2185 23.0684 73.3865 23.9028 73.1888 24.3475C71.3168 28.5592 68.951 32.5515 66.1556 36.2173C64.8993 37.8678 64.8437 40.3597 63.9114 42.2126C61.6021 46.8023 58.7913 51.1401 55.5455 55.1266C55.021 55.7708 54.6011 56.4915 54.2235 57.2314C53.8793 57.9059 53.4826 58.555 53.0371 59.1703C52.8476 59.4319 52.5213 59.5785 52.357 59.3004C51.0335 57.07 49.3665 54.9483 47.1289 53.6372C45.9913 52.9707 44.9163 52.2065 43.9321 51.3217C42.6223 50.1459 40.5949 50.1801 39.4336 51.5029C35.6846 55.7735 31.3243 59.4498 26.0851 61.5378C23.5918 62.5286 20.6916 63.1191 18.277 61.9446C17.3716 61.505 16.5973 60.8423 15.8756 60.1468C15.3179 59.6087 14.7798 59.0379 14.4255 58.3489C14.0515 57.6206 13.9071 56.807 13.7759 56C13.5725 54.7599 13.3822 53.4869 13.6053 52.2468C13.9071 50.5278 14.957 49.0383 16.0265 47.6539C18.3427 44.6422 20.3439 42.0504 23.7164 40.2985C24.6255 39.829 25.784 39.4067 27.0172 39.0318C28.0965 38.7036 28.3321 37.2693 27.2596 36.9194C23.9425 35.8267 20.4061 37.3194 17.2514 38.8794C17.1974 38.9061 17.156 38.9514 17.1234 39.0021C17.0898 39.0545 17.0472 39.1042 16.9936 39.1457C16.9644 39.1684 16.9231 39.1578 16.9038 39.1263C16.8835 39.093 16.8953 39.0495 16.93 39.0318C16.9841 39.0043 17.0386 38.9779 17.0946 38.9504C17.1424 38.927 17.1821 38.8885 17.1993 38.8382C17.4001 38.2521 16.8295 37.3905 16.1446 37.5099C15.688 37.5878 15.3784 37.9769 15.2725 38.4259C15.1799 38.8184 14.7212 39.3863 14.3271 39.3012C13.6906 39.1634 13.0804 39.603 13.0017 40.246C12.9919 40.3277 12.9055 40.3768 12.8254 40.3582C12.4201 40.2643 11.9497 40.4445 11.7353 40.8038C11.5769 41.0622 10.8583 42.1965 10.6419 42.4089C10.5277 42.5211 10.4377 42.6563 10.3837 42.8115C10.1518 43.4783 10.6605 45.0523 10.2861 45.6507C8.78096 48.0562 7.67111 50.7241 7.45073 53.546C7.18171 56.9907 8.40213 60.6651 11.1382 62.7713C11.4532 63.0141 11.7878 63.2372 12.0371 63.5521C12.2996 63.8802 12.444 64.2805 12.5817 64.6741C13.9071 68.4076 15.0948 72.3379 17.7193 75.3102C18.361 76.0369 20.0196 77.3924 20.3238 78.313C21.0411 80.4839 22.4357 82.436 24.2778 83.7867C24.5747 84.0044 24.8588 84.2402 25.1066 84.5125L25.4751 84.9175C25.7763 85.2485 26.1028 85.5556 26.4515 85.8361C29.597 88.3662 32.7424 90.8962 35.8879 93.4262C37.6594 94.8566 39.5229 96.3264 41.7472 96.8119C42.528 96.9825 43.3416 97.0284 44.1158 97.2187C45.0541 97.4549 45.9202 97.9011 46.7863 98.321C56.8056 103.236 67.9403 105.854 79.1013 105.926C80.4269 105.926 82.2508 105.065 83.5554 105.3C92.4685 106.907 101.736 108.118 110.196 105.06C115.489 103.149 121.649 101.752 126.056 98.2508C126.084 98.2284 126.112 98.2059 126.14 98.1832C128.456 96.3132 130.169 93.8133 131.724 91.2741C134.309 87.0485 136.599 82.4162 136.763 77.4623C136.887 73.6702 135.776 69.78 136.829 66.1376C136.831 66.1315 136.84 66.1313 136.842 66.1373Z" fill="#FEB2B6"/>
<path d="M68.9053 18.3434C68.8922 19.0652 68.82 19.7804 68.6691 20.4825C68.61 20.7646 69.0431 20.8827 69.1021 20.6006C69.2596 19.8526 69.3449 19.1046 69.3515 18.3369C69.3515 18.0482 68.9119 18.0482 68.9053 18.3369V18.3434Z" fill="#D88185"/>
<path d="M63.6167 25.2267C63.4264 25.8566 63.3149 26.4996 63.2689 27.1557C63.2493 27.4444 63.6954 27.4444 63.7151 27.1557C63.7545 26.539 63.866 25.9353 64.0498 25.3448C64.135 25.0692 63.702 24.9511 63.6167 25.2267Z" fill="#D88185"/>
<path d="M61.7538 33.9858C61.5373 34.4255 61.3208 34.8716 61.1042 35.3113C60.9796 35.5671 61.3667 35.7968 61.4914 35.5343C61.7079 35.0947 61.9244 34.6486 62.141 34.2089C62.2656 33.953 61.8785 33.7234 61.7538 33.9858Z" fill="#D88185"/>
<path d="M57.7765 43.6378C57.5993 44.3005 57.3172 44.9042 56.9301 45.4684C56.766 45.7046 57.1531 45.9277 57.3172 45.6915C57.724 45.101 58.0258 44.4514 58.2095 43.7559C58.2817 43.4803 57.8552 43.3622 57.7765 43.6378Z" fill="#D88185"/>
<path d="M72.3788 5.89944C72.3769 5.89747 72.3742 5.89624 72.3715 5.896C72.019 5.86577 71.7129 6.13404 71.6803 6.48691C71.5556 7.83856 71.2538 9.18365 71.0044 10.5222C70.908 11.0151 71.394 11.0095 71.619 10.5604C72.2366 9.32751 72.7 8.0166 73.0057 6.67063C73.091 6.30319 72.822 5.94232 72.448 5.90295C72.4299 5.90295 72.4063 5.90295 72.3873 5.90295C72.3841 5.90295 72.3811 5.90169 72.3788 5.89944Z" fill="#3A3B3C"/>
<path d="M68.3147 5.27362C68.0195 5.23425 67.7439 5.39829 67.6323 5.67387C67.1599 6.85492 66.5628 7.99004 66.0051 9.13173C65.7801 9.58174 66.2519 9.70356 66.5888 9.32988C67.4422 8.38333 68.1884 7.34038 68.8068 6.22503C69.0277 5.8352 68.7854 5.34245 68.3475 5.27549C68.3389 5.27417 68.33 5.27362 68.3213 5.27362H68.3147Z" fill="#3A3B3C"/>
<path d="M70.2832 5.40157C70.2832 5.3996 70.2817 5.39797 70.2797 5.39782C69.9531 5.37343 69.6727 5.59607 69.6074 5.91644C69.3055 7.32714 68.8069 8.69848 68.3476 10.0764C68.1893 10.5512 68.6716 10.6093 68.9533 10.1955C69.7808 8.98029 70.4443 7.65471 70.9328 6.27076C71.0706 5.87051 70.8015 5.44402 70.375 5.41121C70.3433 5.41121 70.3176 5.41121 70.2862 5.40524C70.2845 5.40491 70.2832 5.40336 70.2832 5.40157Z" fill="#3A3B3C"/>
<path d="M20.4913 58.9126C20.4909 58.9134 20.492 58.914 20.4925 58.9134C21.1332 58.0748 21.5975 57.0993 21.8397 56.065C22.0497 55.1529 22.0562 54.0965 21.4394 53.3879C20.8227 52.6793 19.7794 52.548 18.8411 52.5612C18.395 52.5677 17.9488 52.6005 17.5354 52.7646C16.9777 52.9811 16.5315 53.4076 16.105 53.8275C15.6595 54.2664 14.6712 55.1567 13.7995 55.9562C13.7969 55.9586 13.7954 55.9604 13.7954 55.9639C13.7954 55.9646 13.7955 55.9669 13.7956 55.9675C13.9268 56.7743 14.0711 57.5875 14.445 58.3155C14.7993 59.0045 15.3373 59.5819 15.8951 60.1133C16.3402 60.5409 16.8062 60.9528 17.3119 61.3116C17.4232 61.3906 17.5708 61.3937 17.6867 61.3216C18.7477 60.6611 19.7352 59.8999 20.4901 58.9119C20.4906 58.9112 20.4917 58.9119 20.4913 58.9126Z" fill="#E25243"/>
<path d="M30.045 41.6692C30.0454 41.6685 30.0443 41.6679 30.0438 41.6685C29.7775 42.0216 29.621 42.4393 29.4905 42.8635C29.2149 43.7624 29.0575 44.7991 29.5692 45.593C30.081 46.3804 31.0981 46.6691 32.0298 46.715C33.0862 46.7675 34.1557 46.5904 35.1399 46.2032C36.5471 45.6445 36.6102 43.8017 35.4806 42.7934C34.6862 42.0843 33.8767 41.3923 33.0524 40.72C32.5989 40.3502 31.9699 40.3081 31.4589 40.5932C30.9427 40.8873 30.407 41.1943 30.0461 41.67C30.0456 41.6706 30.0446 41.67 30.045 41.6692Z" fill="#E25243"/>
<path d="M40.7763 47.9944C40.3886 47.572 39.9953 47.1544 39.5971 46.741C38.4664 45.5673 36.6636 45.5944 35.1466 46.19C34.1624 46.5837 33.0929 46.7543 32.0365 46.7018C31.0982 46.6558 30.0812 46.3671 29.576 45.5798C29.0642 44.7924 29.2217 43.7491 29.4972 42.8502C29.6285 42.4237 29.7859 42.0038 30.055 41.6495C30.4158 41.1705 30.9539 40.8621 31.4722 40.5668C31.8744 40.3424 31.9154 39.7732 31.5509 39.4917C31.3271 39.3188 31.1018 39.1475 30.8751 38.979C30.2358 38.4901 29.4044 38.3425 28.6264 38.5485C26.8271 39.025 25.0293 39.5971 23.7363 40.265C20.3638 42.0104 18.356 44.6087 16.0464 47.6204C14.9834 49.0048 13.9336 50.4877 13.6252 52.2133C13.5891 52.4191 13.5641 52.626 13.5485 52.8337C13.4472 54.1807 15.1432 54.7755 16.1054 53.8274C16.5319 53.4075 16.9781 52.981 17.5358 52.7645C17.9492 52.6005 18.4019 52.5677 18.8415 52.5611C19.7798 52.5414 20.8231 52.6792 21.4398 53.3878C22.0566 54.0965 22.0501 55.1528 21.8401 56.0649C21.5973 57.095 21.138 58.0792 20.4884 58.9191C19.8721 59.7158 19.1104 60.3709 18.2793 60.9429C17.9157 61.1931 17.9003 61.7371 18.2969 61.9308C20.7115 63.1053 23.6117 62.5213 26.105 61.524C31.9979 59.173 36.7882 54.8084 40.8416 49.849C41.2858 49.3055 41.2618 48.5141 40.7829 48.0009L40.7763 47.9944Z" fill="#FFE5B8"/>
<path d="M25.7409 47.8014C25.739 47.7995 25.7361 47.7992 25.7339 47.8008C25.1052 48.2593 24.4575 48.7443 24.0973 49.445C23.7364 50.1471 23.7496 51.1444 24.3532 51.794C24.8847 52.3714 25.7442 52.5223 26.4332 52.3386C27.1221 52.1549 27.6733 51.7021 28.1851 51.2363C28.8281 50.6392 29.4317 49.9896 29.832 49.1957C29.9435 48.9726 30.0354 48.7364 30.0485 48.4739C30.0813 47.8047 29.5301 47.1223 28.874 46.8664C28.2268 46.614 27.5285 46.7254 26.968 47.0308C26.9526 47.0392 26.9374 47.0481 26.9224 47.0571C26.7813 47.1423 26.0186 47.6043 25.7478 47.802C25.7456 47.8036 25.7428 47.8033 25.7409 47.8014Z" fill="#3A3B3C"/>
<path d="M22.9692 53.6043C23.1792 53.8799 22.9036 54.4442 22.3459 54.8707C21.7947 55.2906 21.1714 55.4087 20.9614 55.1331C20.7515 54.8576 21.027 54.2933 21.5848 53.8668C22.1359 53.4469 22.7592 53.3287 22.9692 53.6043Z" fill="#E86B53"/>
<path d="M33.073 46.3349C33.2829 46.6105 33.0074 47.1748 32.4496 47.6013C31.8985 48.0212 31.2751 48.1393 31.0652 47.8637C30.8552 47.5881 31.1308 47.0239 31.6885 46.5974C32.2397 46.1774 32.863 46.0593 33.073 46.3349Z" fill="#E86B53"/>
<path d="M18.1398 49.6809C18.0742 49.6415 18.002 49.6087 17.9102 49.589C16.8604 49.3528 15.1216 50.5732 14.8198 51.564C14.7863 51.6704 14.7729 51.7702 14.7764 51.8629C14.7916 52.2601 15.1408 52.6217 15.5332 52.6853C15.812 52.7305 16.1366 52.6691 16.3813 52.5484C16.3988 52.5399 16.4165 52.5307 16.4339 52.522C16.7619 52.3842 17.1491 52.148 17.4378 51.8593C17.8839 51.4853 18.2579 51.0325 18.3892 50.5011C18.4679 50.173 18.4089 49.8515 18.1398 49.6809Z" fill="#FEB2B6"/>
<path d="M26.9781 42.1646C26.9781 42.1652 26.9774 42.1653 26.9772 42.1648C26.9581 42.0935 26.9454 42.0158 26.9519 41.9253C26.9913 40.8493 28.6119 39.4845 29.6486 39.4385C30.245 39.4176 30.6786 40.1446 30.4826 40.7083C30.419 40.8914 30.3173 41.0661 30.1986 41.2025C30.1864 41.2165 30.1735 41.2298 30.1604 41.2429C29.9439 41.5251 29.6158 41.8335 29.2615 42.0434C28.7891 42.3781 28.2511 42.6274 27.7065 42.6143C27.3729 42.6143 27.072 42.4644 26.9791 42.1645C26.9789 42.164 26.9781 42.1641 26.9781 42.1646Z" fill="#FEB2B6"/>
<path d="M16.2952 56.2292C16.538 56.1898 16.7808 56.157 17.0235 56.1176C17.2794 56.0783 17.2138 55.6846 16.9579 55.724C16.7152 55.7633 16.4724 55.7961 16.2296 55.8355C15.9737 55.8749 16.0393 56.2685 16.2952 56.2292Z" fill="#3C3C3D"/>
<path d="M16.6823 54.5625C16.8594 54.6806 17.0431 54.7987 17.2203 54.9102C17.4368 55.048 17.6665 54.7265 17.4499 54.5821C17.2728 54.464 17.0891 54.3459 16.9119 54.2344C16.6954 54.0966 16.4657 54.4181 16.6823 54.5625Z" fill="#3C3C3D"/>
<path d="M18.0276 53.4932C18.0407 53.7294 18.0604 53.9722 18.0735 54.2084C18.0932 54.4643 18.4869 54.3987 18.4672 54.1428C18.4541 53.9066 18.4344 53.6638 18.4213 53.4276C18.4016 53.1717 18.0079 53.2373 18.0276 53.4932Z" fill="#3C3C3D"/>
<path d="M19.7719 54.2939C20.5659 54.9238 20.7037 56.0786 20.0738 56.8725C19.4439 57.6665 18.2891 57.8042 17.4951 57.1743C16.7012 56.5445 16.5634 55.3896 17.1933 54.5957C17.8232 53.8018 18.978 53.664 19.7719 54.2939Z" fill="white"/>
<path d="M19.4517 54.8061C19.9569 55.2063 20.0422 55.9412 19.642 56.4464C19.2417 56.9517 18.5068 57.037 18.0016 56.6367C17.4964 56.2365 17.4111 55.5016 17.8113 54.9964C18.2116 54.4911 18.9465 54.4058 19.4517 54.8061Z" fill="#3C3C3D"/>
<path d="M18.7094 55.114C18.88 55.2452 18.9062 55.488 18.775 55.6586C18.6438 55.8292 18.401 55.8554 18.2304 55.7242C18.0598 55.593 18.0336 55.3502 18.1648 55.1796C18.296 55.009 18.5388 54.9828 18.7094 55.114Z" fill="white"/>
<path d="M30.4294 43.5258C30.6722 43.5652 30.9149 43.598 31.1577 43.6373C31.4136 43.6767 31.4661 43.2765 31.2102 43.2437C30.9674 43.2043 30.7247 43.1715 30.4819 43.1321C30.226 43.0927 30.1735 43.493 30.4294 43.5258Z" fill="#3C3C3D"/>
<path d="M31.296 42.0498C31.4338 42.2138 31.5716 42.3779 31.7094 42.5419C31.8734 42.7387 32.1883 42.496 32.0243 42.2926C31.8865 42.1285 31.7487 41.9645 31.6109 41.8005C31.4469 41.6036 31.132 41.8464 31.296 42.0498Z" fill="#3C3C3D"/>
<path d="M32.8898 41.4133C32.8373 41.6429 32.7782 41.8792 32.7257 42.1088C32.6667 42.3581 33.0604 42.4106 33.1194 42.1613C33.1719 41.9316 33.231 41.6954 33.2835 41.4658C33.3425 41.2165 32.9488 41.164 32.8898 41.4133Z" fill="#3C3C3D"/>
<path d="M34.3196 42.6925C34.897 43.5258 34.687 44.674 33.8472 45.2449C33.0139 45.8223 31.8656 45.6123 31.2948 44.7725C30.7174 43.9392 30.9274 42.7909 31.7672 42.2201C32.6005 41.6427 33.7488 41.8526 34.3196 42.6925Z" fill="white"/>
<path d="M33.7758 43.0729C34.1433 43.6044 34.0055 44.3327 33.474 44.7001C32.9425 45.0676 32.2142 44.9298 31.8468 44.3983C31.4793 43.8668 31.6171 43.1385 32.1486 42.7711C32.6801 42.4036 33.4084 42.5414 33.7758 43.0729Z" fill="#3C3C3D"/>
<path d="M32.7777 43.414C32.8958 43.5911 32.8564 43.8339 32.6793 43.952C32.5021 44.0701 32.2593 44.0307 32.1412 43.8536C32.0231 43.6764 32.0625 43.4337 32.2397 43.3156C32.4168 43.1975 32.6596 43.2368 32.7777 43.414Z" fill="white"/>
<path d="M28.6382 53.1392C29.2025 53.5526 30.0096 53.5132 30.5476 53.067C31.1381 52.5749 31.2759 51.7285 31.0135 51.033C30.9151 50.764 30.482 50.8821 30.5804 51.1511C30.7707 51.6695 30.7313 52.2797 30.3114 52.6799C29.9112 53.0605 29.2944 53.0736 28.8613 52.7521C28.6317 52.5815 28.4086 52.9686 28.6382 53.1392Z" fill="#3A3B3C"/>
<path d="M25.1772 65.5854C25.1794 65.5854 25.1814 65.5862 25.1829 65.5877C25.6481 66.033 26.1525 66.439 26.6897 66.7927C26.9324 66.9502 27.1555 66.563 26.9128 66.4056C26.401 66.0709 25.9285 65.6904 25.4889 65.2704C25.2798 65.0744 24.9665 65.3861 25.1716 65.5831C25.1731 65.5845 25.1751 65.5854 25.1772 65.5854Z" fill="#D88185"/>
<path d="M36.4068 61.5833C36.8333 61.8261 37.2401 62.1017 37.6141 62.4166C37.8306 62.6003 38.1521 62.2854 37.929 62.1017C37.5288 61.7605 37.0957 61.4521 36.6299 61.1962C36.3806 61.0584 36.1509 61.439 36.4068 61.5833Z" fill="#D88185"/>
<path d="M33.1851 73.8662C33.6969 74.2402 34.2021 74.6142 34.7139 74.9948C34.9436 75.1654 35.1667 74.7783 34.937 74.6077C34.4252 74.2337 33.92 73.8597 33.4082 73.4791C33.1786 73.3085 32.9555 73.6956 33.1851 73.8662Z" fill="#D88185"/>
<path d="M21.8864 75.7425C22.1095 76.2871 22.4376 76.7595 22.8969 77.127C23.1199 77.3107 23.4349 76.9957 23.2118 76.812C22.8181 76.4905 22.5097 76.0903 22.3195 75.6244C22.2145 75.3619 21.7814 75.4735 21.8864 75.7425Z" fill="#D88185"/>
<path d="M46.9109 65.8255C46.9109 65.824 46.9125 65.8229 46.914 65.8234C47.313 65.9743 47.6795 66.1838 48.0132 66.4522C48.2363 66.6293 48.5513 66.3144 48.3282 66.1372C47.9279 65.8223 47.5015 65.573 47.029 65.3958C46.7611 65.2912 46.6428 65.7205 46.9078 65.8276C46.9093 65.8282 46.9109 65.8271 46.9109 65.8255Z" fill="#D88185"/>
<path d="M42.4827 54.5688C42.8699 54.9559 43.2504 55.3431 43.6376 55.7302C43.841 55.9336 44.1559 55.6186 43.9525 55.4152C43.5654 55.0281 43.1848 54.641 42.7977 54.2539C42.5943 54.0505 42.2793 54.3654 42.4827 54.5688Z" fill="#D88185"/>
<path d="M33.0994 82.3174C33.6374 82.7045 34.1755 83.0851 34.7201 83.4722C34.9563 83.6363 35.1794 83.2491 34.9432 83.0851C34.4051 82.698 33.8671 82.3174 33.3225 81.9303C33.0863 81.7663 32.8632 82.1534 33.0994 82.3174Z" fill="#D88185"/>
<path d="M47.5876 73.381C48.06 73.755 48.5324 74.129 49.0049 74.503C49.2279 74.6801 49.5429 74.3652 49.3198 74.188C48.8474 73.814 48.375 73.44 47.9025 73.066C47.6795 72.8889 47.3645 73.2038 47.5876 73.381Z" fill="#D88185"/>
<path d="M47.0689 84.345C47.5479 84.6403 48.0268 84.929 48.5058 85.2242C48.7486 85.3751 48.9782 84.988 48.7289 84.8371C48.2499 84.5418 47.7709 84.2531 47.292 83.9579C47.0492 83.807 46.8195 84.1941 47.0689 84.345Z" fill="#D88185"/>
<path d="M36.4981 90.6111C36.9705 90.8801 37.443 91.1426 37.9154 91.4116C38.1647 91.5559 38.3944 91.1688 38.1385 91.0245C37.666 90.7554 37.1936 90.493 36.7212 90.224C36.4719 90.0796 36.2422 90.4667 36.4981 90.6111Z" fill="#D88185"/>
<path d="M57.6721 66.7372C57.6721 66.7352 57.6733 66.7334 57.6751 66.7327C58.1659 66.5227 58.598 66.2214 58.9647 65.8416C59.1615 65.6316 58.8466 65.3167 58.6497 65.5266C58.3085 65.8875 57.9083 66.1565 57.449 66.3534C57.1876 66.4645 57.4079 66.849 57.669 66.7418C57.6708 66.741 57.6721 66.7392 57.6721 66.7372Z" fill="#D88185"/>
<path d="M58.9478 58.1317C58.9462 58.1317 58.9452 58.1301 58.9458 58.1287C59.1359 57.7034 59.3783 57.3173 59.6925 56.9704C59.8828 56.7538 59.5678 56.4389 59.3775 56.6554C59.0429 57.0294 58.7673 57.4493 58.5639 57.9086C58.4528 58.1701 58.83 58.3924 58.9497 58.1348C58.9503 58.1334 58.9493 58.1317 58.9478 58.1317Z" fill="#D88185"/>
<path d="M70.8271 63.286C70.8271 63.2838 70.8274 63.2816 70.8279 63.2795C70.9527 62.7952 71.1624 62.3632 71.457 61.9573C71.6276 61.7211 71.2405 61.498 71.0699 61.7342C70.7549 62.1672 70.5319 62.6528 70.3941 63.1711C70.3222 63.4456 70.7516 63.5704 70.8263 63.2925C70.8268 63.2904 70.8271 63.2881 70.8271 63.286Z" fill="#D88185"/>
<path d="M68.0063 52.4106C68.2097 51.9972 68.4065 51.5839 68.6099 51.1705C68.7346 50.9146 68.3475 50.6849 68.2228 50.9474C68.0194 51.3608 67.8225 51.7741 67.6191 52.1875C67.4945 52.4434 67.8816 52.673 68.0063 52.4106Z" fill="#D88185"/>
<path d="M65.5784 44.8059C65.7949 44.3663 66.0114 43.9202 66.2279 43.4805C66.3526 43.2246 65.972 42.995 65.8408 43.2575C65.6243 43.6971 65.4078 44.1432 65.1912 44.5829C65.0666 44.8388 65.4471 45.0684 65.5784 44.8059Z" fill="#D88185"/>
<path d="M77.4938 45.961C77.671 45.482 77.8547 45.003 78.0319 44.524C78.1303 44.255 77.7038 44.1369 77.5988 44.4059C77.4217 44.8849 77.2379 45.3639 77.0608 45.8429C76.9624 46.1119 77.3888 46.23 77.4938 45.961Z" fill="#D88185"/>
<path d="M74.961 37.1421C75.1448 36.6631 75.3285 36.1842 75.5122 35.7052C75.6172 35.4362 75.1841 35.3181 75.0792 35.5871C74.8954 36.0661 74.7117 36.545 74.528 37.024C74.423 37.293 74.8561 37.4111 74.961 37.1421Z" fill="#D88185"/>
<path d="M74.4883 28.1528C74.7114 27.8248 74.9345 27.4967 75.1576 27.1621C75.3216 26.9258 74.9345 26.6962 74.7705 26.939C74.5474 27.267 74.3243 27.5951 74.1012 27.9297C73.9372 28.166 74.3243 28.3956 74.4883 28.1528Z" fill="#D88185"/>
<path d="M83.796 25.8922C83.7949 25.8932 83.7932 25.8924 83.7934 25.8909C83.9044 25.1772 83.9369 24.4635 83.8911 23.7368C83.8714 23.4546 83.4252 23.4481 83.4449 23.7368C83.4909 24.4192 83.4712 25.095 83.3662 25.7708C83.3205 26.0514 83.7485 26.1697 83.7984 25.8937C83.7987 25.8922 83.797 25.8912 83.796 25.8922Z" fill="#D88185"/>
<path d="M80.365 20.4373C80.3668 20.4373 80.3682 20.4358 80.3681 20.434C80.3357 19.9693 80.3686 19.5176 80.4799 19.0659C80.5455 18.7838 80.119 18.6657 80.0468 18.9478C79.9287 19.4399 79.8828 19.932 79.9156 20.4373C79.9352 20.7183 80.378 20.7259 80.362 20.4406C80.3619 20.4389 80.3633 20.4373 80.365 20.4373Z" fill="#D88185"/>
<path d="M59.9784 74.4111C59.9776 74.4111 59.9773 74.4122 59.978 74.4126C60.4759 74.6874 61.0064 74.8903 61.563 75.0213C61.8452 75.0869 61.9633 74.6538 61.6812 74.5882C61.1628 74.4701 60.6707 74.2864 60.2048 74.0239C59.9565 73.8867 59.7277 74.2702 59.9788 74.4094C59.9795 74.4099 59.9793 74.4111 59.9784 74.4111Z" fill="#D88185"/>
<path d="M62.6776 86.0706C63.1238 86.5693 63.6815 86.9236 64.3179 87.1204C64.5935 87.2057 64.7116 86.7727 64.436 86.6874C63.8718 86.5102 63.3862 86.1953 62.9925 85.7557C62.8023 85.5391 62.4873 85.8606 62.6776 86.0706Z" fill="#D88185"/>
<path d="M51.0452 94.6925C51.5242 94.909 52.0031 95.119 52.4887 95.3355C52.7511 95.4536 52.9742 95.0665 52.7118 94.9484C52.2328 94.7318 51.7538 94.5219 51.2683 94.3054C51.0058 94.1872 50.7827 94.5744 51.0452 94.6925Z" fill="#D88185"/>
<path d="M68.2358 96.6014C68.6689 96.5948 69.0691 96.6998 69.4431 96.9163C69.6924 97.0607 69.9155 96.6735 69.6662 96.5292C69.2266 96.2733 68.741 96.1421 68.2358 96.1552C67.9471 96.1552 67.9471 96.6079 68.2358 96.6014Z" fill="#D88185"/>
<path d="M74.5738 74.4438C75.0528 74.621 75.5383 74.7916 76.0173 74.9688C76.2863 75.0672 76.4044 74.6341 76.1354 74.5357C75.6564 74.3585 75.1709 74.1879 74.6919 74.0108C74.4229 73.9124 74.3048 74.3454 74.5738 74.4438Z" fill="#D88185"/>
<path d="M78.6484 87.2255C79.357 87.3371 80.046 87.4945 80.7349 87.6979C81.0105 87.7767 81.1286 87.3502 80.853 87.2649C80.1641 87.0615 79.4751 86.904 78.7665 86.7925C78.4843 86.7465 78.3662 87.1796 78.6484 87.2255Z" fill="#D88185"/>
<path d="M86.9758 76.4347C86.9758 76.4365 86.9773 76.438 86.9791 76.438C87.7063 76.4574 88.4204 76.372 89.1214 76.1755C89.397 76.0968 89.2789 75.6637 89.0033 75.7424C88.3406 75.9262 87.6648 76.0114 86.9758 75.9852C86.6882 75.9787 86.6871 76.4213 86.9724 76.4313C86.9743 76.4313 86.9758 76.4328 86.9758 76.4347Z" fill="#D88185"/>
<path d="M95.2654 85.9657C95.2646 85.9657 95.2643 85.9668 95.2651 85.9672C95.8024 86.2412 96.4114 86.2407 96.9419 85.946C97.1912 85.8082 96.9681 85.4211 96.7188 85.5589C96.3317 85.7754 95.8855 85.7819 95.4918 85.5785C95.2369 85.4478 95.0146 85.8314 95.2657 85.9641C95.2664 85.9645 95.2663 85.9657 95.2654 85.9657Z" fill="#D88185"/>
<path d="M16.808 66.4126C17.0377 66.8522 17.3592 67.2393 17.7463 67.5477C17.9694 67.7249 18.2843 67.4099 18.0612 67.2328C17.7004 66.9441 17.4117 66.5963 17.1951 66.1895C17.0639 65.9336 16.6768 66.1633 16.808 66.4126Z" fill="#D88185"/>
<path d="M13.487 60.3429C13.7298 60.6251 13.9266 60.9335 14.0841 61.2681C14.2088 61.524 14.5959 61.3009 14.4712 61.045C14.2941 60.6776 14.071 60.3364 13.802 60.028C13.6182 59.8115 13.3033 60.1264 13.487 60.3429Z" fill="#D88185"/>
<path d="M9.64878 58.5318C9.44538 58.1775 9.30103 57.8101 9.20261 57.4164C9.13043 57.1408 8.69738 57.2589 8.76956 57.5345C8.8811 57.961 9.04514 58.3678 9.26166 58.7549C9.40601 59.0042 9.79314 58.7811 9.64878 58.5318Z" fill="#D88185"/>
<path d="M10.9907 51.5973C10.9925 51.5973 10.9939 51.5958 10.9938 51.594C10.9614 51.1162 11.0009 50.6514 11.1252 50.1866C11.1974 49.911 10.7709 49.7929 10.6922 50.0685C10.5544 50.5671 10.5019 51.0789 10.5413 51.5973C10.5609 51.8783 11.0037 51.8859 10.9877 51.6007C10.9876 51.5989 10.989 51.5973 10.9907 51.5973Z" fill="#D88185"/>
<path d="M16.008 45.0092C16.1721 44.6746 16.3886 44.3793 16.6642 44.1169C16.8742 43.9201 16.5592 43.6051 16.3492 43.8019C16.0474 44.0841 15.8046 44.4187 15.6209 44.7862C15.4963 45.042 15.8768 45.2717 16.008 45.0092Z" fill="#D88185"/>
<path d="M17.1852 40.6002C17.1873 40.6002 17.1894 40.5995 17.1911 40.5983C17.5709 40.3368 17.9703 40.1405 18.4023 40.0031C18.6779 39.9178 18.5598 39.4847 18.2842 39.57C17.8118 39.7209 17.3721 39.9309 16.9588 40.213C16.7235 40.3764 16.9439 40.7611 17.1791 40.6021C17.1808 40.6009 17.183 40.6002 17.1852 40.6002Z" fill="#D88185"/>
<path d="M23.3169 38.6312C23.6843 38.4868 24.0583 38.3491 24.4258 38.2047C24.6948 38.1063 24.5767 37.6732 24.3076 37.7717C23.9402 37.916 23.5662 38.0538 23.1988 38.1981C22.9298 38.2966 23.0479 38.7296 23.3169 38.6312Z" fill="#D88185"/>
</g>
</g>
</svg>
