<svg width="40" height="40" viewBox="0 0 40 40" fill="none" xmlns="http://www.w3.org/2000/svg">
<path fill-rule="evenodd" clip-rule="evenodd" d="M31.7858 31.7831C26.6922 36.8773 19.1498 37.9778 12.9775 35.1234C12.0663 34.7565 11.3193 34.46 10.6091 34.46C8.63098 34.4717 6.16877 36.3898 4.8891 35.1116C3.60942 33.8318 5.52893 31.3677 5.52893 29.3776C5.52893 28.6673 5.24419 27.9336 4.87737 27.0207C2.02155 20.8494 3.12368 13.3045 8.21726 8.21202C14.7195 1.7074 25.2835 1.7074 31.7858 8.21035C38.2997 14.725 38.288 25.2802 31.7858 31.7831Z" stroke="#2E3758" stroke-width="4.17" stroke-linecap="round" stroke-linejoin="round"/>
<path d="M26.5661 20.6883H26.5811" stroke="#2E3758" stroke-width="4.17" stroke-linecap="round" stroke-linejoin="round"/>
<path d="M19.8839 20.6883H19.8989" stroke="#2E3758" stroke-width="4.17" stroke-linecap="round" stroke-linejoin="round"/>
<path d="M13.2023 20.6883H13.2173" stroke="#2E3758" stroke-width="4.17" stroke-linecap="round" stroke-linejoin="round"/>
</svg>
