<svg width="40" height="40" viewBox="0 0 40 40" fill="none" xmlns="http://www.w3.org/2000/svg">
<path fill-rule="evenodd" clip-rule="evenodd" d="M31.7856 31.783C26.6921 36.8772 19.1497 37.9777 12.9774 35.1233C12.0662 34.7564 11.3192 34.4599 10.609 34.4599C8.63086 34.4716 6.16865 36.3897 4.88897 35.1116C3.6093 33.8317 5.52881 31.3676 5.52881 29.3775C5.52881 28.6672 5.24407 27.9335 4.87725 27.0206C2.02143 20.8493 3.12356 13.3044 8.21714 8.21193C14.7194 1.70731 25.2834 1.70731 31.7856 8.21025C38.2996 14.7249 38.2879 25.2801 31.7856 31.783Z" stroke="white" stroke-width="4.17" stroke-linecap="round" stroke-linejoin="round"/>
<path d="M26.5657 20.6883H26.5807" stroke="white" stroke-width="4.17" stroke-linecap="round" stroke-linejoin="round"/>
<path d="M19.8841 20.6883H19.8991" stroke="white" stroke-width="4.17" stroke-linecap="round" stroke-linejoin="round"/>
<path d="M13.2024 20.6883H13.2174" stroke="white" stroke-width="4.17" stroke-linecap="round" stroke-linejoin="round"/>
</svg>
