<svg width="97" height="97" viewBox="0 0 97 97" fill="none" xmlns="http://www.w3.org/2000/svg">
<circle cx="48.5" cy="48.5002" r="48.3" fill="#4349FF"/>
<mask id="mask0_33_10977" style="mask-type:alpha" maskUnits="userSpaceOnUse" x="0" y="0" width="97" height="97">
<circle cx="48.3" cy="48.3" r="48.3" fill="#4349FF"/>
</mask>
<g mask="url(#mask0_33_10977)">
<mask id="mask1_33_10977" style="mask-type:alpha" maskUnits="userSpaceOnUse" x="4" y="-5" width="118" height="126">
<rect x="4.83008" y="-4.82996" width="116.61" height="125.58" rx="30" fill="#D9D9D9"/>
</mask>
<g mask="url(#mask1_33_10977)">
<g clip-path="url(#clip0_33_10977)">
<path d="M17.2084 75.3966C14.6789 76.4443 12.4113 78.1122 10.6606 80.2144C10.9088 80.4005 11.2534 80.242 11.5222 80.0834C13.1488 79.1047 14.7547 78.0364 16.5537 77.423C16.788 77.3403 17.0361 77.2644 17.2015 77.0784C17.429 76.8302 17.4428 76.4443 17.3532 76.1203L17.2015 75.3966H17.2084Z" fill="#3A3B3C"/>
<path d="M18.6765 78.6082C16.5192 80.2899 14.7754 82.5024 13.645 84.9905C13.9345 85.1008 14.224 84.8596 14.4376 84.639C15.7472 83.2605 17.0085 81.8062 18.58 80.7379C18.7868 80.6001 19.0004 80.4553 19.1176 80.2348C19.2692 79.9315 19.1796 79.5593 19.0142 79.2698L18.6765 78.6082Z" fill="#3A3B3C"/>
<path d="M17.6286 77.2576C15.2576 78.6223 13.2312 80.5797 11.77 82.8956C12.0388 83.0472 12.3628 82.8473 12.604 82.6543C14.0859 81.4688 15.5402 80.2006 17.2426 79.3598C17.4632 79.2495 17.6975 79.1392 17.8422 78.9324C18.0352 78.6567 18.0008 78.2708 17.8698 77.9606L17.6286 77.2576Z" fill="#3A3B3C"/>
<path d="M46.4261 54.5745C45.6611 53.4304 44.5859 52.5206 43.6347 51.5281C42.7387 52.2587 41.76 52.8997 40.8915 53.6716C40.3332 54.1679 39.8577 55.1535 40.4987 55.5395C38.5481 58.2137 36.0668 60.502 33.241 62.232C32.152 62.9006 31.0009 63.4933 30.0498 64.348C29.8499 64.5272 29.6569 64.7202 29.4363 64.8787C29.1331 65.0923 28.7816 65.2302 28.4369 65.368C24.0051 67.1945 20.042 70.1307 17.0093 73.8457C16.4235 74.5625 15.8583 75.3414 15.6929 76.2512C15.3896 77.9398 16.6302 79.6284 18.2017 80.3039C19.7801 80.9862 21.5859 80.8553 23.2607 80.4969C23.6674 81.2137 24.7357 81.0621 25.5077 80.7795C28.561 79.6491 31.4007 77.9398 33.8268 75.7687C34.6746 76.2374 35.7222 76.0099 36.6458 75.7204C40.1265 74.6177 43.359 72.7429 46.0539 70.2754C47.329 69.1106 48.5076 67.7942 50.0309 66.9809C50.1756 66.905 50.3272 66.8361 50.472 66.7672C49.7621 63.638 48.8729 60.5571 47.7839 57.5383C47.4186 56.5113 47.0189 55.4843 46.4123 54.5745H46.4261Z" fill="#FEB2B6"/>
<path d="M56.9996 65.3336L46.1234 47.4478C46.089 48.8469 45.2205 50.1082 44.1866 51.0594C44.0074 51.2248 43.8213 51.3764 43.6353 51.5281C44.5864 52.5206 45.6616 53.4304 46.4267 54.5745C47.0332 55.4843 47.4261 56.5113 47.7983 57.5382C48.8804 60.5571 49.7764 63.638 50.4863 66.7672C51.8234 66.1607 53.3053 65.9194 54.7596 65.692C55.504 65.5748 56.2553 65.4576 56.9996 65.3405V65.3336Z" fill="#D88185"/>
<path d="M84.6161 101.367C84.6505 98.1827 84.0509 95.026 83.2445 91.9451C81.418 84.9424 78.5301 78.2085 74.7185 72.0536C72.2304 68.0353 69.2322 64.1618 65.1174 61.8459C61.3197 59.7093 56.3985 59.1717 52.6146 61.2187C53.6071 63.9757 54.3653 66.8016 54.3721 69.7171L54.5169 70.9301C53.7243 74.3901 52.2769 77.664 51.2292 81.0551C50.5055 83.3985 49.9679 85.7971 49.4372 88.1956C48.555 92.1587 47.6658 96.1908 47.9622 100.237C48.0932 102.049 48.4653 103.834 48.8858 105.599C49.4716 108.066 50.1678 110.541 51.4084 112.753C52.649 114.966 54.4893 116.923 56.8396 117.874C57.8735 118.295 59.0038 118.529 59.8723 119.225C60.2789 119.556 60.6029 119.97 60.9613 120.342C63.2634 122.761 66.8819 123.492 70.2109 123.216C73.3814 122.954 76.4279 121.906 79.5157 121.114C80.1911 119.322 80.8114 117.502 81.418 115.683C82.9757 111.023 84.554 106.268 84.6092 101.353L84.6161 101.367Z" fill="#FFE5B8"/>
<path d="M143.588 37.8948C142.161 35.8891 139.48 35.2619 137.02 35.1585C135.207 35.0827 133.394 35.2136 131.588 35.3446C126.081 35.7374 120.581 36.1372 115.074 36.5301C115.185 35.6961 114.544 34.9172 113.772 34.5864C113 34.2556 112.131 34.2694 111.297 34.29C106.948 34.3934 102.585 34.4968 98.305 35.255C98.3257 35.634 98.0225 36.0476 97.6709 35.9166L98.1603 35.2756C98.2085 35.2687 98.2568 35.2619 98.305 35.255C98.305 35.1791 98.2844 35.1033 98.2499 35.0344C98.05 34.6278 97.5744 34.4554 97.1402 34.3245C92.3914 32.8702 87.0911 31.9673 83.7483 28.3005C83.1073 27.5906 82.5628 26.8049 81.9631 26.0605C80.7845 24.5786 79.4129 23.2691 78.0276 21.9802C75.436 19.5678 72.7273 17.1968 69.5223 15.6874C66.5104 14.2676 63.1813 13.6679 59.8592 13.4129C55.772 13.0959 51.4987 13.3164 47.8319 15.1567L44.3168 16.1768C42.4903 17.8861 41.0015 19.9262 39.5197 21.9457C38.2859 23.6275 37.0384 25.3506 36.3698 27.3218C35.722 29.2241 35.6599 31.2574 36.0114 33.2424C36.2389 32.8357 36.5008 32.4429 36.7696 32.0707C39.4163 28.3694 42.6833 25.1162 46.3914 22.4902C48.3764 21.0842 50.5337 19.8366 52.9185 19.368C55.3033 18.8993 57.9569 19.299 59.7902 20.8912C60.2796 21.3185 60.7069 21.8148 61.0791 22.3455C61.8442 23.4276 62.43 24.6613 62.5955 25.9709C62.9056 28.459 61.7063 30.8921 60.2727 32.9529C56.2131 38.7977 50.2098 42.9055 43.8964 46.2966C44.0411 46.4551 44.1927 46.6206 44.3375 46.7791C45.8814 48.4677 47.4322 50.1632 48.6245 52.1138C49.6377 53.768 50.3683 55.5738 51.0989 57.3727C51.6159 58.6478 52.1397 59.9367 52.6015 61.2394C56.3854 59.1923 61.3066 59.7299 65.1043 61.8666C69.2191 64.1824 72.2173 68.0628 74.7054 72.0742C78.5169 78.2292 81.398 84.9561 83.2313 91.9657C84.0378 95.0466 84.6374 98.2034 84.6029 101.388C84.5478 106.302 82.9694 111.058 81.4117 115.717C80.8052 117.537 80.1918 119.356 79.5094 121.148C79.6611 121.107 79.8058 121.072 79.9574 121.031L79.923 121.169C78.9994 122.92 78.6065 124.939 78.7926 126.91C83.8792 126.945 88.9658 126.876 94.0524 126.717C94.5831 126.703 95.1483 126.669 95.5688 126.345C96.0512 125.966 96.1891 125.311 96.3269 124.712C97.733 118.522 102.096 113.208 102.916 106.915L102.447 106.509C103.364 106.488 104.212 105.937 104.77 105.213C105.328 104.489 105.652 103.607 105.907 102.725C106.996 98.9546 107.107 94.9088 106.211 91.0835C106.114 90.6631 106.004 90.2082 106.149 89.8015C106.245 89.5258 106.452 89.2984 106.624 89.0571C107.396 87.9475 107.417 86.5 107.389 85.1491C107.293 80.5932 106.969 76.0443 106.411 71.5228C106.376 71.2609 106.348 70.9921 106.362 70.7302C106.383 70.4407 106.466 70.1581 106.535 69.8755C107.313 66.6844 106.355 63.314 104.984 60.3227C103.612 57.3383 101.82 54.5261 100.786 51.4108L100.945 51.1144C104.632 51.7209 108.389 51.9622 112.124 51.8312C112.021 51.6589 111.918 51.4866 111.814 51.3143C119.927 52.8789 121.891 51.7416 122.642 50.3425L122.932 50.7146C125.013 50.949 127.108 50.6113 129.176 50.2735C130.224 50.1012 131.271 49.9289 132.319 49.7635C134.483 49.412 136.661 49.0536 138.695 48.2265C140.721 47.3994 142.616 46.0554 143.678 44.1393C144.746 42.2232 144.843 39.6937 143.574 37.9085L143.588 37.8948Z" fill="#FEB2B6"/>
<path d="M58.314 26.7569C56.7632 26.9637 54.985 26.9499 53.8753 25.8471C52.7174 24.7099 52.7381 22.7662 53.4687 21.3188C53.8822 20.4986 54.4819 19.8094 55.1504 19.1684C54.406 19.1408 53.6479 19.2028 52.9242 19.3476C50.5394 19.8163 48.3821 21.0638 46.3971 22.4698C42.6889 25.0958 39.4219 28.3491 36.7753 32.0503C36.5064 32.4225 36.2445 32.8154 36.0171 33.222C36.148 33.9871 36.3479 34.7383 36.5961 35.4827C37.4576 34.7866 38.3743 34.1732 39.4219 33.8423C40.9658 33.353 42.8888 33.6631 43.8193 34.9865C44.7222 36.2684 44.4396 38.0191 43.9778 39.5148C43.5712 40.8243 43.0473 42.127 42.1582 43.1746C41.9928 43.3676 41.8136 43.5468 41.6275 43.7191C42.365 44.5876 43.1301 45.4354 43.8951 46.2762C50.2086 42.8921 56.2119 38.7773 60.2715 32.9325C61.7051 30.8717 62.9044 28.4456 62.5942 25.9505C62.5735 25.7575 62.5322 25.5714 62.4908 25.3853C62.3943 25.4474 62.3047 25.5094 62.2083 25.5714C61.0296 26.2676 59.6581 26.5777 58.3003 26.7569H58.314Z" fill="#FFE5B8"/>
<path d="M59.7958 20.8777C58.5207 19.7749 56.8527 19.2442 55.1503 19.1753C54.4817 19.8094 53.8821 20.5055 53.4685 21.3257C52.731 22.7731 52.7172 24.7168 53.8752 25.854C54.9917 26.9568 56.7631 26.9706 58.3139 26.7638C59.6717 26.5846 61.0433 26.2745 62.2219 25.5783C62.3184 25.5232 62.408 25.4543 62.5045 25.3922C62.2632 24.2895 61.7463 23.2556 61.0915 22.332C60.7124 21.8013 60.292 21.305 59.8026 20.8777H59.7958Z" fill="#E25243"/>
<path d="M42.165 43.1817C43.0472 42.1341 43.5779 40.8314 43.9846 39.5219C44.4463 38.0262 44.722 36.2755 43.826 34.9935C42.8956 33.6633 40.9726 33.36 39.4287 33.8494C38.381 34.1802 37.4643 34.7937 36.6028 35.4898C36.8923 36.3582 37.2438 37.1991 37.6573 38.0055C38.7256 40.0801 40.1248 41.948 41.6411 43.7262C41.8272 43.5539 42.0064 43.3747 42.1719 43.1817H42.165Z" fill="#E25243"/>
<path d="M47.4869 18.1068C47.8384 18.8236 48.2657 19.4991 48.7 20.1676C49.2789 21.0636 49.8717 21.9459 50.4851 22.8212C54.2346 19.8644 58.0254 16.6111 61.8507 13.1098C58.4665 10.9387 56.1989 8.21618 52.2909 7.2926C49.9475 6.73431 47.48 6.67917 45.1228 7.14096C45.2262 8.9192 45.5432 10.6974 45.8741 12.455C46.2394 14.3849 46.6253 16.3423 47.4938 18.1068H47.4869Z" fill="#4EB0A9"/>
<path d="M48.6998 20.1675C48.2656 19.499 47.8383 18.8235 47.4868 18.1067C46.6183 16.3422 46.2324 14.3848 45.8671 12.4549C45.5362 10.6974 45.2192 8.91911 45.1158 7.14087C44.2473 7.31318 43.3927 7.54752 42.5656 7.86457C39.4847 9.04318 35.5974 11.7726 33.957 14.6329C33.5572 15.3359 33.2264 16.0803 32.9507 16.8385C34.791 18.3962 36.3349 20.3398 37.8374 22.249C38.8644 23.5517 39.8913 24.8613 40.8356 26.226C41.3939 27.0324 41.9246 27.8664 42.476 28.6797C45.1227 26.8945 47.79 24.9302 50.4781 22.8142C49.8716 21.9389 49.2719 21.0567 48.693 20.1606L48.6998 20.1675Z" fill="#E86B53"/>
<path d="M37.8381 22.249C36.3355 20.3398 34.7916 18.3962 32.9513 16.8385C32.3586 18.4789 32.0553 20.2227 32.0209 21.9733C31.945 25.902 33.2891 29.9272 36.0529 32.7186L36.3562 32.5118C38.3826 31.347 40.4227 30.065 42.4835 28.6797C41.9321 27.8664 41.4014 27.0324 40.8431 26.226C39.8989 24.8613 38.8719 23.5517 37.8449 22.249H37.8381Z" fill="#4EB0A9"/>
<path d="M49.1552 30.127C48.5142 30.575 47.8456 31.0437 47.4734 31.7399C47.1012 32.436 47.0875 33.4354 47.6733 34.0971C48.1971 34.6829 49.0518 34.8552 49.741 34.6898C50.4372 34.5244 51.0024 34.0833 51.5193 33.6215C52.1741 33.0356 52.8013 32.4015 53.2148 31.6089C53.332 31.3883 53.4285 31.154 53.4492 30.8921C53.4974 30.2235 52.9598 29.5205 52.3119 29.2517C51.664 28.9829 50.9472 29.0863 50.3751 29.3827C50.3751 29.3827 49.4585 29.9065 49.1552 30.1201V30.127Z" fill="#3A3B3C"/>
<path d="M45.6814 35.2204C45.8951 35.4961 45.6125 36.0682 45.0611 36.4886C44.5028 36.909 43.8825 37.0262 43.6757 36.7505C43.462 36.4748 43.7446 35.9027 44.296 35.4823C44.8543 35.0619 45.4746 34.9447 45.6814 35.2204Z" fill="#E86B53"/>
<path d="M43.3102 30.8028C43.2689 30.7477 43.2206 30.6994 43.1517 30.6581C42.3797 30.1411 40.6635 30.5754 40.1535 31.2784C39.9674 31.5334 39.9812 31.7884 40.1052 32.0021C40.1948 32.4156 40.7531 32.5948 41.1598 32.5535C41.1667 32.5535 41.1736 32.5535 41.1805 32.5535C41.4768 32.5466 41.849 32.4708 42.1592 32.3329C42.6141 32.1744 43.0345 31.9263 43.2895 31.5403C43.4412 31.3059 43.4825 31.0234 43.3171 30.8028H43.3102Z" fill="#FEB2B6"/>
<path d="M38.4786 36.6544C38.7198 36.6751 38.9679 36.6958 39.2092 36.7165C39.4642 36.7372 39.4918 36.3374 39.2367 36.3167C38.9955 36.296 38.7474 36.2754 38.5061 36.2547C38.2511 36.234 38.2236 36.6338 38.4786 36.6544Z" fill="#3C3C3D"/>
<path d="M39.2499 35.124C39.3946 35.2826 39.5462 35.4342 39.691 35.5927C39.8702 35.7788 40.1666 35.5169 39.9874 35.3239C39.8426 35.1654 39.691 35.0138 39.5462 34.8552C39.367 34.6691 39.0707 34.931 39.2499 35.124Z" fill="#3C3C3D"/>
<path d="M40.8158 34.3937C40.7744 34.6281 40.7331 34.8624 40.6917 35.1037C40.6504 35.3587 41.0501 35.3862 41.0915 35.1312C41.1328 34.8969 41.1742 34.6625 41.2155 34.4213C41.2569 34.1663 40.8571 34.1387 40.8158 34.3937Z" fill="#3C3C3D"/>
<path d="M42.3251 35.586C42.9523 36.3856 42.8076 37.5435 42.0081 38.1707C41.2085 38.7979 40.0506 38.6532 39.4234 37.8536C38.7962 37.0541 38.9409 35.8962 39.7405 35.269C40.54 34.6418 41.6979 34.7865 42.3251 35.586Z" fill="white"/>
<path d="M42.0209 35.8206C42.5171 36.4547 42.4069 37.3714 41.7728 37.8677C41.1387 38.3639 40.222 38.2537 39.7257 37.6196C39.2295 36.9855 39.3397 36.0688 39.9738 35.5725C40.6079 35.0763 41.5246 35.1865 42.0209 35.8206Z" fill="#3C3C3D"/>
<path d="M41.0974 36.1374C41.2284 36.3028 41.2008 36.5509 41.0285 36.6819C40.8631 36.8128 40.6149 36.7853 40.484 36.613C40.353 36.4407 40.3806 36.1994 40.5529 36.0685C40.7183 35.9375 40.9665 35.9651 41.0974 36.1374Z" fill="white"/>
<path d="M54.421 23.283C54.6622 23.3037 54.9103 23.3243 55.1516 23.345C55.4066 23.3657 55.4341 22.9659 55.1791 22.9453C54.9379 22.9246 54.6898 22.9039 54.4485 22.8832C54.1935 22.8625 54.1659 23.2623 54.421 23.283Z" fill="#3C3C3D"/>
<path d="M55.1923 21.7531C55.337 21.9116 55.4886 22.0632 55.6334 22.2217C55.8126 22.4078 56.1089 22.1459 55.9297 21.9529C55.785 21.7944 55.6334 21.6428 55.4886 21.4843C55.3094 21.2982 55.0131 21.5601 55.1923 21.7531Z" fill="#3C3C3D"/>
<path d="M56.7499 21.0223C56.7085 21.2566 56.6672 21.491 56.6258 21.7322C56.5844 21.9872 56.9842 22.0148 57.0256 21.7598C57.0669 21.5254 57.1083 21.2911 57.1496 21.0498C57.191 20.7948 56.7912 20.7673 56.7499 21.0223Z" fill="#3C3C3D"/>
<path d="M58.2607 22.2146C58.8879 23.0141 58.7431 24.172 57.9436 24.7992C57.1441 25.4264 55.9862 25.2817 55.359 24.4822C54.7317 23.6827 54.8765 22.5247 55.676 21.8975C56.4755 21.2703 57.6335 21.4151 58.2607 22.2146Z" fill="white"/>
<path d="M57.963 22.4492C58.4593 23.0833 58.349 24 57.7149 24.4962C57.0808 24.9925 56.1641 24.8822 55.6679 24.2481C55.1716 23.614 55.2819 22.6973 55.916 22.2011C56.5501 21.7048 57.4668 21.8151 57.963 22.4492Z" fill="#3C3C3D"/>
<path d="M57.033 22.7659C57.1639 22.9313 57.1363 23.1795 56.964 23.3104C56.7986 23.4414 56.5505 23.4138 56.4195 23.2415C56.2886 23.0761 56.3161 22.828 56.4885 22.697C56.6539 22.566 56.902 22.5936 57.033 22.7659Z" fill="white"/>
<path d="M50.4361 26.4327C50.381 26.3982 50.3259 26.35 50.2776 26.288C49.7055 25.5574 50.0226 23.8136 50.6774 23.2553C50.9186 23.0554 51.1736 23.0485 51.4011 23.1519C51.8146 23.2071 52.0421 23.7516 52.0283 24.1582C52.0283 24.1651 52.0283 24.172 52.0283 24.1789C52.0421 24.4753 51.9938 24.8543 51.8767 25.1714C51.7526 25.6401 51.532 26.0743 51.1667 26.35C50.9393 26.5223 50.6636 26.5774 50.4361 26.4258V26.4327Z" fill="#FEB2B6"/>
<path d="M56.3645 26.1021C56.5782 26.3778 56.2956 26.9499 55.7442 27.3703C55.1859 27.7907 54.5656 27.9079 54.3588 27.6322C54.1451 27.3565 54.4277 26.7845 54.9791 26.364C55.5305 25.9436 56.1577 25.8264 56.3645 26.1021Z" fill="#E86B53"/>
<path d="M54.8136 33.5527C55.303 32.5947 56.0543 31.8503 57.0123 31.3609C57.2811 31.2231 57.0468 30.8164 56.778 30.9543C55.7579 31.4781 54.9377 32.2914 54.4139 33.3184C54.276 33.5872 54.6827 33.8215 54.8205 33.5527H54.8136Z" fill="#3A3B3C"/>
<path d="M41.9664 18.0585C41.7734 17.128 41.1048 16.3009 40.2295 15.9219C40.0709 15.8529 39.8711 15.7978 39.7263 15.8943C39.5264 16.0184 39.554 16.3147 39.6091 16.5422C39.7952 17.2866 40.0778 18.0034 40.45 18.6719C39.9055 18.858 39.3886 19.1268 38.9199 19.4646C38.6373 19.6713 38.3409 19.9608 38.3823 20.3123C38.4168 20.6156 38.7062 20.843 39.0095 20.8844C39.3128 20.9258 39.616 20.8155 39.878 20.6776C40.2157 20.4984 40.5121 20.2572 40.7671 19.9746C40.6361 20.588 40.6223 21.2221 40.7119 21.8356C40.7395 22.0148 40.7809 22.2077 40.9049 22.3387C41.091 22.5317 41.4012 22.5455 41.6562 22.4628C42.4902 22.1871 42.7797 21.0981 42.5591 20.2503C43.0209 20.4915 43.5309 20.6432 44.0548 20.6845C44.3718 20.7121 44.744 20.6845 44.937 20.4226C45.2058 20.0711 44.937 19.5404 44.5648 19.3198C44.1857 19.0924 43.7308 19.0579 43.3173 18.9132C43.6274 18.4996 43.9445 18.093 44.2546 17.6794C44.4407 17.4382 44.6199 17.0867 44.4201 16.8523C44.2891 16.7076 44.0685 16.7007 43.8687 16.7283C43.1725 16.8179 42.5177 17.1832 42.0697 17.7208L41.9595 18.0654L41.9664 18.0585Z" fill="#FFE5B8"/>
<path d="M59.638 15.4186C60.3066 14.7362 60.8029 13.5232 59.8655 12.8063C58.997 12.1516 57.5427 12.124 56.7846 12.9511C56.1091 13.6955 56.178 14.8534 56.9017 15.5426C57.6668 16.2663 58.8523 16.1492 59.5553 15.4186C59.9758 14.9843 59.3141 14.3158 58.8937 14.7569C58.0804 15.6047 56.695 14.5501 57.4531 13.6196C57.8391 13.1441 58.4457 13.2544 58.9626 13.4198C59.7414 13.6679 59.3899 14.3365 58.9764 14.7569C58.5559 15.1911 59.2176 15.8528 59.638 15.4186Z" fill="#3A3B3C"/>
<path d="M58.2598 14.6466C58.8664 14.6466 58.8664 13.7092 58.2598 13.7092C57.6533 13.7092 57.6533 14.6466 58.2598 14.6466Z" fill="#3A3B3C"/>
<path d="M66.0003 17.2178C66.6137 17.9967 67.2823 18.7204 68.006 19.3889C68.2265 19.5957 68.5643 19.2649 68.3368 19.0581C67.6062 18.3895 66.9377 17.6658 66.3311 16.887C66.145 16.6526 65.8142 16.9835 66.0003 17.2178Z" fill="#D88185"/>
<path d="M67.0057 25.7984C67.495 26.4325 67.9913 27.0667 68.4806 27.7008C68.6667 27.942 68.9976 27.6043 68.8115 27.3699C68.3221 26.7358 67.8259 26.1017 67.3365 25.4676C67.1504 25.2264 66.8196 25.5641 67.0057 25.7984Z" fill="#D88185"/>
<path d="M78.1647 28.2182C78.5783 28.7902 78.9849 29.3692 79.3985 29.9413C79.5708 30.1825 79.9774 29.9482 79.8051 29.7069C79.3916 29.1348 78.9849 28.5559 78.5714 27.9838C78.3991 27.7426 77.9924 27.9769 78.1647 28.2182Z" fill="#D88185"/>
<path d="M61.4643 34.7243C61.8434 35.2275 62.2225 35.7375 62.6015 36.2407C62.7807 36.4819 63.1874 36.2407 63.0082 36.0063C62.6291 35.5032 62.25 34.9931 61.8709 34.49C61.6917 34.2488 61.2851 34.49 61.4643 34.7243Z" fill="#D88185"/>
<path d="M73.478 36.5714C73.7399 37.1779 74.0363 37.7569 74.3809 38.3152C74.5394 38.5702 74.9461 38.3358 74.7876 38.0808C74.4429 37.5225 74.1466 36.9367 73.8847 36.337C73.7675 36.0613 73.3608 36.3026 73.478 36.5714Z" fill="#D88185"/>
<path d="M60.7128 46.1726C61.216 46.848 61.7812 47.4683 62.4221 48.0266C62.6496 48.2265 62.9804 47.8957 62.753 47.6958C62.1465 47.1651 61.6019 46.5861 61.1195 45.9382C60.9403 45.697 60.5336 45.9382 60.7128 46.1726Z" fill="#D88185"/>
<path d="M52.2557 42.8987L53.1931 44.4151C53.3516 44.6701 53.7583 44.4357 53.5998 44.1807C53.2896 43.6776 52.9726 43.1675 52.6624 42.6644C52.5039 42.4094 52.0972 42.6437 52.2557 42.8987Z" fill="#D88185"/>
<path d="M54.5107 52.8928C54.8416 53.3821 55.1173 53.906 55.3378 54.4505C55.4481 54.7262 55.903 54.609 55.7927 54.3264C55.5584 53.7406 55.2689 53.1823 54.9174 52.6584C54.752 52.4103 54.3453 52.6447 54.5107 52.8928Z" fill="#D88185"/>
<path d="M72.493 49.9153C72.7549 50.4322 73.0237 50.9422 73.2856 51.4592C73.4234 51.728 73.8301 51.4936 73.6922 51.2248C73.4303 50.7079 73.1615 50.1978 72.8996 49.6809C72.7618 49.4121 72.3551 49.6465 72.493 49.9153Z" fill="#D88185"/>
<path d="M85.9949 38.4256C86.5256 38.8805 87.0563 39.3423 87.5871 39.7972C87.8145 39.9971 88.1453 39.6662 87.9179 39.4663C87.3872 39.0114 86.8565 38.5496 86.3257 38.0947C86.0983 37.8949 85.7675 38.2257 85.9949 38.4256Z" fill="#D88185"/>
<path d="M86.4638 52.1623C86.9393 52.948 87.4907 53.6855 88.1041 54.3748C88.304 54.6022 88.6349 54.2645 88.435 54.0439C87.8422 53.3891 87.3253 52.6861 86.8704 51.9279C86.7119 51.6729 86.3052 51.9073 86.4638 52.1623Z" fill="#D88185"/>
<path d="M73.3127 63.0659C73.6848 63.576 74.0501 64.0929 74.4223 64.6029C74.5946 64.8442 75.0082 64.6098 74.829 64.3686C74.4568 63.8586 74.0915 63.3416 73.7193 62.8316C73.547 62.5904 73.1335 62.8247 73.3127 63.0659Z" fill="#D88185"/>
<path d="M85.4223 65.43C85.6291 65.9124 85.7601 66.4225 85.8152 66.9394C85.8497 67.2358 86.3184 67.2427 86.2839 66.9394C86.215 66.3329 86.0633 65.7539 85.829 65.1956C85.7118 64.9199 85.3052 65.1543 85.4223 65.43Z" fill="#D88185"/>
<path d="M94.0797 69.7515C94.3416 70.4614 94.5139 71.1852 94.5966 71.9364C94.6311 72.2328 95.0998 72.2397 95.0653 71.9364C94.9757 71.1438 94.8034 70.3787 94.5277 69.6275C94.4243 69.3449 93.9694 69.4689 94.0728 69.7515H94.0797Z" fill="#D88185"/>
<path d="M79.0332 73.1218C79.5915 73.811 80.0808 74.5485 80.515 75.3274C80.6598 75.5893 81.0664 75.355 80.9217 75.093C80.4737 74.2797 79.9499 73.5147 79.3709 72.7979C79.1779 72.5635 78.854 72.8944 79.0401 73.1287L79.0332 73.1218Z" fill="#D88185"/>
<path d="M89.6549 80.9795C89.7721 81.6894 89.8893 82.3993 90.0133 83.1161C90.0616 83.4125 90.5165 83.2884 90.4682 82.992C90.3511 82.2821 90.2339 81.5722 90.1098 80.8554C90.0616 80.559 89.6067 80.6831 89.6549 80.9795Z" fill="#D88185"/>
<path d="M86.2839 91.0146C86.3252 91.7314 86.3666 92.4413 86.4079 93.1581C86.4286 93.4614 86.8973 93.4614 86.8766 93.1581C86.8353 92.4413 86.7939 91.7314 86.7526 91.0146C86.7319 90.7113 86.2632 90.7113 86.2839 91.0146Z" fill="#D88185"/>
<path d="M42.3933 56.2219C42.0832 56.8216 41.7248 57.3798 41.2974 57.8968C41.1044 58.1311 41.4353 58.462 41.6283 58.2276C42.0832 57.6762 42.476 57.0904 42.8 56.4563C42.9378 56.1875 42.5312 55.9531 42.3933 56.2219Z" fill="#D88185"/>
<path d="M46.9976 58.7029C46.4462 59.2061 45.9017 59.7092 45.3503 60.2124C45.1298 60.4191 45.4606 60.75 45.6812 60.5432C46.2326 60.04 46.7771 59.5369 47.3284 59.0337C47.549 58.827 47.2182 58.4961 46.9976 58.7029Z" fill="#D88185"/>
<path d="M42.4421 68.5246C42.9866 68.0146 43.5862 67.5941 44.241 67.2426C44.5098 67.0979 44.2686 66.6981 44.0067 66.836C43.3174 67.2013 42.6833 67.6562 42.1181 68.1869C41.8976 68.3937 42.2284 68.7245 42.449 68.5177L42.4421 68.5246Z" fill="#D88185"/>
<path d="M39.2438 64.5959C39.7263 64.2995 40.2019 63.9963 40.6843 63.6999C40.9394 63.5414 40.705 63.1347 40.45 63.2932C39.9675 63.5896 39.492 63.8929 39.0095 64.1892C38.7545 64.3478 38.9888 64.7544 39.2438 64.5959Z" fill="#D88185"/>
<path d="M32.4067 65.0025C32.8685 64.7061 33.3579 64.4787 33.8748 64.3064C34.1643 64.2168 34.0402 63.7619 33.7507 63.8515C33.1925 64.0307 32.6617 64.2788 32.1655 64.5958C31.9105 64.7613 32.1448 65.161 32.3998 65.0025H32.4067Z" fill="#D88185"/>
<path d="M32.7997 70.7924C33.3649 70.4478 33.9783 70.2341 34.64 70.1652C34.9364 70.1307 34.9433 69.662 34.64 69.6965C33.8956 69.7723 33.2064 69.9998 32.5654 70.3858C32.3104 70.5443 32.5447 70.9509 32.7997 70.7924Z" fill="#D88185"/>
<path d="M38.5678 73.9973C39.0502 73.8112 39.5327 73.6182 40.0152 73.4321C40.2909 73.3218 40.1737 72.8669 39.8911 72.9772C39.4086 73.1633 38.9262 73.3563 38.4437 73.5424C38.168 73.6526 38.2852 74.1075 38.5678 73.9973Z" fill="#D88185"/>
<path d="M24.0317 71.3026C24.6038 70.9235 25.1827 70.5444 25.7548 70.1653C26.0029 69.9999 25.7686 69.5932 25.5205 69.7587C24.9484 70.1377 24.3694 70.5168 23.7974 70.8959C23.5492 71.0613 23.7836 71.468 24.0317 71.3026Z" fill="#D88185"/>
<path d="M27.2923 77.0988C27.9402 76.8024 28.595 76.506 29.2429 76.2165C29.5186 76.0925 29.2773 75.6858 29.0085 75.8099C28.3607 76.1063 27.7059 76.4026 27.058 76.6921C26.7823 76.8162 27.0235 77.2228 27.2923 77.0988Z" fill="#D88185"/>
<path d="M19.8546 77.0229C20.3715 76.7954 20.8884 76.5749 21.3985 76.3474C21.6742 76.2303 21.433 75.8236 21.1641 75.9408C20.6472 76.1682 20.1303 76.3888 19.6202 76.6162C19.3445 76.7334 19.5858 77.1401 19.8546 77.0229Z" fill="#D88185"/>
<path d="M95.2508 45.5592C96.2433 45.8142 97.2496 45.9796 98.2765 46.0692C98.5798 46.0968 98.5729 45.6281 98.2765 45.6005C97.2978 45.5178 96.3329 45.3524 95.3748 45.1112C95.0853 45.0353 94.9544 45.4902 95.2508 45.566V45.5592Z" fill="#D88185"/>
<path d="M59.2106 15.5152C60.3824 17.1004 61.5679 18.6788 62.7327 20.2709C63.9802 21.9872 64.5178 23.5448 64.5867 25.6953C64.7108 29.4654 63.9733 32.7531 61.8229 35.896C59.8654 38.7495 57.205 41.0791 54.6065 43.333C53.2487 44.5116 51.8495 45.6833 50.2436 46.5035C49.389 46.9377 48.4723 47.2961 47.5142 47.4546C46.825 47.5787 46.1357 47.5787 45.4465 47.4546C44.9158 47.3512 44.4402 47.1307 44.0267 46.7998C44.4678 46.3863 43.8061 45.7246 43.365 46.1382C42.4483 46.9859 43.8061 47.8682 44.5367 48.1576C46.122 48.7849 47.9691 48.4678 49.5061 47.8751C53.5727 46.3105 57.2739 42.5197 60.1963 39.3905C63.1324 36.2407 65.3173 32.505 65.531 28.1283C65.6275 26.033 65.7309 23.6 64.7659 21.6701C63.5873 19.2991 61.6023 17.1762 60.0308 15.0534C59.6724 14.5709 58.8591 15.0396 59.2175 15.529L59.2106 15.5152Z" fill="#3A3B3C"/>
<path d="M37.2855 57.538C41.097 61.253 44.3158 65.4574 46.9073 70.1098C47.2037 70.6405 48.0101 70.1649 47.7207 69.6342C45.0946 64.9198 41.8207 60.6396 37.9541 56.8763C37.5199 56.4559 36.8582 57.1176 37.2924 57.538H37.2855Z" fill="#4EB0A9"/>
<path d="M35.5348 61.2395C38.5054 64.8374 41.2073 68.6282 43.6403 72.612C43.9573 73.1289 44.7706 72.6534 44.4536 72.1364C41.9792 68.0837 39.2222 64.2308 36.1965 60.5779C35.8105 60.1092 35.1488 60.7777 35.5348 61.2395Z" fill="#4EB0A9"/>
<path d="M27.1888 63.9069C27.1819 63.7415 27.1819 63.5692 27.1888 63.4107C27.2301 62.6939 27.3818 62.0046 27.6161 61.3292C29.739 60.4607 31.724 59.2752 33.5229 57.8416C34.8531 56.7802 36.0386 55.574 36.5969 54.0508C36.7968 53.9956 36.9898 53.9405 37.1897 53.8922C38.0374 53.6786 38.9472 53.5201 39.8226 53.5269C37.3137 58.7032 32.4063 61.7634 27.1888 63.9138V63.9069Z" fill="#4EB0A9"/>
<path d="M40.8357 53.6099C41.4285 53.7202 41.9937 53.9408 42.4899 54.3061L42.6346 54.6989C39.8915 59.1652 35.8594 62.8251 31.1588 65.134C30.566 65.4235 29.9457 65.6992 29.2909 65.7406C28.6293 65.7888 27.9193 65.5614 27.5334 65.0238C27.492 64.9617 27.4507 64.9066 27.4231 64.8377C33.0059 62.5425 38.2718 59.2272 40.8426 53.603L40.8357 53.6099Z" fill="#4EB0A9"/>
<path d="M31.3173 58.2622C30.311 58.9376 29.2633 59.5304 28.1743 60.0335C28.774 58.9032 29.6079 57.8831 30.5798 57.056C31.9858 55.8567 33.6538 55.0089 35.4045 54.4093C34.5222 56.0359 32.7853 57.2697 31.3104 58.2622H31.3173Z" fill="#4EB0A9"/>
<path d="M39.8296 53.52C40.1742 53.52 40.5119 53.5545 40.8428 53.6165C38.2719 59.2338 33.0061 62.556 27.4233 64.8511C27.2716 64.5686 27.2096 64.2377 27.1958 63.9138C32.4134 61.7633 37.3208 58.7031 39.8296 53.5269V53.52Z" fill="#4E8880"/>
<path d="M27.6157 61.3225C27.7674 60.8813 27.9535 60.4471 28.174 60.0336C29.2561 59.5304 30.3038 58.9377 31.3169 58.2622C32.7919 57.2697 34.5288 56.036 35.411 54.4094C35.8039 54.2715 36.2037 54.1543 36.6034 54.0441C36.0451 55.5673 34.8596 56.7735 33.5294 57.8349C31.7305 59.2754 29.7386 60.4609 27.6226 61.3225H27.6157Z" fill="#4E8880"/>
</g>
</g>
</g>
<defs>
<clipPath id="clip0_33_10977">
<rect x="10.6606" y="6.83081" width="140.343" height="150.427" rx="30" fill="white"/>
</clipPath>
</defs>
</svg>
