<svg width="97" height="97" viewBox="0 0 97 97" fill="none" xmlns="http://www.w3.org/2000/svg">
<circle cx="48.5" cy="48.5002" r="48.3" fill="#4349FF"/>
<mask id="mask0_33_7795" style="mask-type:alpha" maskUnits="userSpaceOnUse" x="0" y="0" width="97" height="97">
<circle cx="48.5" cy="48.5002" r="48.3" fill="#4349FF"/>
</mask>
<g mask="url(#mask0_33_7795)">
<g clip-path="url(#clip0_33_7795)">
<path d="M55.5364 61.1311C58.7906 62.5676 62.4186 62.9561 65.966 62.8388C69.5133 62.7216 73.0314 62.1132 76.5495 61.6295C77.0845 61.5562 77.6928 61.5122 78.0813 61.8787C78.3744 62.1572 78.4477 62.5823 78.499 62.9854C78.6896 64.6052 78.6749 66.2543 78.4404 67.8667C78.2938 68.9075 78.0373 69.9775 77.385 70.7984C76.5934 71.7952 75.3181 72.2863 74.0648 72.4988C71.4116 72.9532 68.6998 72.3596 66.0906 71.6779C63.5033 71.0037 60.9381 70.2561 58.4021 69.4279L55.5291 61.1311H55.5364Z" fill="#D88185"/>
<path d="M91.7134 55.304L81.5477 47.5057C80.4556 46.6701 78.8578 47.2345 78.5427 48.5684L76.8496 55.6558L91.7207 55.304H91.7134Z" fill="#E25243"/>
<path d="M77.6346 49.4697L76.8137 50.2759C79.3277 51.3314 81.8489 52.3795 84.3629 53.4349C82.1788 52.0203 79.9287 50.701 77.6346 49.4697Z" fill="#FFE5B8"/>
<path d="M76.3731 50.7092L75.2664 51.8013C77.8976 52.4389 80.5361 53.0253 83.182 53.5603C80.9099 52.6075 78.6452 51.662 76.3731 50.7092Z" fill="#FFE5B8"/>
<path d="M88.8263 54.6226L78.5433 48.5759L78.0522 49.0597C80.9766 50.6355 83.8204 52.3505 86.5689 54.2195C87.3165 54.3587 88.0714 54.498 88.819 54.6299L88.8263 54.6226Z" fill="#FFE5B8"/>
<path d="M74.7907 52.2553L73.9038 53.1274L85.8286 54.6593C85.8286 54.6593 85.8066 54.6519 85.7992 54.6446C82.1126 53.9483 78.4406 53.1494 74.798 52.2479L74.7907 52.2553Z" fill="#FFE5B8"/>
<path d="M88.8266 54.6226C88.0717 54.4907 87.3241 54.3514 86.5765 54.2122C83.828 52.3432 80.9843 50.6282 78.0599 49.0524L77.6421 49.4628C79.9435 50.6941 82.1863 52.0134 84.3704 53.428C81.8564 52.3725 79.3352 51.3171 76.8212 50.269L76.3815 50.7015C78.6535 51.6543 80.9183 52.5997 83.1904 53.5526C80.5372 53.0175 77.8986 52.4312 75.2747 51.7935L74.8057 52.2553C78.4483 53.1568 82.1203 53.9557 85.8069 54.6519C85.8143 54.6519 85.8289 54.6593 85.8362 54.6666L89.7647 55.1723L88.8339 54.6226H88.8266Z" fill="#DFCFAD"/>
<path d="M86.0763 74.9614C87.8354 68.409 89.5871 61.8567 91.3461 55.3043L91.4634 55.3922C85.2921 54.7546 79.1502 53.8971 73.0375 52.8343C71.7842 52.6144 70.5969 53.4353 70.3477 54.6813C69.3436 59.7385 68.1562 64.7517 66.8003 69.721C66.4778 70.9083 67.1228 72.1616 68.2955 72.5501C74.4154 74.5876 80.3742 75.5771 86.0763 74.9614Z" fill="#E86B53"/>
<path d="M83.1529 73.4296C86.004 73.0411 86.1213 69.9262 86.7443 67.6394C87.1987 65.9684 87.6531 64.29 88.1075 62.6189C88.4813 61.2337 89.1776 59.6212 89.3022 58.2067C89.4927 56.0299 87.3966 56.2571 85.7402 56.1398C81.9363 55.8686 78.125 55.3336 74.3358 55.0697C71.7925 54.8938 71.6093 57.0633 71.1842 59.0569C70.8177 60.7719 70.4219 62.4796 70.0042 64.18C69.6377 65.6679 68.8168 67.4855 68.8022 69.0027C68.7802 71.1868 70.9716 71.5679 72.6794 72.0444C76.0582 72.9825 79.5176 73.5029 83.0283 73.4516C83.6733 73.4442 83.6733 72.4401 83.0283 72.4548C80.6316 72.4914 78.2643 72.2789 75.9189 71.8025C74.9221 71.5973 73.9253 71.3554 72.9432 71.0842C71.7412 70.7471 71.5213 70.7324 70.6345 69.721C69.6963 68.6509 69.8209 68.8341 70.1214 67.7127C70.7078 65.5359 71.2501 63.3445 71.7412 61.1457C71.9684 60.1269 72.0124 58.771 72.4521 57.8402C72.5035 57.5983 72.5548 57.3491 72.5987 57.1073C73.361 56.7921 74.1232 56.4696 74.8855 56.1545C75.2593 56.1178 75.7723 56.2864 76.1534 56.3377C78.3156 56.6235 80.4924 56.7848 82.6618 56.924C83.8125 56.9973 84.9706 57.0706 86.1213 57.1512C86.7736 57.2025 87.2646 57.1512 87.807 57.5837C88.5619 58.1993 88.1735 58.5585 87.9389 59.4307C87.3819 61.4755 86.8322 63.5277 86.2752 65.5726C85.7401 67.5588 85.337 72.1323 82.8964 72.4621C82.2661 72.5501 82.5299 73.5102 83.1602 73.4223L83.1529 73.4296Z" fill="#E25243"/>
<path d="M87.4541 65.6601C88.165 65.3523 88.876 65.0371 89.5869 64.7293C90.0267 64.5388 90.4738 64.3409 90.8476 64.0404C91.1261 63.8132 91.3753 63.5127 91.7124 63.3881C91.6758 63.9891 91.4706 64.5754 91.1261 65.0665C90.8696 65.4329 90.5397 65.7408 90.1953 66.0266C89.7335 66.4004 89.2351 66.7449 88.6561 66.8915L87.4541 65.6601Z" fill="#3A3B3C"/>
<path d="M86.3706 60.0972C87.1255 59.914 87.8804 59.7308 88.6354 59.5402C89.1044 59.4229 89.5735 59.3057 89.9913 59.0711C90.3064 58.8952 90.5996 58.646 90.9514 58.5801C90.8122 59.1664 90.5117 59.7088 90.0866 60.1339C89.7714 60.449 89.3903 60.6982 89.0018 60.9181C88.4888 61.2113 87.9318 61.4678 87.3381 61.5118L86.3633 60.0972H86.3706Z" fill="#3A3B3C"/>
<path d="M87.1179 63.0884C87.8289 62.7805 88.5398 62.4654 89.2507 62.1575C89.6905 61.967 90.1376 61.7691 90.5114 61.4686C90.7899 61.2414 91.0391 60.9409 91.3762 60.8163C91.3396 61.4173 91.1344 62.0036 90.7899 62.4947C90.5334 62.8612 90.2035 63.169 89.8591 63.4548C89.3973 63.8286 88.8989 64.1731 88.3199 64.3197L87.1179 63.0884Z" fill="#3A3B3C"/>
<path d="M69.0074 82.3864C69.2273 82.9141 69.4399 83.4345 69.6597 83.9622C71.9905 89.5911 74.3358 95.2493 75.765 101.171C77.1943 107.093 77.6853 113.345 76.2928 119.275C70.5393 118.652 64.8371 117.618 59.2302 116.182C58.248 115.933 57.2366 115.647 56.4963 114.95C55.7414 114.247 55.3896 113.228 55.0818 112.253C54.085 109.124 53.2495 105.935 52.5825 102.718C52.2454 101.091 51.9522 99.449 51.9009 97.7853C51.8422 95.843 52.1134 93.9007 52.3919 91.9731C52.5972 90.5146 52.817 89.0268 53.484 87.7148C54.3049 86.0877 55.7414 84.8784 57.1413 83.713C57.8303 83.1413 58.5192 82.5623 59.2961 82.1226C61.9054 80.6421 65.1083 80.8546 68.0986 81.1185L69.0221 82.3864H69.0074Z" fill="#FFE5B8"/>
<path d="M62.3445 67.0015L62.3739 66.9135C61.2158 64.5168 60.0505 62.0908 59.0977 59.5989C56.5544 60.5737 55.2205 62.7944 54.1504 65.0519C56.701 66.3052 59.5521 67.2507 62.3519 67.0015H62.3445Z" fill="#FFE5B8"/>
<path d="M30.4335 16.4595C30.9099 15.9025 31.5109 15.5213 32.2145 15.3234C32.5223 15.2428 32.3904 14.7591 32.0825 14.8397C31.2983 15.0523 30.6094 15.4847 30.0817 16.1004C29.8764 16.3422 30.2282 16.7014 30.4335 16.4522V16.4595Z" fill="#D88185"/>
<path d="M37.0439 13.9524C37.8061 13.9158 38.5684 13.8791 39.3233 13.8425C39.6458 13.8278 39.6458 13.3294 39.3233 13.3441C38.561 13.3807 37.7988 13.4174 37.0439 13.454C36.7214 13.4687 36.7214 13.9671 37.0439 13.9524Z" fill="#D88185"/>
<path d="M43.5372 12.5156C44.0722 12.5815 44.5999 12.6402 45.1349 12.7061C45.4501 12.7428 45.4501 12.2444 45.1349 12.2077C44.5999 12.1418 44.0722 12.0831 43.5372 12.0172C43.222 11.9805 43.222 12.4789 43.5372 12.5156Z" fill="#D88185"/>
<path d="M42.7457 15.2282C43.2368 15.2721 43.7278 15.3234 44.2262 15.3674C44.5487 15.3967 44.5414 14.8983 44.2262 14.869C43.7352 14.825 43.2441 14.7737 42.7457 14.7298C42.4232 14.7004 42.4306 15.1988 42.7457 15.2282Z" fill="#D88185"/>
<path d="M47.9063 14.4655C48.3607 14.5755 48.8151 14.6927 49.2696 14.8027C49.5847 14.8833 49.7166 14.3996 49.4015 14.319C48.9471 14.209 48.4926 14.0917 48.0382 13.9818C47.7231 13.9012 47.5911 14.3849 47.9063 14.4655Z" fill="#D88185"/>
<path d="M32.3609 28.5009C33.2624 28.325 34.1273 27.9879 34.9848 27.6581C35.4686 27.4675 35.9743 27.2696 36.3261 26.8958C36.6999 26.4927 36.8685 25.943 37.0077 25.4153C37.125 24.9755 37.2422 24.5138 37.1616 24.0667C37.0297 23.3338 36.4214 22.7841 35.7984 22.3736C34.4425 21.4868 31.2176 20.7539 29.158 20.6293C28.9235 21.091 28.7256 21.5821 28.557 22.0731C27.8754 24.0007 27.5016 26.0749 27.7362 28.1051C27.7655 28.1125 27.7948 28.1271 27.8021 28.1271C29.246 28.6622 30.8438 28.8088 32.3536 28.5083L32.3609 28.5009Z" fill="#E25243"/>
<path d="M57.3754 25.9216C57.2728 25.3792 57.053 24.3971 56.8111 23.3417C55.8803 23.3563 54.9568 23.5176 54.0773 23.8181C53.3736 24.0599 52.6481 24.4411 52.3402 25.1227C52.1497 25.5405 52.1497 26.0095 52.157 26.4713C52.1643 27.021 52.1863 27.5927 52.4575 28.0764C52.7067 28.5308 53.1464 28.846 53.5715 29.1465C54.3191 29.6815 55.0814 30.2165 55.9096 30.6123C56.452 30.8689 57.0236 31.0667 57.6173 31.1987C57.6686 29.4396 57.7053 27.6586 57.3754 25.9289V25.9216Z" fill="#E25243"/>
<path d="M53.5718 29.1458C53.1467 28.8453 52.707 28.5302 52.4578 28.0758C52.1939 27.592 52.1646 27.0203 52.1573 26.4707C52.1573 26.0162 52.1573 25.5398 52.3405 25.1221C52.6483 24.4404 53.3739 24.0593 54.0775 23.8174C54.9571 23.5169 55.8806 23.3557 56.8114 23.341C56.3936 21.5234 55.9025 19.4565 55.7633 18.9142C55.6533 18.4744 55.5068 18.0493 55.3309 17.6389C50.6841 17.6169 46.0446 17.1625 41.4858 16.2683C40.1812 16.0118 38.7154 16.0337 37.3888 16.1437C36.2747 16.2316 35.3512 16.2903 34.3031 16.6787C32.8226 17.2284 31.3128 17.8661 30.2427 19.0168C29.8029 19.4932 29.4511 20.0429 29.158 20.6219C31.2175 20.7465 34.4424 21.4794 35.7983 22.3662C36.4213 22.7767 37.0296 23.3264 37.1615 24.0593C37.2422 24.5064 37.1322 24.9681 37.0076 25.4079C36.8684 25.9356 36.6998 26.4853 36.326 26.8884C35.9669 27.2695 35.4685 27.4674 34.9847 27.6507C34.1272 27.9805 33.2624 28.3176 32.3609 28.4935C30.851 28.794 29.2532 28.6474 27.8094 28.1124C27.802 28.1124 27.7727 28.0978 27.7434 28.0904C27.7654 28.3103 27.7947 28.5302 27.8314 28.7427C28.2345 30.9708 29.5024 33.1037 31.474 34.2324C32.4415 34.7894 33.5335 35.0826 34.6329 35.2951C36.1867 35.5956 37.7699 35.7275 39.3457 35.8595C45.3484 36.3652 51.3657 36.8489 57.3831 36.8636C57.4783 34.9726 57.5663 33.089 57.6176 31.198C57.0312 31.0661 56.4596 30.8682 55.9099 30.6117C55.0817 30.2159 54.3194 29.6809 53.5718 29.1458Z" fill="#FFE5B8"/>
<path d="M46.3233 23.8547C45.5244 23.7301 44.6962 23.6055 43.9192 23.8547C43.1423 24.1039 42.4241 24.8368 42.3874 25.753C42.3581 26.5592 42.8712 27.2995 43.5015 27.6732C44.1318 28.047 44.8721 28.1203 45.583 28.1497C46.4845 28.1863 47.408 28.1497 48.2728 27.8638C48.5147 27.7832 48.7639 27.6806 48.9618 27.4973C49.4748 27.0356 49.5775 26.1341 49.2843 25.4671C48.9911 24.8002 48.3828 24.3677 47.7525 24.1845C47.7525 24.1845 46.697 23.9207 46.3159 23.862L46.3233 23.8547Z" fill="#3A3B3C"/>
<path d="M38.4811 28.3321C38.4298 28.6912 37.8142 28.8964 37.1032 28.8011C36.3923 28.7059 35.8572 28.3321 35.9012 27.9803C35.9525 27.6211 36.5682 27.4159 37.2791 27.5112C37.9901 27.6065 38.5251 27.9803 38.4811 28.3321Z" fill="#E86B53"/>
<path d="M52.6627 29.3293C52.6627 29.6885 52.0763 29.9743 51.3581 29.967C50.6398 29.9597 50.0608 29.6592 50.0608 29.3C50.0608 28.9409 50.6471 28.655 51.3654 28.6624C52.0837 28.6697 52.6627 28.9702 52.6627 29.3293Z" fill="#E86B53"/>
<path d="M37.7696 19.8155C37.7696 19.7349 37.7696 19.6543 37.7403 19.5664C37.4398 18.4963 35.4828 17.5142 34.4348 17.7267C34.0536 17.8 33.8631 18.0419 33.7971 18.3277C33.5406 18.7601 33.9217 19.3685 34.3321 19.647C34.3395 19.647 34.3468 19.6543 34.3541 19.6616C34.64 19.8888 35.0431 20.1234 35.4462 20.248C36.0032 20.4679 36.5969 20.5851 37.1466 20.4459C37.4837 20.3579 37.7476 20.1454 37.7696 19.8155Z" fill="#FEB2B6"/>
<path d="M51.5637 20.8194C51.5637 20.7388 51.5784 20.6581 51.615 20.5702C52.0035 19.5294 54.0337 18.7086 55.0598 19.0017C55.4336 19.1043 55.6095 19.3609 55.6461 19.654C55.866 20.1011 55.4409 20.6801 55.0085 20.9293C55.0012 20.9293 54.9938 20.9367 54.9865 20.944C54.686 21.1492 54.2609 21.3471 53.8505 21.4424C53.2788 21.6183 52.6704 21.6916 52.1354 21.501C51.8056 21.3837 51.5637 21.1492 51.5637 20.8267V20.8194Z" fill="#FEB2B6"/>
<path d="M106.167 119.516C106.064 119.157 105.888 118.835 105.588 118.637C105.272 118.431 104.877 118.387 104.503 118.409C102.832 118.49 101.403 119.502 100.12 120.623C99.6436 121.041 99.2991 121.598 99.1378 122.213C94.3005 120.652 89.3972 119.304 84.4426 118.168C82.3831 117.698 80.2356 117.266 78.1761 117.75C78.1028 117.09 77.3405 116.775 76.6955 116.614C73.7931 115.895 70.8248 115.448 67.8418 115.28C67.9077 114.591 67.1308 114.158 66.4858 113.917L57.4049 110.472L57.4488 110.391C56.4007 108.017 55.6825 105.503 55.3233 102.937C55.1841 101.941 55.0961 100.929 55.0228 99.925C54.6784 95.4028 54.5538 90.866 54.6417 86.3291L54.715 86.3731C57.9619 86.5344 61.2088 86.2559 64.4483 85.9847C65.6137 85.8821 66.7937 85.7868 67.9151 85.4496C68.7213 85.2078 69.4909 84.8486 70.2458 84.4822C73.7492 82.7524 77.0767 80.6563 80.155 78.2449L80.7193 78.0397C82.3244 76.4273 83.9369 74.8222 85.542 73.2097C85.6886 73.0631 85.8425 72.9092 86.0477 72.8506C86.2016 72.8066 86.3629 72.8139 86.5168 72.7846C87.1031 72.682 87.4549 72.0883 87.7335 71.5533C88.9281 69.2372 90.1448 66.8332 90.284 64.2387C90.3427 63.0587 90.1375 61.7907 89.3459 60.9185C88.5177 60.0097 87.2204 59.7018 85.9891 59.6872C82.9694 59.6432 80.1403 61.0578 77.4505 62.4357C77.1133 62.0985 76.5783 62.0399 76.1165 62.1572C75.6548 62.2744 75.2517 62.5383 74.8486 62.7948C71.1473 65.1328 66.9183 66.7013 62.55 67.0091L62.5867 66.8845C59.7942 67.1337 56.9431 66.1883 54.3852 64.9349C55.382 62.7508 56.6866 60.5814 59.3325 59.482C58.2917 56.7701 57.5001 53.9923 57.2436 51.1046L57.097 50.6575C57.2216 50.87 57.5661 50.8261 57.72 50.6428C57.8739 50.4523 57.8886 50.1958 57.8886 49.9539C57.8813 47.8944 57.1557 45.8861 57.1263 43.8193C57.1117 42.9617 57.2216 42.1042 57.3242 41.254H57.3462C57.4488 39.7515 57.5368 38.249 57.6101 36.7465C51.2336 36.7318 44.8498 36.1822 38.488 35.6544C37.3006 35.5518 36.1206 35.4199 34.9553 35.2C33.8265 34.9875 32.6978 34.6943 31.701 34.1226C29.7368 32.9939 28.4688 30.8611 28.0584 28.633C27.6553 26.4049 28.0364 24.0888 28.7913 21.9487C29.1798 20.842 29.6782 19.7572 30.4771 18.8997C31.5471 17.749 33.057 17.1187 34.5302 16.5616C35.0285 16.3784 35.5489 16.2538 36.0766 16.1879C37.7037 15.9826 39.8805 15.7847 41.7275 16.1512C46.2863 17.0454 50.9258 17.4998 55.5725 17.5218C54.2166 14.2896 50.9991 11.8709 47.4883 11.607L47.7962 11.4385C48.6244 10.9621 49.1301 9.99461 49.0641 9.04913C48.6757 8.76329 48.0967 8.92453 47.7375 9.24702C47.3784 9.56951 47.1512 10.0166 46.8434 10.3904C46.7188 9.76007 47.1219 9.0418 46.6308 8.52875C46.323 8.20626 45.8099 8.1916 45.4361 8.42614C44.7765 8.83658 44.6299 9.62081 44.6006 10.3464C44.6006 9.92131 44.5859 9.45224 44.4174 9.07112C44.2121 8.6167 43.7504 8.3675 43.2447 8.40415C42.3871 8.46278 42.0353 9.44491 42.3945 10.0899C42.1966 9.57684 41.6029 9.21037 41.0679 9.34963C40.5328 9.49621 40.2104 10.2072 40.5328 10.6616L40.7381 10.7935C35.8934 10.8595 31.1147 12.963 27.7945 16.4884C26.8197 17.5218 25.9769 18.6652 25.1706 19.8305C24.555 20.7247 23.9686 21.6335 23.4043 22.557C22.3269 23.5978 21.4547 24.8071 20.8757 26.2143C20.5166 27.0792 20.2527 28.01 20.1574 28.9408C20.0915 29.5858 20.3113 29.9449 20.37 30.5093C20.5019 31.7406 19.8423 33.2724 19.6004 34.4744C19.3219 35.8597 19.0727 37.2522 18.8601 38.6521C18.5303 40.8069 18.1272 43.0204 18.2591 45.1972C18.3617 46.9562 18.3031 48.1362 17.856 49.8146C17.4529 51.3245 17.0425 52.827 16.6394 54.3368C16.3169 55.5315 15.1222 57.9062 16.0017 59.1228C16.4121 59.6872 16.9838 59.7165 17.4456 59.4013C17.211 60.9258 16.8666 62.4283 16.4048 63.9015C16.0677 64.9716 15.6719 66.027 15.2175 67.0531C14.8583 67.8593 14.1547 68.7755 13.9422 69.6184C13.8249 70.0801 13.9422 70.5785 14.1987 70.9303C13.605 71.5826 13.2752 72.5281 12.9381 73.3416C12.0146 75.5697 10.4388 77.9664 9.95505 80.3411C9.84511 80.8908 9.9697 81.6677 10.3508 82.1441C9.48597 83.7126 8.78969 85.3543 8.26931 87.0767C7.96881 88.0882 6.74482 90.8733 7.85887 91.6795C7.88819 91.7015 7.92483 91.7088 7.95415 91.7308C6.97935 95.007 6.00456 98.2832 5.02243 101.559C4.94181 101.831 5.11771 102.087 5.37424 102.175C5.64542 102.263 5.79934 102.322 5.92394 102.351C6.12183 104.572 5.9899 106.661 5.71872 108.896C5.40356 111.461 5.60878 114.386 8.43055 115.353C8.56981 115.404 8.7164 115.36 8.83366 115.28C8.87031 115.346 8.8923 115.419 8.92894 115.485C9.10485 115.837 9.47131 116.24 9.81579 116.049C10.2189 118.981 11.0178 121.854 12.1905 124.566C12.9601 126.347 13.9129 128.091 15.3494 129.396C16.7859 130.701 18.7649 131.514 20.6705 131.17V131.045C24.7456 134.101 29.5169 136.242 34.5155 137.253C35.0798 137.37 35.6662 137.466 36.2305 137.348C36.7949 137.231 37.3446 136.857 37.4985 136.3C42.717 136.967 47.9941 137.238 53.2492 137.106C53.8282 137.092 54.4658 137.048 54.8763 136.637C55.0009 136.513 55.0961 136.359 55.25 136.271C55.5139 136.117 55.851 136.198 56.1442 136.293C60.19 137.517 64.3604 138.301 68.5747 138.631C69.3736 138.697 70.1871 138.741 70.9567 138.514C71.7043 138.294 72.4079 137.766 72.6424 137.026C72.5985 137.011 72.5472 136.997 72.4959 136.975H72.6571C72.6571 136.975 72.6424 137.004 72.6351 137.026C75.325 138.03 78.2494 138.191 81.1151 138.264C84.3547 138.345 87.5942 138.323 90.8337 138.206C91.3688 138.184 91.9185 138.162 92.3949 137.92C92.8713 137.678 93.2451 137.158 93.1498 136.637C94.9601 136.755 96.7631 136.879 98.5735 136.997C99.5629 137.062 100.582 137.121 101.513 136.784L101.806 136.527C103.543 134.417 104.188 131.646 104.781 128.986C105.236 126.955 105.69 124.925 106.145 122.902C106.394 121.796 106.438 120.638 106.123 119.545L106.167 119.516Z" fill="#FEB2B6"/>
<path d="M32.0882 23.5023C32.2934 23.6562 32.4913 23.8028 32.6965 23.9567C32.9091 24.118 33.1509 23.7808 32.9384 23.6196C32.7332 23.4656 32.5353 23.3191 32.33 23.1651C32.1175 23.0039 31.8756 23.341 32.0882 23.5023Z" fill="#3C3C3D"/>
<path d="M33.5904 22.5785C33.6344 22.7911 33.6784 23.0109 33.7224 23.2235C33.7737 23.48 34.1841 23.414 34.1255 23.1502C34.0815 22.9376 34.0375 22.7178 33.9935 22.5052C33.9422 22.2487 33.5318 22.3147 33.5904 22.5785Z" fill="#3C3C3D"/>
<path d="M35.3576 22.7764C35.1963 22.9597 35.0351 23.1502 34.8738 23.3335C34.6979 23.5314 35.0351 23.7732 35.211 23.5753C35.3722 23.3921 35.5335 23.2015 35.6947 23.0183C35.8706 22.8204 35.5335 22.5786 35.3576 22.7764Z" fill="#3C3C3D"/>
<path d="M36.0386 24.638C36.1559 25.6788 35.4083 26.6169 34.3676 26.7342C33.3268 26.8515 32.3887 26.1039 32.2714 25.0631C32.1541 24.0224 32.9017 23.0842 33.9425 22.9669C34.9832 22.8497 35.9214 23.5973 36.0386 24.638Z" fill="white"/>
<path d="M35.6138 25.0706C35.6871 25.7302 35.2107 26.3312 34.5511 26.4045C33.8915 26.4778 33.2905 26.0014 33.2172 25.3417C33.1439 24.6821 33.6203 24.0811 34.2799 24.0078C34.9395 23.9345 35.5405 24.4109 35.6138 25.0706Z" fill="#3C3C3D"/>
<path d="M34.6748 24.8139C34.6967 25.0337 34.5428 25.2316 34.323 25.2536C34.1031 25.2756 33.9052 25.1217 33.8832 24.9018C33.8612 24.6819 34.0151 24.484 34.235 24.462C34.4549 24.4401 34.6528 24.594 34.6748 24.8139Z" fill="white"/>
<path d="M53.6814 24.6752C53.828 24.8804 53.9819 25.0856 54.1285 25.2835C54.2897 25.496 54.6122 25.2468 54.4583 25.0343C54.3117 24.8291 54.1578 24.6239 54.0112 24.426C53.85 24.2134 53.5275 24.4626 53.6814 24.6752Z" fill="#3C3C3D"/>
<path d="M55.3893 24.2281C55.3673 24.4479 55.3453 24.6678 55.3307 24.8877C55.3087 25.1515 55.7191 25.2028 55.7411 24.939C55.7631 24.7191 55.7851 24.4992 55.7998 24.2794C55.8217 24.0155 55.4113 23.9642 55.3893 24.2281Z" fill="#3C3C3D"/>
<path d="M57.0164 24.9394C56.8039 25.0713 56.5987 25.1959 56.3861 25.3278C56.1589 25.4671 56.4154 25.7969 56.6353 25.6576C56.8479 25.5257 57.0531 25.4011 57.2656 25.2692C57.4928 25.1299 57.2363 24.8001 57.0164 24.9394Z" fill="#3C3C3D"/>
<path d="M57.1258 26.9179C56.9353 27.944 55.9458 28.6256 54.9124 28.4351C53.879 28.2445 53.2047 27.255 53.3952 26.2216C53.5858 25.1882 54.5753 24.5139 55.6087 24.7044C56.6348 24.895 57.3164 25.8845 57.1258 26.9179Z" fill="white"/>
<path d="M56.5904 27.2041C56.4658 27.8564 55.8355 28.2962 55.1832 28.1716C54.5309 28.047 54.0911 27.4167 54.2157 26.7644C54.3403 26.112 54.9706 25.6723 55.6229 25.7969C56.2752 25.9215 56.715 26.5518 56.5904 27.2041Z" fill="#3C3C3D"/>
<path d="M55.7696 26.6907C55.7329 26.9106 55.5204 27.0499 55.3005 27.0132C55.0806 26.9766 54.9414 26.764 54.978 26.5441C55.0147 26.3243 55.2272 26.185 55.4471 26.2217C55.667 26.2656 55.8062 26.4709 55.7696 26.6907Z" fill="white"/>
<path d="M41.5297 28.6548C41.471 29.395 41.9328 30.1133 42.6437 30.3478C43.3913 30.597 44.1975 30.2672 44.6813 29.6809C44.8865 29.4317 44.5347 29.0799 44.3295 29.3291C43.9996 29.7322 43.5012 30.018 42.9589 29.9081C42.3579 29.7908 41.9767 29.2558 42.0281 28.6548C42.0574 28.3323 41.5517 28.3396 41.5297 28.6548Z" fill="#3A3B3C"/>
<path d="M25.6396 22.1978C25.3464 22.7329 25.1778 23.3046 25.1485 23.9202C25.1339 24.2427 25.6322 24.2427 25.6469 23.9202C25.6762 23.3998 25.8155 22.9088 26.072 22.4544C26.2259 22.1759 25.7935 21.9193 25.6396 22.2052V22.1978Z" fill="#D88185"/>
<path d="M21.2571 32.1137C21.0812 32.8173 20.9566 33.5209 20.8686 34.2392C20.832 34.5544 21.3304 34.5544 21.367 34.2392C21.4476 33.5649 21.5722 32.8979 21.7408 32.2456C21.8214 31.9305 21.3377 31.7985 21.2571 32.1137Z" fill="#D88185"/>
<path d="M26.5337 41.6061C26.5044 42.1632 26.4678 42.7202 26.4384 43.2772C26.4165 43.5997 26.9222 43.5997 26.9368 43.2772C26.9661 42.7202 27.0028 42.1632 27.0321 41.6061C27.0541 41.2836 26.5484 41.2836 26.5337 41.6061Z" fill="#D88185"/>
<path d="M34.7285 37.971C34.6186 38.4694 34.6039 38.9678 34.6919 39.4735C34.7432 39.7887 35.2269 39.6567 35.1756 39.3416C35.1023 38.9238 35.117 38.5134 35.2123 38.1029C35.2856 37.7878 34.8018 37.6558 34.7285 37.971Z" fill="#D88185"/>
<path d="M44.8639 42.9691C44.9372 43.5848 44.9152 44.2004 44.7833 44.8088C44.7173 45.1239 45.201 45.2558 45.267 44.9407C45.4063 44.2884 45.4429 43.6361 45.3623 42.9691C45.3256 42.6539 44.8272 42.6466 44.8639 42.9691Z" fill="#D88185"/>
<path d="M53.1687 39.3259C53.1394 39.8096 53.1028 40.286 53.0735 40.7697C53.0515 41.0922 53.5499 41.0922 53.5719 40.7697C53.6012 40.286 53.6378 39.8096 53.6671 39.3259C53.6891 39.0034 53.1907 39.0034 53.1687 39.3259Z" fill="#D88185"/>
<path d="M34.6849 47.2934L34.5383 49.4922C34.5163 49.8147 35.0147 49.8147 35.0367 49.4922C35.088 48.7592 35.132 48.0263 35.1833 47.2934C35.2053 46.9709 34.7069 46.9709 34.6849 47.2934Z" fill="#D88185"/>
<path d="M23.074 49.5722C22.9641 50.1512 22.9128 50.7302 22.9201 51.3166C22.9274 51.6391 23.4258 51.6391 23.4185 51.3166C23.4039 50.7742 23.4478 50.2392 23.5504 49.7041C23.6091 49.389 23.1327 49.257 23.0667 49.5722H23.074Z" fill="#D88185"/>
<path d="M52.8607 50.0267C52.8313 50.6643 52.8387 51.2946 52.89 51.9249C52.912 52.2401 53.4104 52.2474 53.3884 51.9249C53.3444 51.2946 53.3297 50.657 53.359 50.0267C53.3737 49.7042 52.8753 49.7042 52.8607 50.0267Z" fill="#D88185"/>
<path d="M44.5779 54.352V56.0963C44.5779 56.4188 45.0763 56.4188 45.0763 56.0963V54.352C45.0763 54.0295 44.5779 54.0295 44.5779 54.352Z" fill="#D88185"/>
<path d="M27.6997 57.0856C27.6924 57.7746 27.6411 58.4635 27.5311 59.1451C27.4798 59.4603 27.9636 59.5922 28.0149 59.2771C28.1321 58.5515 28.1908 57.8185 28.2054 57.0856C28.2054 56.7631 27.7071 56.7631 27.7071 57.0856H27.6997Z" fill="#D88185"/>
<path d="M19.5273 62.5527C19.586 63.249 19.542 63.9306 19.3954 64.6123C19.3294 64.9274 19.8058 65.0593 19.8791 64.7442C20.0404 64.0186 20.0917 63.293 20.0331 62.5527C20.0037 62.2376 19.5053 62.2302 19.5347 62.5527H19.5273Z" fill="#D88185"/>
<path d="M37.2859 61.3362C37.3225 61.8419 37.3079 62.3477 37.2492 62.8607C37.2126 63.1759 37.711 63.1759 37.7476 62.8607C37.8063 62.355 37.8209 61.8493 37.7843 61.3362C37.7623 61.0137 37.2639 61.0137 37.2859 61.3362Z" fill="#D88185"/>
<path d="M46.5133 66.628C46.374 67.3682 46.4106 68.1012 46.6452 68.8268C46.7405 69.1346 47.2242 69.0027 47.1289 68.6948C46.931 68.0572 46.8797 67.4195 46.997 66.7599C47.0556 66.4448 46.5719 66.3128 46.5133 66.628Z" fill="#D88185"/>
<path d="M28.5268 66.2836C28.3949 66.9139 28.4316 67.5443 28.6588 68.1453C28.776 68.4458 29.2524 68.3138 29.1425 68.0133C28.9446 67.493 28.8933 66.9652 29.0106 66.4229C29.0765 66.1077 28.5928 65.9758 28.5268 66.291V66.2836Z" fill="#D88185"/>
<path d="M39.7264 73.4583C40.1295 73.9641 40.5693 74.4331 41.0457 74.8729C41.2802 75.0928 41.6394 74.7336 41.3975 74.5211C40.9211 74.0813 40.4814 73.6123 40.0782 73.1065C39.8804 72.8573 39.5285 73.2091 39.7264 73.4583Z" fill="#D88185"/>
<path d="M56.3494 72.228C57.0677 72.3965 57.786 72.5651 58.4969 72.7337C58.8121 72.807 58.944 72.3232 58.6288 72.25C57.9106 72.0814 57.1923 71.9128 56.4813 71.7442C56.1662 71.6709 56.0343 72.1547 56.3494 72.228Z" fill="#D88185"/>
<path d="M53.4911 82.5247C54.1874 82.708 54.891 82.7813 55.6093 82.752C55.9318 82.7373 55.9318 82.2389 55.6093 82.2536C54.935 82.2829 54.2754 82.2169 53.6231 82.041C53.3152 81.9604 53.176 82.4441 53.4911 82.5247Z" fill="#D88185"/>
<path d="M63.9206 77.8931C64.6388 77.8491 65.3645 77.7978 66.0827 77.7539C66.4052 77.7319 66.4052 77.2335 66.0827 77.2555C65.3645 77.2994 64.6388 77.3507 63.9206 77.3947C63.5981 77.4167 63.5981 77.9151 63.9206 77.8931Z" fill="#D88185"/>
<path d="M71.5061 70.6372C71.792 70.366 72.1291 70.1828 72.5102 70.0802C72.8181 69.9995 72.6861 69.5158 72.3783 69.5964C71.9166 69.7137 71.4988 69.9482 71.1543 70.2781C70.9198 70.4979 71.2789 70.8571 71.5061 70.6299V70.6372Z" fill="#D88185"/>
<path d="M76.1094 76.8084C76.791 76.4933 77.436 76.1195 78.0443 75.6724C78.3008 75.4818 78.0443 75.0494 77.7951 75.2399C77.1868 75.687 76.5491 76.0682 75.8602 76.3833C75.567 76.5152 75.8235 76.9477 76.1094 76.8157V76.8084Z" fill="#D88185"/>
<path d="M79.2684 69.9774C79.8328 69.5156 80.3971 69.0539 80.9615 68.5922C81.2107 68.3869 80.8589 68.0351 80.6097 68.2403C80.0453 68.7021 79.481 69.1638 78.9166 69.6256C78.6674 69.8308 79.0266 70.1826 79.2684 69.9774Z" fill="#D88185"/>
<path d="M83.1523 63.3449C83.6874 63.0883 84.2224 62.8318 84.7574 62.5826C85.0506 62.4434 84.7941 62.0109 84.5082 62.1502C83.9732 62.4067 83.4382 62.6632 82.9031 62.9124C82.61 63.0517 82.8665 63.4841 83.1523 63.3449Z" fill="#D88185"/>
<path d="M21.3159 73.9717V76.0239C21.3159 76.3464 21.8143 76.3464 21.8143 76.0239V73.9717C21.8143 73.6492 21.3159 73.6492 21.3159 73.9717Z" fill="#D88185"/>
<path d="M32.5953 79.3222C32.5514 79.9965 32.5953 80.6561 32.7273 81.3231C32.7859 81.6382 33.2696 81.5063 33.211 81.1912C33.0937 80.5755 33.0571 79.9525 33.1011 79.3222C33.1231 78.9997 32.6247 78.9997 32.6027 79.3222H32.5953Z" fill="#D88185"/>
<path d="M44.4612 83.8816C44.5491 84.6365 44.6297 85.3987 44.7177 86.1537C44.7543 86.4688 45.2527 86.4761 45.2161 86.1537C45.1281 85.3987 45.0475 84.6365 44.9595 83.8816C44.9229 83.5664 44.4245 83.5591 44.4612 83.8816Z" fill="#D88185"/>
<path d="M14.0369 84.717C13.8244 85.4865 13.6705 86.2708 13.5678 87.0623C13.5312 87.3775 14.0296 87.3775 14.0662 87.0623C14.1615 86.3147 14.3154 85.5745 14.5133 84.8489C14.6013 84.5411 14.1175 84.4091 14.0296 84.717H14.0369Z" fill="#D88185"/>
<path d="M24.9586 88.7043C24.8486 89.4812 24.8047 90.2581 24.8486 91.0497C24.8633 91.3721 25.369 91.3721 25.347 91.0497C25.3031 90.3094 25.3324 89.5691 25.435 88.8362C25.479 88.521 25.0026 88.3891 24.9512 88.7043H24.9586Z" fill="#D88185"/>
<path d="M38.0551 91.9584C38.1138 92.7206 38.1651 93.4755 38.2237 94.2378C38.2457 94.5529 38.7441 94.5603 38.7221 94.2378C38.6635 93.4755 38.6122 92.7133 38.5535 91.9584C38.5316 91.6432 38.0332 91.6359 38.0551 91.9584Z" fill="#D88185"/>
</g>
</g>
<defs>
<clipPath id="clip0_33_7795">
<rect x="5.03003" y="8.25024" width="103.372" height="130.41" rx="30" fill="white"/>
</clipPath>
</defs>
</svg>
