<svg width="61" height="65" viewBox="0 0 61 65" fill="none" xmlns="http://www.w3.org/2000/svg">
<rect x="0.260498" y="0.272705" width="60.6512" height="64.2424" rx="30.3256" fill="#4349FF"/>
<path d="M49.3441 27.633C43.6623 25.1599 39.5161 20.1009 38.3477 13.9999C37.1793 20.1009 33.0332 25.1599 27.3513 27.633C26.2455 28.1144 23.4929 28.8547 23.4929 28.8547C23.4929 28.8547 26.2455 29.595 27.3513 30.0764C33.0332 32.5498 37.1793 37.6081 38.3477 43.7095C39.5161 37.6081 43.6623 32.5498 49.3441 30.0764C50.4499 29.595 53.2025 28.8547 53.2025 28.8547C53.2025 28.8547 50.4499 28.1144 49.3441 27.633Z" fill="white"/>
<path d="M25.8805 40.4623C22.5118 38.996 20.0538 35.9965 19.3607 32.3794C18.6685 35.9965 16.2101 38.996 12.8416 40.4623C12.186 40.7475 10.554 41.1861 10.554 41.1861C10.554 41.1861 12.186 41.6251 12.8416 41.9106C16.2101 43.377 18.6685 46.3761 19.3607 49.9932C20.0538 46.3761 22.5118 43.377 25.8805 41.9106C26.536 41.6251 28.1678 41.1861 28.1678 41.1861C28.1678 41.1861 26.536 40.7475 25.8805 40.4623Z" fill="white"/>
<path d="M52.6001 41.1864C52.6001 42.0453 51.9044 42.741 51.0463 42.741C50.1878 42.741 49.4922 42.0453 49.4922 41.1864C49.4922 40.3283 50.1878 39.6327 51.0463 39.6327C51.9044 39.6327 52.6001 40.3283 52.6001 41.1864Z" fill="white"/>
<path d="M24.0575 19.814C24.0575 20.6725 23.3619 21.3682 22.5034 21.3682C21.6449 21.3682 20.9492 20.6725 20.9492 19.814C20.9492 18.9555 21.6449 18.2599 22.5034 18.2599C23.3619 18.2599 24.0575 18.9555 24.0575 19.814Z" fill="white"/>
<path d="M12.1081 28.855C12.1081 29.7132 11.4124 30.4092 10.5539 30.4092C9.69561 30.4092 9 29.7132 9 28.855C9 27.9965 9.69561 27.3009 10.5539 27.3009C11.4124 27.3009 12.1081 27.9965 12.1081 28.855Z" fill="white"/>
</svg>
