<svg width="97" height="97" viewBox="0 0 97 97" fill="none" xmlns="http://www.w3.org/2000/svg">
<circle cx="48.5" cy="48.5002" r="48.3" fill="#4349FF"/>
<mask id="mask0_33_10866" style="mask-type:alpha" maskUnits="userSpaceOnUse" x="0" y="0" width="97" height="97">
<circle cx="48.3" cy="48.3" r="48.3" fill="#4349FF"/>
</mask>
<g mask="url(#mask0_33_10866)">
<mask id="mask1_33_10866" style="mask-type:alpha" maskUnits="userSpaceOnUse" x="0" y="9" width="101" height="109">
<rect y="9.66003" width="100.165" height="107.87" rx="30" fill="#D9D9D9"/>
</mask>
<g mask="url(#mask1_33_10866)">
<g clip-path="url(#clip0_33_10866)">
<path d="M70.3945 71.2456C70.2875 71.3098 70.1805 71.374 70.0807 71.4382C70.2019 71.4881 70.316 71.538 70.4373 71.5808C70.3445 71.2813 70.2518 70.9889 70.1662 70.6894C70.0307 70.7678 69.8952 70.8463 69.7597 70.9247C69.9594 71.1601 70.152 71.3883 70.3517 71.6236C70.5514 71.8661 70.8937 71.5167 70.694 71.2813C70.4943 71.0459 70.3018 70.8177 70.1021 70.5824C69.9452 70.3898 69.6314 70.5966 69.6955 70.8177C69.7811 71.1173 69.8738 71.4168 69.9666 71.7092C70.0093 71.8518 70.1876 71.9374 70.3232 71.8518C70.4301 71.7877 70.53 71.7163 70.637 71.6593C70.908 71.5024 70.6655 71.0816 70.3945 71.2385V71.2456Z" fill="#FEB2B6"/>
<path d="M81.228 94.7379C81.1995 95.3013 80.686 95.8647 80.144 95.7292C80.7145 96.3426 81.3065 96.9844 81.5846 97.7761C81.8628 98.5677 81.7558 99.5662 81.0996 100.087C80.8429 100.294 80.522 100.415 80.2082 100.522C77.7405 101.378 74.9377 101.856 72.5771 100.736C71.0437 100.008 69.9311 98.7246 69.0254 97.2626C72.3203 95.1729 77.063 93.554 80.8429 93.4969C81.064 93.8821 81.2494 94.2957 81.228 94.7379Z" fill="#D88185"/>
<path d="M64.6599 87.385C66.5071 86.5435 68.7251 85.2883 69.3527 84.625C70.8504 83.0275 72.2482 81.3372 73.5534 79.5828C73.8529 80.1319 74.1596 80.6811 74.4876 81.216C75.1865 82.3785 75.9711 83.6479 75.7428 84.9816C75.4576 84.9959 75.1723 85.0101 74.887 85.0244C76.9695 87.6275 78.9023 90.3519 80.6638 93.1761C80.728 93.276 80.7922 93.3829 80.8493 93.4899C77.0694 93.547 72.3267 95.1659 69.0318 97.2555C68.4327 96.2927 67.9263 95.2443 67.4413 94.2316C66.393 92.0136 65.3303 89.7314 64.6599 87.3779V87.385Z" fill="#FEB2B6"/>
<path d="M64.6604 87.3852C64.1755 85.6807 63.8902 83.9405 63.9758 82.1646C64.1683 77.9283 66.5932 73.8632 70.2019 71.6451C71.0577 74.3909 72.1774 77.0582 73.5539 79.5829C72.2487 81.3374 70.8509 83.0347 69.3532 84.6251C68.7327 85.2884 66.5076 86.5436 64.6604 87.3852Z" fill="#D88185"/>
<path d="M15.0449 97.2841C15.1947 94.7594 15.3516 92.2276 15.5014 89.7029C15.8865 83.3127 16.3001 76.7942 18.7178 70.8676C18.8462 70.8391 18.9746 70.8034 19.0887 70.7321L18.7392 70.8034C18.7392 70.8034 18.725 70.8462 18.7107 70.8676C18.0617 70.996 17.32 70.5895 16.9705 69.9904C16.5569 69.2701 16.5711 68.3857 16.6425 67.5584C17.0846 62.3736 19.2813 57.5168 20.3724 52.4318C21.9272 45.1644 21.2283 37.4192 23.9027 30.487C25.108 27.3632 26.9551 24.5319 28.895 21.8004C29.9577 20.3027 31.0631 18.8121 32.4895 17.6496C34.9714 15.6242 38.2449 14.7684 41.4471 14.6115C41.0263 14.3761 41.2189 13.6415 41.6753 13.4917C42.1318 13.342 42.631 13.6059 42.9591 13.9625C42.9591 13.9625 42.9591 13.9553 42.9519 13.9482C42.4884 13.3063 43.1944 12.4505 43.9433 12.7144C44.5637 12.9355 45.1271 13.3135 45.5693 13.8056C45.5693 13.8056 45.5693 13.7984 45.5693 13.7913C45.4552 12.857 46.6962 12.3863 47.281 13.1209C47.552 13.4561 47.6946 13.884 47.6376 14.3119C48.2937 13.6344 49.4205 13.2921 50.1908 13.8341C50.961 14.3761 50.7328 15.9095 49.7914 15.9522L49.6987 16.2732C51.3319 16.6226 52.851 17.4642 54.0634 18.6196C55.0832 19.6038 55.882 20.8019 56.5524 22.05C56.8305 22.5635 57.0802 23.0912 57.3155 23.619C53.8423 23.0698 50.3263 22.7988 46.8174 22.8131C42.1032 22.8345 37.2322 23.4122 33.1741 25.7942C32.625 26.1152 32.0901 26.4718 31.6693 26.9496C30.9561 27.7484 30.6209 28.8181 30.407 29.8665C30.1288 31.2144 29.9933 32.5909 30.0005 33.9602C30.0076 34.9943 30.0932 36.057 30.4783 37.0198C30.9633 38.2322 31.8833 39.2164 32.8817 40.058C35.5562 42.3116 38.9224 43.7309 42.4028 44.0589C45.1771 44.3228 47.9585 43.9092 50.7328 43.6382C53.8922 43.3315 57.0588 43.196 60.2324 43.1675C60.2681 47.3111 60.2824 51.4618 60.9171 55.5555L60.9884 57.0675C61.5233 61.2539 62.2793 65.4189 63.2492 69.5268C56.6594 70.3256 50.3191 73.3067 45.5978 77.9852C44.7777 78.7983 44.0003 79.6612 43.3941 80.6454C42.6952 81.7794 42.2316 83.0417 41.8964 84.3326C39.8068 92.306 42.4456 100.814 46.4965 107.989C47.3166 109.444 48.2723 110.934 49.77 111.669C50.4333 111.997 51.3533 112.653 50.8826 113.224C53.4358 113.83 55.989 114.436 58.5493 115.042C59.2126 115.199 59.9258 115.385 60.3608 115.905C60.5748 116.162 60.7103 116.49 60.9528 116.726C61.1881 116.954 61.5019 117.068 61.8157 117.175C64.9894 118.295 68.2915 119.036 71.6363 119.4L71.6506 119.564C74.8029 120.983 78.1834 121.918 81.6209 122.31C82.2984 121.183 82.2414 119.721 83.2113 118.708C83.5965 118.309 84.1456 118.066 84.6876 118.173C85.8287 118.394 86.0284 119.714 86.0641 120.784C86.1497 123.422 86.2424 126.061 86.328 128.7C86.3636 129.755 86.0641 130.818 85.4008 131.645C83.3968 134.156 80.4584 132.309 77.8125 132.466C76.4717 132.544 75.2022 133.143 73.8614 133.172C73.0128 133.193 72.1855 132.979 71.351 132.822C69.9603 132.565 68.5482 132.473 67.1361 132.537C65.7668 132.601 64.1906 132.751 63.2278 131.767L63.0923 131.653C62.8712 132.516 61.8086 132.815 60.9242 132.908C56.5167 133.35 52.1021 132.387 47.7731 131.424C47.4093 132.351 46.1541 132.437 45.1557 132.373C40.9479 132.088 36.4833 131.702 33.1028 129.178C33.0315 129.649 32.5323 129.955 32.0616 129.977C31.5909 129.998 31.1344 129.791 30.7065 129.577C25.5145 126.953 21.7346 122.06 19.4952 116.69C17.2558 111.327 16.4214 105.479 15.9578 99.6804L16.1718 99.5805C16.5284 99.6233 16.8778 99.5092 17.0276 99.1883L16.1718 99.5805C15.8722 99.5449 15.5727 99.3951 15.3944 99.1526C15.0021 98.6249 15.0307 97.9045 15.0663 97.2484L15.0449 97.2841Z" fill="#FEB2B6"/>
<path d="M18.9677 70.5254C18.8678 70.5825 18.768 70.611 18.6539 70.6395L18.9534 70.9391C18.9534 70.9391 18.9677 70.8963 18.9819 70.8749L18.8108 71.0461C18.9249 71.0247 19.0461 70.9961 19.1602 70.9747C19.4669 70.9106 19.3385 70.447 19.0318 70.504L18.768 70.554C18.6111 70.5825 18.5469 70.6538 18.4898 70.8036C18.4185 70.989 18.6253 71.1388 18.7894 71.1031C18.9391 71.0675 19.0818 71.0175 19.2244 70.9391C19.4954 70.7893 19.2529 70.3685 18.9819 70.5183L18.9677 70.5254Z" fill="#FEB2B6"/>
<path d="M60.9313 116.747C60.6888 116.511 60.5533 116.183 60.3393 115.927C59.9043 115.406 59.1911 115.221 58.5278 115.064C55.9746 114.457 53.4214 113.851 50.8611 113.245C51.3318 112.675 50.4189 112.018 49.7485 111.69C48.2508 110.956 47.2952 109.465 46.475 108.01C42.4241 100.836 39.7853 92.3201 41.8749 84.3539C42.2101 83.063 42.6737 81.8006 43.3726 80.6667C43.9788 79.6825 44.7562 78.8195 45.5764 78.0065C50.2977 73.328 56.6308 70.3469 63.2277 69.5481C65.1106 77.5572 67.7921 85.3737 71.2368 92.8479C72.0071 94.5096 72.813 96.1642 73.3479 97.9115C74.382 101.285 74.3749 104.887 74.218 108.41C74.0539 112.19 73.6759 116.141 71.5934 119.3L71.6077 119.428C68.2628 119.065 64.9608 118.316 61.7871 117.203C61.4804 117.096 61.1666 116.975 60.9242 116.754L60.9313 116.747Z" fill="#FFE5B8"/>
<path d="M38.7443 30.123C39.6144 31.8347 39.379 34.3094 37.9241 35.4077C37.0683 36.0567 35.9843 36.1352 34.9502 36.1637C33.3526 36.1994 31.7622 36.1494 30.1718 36.0211C30.0434 35.4006 30.0006 34.7587 29.9935 34.1311C29.9721 32.7261 30.1005 31.3212 30.3858 29.9518C30.6068 28.8821 30.9349 27.7838 31.6624 26.9707C31.7479 26.8709 31.8407 26.7853 31.9405 26.6997C32.7963 26.7354 33.645 26.8209 34.4794 27.0206C36.1911 27.4343 37.8813 28.4328 38.7514 30.1373L38.7443 30.123Z" fill="#E25243"/>
<path d="M34.9508 36.1566C35.9778 36.1352 37.0689 36.0496 37.9248 35.4006C39.3725 34.3023 39.615 31.8204 38.7449 30.1159C37.8748 28.4042 36.1846 27.4129 34.4729 26.9993C33.6385 26.7996 32.7898 26.714 31.934 26.6783C32.3048 26.336 32.7328 26.0579 33.1678 25.8011C37.233 23.4191 42.104 22.8343 46.8111 22.82C50.3271 22.8057 53.8431 23.0767 57.3092 23.6259C57.7585 24.6386 58.1365 25.6799 58.4574 26.7425C57.894 26.7924 57.3306 26.8709 56.7814 27.0064C55.0698 27.42 53.3795 28.4185 52.5094 30.123C51.6393 31.8347 51.8747 34.3094 53.3296 35.4077C54.1854 36.0567 55.2695 36.1352 56.3036 36.1637C57.5445 36.1922 58.7783 36.1637 60.0193 36.0995C60.0763 36.9197 60.112 37.747 60.1405 38.5672C60.1905 40.1076 60.2047 41.6481 60.219 43.1886C57.0453 43.2243 53.8787 43.3526 50.7193 43.6593C47.945 43.9303 45.1636 44.344 42.3893 44.0801C38.909 43.752 35.5356 42.3328 32.8683 40.0791C31.8698 39.2376 30.9498 38.2534 30.4648 37.0409C30.3364 36.7129 30.2366 36.3705 30.1653 36.0211C31.7557 36.1566 33.3532 36.2065 34.9436 36.1637L34.9508 36.1566Z" fill="#FFE5B8"/>
<path d="M56.303 36.1564C55.276 36.135 54.1848 36.0494 53.329 35.4004C51.8812 34.3021 51.6387 31.8203 52.5088 30.1157C53.3789 28.4041 55.0692 27.4128 56.7808 26.9991C57.3371 26.8636 57.8934 26.7852 58.4568 26.7352C59.3697 29.7449 59.8047 32.9114 60.0116 36.0851C58.7777 36.1564 57.5368 36.185 56.2959 36.1493L56.303 36.1564Z" fill="#E25243"/>
<path d="M46.0114 30.4867C46.8173 30.4368 47.6589 30.394 48.4077 30.7221C49.1566 31.0501 49.8056 31.8489 49.7485 32.7618C49.6986 33.5748 49.1209 34.2595 48.4505 34.5661C47.7801 34.8728 47.0384 34.88 46.3252 34.8372C45.4195 34.7872 44.5066 34.666 43.665 34.288C43.4297 34.181 43.1943 34.0527 43.016 33.853C42.5453 33.3395 42.5382 32.4266 42.8948 31.7919C43.2514 31.1571 43.9004 30.7791 44.5494 30.6579C44.5494 30.6579 45.6263 30.4939 46.0114 30.4725V30.4867Z" fill="#3A3B3C"/>
<path d="M51.2393 34.502C51.2393 34.8586 51.8241 35.151 52.5444 35.151C53.2647 35.151 53.8495 34.8586 53.8495 34.502C53.8495 34.1454 53.2647 33.853 52.5444 33.853C51.8241 33.853 51.2393 34.1454 51.2393 34.502Z" fill="#E86B53"/>
<path d="M52.4732 25.5159C52.4874 25.4517 52.5159 25.3804 52.5659 25.3162C53.0865 24.5103 54.8909 24.225 55.6611 24.6744C55.9392 24.8384 56.032 25.088 56.0034 25.3447C56.089 25.7727 55.6326 26.172 55.2332 26.3004C55.2261 26.3004 55.2189 26.3004 55.2118 26.3004C54.9265 26.4145 54.5414 26.5001 54.1919 26.493C53.6927 26.5286 53.1935 26.4645 52.7941 26.2006C52.5516 26.0365 52.4018 25.7869 52.4732 25.5159Z" fill="#FEB2B6"/>
<path d="M57.8855 30.7934C57.7001 30.9645 57.5147 31.1357 57.3292 31.3069C57.1367 31.4852 56.8585 31.1785 57.0511 31.0002C57.2365 30.829 57.4219 30.6579 57.6074 30.4867C57.7999 30.3084 58.0781 30.6151 57.8855 30.7934Z" fill="#3C3C3D"/>
<path d="M56.2892 30.0376C56.2678 30.2587 56.2464 30.4798 56.225 30.7008C56.1965 30.9647 55.79 30.9362 55.8114 30.6723C55.8328 30.4512 55.8542 30.2301 55.8755 30.0091C55.9041 29.7452 56.3106 29.7737 56.2892 30.0376Z" fill="#3C3C3D"/>
<path d="M54.5556 30.4226C54.741 30.5866 54.9193 30.7578 55.1047 30.9218C55.2973 31.1001 54.9906 31.3783 54.798 31.2C54.6126 31.0359 54.4343 30.8648 54.2489 30.7007C54.0563 30.5224 54.363 30.2443 54.5556 30.4226Z" fill="#3C3C3D"/>
<path d="M54.0708 32.3483C54.0708 33.3967 54.9124 34.2525 55.9607 34.2597C57.0091 34.2597 57.865 33.4181 57.8721 32.3697C57.8721 31.3213 57.0305 30.4655 55.9821 30.4584C54.9338 30.4584 54.0779 31.2999 54.0708 32.3483Z" fill="white"/>
<path d="M54.6907 32.4265C54.6907 33.0969 55.2256 33.6389 55.896 33.646C56.5664 33.646 57.1084 33.1111 57.1155 32.4407C57.1155 31.7703 56.5806 31.2283 55.9102 31.2212C55.2398 31.2212 54.6978 31.7561 54.6907 32.4265Z" fill="#3C3C3D"/>
<path d="M55.4192 32.0272C55.4192 32.2483 55.5975 32.4266 55.8186 32.4266C56.0397 32.4266 56.218 32.2483 56.2251 32.0272C56.2251 31.8062 56.0468 31.6279 55.8257 31.6207C55.6046 31.6207 55.4263 31.799 55.4263 32.0201L55.4192 32.0272Z" fill="white"/>
<path d="M38.7653 34.8305C39.4861 34.8305 40.0705 34.5399 40.0705 34.1815C40.0705 33.823 39.4861 33.5325 38.7653 33.5325C38.0445 33.5325 37.4602 33.823 37.4602 34.1815C37.4602 34.5399 38.0445 34.8305 38.7653 34.8305Z" fill="#E86B53"/>
<path d="M43.3876 37.0768C42.4391 36.9271 41.6118 36.5063 40.9414 35.8145C40.7203 35.5863 40.378 35.9357 40.5991 36.1568C41.3194 36.8985 42.2323 37.3835 43.2592 37.5404C43.5659 37.5903 43.6943 37.1196 43.3876 37.0697V37.0768Z" fill="#3A3B3C"/>
<path d="M40.7556 26.5357C40.7413 26.4715 40.7128 26.4002 40.6629 26.336C40.1422 25.5301 38.3379 25.2448 37.5676 25.6941C37.2895 25.8582 37.1968 26.1078 37.2253 26.3645C37.1397 26.7924 37.5962 27.1918 37.9955 27.3202C38.0027 27.3202 38.0098 27.3202 38.0169 27.3202C38.3022 27.4343 38.6873 27.5199 39.0368 27.5128C39.536 27.5484 40.0353 27.4842 40.4346 27.2203C40.6771 27.0563 40.8269 26.8067 40.7556 26.5357Z" fill="#FEB2B6"/>
<path d="M32.7462 30.3802C32.9316 30.5513 33.117 30.7225 33.3024 30.8937C33.495 31.072 33.7731 30.7653 33.5806 30.587C33.3952 30.4158 33.2097 30.2447 33.0243 30.0735C32.8317 29.8952 32.5536 30.2019 32.7462 30.3802Z" fill="#3C3C3D"/>
<path d="M34.3368 29.6169C34.3581 29.838 34.3795 30.0591 34.4009 30.2802C34.4295 30.5441 34.836 30.5155 34.8146 30.2517C34.7932 30.0306 34.7718 29.8095 34.7504 29.5884C34.7219 29.3245 34.3154 29.353 34.3368 29.6169Z" fill="#3C3C3D"/>
<path d="M36.0761 30.0091C35.8907 30.1732 35.7124 30.3443 35.5269 30.5084C35.3272 30.6867 35.641 30.9648 35.8336 30.7865C36.019 30.6225 36.1973 30.4513 36.3828 30.2873C36.5753 30.109 36.2686 29.8309 36.0761 30.0091Z" fill="#3C3C3D"/>
<path d="M36.5549 31.9348C36.5549 32.9832 35.7134 33.839 34.665 33.8461C33.6166 33.8461 32.7608 33.0046 32.7537 31.9562C32.7537 30.9078 33.5952 30.052 34.6436 30.0448C35.692 30.0377 36.5478 30.8864 36.5549 31.9348Z" fill="white"/>
<path d="M35.9346 32.0133C35.9346 32.6837 35.3997 33.2257 34.7293 33.2328C34.0589 33.24 33.5169 32.6979 33.5098 32.0275C33.5098 31.3571 34.0447 30.8151 34.7151 30.808C35.3854 30.808 35.9275 31.3429 35.9346 32.0133Z" fill="#3C3C3D"/>
<path d="M35.2072 31.6137C35.2072 31.8348 35.0289 32.0131 34.8078 32.0131C34.5867 32.0131 34.4084 31.8348 34.4084 31.6137C34.4084 31.3926 34.5867 31.2143 34.8078 31.2072C35.0289 31.2072 35.2072 31.3854 35.2072 31.6065V31.6137Z" fill="white"/>
<path d="M61.7151 82.9134C64.2612 81.6439 66.9999 79.4901 66.7003 76.6587C66.4935 74.7046 64.8817 73.2283 63.2628 72.1157C61.3229 70.782 59.2261 69.6837 57.0295 68.8493C54.4977 67.8936 51.8518 67.2946 49.2415 66.5885C42.2594 64.7128 35.4699 62.1026 29.0298 58.8219C29.1867 58.3512 29.3864 57.8948 29.6289 57.4597C31.2478 54.607 34.8351 53.8367 38.1087 53.5443C45.0266 52.9238 51.973 59.3069 53 61.6319C54.3907 59.5066 62.2714 54.3217 68.9968 56.0476C72.1776 56.8678 75.5938 58.1943 76.7349 61.2753C77.1485 62.395 77.2555 63.6003 77.284 64.7913C77.3054 65.6328 77.2412 66.4744 77.1414 67.316C76.5066 72.6149 52.4081 95.5154 50.2614 95.4084C49.3627 95.4654 45.968 91.9423 42.1025 87.1639C48.8564 87.3922 55.6673 85.923 61.7223 82.8991L61.7151 82.9134Z" fill="#E86B53"/>
<path d="M28.2596 63.365C28.3666 62.5306 28.3737 61.6819 28.5306 60.8546C28.659 60.17 28.8159 59.4924 29.037 58.8363C35.4842 62.117 42.2666 64.7272 49.2487 66.6029C51.859 67.3018 54.5049 67.908 57.0367 68.8637C59.2333 69.6981 61.3372 70.7964 63.27 72.1301C64.8889 73.2427 66.5078 74.719 66.7075 76.6731C66.9999 79.5045 64.2613 81.6583 61.7223 82.9278C55.6745 85.9445 48.8636 87.4208 42.1026 87.1926C35.584 79.1336 27.7319 67.5015 28.2596 63.3793V63.365Z" fill="#E25243"/>
<path d="M30.8841 23.1626C30.2423 23.7474 29.686 24.4107 29.2081 25.1381C29.037 25.402 29.4577 25.6445 29.6289 25.3806C30.0854 24.6888 30.6131 24.0612 31.2265 23.5049C31.4547 23.291 31.1123 22.9486 30.8841 23.1626Z" fill="#D88185"/>
<path d="M25.0932 33.34C25.029 33.9034 24.9577 34.4668 24.8935 35.0231C24.8578 35.3298 25.3428 35.3298 25.3784 35.0231C25.4426 34.4597 25.5139 33.8963 25.5781 33.34C25.6138 33.0333 25.1288 33.0333 25.0932 33.34Z" fill="#D88185"/>
<path d="M28.9448 42.1974C28.902 42.932 28.8521 43.6737 28.8093 44.4083C28.7879 44.7221 29.2729 44.7221 29.2942 44.4083C29.337 43.6737 29.387 42.932 29.4298 42.1974C29.4511 41.8836 28.9662 41.8836 28.9448 42.1974Z" fill="#D88185"/>
<path d="M41.3261 46.933C41.3689 47.5963 41.4188 48.2667 41.4616 48.9299C41.483 49.2437 41.968 49.2437 41.9466 48.9299C41.9038 48.2667 41.8539 47.5963 41.8111 46.933C41.7897 46.6263 41.3047 46.6192 41.3261 46.933Z" fill="#D88185"/>
<path d="M56.6314 45.7778C56.5886 46.5195 56.6028 47.2541 56.6813 47.9958C56.717 48.3025 57.2019 48.3096 57.1663 47.9958C57.0878 47.2541 57.0735 46.5195 57.1163 45.7778C57.1377 45.464 56.6528 45.464 56.6314 45.7778Z" fill="#D88185"/>
<path d="M51.26 53.8865C51.2101 54.6139 51.2457 55.3342 51.3527 56.0617C51.3955 56.3684 51.8662 56.24 51.8234 55.9333C51.7236 55.2558 51.7022 54.5711 51.745 53.8865C51.7664 53.5727 51.2814 53.5727 51.26 53.8865Z" fill="#D88185"/>
<path d="M34.2795 50.0924C34.3295 50.6059 34.3081 51.1052 34.2082 51.6115C34.1512 51.9182 34.6147 52.0466 34.6789 51.7399C34.7859 51.1907 34.8216 50.6487 34.7645 50.0924C34.736 49.7858 34.251 49.7786 34.2795 50.0924Z" fill="#D88185"/>
<path d="M23.3387 48.2597C23.4671 49.0442 23.3958 49.8073 23.1461 50.5561C23.0463 50.8557 23.517 50.9769 23.6168 50.6845C23.9021 49.8501 23.9592 49.0014 23.8094 48.1313C23.7595 47.8246 23.2888 47.953 23.3387 48.2597Z" fill="#D88185"/>
<path d="M25.0578 56.5614C24.9723 57.189 24.8867 57.8237 24.8011 58.4513C24.7583 58.758 25.229 58.8863 25.2718 58.5797C25.3574 57.9521 25.443 57.3173 25.5285 56.6897C25.5713 56.3831 25.1006 56.2547 25.0578 56.5614Z" fill="#D88185"/>
<path d="M19.4382 63.2579V65.9966C19.4382 66.3104 19.9232 66.3104 19.9232 65.9966V63.2579C19.9232 62.9441 19.4382 62.9441 19.4382 63.2579Z" fill="#D88185"/>
<path d="M21.4358 74.4264C21.4715 75.1538 21.4216 75.867 21.2789 76.5802C21.2148 76.8869 21.6855 77.0153 21.7497 76.7086C21.8994 75.9526 21.9636 75.1966 21.9279 74.4264C21.9137 74.1126 21.4287 74.1126 21.443 74.4264H21.4358Z" fill="#D88185"/>
<path d="M35.8694 87.4919V89.9168C35.8694 90.2306 36.3544 90.2306 36.3544 89.9168V87.4919C36.3544 87.1781 35.8694 87.1781 35.8694 87.4919Z" fill="#D88185"/>
<path d="M18.4897 86.5435V88.9683C18.4897 89.2821 18.9747 89.2821 18.9747 88.9683V86.5435C18.9747 86.2297 18.4897 86.2297 18.4897 86.5435Z" fill="#D88185"/>
<path d="M27.1269 90.1235C27.0842 90.8938 27.1697 91.6498 27.3766 92.3915C27.4621 92.691 27.9328 92.5626 27.8473 92.2631C27.6476 91.5642 27.5762 90.851 27.6119 90.1235C27.6262 89.8097 27.1412 89.8097 27.1269 90.1235Z" fill="#D88185"/>
<path d="M20.3867 96.5497V98.6536C20.3867 98.9674 20.8717 98.9674 20.8717 98.6536V96.5497C20.8717 96.2359 20.3867 96.2359 20.3867 96.5497Z" fill="#D88185"/>
<path d="M73.8396 88.8685C74.132 89.4248 74.3531 90.0025 74.51 90.6158C74.5885 90.9153 75.0592 90.787 74.9807 90.4874C74.8167 89.8384 74.5742 89.2179 74.2604 88.626C74.1178 88.3479 73.697 88.5975 73.8396 88.8685Z" fill="#D88185"/>
<path d="M69.6601 86.1941C69.7743 86.5792 69.8884 86.9572 70.0096 87.3424C70.1023 87.6419 70.5659 87.5135 70.4803 87.214C70.3662 86.8289 70.2521 86.4509 70.1308 86.0658C70.0381 85.7662 69.5746 85.8946 69.6601 86.1941Z" fill="#D88185"/>
<path d="M73.7326 82.5495C73.8752 82.8633 74.0178 83.1842 74.1534 83.498C74.2817 83.7833 74.7025 83.5337 74.5741 83.2555C74.4315 82.9417 74.2889 82.6208 74.1534 82.307C74.025 82.0217 73.6042 82.2713 73.7326 82.5495Z" fill="#D88185"/>
<path d="M36.7832 17.072C36.1199 17.2075 35.4995 17.4785 34.9574 17.885C34.7078 18.0705 34.9503 18.4912 35.1999 18.3058C35.7205 17.9278 36.284 17.6711 36.9116 17.5427C37.2182 17.4785 37.0899 17.0149 36.7832 17.072Z" fill="#D88185"/>
<path d="M43.2723 20.4452C42.7089 20.5094 42.1455 20.5665 41.5821 20.6307C41.2754 20.6663 41.2682 21.1513 41.5821 21.1156C42.1455 21.0514 42.7089 20.9944 43.2723 20.9302C43.579 20.8945 43.5861 20.4096 43.2723 20.4452Z" fill="#D88185"/>
<path d="M47.5943 17.9205C46.9952 17.8492 46.4033 17.7779 45.8042 17.7137C45.4976 17.678 45.4976 18.163 45.8042 18.1986C46.4033 18.27 46.9952 18.3413 47.5943 18.4055C47.901 18.4411 47.901 17.9561 47.5943 17.9205Z" fill="#D88185"/>
<path d="M52.3235 20.7947L53.9067 21.6292C54.1849 21.7718 54.4274 21.3581 54.1492 21.2084C53.6215 20.9302 53.0937 20.6521 52.566 20.3739C52.2878 20.2313 52.0453 20.645 52.3235 20.7947Z" fill="#D88185"/>
<path d="M60.6251 75.1969C62.7503 74.9045 64.947 75.1256 66.9724 75.8388C66.8797 76.0599 66.5802 76.0884 66.3377 76.0884C64.8471 76.0741 63.3352 75.9957 61.8803 76.2881C61.6877 76.3237 61.488 76.3737 61.3026 76.3166C61.0458 76.2382 60.8889 75.9886 60.8105 75.7389L60.6179 75.1969H60.6251Z" fill="#3A3B3C"/>
<path d="M60.9172 77.9069C63.0497 78.1779 65.1108 78.9624 66.8723 80.1819C66.7226 80.3674 66.4302 80.3246 66.1948 80.2604C64.7613 79.8539 63.3278 79.3832 61.8372 79.2904C61.6447 79.2762 61.4379 79.269 61.2738 79.1692C61.0527 79.0266 60.96 78.7484 60.96 78.4845L60.9244 77.914L60.9172 77.9069Z" fill="#3A3B3C"/>
<path d="M61.0815 76.6015C63.2282 76.5801 65.3821 77.0865 67.2934 78.0493C67.1722 78.2561 66.8726 78.249 66.6301 78.2133C65.1538 78.0065 63.6704 77.7355 62.1799 77.8424C61.9873 77.8567 61.7805 77.8781 61.6093 77.7925C61.3668 77.6855 61.2384 77.4145 61.2028 77.1578L61.0887 76.5944L61.0815 76.6015Z" fill="#3A3B3C"/>
<path d="M22.783 57.2172C23.8457 58.7149 25.2863 59.9487 26.9267 60.776C27.269 60.9471 27.6327 61.1112 27.8681 61.4178C28.1034 61.7174 28.1462 62.2095 27.8538 62.452C30.6709 65.4188 35.1925 65.697 39.0152 67.2232C39.4859 67.4086 39.6642 67.9792 39.386 68.4071C45.3697 69.7479 51.3604 71.0886 57.3441 72.4294C58.0501 72.5863 58.7633 72.7504 59.4123 73.0784C60.9528 73.8772 61.8657 75.5675 62.2151 77.272C62.3435 77.9138 62.4077 78.5842 62.2437 79.2118C61.7944 80.895 59.9329 81.7294 58.257 82.2144C54.6696 83.2556 50.9254 83.762 47.1883 83.7192C47.0243 83.7192 46.8388 83.6978 46.7461 83.5694C46.6534 83.4339 46.8317 83.1986 46.9529 83.3055C42.0248 84.8888 36.4905 84.5037 31.8263 82.25C31.4839 82.086 31.1416 81.9006 30.9062 81.601C30.7636 81.4156 30.6709 81.1874 30.5211 81.0019C30.2073 80.6097 29.6867 80.4599 29.2089 80.3173C26.5772 79.5328 24.0596 78.3703 21.7632 76.8797L22.7902 57.2243L22.783 57.2172Z" fill="#FEB2B6"/>
<path d="M25.8855 66.5888C26.021 67.2663 26.1137 67.9438 26.1565 68.6356C26.1779 68.9494 26.6628 68.9494 26.6414 68.6356C26.5915 67.901 26.4988 67.1807 26.3562 66.4604C26.292 66.1537 25.8284 66.2821 25.8855 66.5888Z" fill="#D88185"/>
<path d="M28.6029 77.6927C28.6242 78.5771 28.5886 79.4472 28.4816 80.3244C28.4459 80.6311 28.9309 80.6311 28.9666 80.3244C29.0736 79.4472 29.1092 78.5771 29.0878 77.6927C29.0807 77.3789 28.5957 77.3789 28.6029 77.6927Z" fill="#D88185"/>
<path d="M34.0081 71.2812C34.3504 71.866 34.7855 72.3723 35.3204 72.786C35.5628 72.9785 35.9123 72.6362 35.6627 72.4436C35.1635 72.0514 34.7498 71.5807 34.4289 71.0315C34.272 70.7605 33.8512 71.003 34.0081 71.274V71.2812Z" fill="#D88185"/>
<path d="M44.8202 72.1655C44.2568 72.0657 43.6933 71.9659 43.1299 71.8731C42.8232 71.8232 42.6949 72.2868 43.0015 72.3438C43.565 72.4437 44.1284 72.5435 44.6918 72.6362C44.9985 72.6862 45.1268 72.2226 44.8202 72.1655Z" fill="#D88185"/>
<path d="M40.3276 80.0036C39.6286 79.9252 38.9226 79.8396 38.2237 79.7612C37.917 79.7255 37.917 80.2105 38.2237 80.2461C38.9226 80.3246 39.6286 80.4101 40.3276 80.4886C40.6342 80.5243 40.6342 80.0393 40.3276 80.0036Z" fill="#D88185"/>
<path d="M49.9777 77.6929C49.2431 77.5645 48.5085 77.4361 47.781 77.3078C47.4744 77.2507 47.346 77.7214 47.6527 77.7785C48.3872 77.9068 49.1218 78.0352 49.8493 78.1636C50.156 78.2206 50.2843 77.7499 49.9777 77.6929Z" fill="#D88185"/>
<path d="M58.0781 74.8827C57.4576 74.6045 56.8158 74.4548 56.1311 74.4619C55.8173 74.4619 55.8173 74.9469 56.1311 74.9469C56.723 74.9469 57.2936 75.061 57.8285 75.3035C58.1138 75.4318 58.3562 75.0111 58.071 74.8827H58.0781Z" fill="#D88185"/>
<path d="M59.6475 79.3618C59.0556 79.5116 58.4565 79.6613 57.8646 79.8111C57.565 79.8896 57.6934 80.3531 57.993 80.2818C58.5849 80.132 59.184 79.9823 59.7759 79.8325C60.0755 79.7541 59.9471 79.2905 59.6475 79.3618Z" fill="#D88185"/>
</g>
</g>
</g>
<defs>
<clipPath id="clip0_33_10866">
<rect x="15.0247" y="12.6644" width="85.1403" height="121.285" rx="30" fill="white"/>
</clipPath>
</defs>
</svg>
