<svg width="166" height="214" viewBox="0 0 166 214" fill="none" xmlns="http://www.w3.org/2000/svg">
<mask id="mask0_126_1541" style="mask-type:alpha" maskUnits="userSpaceOnUse" x="0" y="0" width="166" height="214">
<path d="M0 0H166V184C166 200.569 152.569 214 136 214H0V0Z" fill="#D9D9D9"/>
</mask>
<g mask="url(#mask0_126_1541)">
<g clip-path="url(#clip0_126_1541)">
<path fill-rule="evenodd" clip-rule="evenodd" d="M129.138 88.1077C135.593 91.5928 137.611 100.638 140.074 113.655C142.536 126.672 145.44 143.657 146.8 153.505C148.159 163.35 147.976 166.054 144.177 169.19C140.379 172.326 132.966 175.891 119.542 180.672C106.119 185.454 86.6831 191.45 73.0141 193.298C59.3429 195.145 51.4361 192.847 46.7008 188.48C41.9656 184.113 40.4019 177.678 38.7477 171.332C37.0936 164.989 35.3468 158.737 34.3871 153.357C33.4295 147.978 33.2591 143.472 33.2022 137.878C33.1433 132.284 33.1959 125.605 33.3264 119.767C33.4569 113.928 33.6652 108.934 38.0469 105.104C42.4265 101.274 50.9773 98.6073 62.1483 96.0797C73.3192 93.5501 87.1104 91.1614 99.4515 88.9285C111.793 86.6955 122.682 84.6225 129.136 88.1077H129.138Z" fill="#FEB2B6"/>
<path d="M90.246 43.7476C89.6189 44.6315 89.2695 45.6627 89.0107 46.694C88.3477 49.4741 88.4025 52.4562 89.3979 55.1459C90.3913 57.8355 92.3632 60.1736 94.9413 61.4237C96.303 62.0867 97.7951 62.436 99.304 62.6402C101.642 62.9538 104.037 62.9348 106.394 62.8969C108.29 62.878 110.187 62.8422 112.083 62.8233C112.378 61.1102 112.415 59.3613 112.304 57.6313C112.028 52.8982 110.812 48.2766 109.376 43.7476C108.751 41.7777 108.051 39.7889 107.205 37.8738C102.692 37.9285 98.2013 38.9408 94.1311 40.8559C92.6389 41.5567 91.1657 42.4028 90.2271 43.7476H90.246Z" fill="#E25243"/>
<path d="M106.394 62.897C104.018 62.9349 101.642 62.9517 99.306 62.6403C97.7971 62.4382 96.3049 62.0868 94.9412 61.4238C92.3631 60.1716 90.3933 57.8335 89.3999 55.1459C88.4044 52.4584 88.3497 49.4742 89.0127 46.694C89.2694 45.6439 89.6209 44.6126 90.248 43.7477C91.1867 42.4029 92.6767 41.5568 94.1499 40.856C98.2201 38.9409 102.711 37.9286 107.223 37.8739C105.641 34.2288 103.559 30.8594 100.447 28.4455C94.0573 23.4745 85.1466 23.7502 77.0798 24.5794C63.9706 25.9242 50.7498 26.9365 37.8615 29.5693C35.6517 32.3494 33.644 35.2958 32.0613 38.4442C35.578 38.48 39.0948 39.1071 42.3905 40.3046C43.9373 40.856 45.4842 41.5758 46.5512 42.828C47.252 43.6382 47.6919 44.6316 48.0433 45.6628C48.963 48.3693 49.1861 51.3514 48.4306 54.1147C47.675 56.8759 45.9451 59.3992 43.4954 60.8724C42.2074 61.6637 40.7342 62.1436 39.261 62.474C36.9586 63.0086 34.5847 63.1917 32.2276 63.3769C30.7355 63.4863 29.2454 63.6147 27.7344 63.7262C27.7891 68.3289 28.029 72.9147 28.4163 77.5173C30.6808 77.7741 32.9831 77.9046 35.2666 78.014C51.8568 78.8622 68.4827 79.7082 85.054 78.7148C90.3743 78.4013 95.8083 77.8667 100.722 75.7874C105.639 73.7249 110.077 69.8778 111.641 64.7764C111.843 64.1324 111.971 63.4884 112.083 62.8423C110.187 62.8612 108.29 62.897 106.394 62.916V62.897Z" fill="#FFE5B8"/>
<path d="M39.2608 62.4552C40.7339 62.1248 42.2071 61.626 43.4951 60.8536C45.9448 59.3805 47.6937 56.8571 48.4303 54.0959C49.1858 51.3348 48.9649 48.3505 48.0431 45.644C47.6937 44.6317 47.2517 43.6363 46.5509 42.8092C45.4818 41.557 43.9371 40.8393 42.3902 40.2858C39.0756 39.0883 35.5778 38.4633 32.0611 38.4254C31.4718 39.585 30.9373 40.7825 30.4785 42.0158C28.2876 47.9085 27.772 54.279 27.7173 60.5569C27.7173 61.6071 27.7173 62.6551 27.7173 63.7053C29.2094 63.5959 30.6994 63.4654 32.2105 63.356C34.5676 63.1729 36.9415 62.9877 39.2439 62.4531H39.2629L39.2608 62.4552Z" fill="#E25243"/>
<path d="M65.5007 44.4674C63.493 44.4863 61.4137 44.5221 59.6269 45.4607C57.8233 46.3993 56.367 48.4808 56.6616 50.7263C56.9205 52.7151 58.4652 54.3167 60.1783 54.9607C61.8914 55.6047 63.714 55.4952 65.4818 55.2553C67.7105 54.9607 69.9371 54.5187 71.9638 53.4517C72.5341 53.1571 73.0876 52.7888 73.4917 52.2732C74.5587 50.9283 74.4303 48.6828 73.437 47.1717C72.4415 45.6628 70.7853 44.8525 69.1458 44.6673C69.1458 44.6673 66.4583 44.4463 65.5007 44.4653V44.4674Z" fill="#3A3B3C"/>
<path d="M47.1425 35.1504C47.1068 34.9841 47.0331 34.8199 46.9216 34.6537C45.6315 32.6649 41.1761 31.9472 39.261 33.0711C38.5791 33.4751 38.3413 34.1023 38.415 34.7273C38.194 35.7775 39.3347 36.7898 40.3301 37.0844C40.3301 37.0844 40.3659 37.0844 40.3848 37.0844C41.0856 37.3601 42.0411 37.5811 42.9082 37.5622C44.1415 37.6548 45.3747 37.4885 46.3702 36.8445C46.9784 36.4404 47.3467 35.8322 47.1804 35.1504H47.1447H47.1425Z" fill="#FEB2B6"/>
<path d="M32.2635 48.536C32.7244 48.9591 33.1832 49.3821 33.6441 49.8072C34.1218 50.2492 34.8037 49.4936 34.326 49.0517C33.8651 48.6286 33.4063 48.2056 32.9454 47.7805C32.4677 47.3386 31.7858 48.0941 32.2635 48.536Z" fill="#3C3C3D"/>
<path d="M36.222 46.6589C36.2767 47.2123 36.3315 47.7448 36.3883 48.2983C36.443 48.9612 37.4742 48.8876 37.4006 48.2246C37.3459 47.6732 37.2911 47.1387 37.2343 46.5852C37.1796 45.9223 36.1484 45.9959 36.222 46.6589Z" fill="#3C3C3D"/>
<path d="M40.5134 47.6157C40.0715 48.0219 39.6106 48.4449 39.1686 48.849C38.6888 49.291 39.4443 49.9728 39.9242 49.5309C40.3661 49.1268 40.827 48.7017 41.269 48.2976C41.7488 47.8557 40.9933 47.1738 40.5134 47.6157Z" fill="#3C3C3D"/>
<path d="M41.7111 52.3853C41.7111 54.9823 39.6297 57.0995 37.0347 57.1163C34.4377 57.1353 32.3205 55.0349 32.3037 52.44C32.3037 49.843 34.3851 47.7258 36.98 47.709C39.577 47.69 41.6942 49.7904 41.7111 52.3853Z" fill="white"/>
<path d="M40.1638 52.5676C40.1638 54.2239 38.8379 55.5687 37.1817 55.5876C35.5254 55.5876 34.1806 54.2618 34.1616 52.6055C34.1616 50.9492 35.4875 49.6044 37.1438 49.5854C38.8001 49.5854 40.1449 50.9113 40.1638 52.5676Z" fill="#3C3C3D"/>
<path d="M38.3749 51.5751C38.3749 52.1265 37.9329 52.5706 37.3815 52.5706C36.828 52.5706 36.3882 52.1286 36.3882 51.5751C36.3882 51.0216 36.8301 50.5818 37.3815 50.5818C37.9329 50.5818 38.3749 51.0237 38.3749 51.5751Z" fill="white"/>
<path d="M60.3446 60.0983C60.7676 61.9756 62.4617 63.3583 64.4127 63.3204C66.3825 63.2846 67.9294 61.8472 68.647 60.0983C68.9606 59.3617 67.7442 59.0313 67.4306 59.7658C66.3446 62.3986 62.3123 63.0447 61.5568 59.7658C61.3737 58.9745 60.1762 59.3049 60.3424 60.0983H60.3446Z" fill="#3A3B3C"/>
<path d="M104.224 46.5107C103.764 46.9337 103.305 47.3567 102.844 47.7818C102.366 48.2238 101.684 47.4682 102.162 47.0263C102.623 46.6033 103.082 46.1802 103.543 45.7551C104.02 45.3132 104.702 46.0687 104.224 46.5107Z" fill="#3C3C3D"/>
<path d="M100.28 44.6152C100.226 45.1665 100.171 45.7011 100.114 46.2546C100.059 46.9175 99.0282 46.8439 99.1019 46.1809C99.1566 45.6274 99.2113 45.095 99.2682 44.5415C99.3229 43.8786 100.354 43.9522 100.28 44.6152Z" fill="#3C3C3D"/>
<path d="M95.9726 45.5897C96.4146 45.9959 96.8755 46.4189 97.3174 46.823C97.7973 47.265 97.0417 47.9468 96.5619 47.5049C96.1199 47.1008 95.6611 46.6757 95.2171 46.2716C94.7393 45.8297 95.4928 45.1478 95.9726 45.5897Z" fill="#3C3C3D"/>
<path d="M94.7769 50.3587C94.7769 52.9557 96.8583 55.0729 99.4532 55.0918C102.05 55.0918 104.167 53.0104 104.186 50.4155C104.186 47.8185 102.105 45.7013 99.51 45.6844C96.913 45.6844 94.7958 47.7658 94.7769 50.3608V50.3587Z" fill="white"/>
<path d="M96.3242 50.5433C96.3242 52.1996 97.6501 53.5444 99.3064 53.5633C100.965 53.5633 102.307 52.2375 102.326 50.5812C102.326 48.9249 101.001 47.5801 99.3443 47.5612C97.688 47.5612 96.3432 48.887 96.3242 50.5433Z" fill="#3C3C3D"/>
<path d="M98.1274 49.5482C98.1274 50.1017 98.5694 50.5415 99.1229 50.5415C99.6764 50.5415 100.116 50.0995 100.116 49.5482C100.116 48.9947 99.6743 48.5548 99.1229 48.5548C98.5694 48.5548 98.1274 48.9968 98.1274 49.5482Z" fill="white"/>
<path d="M86.0851 37.0635C86.1041 36.8973 86.1588 36.7331 86.2514 36.5479C87.3184 34.4307 91.6832 33.2333 93.7078 34.155C94.4255 34.4855 94.7201 35.0747 94.739 35.7019C95.0716 36.7331 94.0382 37.838 93.0996 38.2421C93.0996 38.2421 93.0617 38.2421 93.0449 38.261C92.3819 38.6104 91.4622 38.924 90.5952 38.9976C89.3787 39.2186 88.1265 39.1997 87.0785 38.6483C86.4345 38.3157 85.9925 37.7454 86.1019 37.0467L86.083 37.0656L86.0851 37.0635Z" fill="#FEB2B6"/>
<path d="M91.7758 54.7044C91.8853 55.5883 90.5236 56.4722 88.7558 56.6932C86.988 56.9142 85.4601 56.3628 85.3675 55.4789C85.2581 54.595 86.6197 53.711 88.3875 53.4901C90.1553 53.2691 91.6832 53.8226 91.7758 54.7065V54.7044Z" fill="#E86B53"/>
<path d="M50.4007 56.2151C50.327 57.099 48.818 57.7072 47.0502 57.5599C45.2824 57.4126 43.9018 56.5665 43.9755 55.6826C44.0491 54.7987 45.5581 54.1905 47.3259 54.3378C49.0937 54.4851 50.4743 55.3333 50.4007 56.2151Z" fill="#E86B53"/>
<path d="M55.5753 19.2782C54.3778 19.4992 53.3466 20.3095 52.831 21.4144C52.4985 22.1509 53.5865 22.7781 53.9169 22.0415C54.3042 21.1955 55.0029 20.6609 55.9058 20.4757C56.6971 20.3284 56.3667 19.1141 55.5753 19.2614V19.2803V19.2782Z" fill="#D88185"/>
<path d="M36.2765 132.701C27.309 134.745 23.0747 144.834 20.4777 153.654C12.634 180.205 6.88855 207.55 6.1709 235.241C6.09724 238.242 6.0783 241.336 7.18319 244.135C8.28808 246.934 10.7378 249.401 13.7199 249.622C15.9844 249.788 18.1395 248.702 20.0715 247.504C35.3 238.076 44.3391 220.732 47.3044 203.075C50.2697 185.418 47.82 167.298 44.3959 149.733L36.2934 132.701H36.2744H36.2765Z" fill="#E25243"/>
<path d="M123.096 119.775C129.228 117.546 135.433 114.673 139.631 109.683C139.208 107.585 138.783 105.468 138.36 103.368L137.605 100.661C135.083 85.6369 130.609 70.9618 124.329 57.0781C124.937 57.4821 125.802 56.9497 126.004 56.2678C126.206 55.5691 125.968 54.8325 125.729 54.1506C122.506 44.9811 118.714 36.0136 114.368 27.3407C112.895 24.3943 111.329 21.4311 109.029 19.074C106.691 16.6622 103.69 14.968 100.596 13.6422C93.5815 10.66 85.46 9.49831 78.2982 12.1332C79.643 11.4892 78.7591 9.15106 77.2859 8.91114C76.2 8.72804 75.1688 9.24366 74.2301 9.90449C73.9544 10.1991 73.6598 10.439 73.2915 10.6221C73.5861 10.3822 73.8997 10.1255 74.2301 9.90449C75.7391 8.26504 75.7391 5.22817 73.8618 3.92124C72.094 2.66903 69.3686 3.64554 68.411 5.48703C68.3184 5.9837 68.1901 6.46354 68.0617 6.94128C68.0617 6.40672 68.1711 5.92898 68.411 5.48703C68.632 4.40108 68.7246 3.31513 68.3921 2.26496C67.9144 0.755991 66.1823 -0.479383 64.7281 0.183552C64.0651 0.47819 63.6042 1.10324 63.2359 1.7304C61.7817 4.16116 61.2114 7.10753 61.6154 9.90659C60.1065 8.69226 60.1065 6.04053 58.3387 5.26605C56.5161 4.4558 54.5462 6.70346 54.7841 8.69016C55.024 10.679 56.5877 12.2069 58.044 13.5517L57.4169 13.699C51.985 14.3072 47.7317 18.4679 44.0298 22.4645C41.9126 24.7479 39.8123 27.0861 37.8803 29.5358C50.7875 26.903 63.9894 25.8907 77.0986 24.5459C85.1633 23.7167 94.0761 23.441 100.465 28.4119C105.197 32.0949 107.592 38.0045 109.414 43.7141C110.851 48.2242 112.066 52.8647 112.341 57.5979C112.489 59.9908 112.379 62.4405 111.66 64.7429C110.094 69.8443 105.657 73.6914 100.741 75.7539C95.825 77.8163 90.412 78.3509 85.0728 78.6813C68.5015 79.6768 51.8566 78.8286 35.2854 77.9826C33.0209 77.8732 30.7185 77.7427 28.4351 77.4859C29.3 87.7414 30.7922 97.978 32.0801 108.217C32.6147 112.377 33.0924 116.557 33.3871 120.756C62.2573 130.533 94.4633 130.201 123.113 119.76L123.094 119.779L123.096 119.775Z" fill="#FEB2B6"/>
<path d="M108.497 262.733C107.207 267.428 105.826 272.124 103.894 276.598C101.813 281.44 99.0704 286.007 95.8104 290.149C97.2836 289.819 98.7568 289.467 100.211 289.118L100.672 289.08C99.9901 292.818 99.3082 296.538 98.6284 300.276C98.2791 302.191 97.9655 304.29 98.9588 305.946C99.9543 307.621 102.844 308.12 103.692 306.371C106.161 315.338 97.4499 323.938 97.8918 333.217C98.4453 333.364 98.9967 333.511 99.5502 333.659C99.7712 336.327 99.9732 339.053 99.2367 341.614C98.5001 344.173 95.701 342.847 93.0871 343.401C91.8349 343.657 91.1362 344.745 90.2692 347.913C89.6967 350.068 88.6676 352.166 90.2881 353.694C91.9086 355.222 94.2846 355.59 96.4923 355.849C102.421 356.512 108.368 356.807 114.335 356.697C116.858 356.659 119.472 356.512 121.736 355.371C123.799 354.321 125.363 352.517 126.617 350.567C128.475 347.656 129.708 344.341 130.207 340.917C130.336 340.069 130.409 339.204 130.723 338.413C131.072 337.51 131.662 336.738 132.196 335.927C135.767 330.422 135.658 323.388 135.418 316.816C139.175 315.766 141.071 311.66 142.342 307.96C147.867 291.757 150.243 274.687 152.507 257.728C154.624 241.82 156.594 225.285 152.507 209.873C140.557 213.886 128.221 216.723 115.663 218.601C115.663 233.497 112.495 248.319 108.52 262.718L108.501 262.737L108.497 262.733Z" fill="#FEB2B6"/>
<path fill-rule="evenodd" clip-rule="evenodd" d="M38.7373 123.239C44.5417 124.075 56.3103 126.558 65.1368 127.937C73.9633 129.315 79.8476 129.591 92.0014 127.465C104.155 125.34 122.576 120.813 131.679 119.756C140.781 118.7 140.564 121.112 137.698 127.007C134.831 132.901 129.313 142.279 122.189 149.359C115.063 156.439 106.329 161.22 98.4056 164.341C90.482 167.462 83.3728 168.925 76.754 170.12C70.1351 171.316 64.0046 172.244 58.9179 169.399C53.8312 166.553 49.7862 159.932 46.8882 153.589C43.9924 147.246 42.2456 141.176 41.067 137.494C39.8906 133.811 39.2824 132.512 38.0512 131.298C36.8201 130.081 34.9638 128.947 34.061 127.749C33.156 126.552 33.2044 125.289 33.1476 124.254C33.0929 123.218 32.9329 122.406 38.7394 123.241L38.7373 123.239Z" fill="#EEEEEF"/>
<path d="M75.784 137.498C75.6787 138.276 75.563 139.019 75.4325 139.718C75.1715 141.132 74.8516 142.357 74.5128 143.319C74.1424 144.369 73.7257 145.148 73.3048 145.568C72.665 146.212 72.0694 146.252 71.2339 145.613C70.6888 145.196 70.0154 144.407 69.0178 143.169L68.1486 142.088C66.2209 139.682 63.5355 136.329 61.3236 134.214C60.0693 133.013 58.9623 132.209 57.931 131.603C56.904 131.001 55.9254 130.584 54.9468 130.167L55.4855 128.9C56.4978 129.33 57.5101 129.761 58.6255 130.416C59.7346 131.068 60.9258 131.933 62.2748 133.223C64.5541 135.401 67.271 138.792 69.222 141.227L70.0911 142.309C71.0235 143.462 71.638 144.19 72.0694 144.52C72.2083 144.628 72.282 144.645 72.3304 144.596C72.6061 144.32 72.9112 143.721 73.2164 142.86C73.5363 141.955 73.8351 140.802 74.0835 139.469C74.336 138.104 74.5381 136.542 74.7106 134.882C74.879 133.278 75.0284 131.483 75.18 129.687L75.866 129.744L76.5521 129.698C76.6784 131.525 76.8047 133.356 76.9478 135.103C77.0867 136.788 77.2403 138.308 77.415 139.493C77.5876 140.654 77.7812 141.49 77.9874 142.077C78.1642 142.576 78.3326 142.856 78.4925 142.988C78.6462 143.112 79.0544 142.94 80.1046 142.494L80.374 142.38C81.1674 142.045 82.1734 141.631 83.2867 141.174L86.9255 139.688L87.4432 140.964L83.8086 142.443C82.6616 142.913 81.6493 143.331 80.9128 143.643L80.6434 143.759C79.0397 144.44 78.4168 144.706 77.6212 144.053C77.2761 143.771 76.9604 143.293 76.691 142.534C76.4532 141.864 76.2385 140.941 76.0533 139.69C75.9565 139.04 75.8681 138.301 75.784 137.493V137.498Z" fill="#B6B6B7"/>
<path d="M32.775 121.594C36.3086 158.994 11.5232 203.278 4.53613 215.173C11.3675 217.732 18.9544 218.708 26.2825 219.426C55.8536 222.334 86.3443 223.054 115.659 218.635C128.217 216.738 140.553 213.904 152.503 209.907C152.171 208.674 151.821 207.441 151.417 206.224L151.141 204.917C152.947 205.138 153.701 202.672 153.701 200.83C153.719 192.728 152.762 184.627 150.885 176.746L151.066 176.544C150.847 175.293 150.601 173.854 150.316 172.189C148.18 159.688 143.908 134.686 141.614 120.217C141.391 118.811 141.187 117.507 141.002 116.288C136.085 117.336 131.072 118.727 126.318 120.245C113.354 124.382 102.303 129.471 93.4219 135.555C84.5407 141.64 77.8293 148.719 73.6518 158.886C73.5634 159.103 73.4771 159.32 73.3908 159.539C73.3277 158.731 73.2456 157.929 73.1446 157.133C72.1007 148.972 68.9291 141.667 63.7141 136.065C57.895 138.876 50.8952 139.598 45.0846 136.847C39.8674 134.383 36.0939 128.751 36.1507 123.107C36.1002 128.745 39.8568 134.366 45.0846 136.829H45.1035C50.9058 139.575 57.8929 138.859 63.7077 136.058C62.7186 134.998 61.6558 133.996 60.5215 133.061C53.3933 127.2 40.5471 123.368 36.7274 122.551C35.5236 122.294 32.8403 121.709 32.7771 121.596L32.775 121.594Z" fill="#E86B53"/>
<path d="M147.955 158.362C145.815 145.779 143.224 130.393 141.612 120.217C141.389 118.811 141.185 117.507 140.999 116.288C140.45 116.406 139.899 116.526 139.347 116.652C139.168 117.06 139.027 117.557 138.922 118.146C138.417 120.95 138.693 125.824 137.866 131.294C137.039 136.765 135.107 142.833 131.43 148.808C127.751 154.785 122.328 160.669 117.708 164.693C113.089 168.717 109.275 170.88 107.116 172.305C104.955 173.73 104.448 174.418 106.466 174.915C108.486 175.411 113.032 175.719 120.939 173.374C128.846 171.03 140.113 166.033 146.896 159.444C147.263 159.088 147.616 158.726 147.955 158.362Z" fill="#E25243"/>
<path d="M152.162 182.956C151.798 180.875 151.371 178.802 150.881 176.746L150.889 176.735C149.549 176.459 147.861 176.44 146.183 176.485C142.644 176.577 139.15 176.943 133.188 179.662C127.226 182.382 118.795 187.449 113.035 191.09C107.274 194.729 104.185 196.939 102.68 198.505C101.175 200.068 101.255 200.988 103.568 201.348C105.881 201.708 110.425 201.51 115.55 200.721C120.672 199.931 126.373 198.553 131.843 196.667C137.313 194.782 142.553 192.393 146.691 188.99C148.974 187.113 150.921 184.926 152.162 182.958V182.956Z" fill="#E25243"/>
<path d="M73.0501 157.188C75.0389 178.669 72.1661 200.177 64.5435 221.01C65.4463 220.96 66.366 220.922 67.2689 220.909C74.7821 200.152 77.6169 178.721 75.666 157.329C74.7821 157.303 73.9171 157.253 73.0522 157.177V157.19L73.0501 157.188Z" fill="#E25243"/>
<path d="M125.087 177.427C126.634 183.909 128.494 193.556 125.179 199.818C121.275 207.2 111.683 208.177 104.925 204.42C99.106 201.198 95.1853 195.341 93.9499 188.842C93.6552 187.295 93.5269 185.694 93.5647 184.128C93.5647 183.52 93.7857 179.176 93.7478 179.212C93.8762 179.1 93.2512 179.231 93.6573 178.972C93.8047 178.862 94.4676 178.972 94.6339 178.972C100.268 177.867 107.025 178.732 112.771 178.623C117.281 178.53 121.793 178.456 126.303 178.364C127.924 178.328 127.924 175.823 126.303 175.859C115.311 176.061 104.319 176.282 93.3248 176.484C92.7713 176.484 92.2578 176.872 92.1105 177.404C88.3728 190.955 96.4564 207.638 111.536 209.092C117.778 209.698 124.35 206.773 127.351 201.101C131.07 194.104 129.266 184.107 127.499 176.777C127.13 175.211 124.7 175.874 125.087 177.44V177.421V177.427Z" fill="#E25243"/>
<path d="M27.1474 178.383C24.9377 184.792 22.4522 193.85 25.287 200.424C27.7367 206.077 33.8673 209.152 39.8337 208.784C53.2376 207.973 61.1928 194.163 59.0925 181.845C58.9999 181.256 58.3916 180.98 57.8781 180.926C48.0267 179.766 38.1753 178.625 28.3449 177.464C26.7434 177.281 26.7623 179.785 28.3449 179.968C32.1373 180.41 35.9129 180.852 39.7053 181.294C44.9351 181.902 51.1772 181.717 56.2218 183.228C56.4975 183.321 57.5477 183.192 57.7308 183.413C57.5835 183.247 56.6617 190.318 56.6259 190.539C55.4116 196.173 51.857 201.512 46.6651 204.221C40.5156 207.443 31.8616 207.094 28.0692 200.41C24.6809 194.407 27.461 185.126 29.5614 179.051C30.0959 177.523 27.6652 176.86 27.1495 178.388L27.1474 178.383Z" fill="#E25243"/>
<path d="M99.0497 21.0651C100.78 21.8017 102.326 22.833 103.633 24.1778C104.204 24.7481 105.088 23.8642 104.517 23.2939C103.118 21.8754 101.497 20.7705 99.6747 19.9981C98.9381 19.6846 98.2941 20.7705 99.0497 21.0841V21.0651Z" fill="#D88185"/>
<path d="M115.877 41.2076C116.3 42.6808 116.742 44.1729 117.165 45.6461C117.386 46.4185 118.601 46.0881 118.38 45.3157C117.957 43.8425 117.515 42.3504 117.092 40.8772C116.871 40.1048 115.654 40.4352 115.875 41.2076H115.877Z" fill="#D88185"/>
<path d="M117.7 64.7766C117.646 66.4518 118.033 68.0555 118.824 69.5455C119.211 70.2632 120.297 69.6192 119.91 68.9205C119.211 67.6304 118.917 66.2498 118.953 64.7956C118.972 63.9853 117.719 63.9853 117.7 64.7956V64.7766Z" fill="#D88185"/>
<path d="M111.496 78.2351C111.771 79.8935 112.03 81.5309 112.306 83.1893C112.434 83.9806 113.651 83.6502 113.522 82.8568C113.245 81.2005 112.988 79.561 112.712 77.9047C112.584 77.1134 111.367 77.4438 111.496 78.2351Z" fill="#D88185"/>
<path d="M125.234 81.9756C125.234 83.8529 125.731 85.6207 126.653 87.2412C127.059 87.942 128.145 87.3149 127.739 86.6161C126.91 85.1808 126.506 83.634 126.487 81.9756C126.487 81.1654 125.234 81.1654 125.234 81.9756Z" fill="#D88185"/>
<path d="M119.249 95.2128C119.672 96.5934 119.948 98.0118 120.059 99.4661C120.114 100.257 121.366 100.276 121.311 99.4661C121.202 97.9003 120.926 96.3724 120.465 94.8824C120.225 94.1079 119.011 94.4404 119.251 95.2128H119.249Z" fill="#D88185"/>
<path d="M96.0673 87.9772C96.0126 89.6524 96.2883 91.2729 96.8965 92.8198C97.1912 93.5564 98.4055 93.2428 98.1109 92.4873C97.5405 91.033 97.2817 89.5409 97.3385 87.9772C97.3764 87.1669 96.1052 87.1669 96.0863 87.9772H96.0673Z" fill="#D88185"/>
<path d="M77.3391 82.6739C77.4128 84.2396 77.4864 85.8033 77.579 87.3691C77.6148 88.1794 78.867 88.1794 78.8313 87.3691C78.7576 85.8033 78.6839 84.2396 78.5913 82.6739C78.5556 81.8636 77.3034 81.8636 77.3391 82.6739Z" fill="#D88185"/>
<path d="M86.3799 100.241C86.3799 101.604 86.563 102.928 86.9144 104.235C87.1354 105.007 88.3329 104.677 88.1309 103.905C87.8005 102.707 87.6342 101.493 87.6342 100.241C87.6342 99.4302 86.382 99.4302 86.382 100.241H86.3799Z" fill="#D88185"/>
<path d="M64.0091 91.3636C64.2848 92.6895 64.3774 94.0153 64.3416 95.377C64.3227 96.1872 65.5749 96.1872 65.5938 95.377C65.6486 93.9227 65.5012 92.4685 65.2255 91.0311C65.0593 90.2398 63.8618 90.5702 64.0091 91.3615V91.3636Z" fill="#D88185"/>
<path d="M47.4922 82.1582C47.4185 83.3747 47.4374 84.6079 47.5658 85.8223C47.6584 86.6136 48.9106 86.6325 48.818 85.8223C48.6896 84.6079 48.6707 83.3915 48.7444 82.1582C48.7991 81.348 47.5469 81.348 47.4922 82.1582Z" fill="#D88185"/>
<path d="M48.1359 102.855C48.2643 104.347 48.5421 105.782 49.0198 107.2C49.2766 107.954 50.493 107.642 50.2342 106.868C49.7922 105.561 49.5165 104.235 49.3881 102.855C49.3145 102.063 48.0623 102.044 48.1359 102.855Z" fill="#D88185"/>
<path d="M35.3406 91.7314C35.5426 93.112 35.7826 94.4926 36.0961 95.8731C36.2624 96.6645 37.4767 96.334 37.3105 95.5406C37.0158 94.179 36.7591 92.7984 36.5549 91.3989C36.4455 90.6075 35.2291 90.938 35.3385 91.7314H35.3406Z" fill="#D88185"/>
<path d="M39.2967 115.191C39.463 116.296 39.6461 117.401 39.8123 118.487C39.9407 119.278 41.1382 118.948 41.0288 118.156C40.8625 117.051 40.6794 115.946 40.5132 114.861C40.3848 114.069 39.1873 114.4 39.2988 115.191H39.2967Z" fill="#D88185"/>
<path d="M72.8672 110.845C72.8672 112.299 72.7935 113.737 72.6462 115.191C72.5725 116.001 73.8247 115.982 73.8984 115.191C74.0268 113.756 74.1004 112.302 74.1194 110.845C74.1194 110.035 72.8672 110.035 72.8672 110.845Z" fill="#D88185"/>
<path d="M105.289 107.55C105.658 109.152 105.952 110.753 106.135 112.393C106.228 113.184 107.48 113.203 107.388 112.393C107.185 110.644 106.891 108.931 106.485 107.22C106.302 106.428 105.085 106.759 105.268 107.55H105.287H105.289Z" fill="#D88185"/>
<path d="M90.6502 120.991C90.8354 122.041 91.0185 123.073 91.2037 124.121C91.351 124.912 92.5485 124.582 92.4202 123.788C92.235 122.74 92.0519 121.709 91.8667 120.659C91.7193 119.867 90.5219 120.198 90.6502 120.989V120.991Z" fill="#D88185"/>
<path d="M124.847 109.244C125.253 110.643 125.676 112.043 126.08 113.442C126.301 114.215 127.516 113.884 127.297 113.11C126.891 111.71 126.468 110.311 126.064 108.911C125.843 108.139 124.628 108.469 124.847 109.242V109.244Z" fill="#D88185"/>
<path fill-rule="evenodd" clip-rule="evenodd" d="M103.747 176.301C106.929 172.477 112.192 171.17 118.729 166.517C125.268 161.864 133.082 153.865 137.058 145.263C141.033 136.662 141.168 127.457 141.235 122.854C141.303 118.251 141.303 118.251 142.567 118.716C143.832 119.182 146.364 120.112 148.597 129.357C150.828 138.602 152.76 156.163 152.714 167.565C152.667 178.966 150.645 184.206 143.218 188.912C135.789 193.618 122.955 197.789 115.048 199.841C107.139 201.893 104.159 201.827 102.198 200.304C100.237 198.78 99.2979 195.796 99.3799 191.132C99.462 186.468 100.567 180.125 103.749 176.301H103.747Z" fill="#E86B53"/>
<path d="M79.1745 152.314H45.3589C41.5053 152.314 39.1744 155.438 40.1526 159.291L53.4715 211.759C54.4497 215.613 58.3667 218.737 62.2202 218.737H96.0358C99.8894 218.737 102.22 215.613 101.242 211.759L87.9232 159.291C86.945 155.438 83.028 152.314 79.1745 152.314Z" fill="#FEFEFE"/>
<path d="M76.4308 152.314H42.6152C38.7616 152.314 36.4307 155.438 37.4089 159.291L50.7279 211.759C51.7061 215.613 55.623 218.737 59.4766 218.737H93.2922C97.1458 218.737 99.4767 215.613 98.4985 211.759L85.1795 159.291C84.2013 155.438 80.2844 152.314 76.4308 152.314Z" fill="#4EB0A9"/>
<path d="M67.2288 148.951H48.7207C47.6151 148.951 46.9639 149.848 47.2664 150.953L48.5657 155.703C48.8681 156.809 50.0096 157.705 51.1152 157.705H69.6233C70.729 157.705 71.3801 156.809 71.0777 155.703L69.7783 150.953C69.4759 149.848 68.3344 148.951 67.2288 148.951Z" fill="#FEFEFE"/>
<path d="M98.2306 203.219C93.7458 203.505 89.2483 203.589 84.7467 203.36C80.4492 203.153 76.0759 202.654 72.2414 200.678C68.4259 198.721 65.2438 195.017 64.9913 190.734C64.6756 185.589 68.6448 180.965 73.3232 178.764C77.9827 176.562 83.2756 176.219 88.4234 175.683C90.9341 175.428 93.4406 175.1 95.9429 174.735C97.616 184.122 99.1313 193.889 98.2348 203.24L98.2327 203.221L98.2306 203.219Z" fill="#FEB2B6"/>
<path d="M110.119 201.958C106.173 202.539 102.2 202.973 98.2303 203.24C99.1079 193.91 97.5927 184.124 95.9385 174.736C99.773 174.163 103.582 173.465 107.362 172.64C109.485 182.382 110.769 192.275 110.119 201.958Z" fill="#FFE5B8"/>
<path d="M28.8751 42.5358C30.9081 42.1759 33.665 41.8139 36.4557 41.5445C39.0064 41.2962 41.5697 41.1299 43.5964 41.1152C45.8967 41.0984 47.5719 41.2814 48.9188 41.8307C50.4993 42.4747 51.5348 43.5123 52.3661 45.137C53.0353 46.446 53.553 48.1612 53.8856 49.9164C54.2328 51.7495 54.3907 53.6836 54.317 55.2704C54.2328 57.0824 53.8477 58.5325 52.8628 59.7594C51.9073 60.9527 50.4888 61.7777 48.3485 62.3291H48.3401C44.8907 63.2193 39.2884 63.4529 34.9804 63.6318L34.0312 63.6718C29.7442 63.8528 26.9494 63.9706 24.9353 63.1183C23.6095 62.5585 22.7361 61.6746 22.1258 60.4287C21.6228 59.3996 21.345 58.1894 21.1366 56.7205C20.9241 55.2346 20.7704 53.3995 20.7852 51.6422C20.7978 50.1564 20.9367 48.7189 21.2713 47.5656C21.7406 45.9472 22.5319 44.855 23.9693 44.0237C25.1437 43.346 26.6821 42.9251 28.873 42.5358H28.8751ZM36.845 45.6484C34.2543 45.9009 31.6152 46.2482 29.5864 46.6081C27.8565 46.9153 26.7179 47.2016 26.0402 47.5951C25.6235 47.835 25.3857 48.1802 25.2321 48.7126C25.0111 49.4787 24.9164 50.5352 24.908 51.6758C24.8953 53.1701 25.0364 54.7927 25.2279 56.1396C25.3836 57.2298 25.5583 58.0674 25.8298 58.6188C25.9939 58.9534 26.2149 59.1849 26.5369 59.3217C27.6965 59.812 30.1336 59.7089 33.8713 59.5511L34.8204 59.5111C38.939 59.3385 44.2951 59.1154 47.3152 58.3389C48.5358 58.0211 49.264 57.6507 49.647 57.1729C50.0027 56.7289 50.15 56.0323 50.1963 55.0768C50.2552 53.8078 50.1205 52.2167 49.8301 50.6783C49.5628 49.2682 49.1756 47.9445 48.6978 47.0143C48.3464 46.324 47.9423 45.8988 47.3678 45.6652C46.5596 45.3369 45.3621 45.2275 43.6132 45.2401C41.7381 45.2527 39.301 45.4148 36.8429 45.6526L36.845 45.6484Z" fill="#4EB0A9"/>
<path d="M107.139 42.7521C105.018 42.6027 102.257 42.5311 99.5439 42.5543C97.0079 42.5753 94.4825 42.6763 92.5231 42.87C90.7027 43.0488 89.4715 43.2909 88.6802 43.716C88.1015 44.0275 87.7227 44.522 87.428 45.2902C87.0387 46.3025 86.7819 47.7146 86.6598 49.2089V49.2173C86.5273 50.8357 86.563 52.4941 86.763 53.8052C86.9166 54.8007 87.1481 55.5141 87.569 55.9392C88.0215 56.3959 88.8254 56.7053 90.1345 56.8989C93.3523 57.3766 98.8957 57.0231 103.16 56.7516L104.147 56.6885C108.013 56.4443 110.534 56.2844 111.696 55.6425C112.028 55.4594 112.241 55.1858 112.375 54.8112C112.603 54.1861 112.695 53.3001 112.737 52.1679C112.788 50.7894 112.752 49.1058 112.573 47.5252C112.439 46.3446 112.226 45.2607 111.91 44.4863C111.685 43.9349 111.395 43.5939 110.927 43.3856C110.176 43.051 108.966 42.8763 107.143 42.75L107.139 42.7521ZM99.5102 38.4336C102.398 38.4104 105.273 38.4799 107.415 38.6314C109.707 38.7913 111.332 39.0565 112.605 39.6247C114.162 40.3171 115.088 41.3442 115.738 42.9394C116.206 44.0822 116.502 45.5385 116.677 47.0622C116.879 48.8258 116.915 50.7368 116.858 52.3173C116.803 53.8578 116.65 55.1332 116.254 56.2213C115.766 57.5598 114.97 58.5552 113.682 59.2665C111.721 60.3504 108.831 60.5335 104.403 60.8134L103.416 60.8765C98.9589 61.1606 93.1608 61.531 89.5347 60.9923C87.287 60.6577 85.7486 59.9695 84.6416 58.8519C83.503 57.7029 82.9537 56.2633 82.6717 54.4219C82.4255 52.8077 82.3771 50.8041 82.537 48.8785C82.6886 47.0496 83.0337 45.2376 83.5809 43.8191C84.2501 42.0765 85.1972 40.9064 86.7398 40.0793C88.0699 39.3659 89.7662 38.9955 92.1191 38.764C94.1815 38.5619 96.8396 38.4546 99.5124 38.4315L99.5102 38.4336Z" fill="#4EB0A9"/>
<path d="M50.5166 48.9965C50.5629 48.9544 66.1155 34.4982 85.7258 47.5759L83.4318 51.0021C66.5301 39.7322 53.3199 52.0165 53.282 52.0502L50.5187 48.9965H50.5166Z" fill="#4EB0A9"/>
</g>
</g>
<defs>
<clipPath id="clip0_126_1541">
<rect width="165" height="357.574" fill="white" transform="translate(1)"/>
</clipPath>
</defs>
</svg>
