<svg width="200" height="200" viewBox="0 0 200 200" fill="none" xmlns="http://www.w3.org/2000/svg">
<mask id="mask0_81_5144" style="mask-type:alpha" maskUnits="userSpaceOnUse" x="0" y="0" width="200" height="200">
<path d="M0 30C0 13.4315 13.4315 0 30 0H170C186.569 0 200 13.4315 200 30V200H30C13.4315 200 0 186.569 0 170V30Z" fill="white"/>
</mask>
<g mask="url(#mask0_81_5144)">
<g clip-path="url(#clip0_81_5144)">
<path d="M195.692 244.2C195.079 243.216 194.426 242.259 193.747 241.315C189.376 249.371 180.861 255.208 171.667 255.952C168.549 256.205 165.244 255.872 162.686 254.078C159.048 251.552 157.769 246.633 158.275 242.245C158.782 237.858 160.74 233.79 162.446 229.708C169.522 212.664 172.84 188.694 173.986 169.337C173.772 168.778 173.559 168.22 173.319 167.662C171.387 163.035 168.749 158.714 165.551 154.845C165.098 154.779 164.711 154.487 164.765 154.021L165.138 154.34C165.284 154.513 165.418 154.686 165.551 154.859C166.017 154.925 166.577 154.779 166.83 154.354C167.336 153.529 167.003 152.466 166.657 151.575C161.966 139.291 156.863 127.033 154.678 114.057C152.093 98.6883 153.652 82.4687 148.055 67.9109C145.43 61.0774 141.326 54.9219 137.049 48.9792C135.903 47.3838 134.73 45.8017 133.251 44.5254C129.52 41.3347 124.337 40.537 119.433 40.2578C114.236 39.952 109.026 40.0717 103.856 40.6035L98.6193 41.5075C94.7284 42.5711 90.7176 43.6879 87.5462 46.1873C81.4567 50.9734 79.9643 59.4422 79.3647 67.1531C78.2854 81.1791 78.7651 95.2716 79.1915 109.337C79.3114 113.166 79.418 117.048 78.6318 120.798C77.5791 125.85 74.9808 130.423 73.0087 135.183C72.5689 136.246 72.1559 137.363 72.1958 138.519C72.2225 139.211 72.4224 139.902 72.3957 140.593C72.3424 142.215 71.1432 143.532 70.0505 144.741C67.0524 148.052 64.3607 151.655 62.0555 155.484C61.709 156.055 61.3893 156.693 61.1094 157.345C62.0822 161.493 61.9756 165.893 60.7363 169.962C59.8968 172.727 58.551 175.333 57.7648 178.111C56.3124 183.256 56.8188 188.721 57.3384 194.038C58.3511 204.329 59.3505 214.619 60.3632 224.909C60.7097 228.432 61.0561 231.995 60.4432 235.478C59.8302 238.962 58.1513 242.405 55.2064 244.359C53.6607 245.396 51.8352 245.968 50.0097 246.34C46.6385 247.031 43.0674 247.058 39.8161 245.955C38.2171 245.41 36.698 244.559 35.3922 243.468C35.2856 247.071 35.8319 250.608 37.3376 253.945C40.2158 260.313 46.0655 264.767 51.7286 268.888C52.8746 269.726 54.1005 270.59 55.5129 270.696C56.9254 270.803 58.5244 269.819 58.511 268.396C68.7846 272.757 80.2575 273.089 91.4238 273.355C96.2475 273.475 101.111 273.581 105.881 272.85C108.746 272.411 111.545 271.667 114.343 270.922C118.327 269.859 122.311 268.808 126.309 267.745C125.856 267.492 125.403 267.253 124.963 266.987L126.549 267.678C126.469 267.705 126.389 267.718 126.309 267.745C139.847 275.363 156.103 279.005 171.094 275.03C178.463 273.076 185.258 269.38 191.655 265.245C194.359 263.49 197.131 261.509 198.464 258.585C200.569 253.958 198.424 248.534 195.719 244.226L195.692 244.2Z" fill="#FEB2B6"/>
<path d="M158.276 242.245C157.769 246.633 159.049 251.552 162.686 254.078C165.245 255.859 168.563 256.192 171.667 255.952C180.862 255.208 189.376 249.371 193.747 241.315C189.003 234.721 182.834 229.15 175.772 225.122C175.478 224.962 175.172 224.776 174.985 224.51C174.652 224.018 174.785 223.354 174.932 222.769C176.491 216.254 176.678 209.514 176.851 202.813C176.944 199.45 177.024 196.086 177.117 192.709C177.197 189.425 177.291 186.141 177.037 182.858C176.678 178.244 175.638 173.684 173.999 169.35C172.84 188.707 169.535 212.678 162.46 229.722C160.768 233.803 158.795 237.871 158.289 242.259L158.276 242.245Z" fill="#D88185"/>
<path d="M49.9968 246.314C51.8223 245.941 53.6345 245.37 55.1936 244.333C58.1384 242.365 59.8307 238.922 60.4303 235.452C61.0299 231.982 60.6968 228.406 60.3503 224.882C59.3376 214.592 58.3383 204.302 57.3256 194.012C56.8059 188.694 56.2995 183.23 57.752 178.085C58.5381 175.306 59.8706 172.7 60.7234 169.935C61.9627 165.854 62.0693 161.453 61.0965 157.318C60.0705 159.751 59.7374 162.517 61.7228 163.992C54.6339 172.514 50.743 183.615 50.9429 194.677L51.1428 195.581C50.6631 205.831 45.0799 215.018 40.7093 224.311C37.8977 230.28 35.5658 236.954 35.3793 243.442C36.6718 244.532 38.1908 245.383 39.8032 245.928C43.0678 247.032 46.6256 247.005 49.9968 246.314Z" fill="#D88185"/>
<path d="M164.764 154.021C164.711 154.5 165.097 154.779 165.55 154.845C165.404 154.672 165.271 154.5 165.137 154.327L164.764 154.008V154.021Z" fill="#FEB2B6"/>
<path d="M74.4738 234.667C73.2878 230.133 72.0886 225.613 70.9027 221.079C70.1565 218.234 69.3969 215.376 69.1837 212.438C68.9039 208.702 69.4902 204.94 70.3164 201.284C72.6616 190.794 76.819 180.81 80.963 170.892C82.1623 168.033 83.3616 165.148 85.1071 162.569C87.5456 158.953 90.9302 156.081 94.2881 153.289C98.1656 150.072 102.243 146.815 107.107 145.512C109.425 144.887 111.85 144.741 114.249 144.781C119.086 144.861 124.083 145.751 128.04 148.53C130.932 150.564 133.077 153.476 135.129 156.347C142.178 166.239 148.774 176.529 153.598 187.656C158.421 198.797 161.433 210.869 161.046 222.994C160.9 227.541 160.26 232.167 158.248 236.262C156.236 240.344 152.692 243.853 148.281 244.997C144.55 245.954 140.566 245.196 136.808 246.034C133.663 246.725 130.892 248.493 128.187 250.222C127.321 250.78 126.388 251.352 125.349 251.298C124.576 251.259 122.044 252.974 121.364 252.601C106.654 244.398 91.0234 237.764 74.4604 234.627L74.4738 234.667Z" fill="#FFE5B8"/>
<path d="M126.402 70.5167C126.282 73.5878 128.667 76.3132 131.492 77.5496C133.557 78.4669 137.715 78.7594 140.993 78.8658C141.792 74.545 141.646 70.0646 140.54 65.8103C140.167 64.3745 139.647 62.9386 138.981 61.5826C135.476 61.8618 131.972 62.8057 129.333 65.0791C127.734 66.4618 126.482 68.3895 126.402 70.5034V70.5167Z" fill="#E25243"/>
<path d="M131.491 77.5494C128.68 76.2997 126.281 73.5876 126.401 70.5165C126.481 68.4026 127.734 66.4749 129.333 65.0922C131.971 62.8188 135.476 61.8749 138.98 61.5957C137.608 58.8437 135.569 56.4506 132.704 55.2541C130.865 54.483 128.826 54.2703 126.814 54.2171C124.989 54.1772 123.163 54.2703 121.351 54.4963L119.179 54.6691C112.237 55.1079 105.334 55.9587 98.4986 57.1818C96.0468 57.6206 93.595 58.1258 91.3298 59.1229C89.0645 60.12 86.9858 61.6622 85.7999 63.776C85.2935 64.6801 84.9604 65.6639 84.7339 66.661C88.2517 66.5945 91.8228 67.2061 94.6743 69.2003C96.4066 70.4234 97.8324 72.2182 98.1255 74.3055C98.5386 77.35 96.4332 80.2882 93.7549 81.8038C91.6096 83.0136 89.1711 83.5055 86.7193 83.8379C87.3056 84.6488 87.9852 85.3934 88.8247 85.965C89.7974 86.6298 90.9034 87.0419 92.036 87.4009C101.83 90.4454 112.423 88.3182 122.71 88.039C126.494 87.9327 130.332 88.0789 133.996 87.2014C135.476 86.8425 136.955 86.2974 138.087 85.3136C139.66 83.9309 140.379 81.8702 140.819 79.8627C140.899 79.5304 140.952 79.198 141.005 78.8656C137.727 78.746 133.57 78.4668 131.505 77.5494H131.491Z" fill="#FFE5B8"/>
<path d="M98.0994 74.319C97.8063 72.2318 96.3805 70.4237 94.6483 69.2138C91.7967 67.2063 88.2256 66.6081 84.7078 66.6745C84.5079 67.5254 84.3747 68.3896 84.2547 69.2404C83.895 71.8595 83.6684 74.5318 84.0682 77.1508C84.3214 78.7861 84.8011 80.3815 85.5206 81.8705C85.8537 82.5618 86.2402 83.2265 86.6932 83.8514C89.145 83.519 91.5835 83.0271 93.7288 81.8173C96.4072 80.3017 98.5258 77.3635 98.0994 74.319Z" fill="#E25243"/>
<path d="M112.996 66.4878C111.357 66.5011 109.665 66.5277 108.199 67.2988C106.734 68.0566 105.548 69.7583 105.774 71.593C105.987 73.215 107.253 74.5179 108.639 75.0364C110.025 75.5681 111.517 75.4618 112.956 75.2889C114.769 75.0496 116.594 74.6907 118.233 73.8132C118.699 73.5739 119.139 73.2814 119.486 72.856C120.365 71.7658 120.245 69.9312 119.446 68.6947C118.633 67.4716 117.287 66.8069 115.955 66.6473C115.955 66.6473 113.756 66.4745 112.983 66.4745L112.996 66.4878Z" fill="#3A3B3C"/>
<path d="M101.576 74.5178C101.656 75.2358 100.564 75.967 99.1112 76.1398C97.6721 76.3126 96.4195 75.8739 96.3396 75.1427C96.2596 74.4248 97.3523 73.6936 98.8047 73.5207C100.257 73.3479 101.496 73.7866 101.576 74.5178Z" fill="#E86B53"/>
<path d="M96.2871 64.0684C96.2471 63.9355 96.1938 63.8025 96.1005 63.6563C95.0479 62.0343 91.4101 61.4493 89.8511 62.3667C89.2914 62.699 89.1049 63.2042 89.1582 63.7094C88.985 64.5603 89.9044 65.3846 90.7172 65.6239C90.7305 65.6239 90.7439 65.6239 90.7572 65.6239C91.3302 65.8499 92.103 66.0227 92.8092 66.0094C93.8086 66.0759 94.8346 65.9563 95.6208 65.4245C96.1138 65.0921 96.4203 64.6002 96.2738 64.0418L96.2871 64.0684Z" fill="#FEB2B6"/>
<path d="M87.2257 71.6857C87.5988 72.0313 87.9719 72.377 88.3583 72.7227C88.7581 73.0816 89.3044 72.4701 88.918 72.0978C88.5449 71.7521 88.1718 71.4065 87.7854 71.0608C87.3856 70.7019 86.8393 71.3134 87.2257 71.6857Z" fill="#3C3C3D"/>
<path d="M90.4499 70.1438C90.4899 70.5825 90.5298 71.0345 90.5831 71.4733C90.6364 72.005 91.4626 71.9519 91.4226 71.4201C91.3826 70.9813 91.3427 70.5293 91.2894 70.0906C91.2361 69.5588 90.4099 69.612 90.4499 70.1438Z" fill="#3C3C3D"/>
<path d="M93.9547 70.9282C93.5816 71.2606 93.2218 71.6063 92.8487 71.9386C92.449 72.2976 93.0753 72.856 93.475 72.497C93.8481 72.1646 94.2079 71.819 94.581 71.4866C94.9807 71.1277 94.3545 70.5693 93.9547 70.9282Z" fill="#3C3C3D"/>
<path d="M94.9281 74.8106C94.9281 76.9244 93.2358 78.6527 91.1038 78.666C88.9852 78.666 87.2529 76.9776 87.2396 74.8504C87.2263 72.7233 88.9319 71.0082 91.0639 70.995C93.1959 70.9817 94.9148 72.6834 94.9281 74.8106Z" fill="white"/>
<path d="M93.6758 74.9695C93.6758 76.3123 92.5965 77.4157 91.2373 77.429C89.8915 77.429 88.7855 76.3522 88.7722 74.9961C88.7722 73.6533 89.8515 72.5499 91.2107 72.5366C92.5698 72.5233 93.6625 73.6134 93.6758 74.9695Z" fill="#3C3C3D"/>
<path d="M92.209 74.159C92.209 74.6111 91.8492 74.97 91.4095 74.97C90.9565 74.97 90.5967 74.6111 90.5967 74.1723C90.5967 73.7203 90.9565 73.3614 91.3962 73.3614C91.8359 73.3614 92.209 73.7203 92.209 74.159Z" fill="white"/>
<path d="M115.222 77.4694C116.034 78.7324 117.58 79.3174 119.033 78.8521C120.578 78.3469 121.444 76.7914 121.498 75.2359C121.511 74.6509 120.605 74.6509 120.592 75.2359C120.552 76.3526 119.979 77.5093 118.886 77.9347C117.833 78.3469 116.634 77.9613 116.021 77.0041C115.701 76.5122 114.915 76.9642 115.235 77.4561L115.222 77.4694Z" fill="#3A3B3C"/>
<path d="M138.874 67.2057C138.501 67.5513 138.128 67.897 137.742 68.2427C137.342 68.6016 136.796 67.9901 137.182 67.6178C137.555 67.2721 137.928 66.9265 138.315 66.5808C138.714 66.2218 139.261 66.8334 138.874 67.2057Z" fill="#3C3C3D"/>
<path d="M135.65 65.6638C135.61 66.1025 135.57 66.5545 135.517 66.9933C135.464 67.5251 134.638 67.4719 134.678 66.9401C134.718 66.5014 134.758 66.0493 134.811 65.6106C134.864 65.0788 135.69 65.132 135.65 65.6638Z" fill="#3C3C3D"/>
<path d="M132.147 66.4482C132.52 66.7806 132.88 67.1263 133.253 67.4586C133.652 67.8176 133.026 68.376 132.626 68.017C132.253 67.6846 131.893 67.339 131.52 67.0066C131.121 66.6476 131.747 66.0893 132.147 66.4482Z" fill="#3C3C3D"/>
<path d="M131.173 70.3433C131.173 72.4572 132.866 74.1855 134.998 74.1988C137.13 74.2121 138.849 72.5104 138.862 70.3832C138.862 68.2693 137.17 66.541 135.038 66.5277C132.906 66.5144 131.187 68.2162 131.173 70.3433Z" fill="white"/>
<path d="M132.425 70.4897C132.425 71.8325 133.504 72.936 134.864 72.9493C136.209 72.9493 137.315 71.8724 137.329 70.5163C137.329 69.1736 136.249 68.0701 134.89 68.0568C133.544 68.0568 132.438 69.1337 132.425 70.4897Z" fill="#3C3C3D"/>
<path d="M133.89 69.679C133.89 70.1311 134.25 70.49 134.69 70.49C135.143 70.49 135.503 70.1311 135.503 69.6923C135.503 69.2403 135.143 68.8813 134.703 68.8813C134.25 68.8813 133.89 69.2403 133.89 69.679Z" fill="white"/>
<path d="M125.282 60.8906C125.295 60.7577 125.348 60.6114 125.415 60.4652C126.281 58.7369 129.852 57.7797 131.491 58.5109C132.091 58.7768 132.331 59.2554 132.331 59.7739C132.597 60.6114 131.771 61.5155 130.985 61.8479C130.972 61.8479 130.958 61.8479 130.945 61.8612C130.399 62.1536 129.652 62.4062 128.946 62.4727C127.96 62.6455 126.934 62.6323 126.081 62.1935C125.562 61.9143 125.202 61.449 125.282 60.8906Z" fill="#FEB2B6"/>
<path d="M130.48 72.2312C130.56 72.9491 129.468 73.6804 128.015 73.8532C126.563 74.026 125.324 73.5873 125.244 72.8561C125.164 72.1382 126.256 71.407 127.709 71.2341C129.148 71.0613 130.4 71.5 130.48 72.2312Z" fill="#E86B53"/>
<path d="M93.1684 31.2968C91.9425 31.9616 90.2902 31.7489 89.2775 30.7783C88.8245 30.3529 88.4914 29.7546 88.5313 29.1431C88.5713 28.2922 89.2642 27.6009 90.0637 27.2951C90.8499 26.9893 91.7293 27.0159 92.5821 27.0292C91.8626 26.0055 91.263 24.8622 91.143 23.6125C91.0364 22.3628 91.5028 21.02 92.5422 20.3287C93.8613 19.4645 95.5936 19.8367 97.1126 20.2489C96.3798 18.9061 97.1126 16.9917 98.5384 16.4599C99.9775 15.9281 101.776 16.8853 102.11 18.3876C102.11 16.4998 103.295 14.5055 105.148 14.0801C107 13.6547 109.145 15.4096 108.665 17.2443C109.572 16.4466 110.518 15.6356 111.677 15.2899C112.836 14.9443 114.262 15.1969 114.928 16.2073C115.634 17.2974 115.208 18.7333 114.715 19.9431C116.154 18.8928 118.433 19.305 119.432 20.7807C120.418 22.2564 119.925 24.5165 118.393 25.4471C120.405 25.1547 122.47 27.0957 122.19 29.1032C121.91 31.124 119.219 32.387 117.54 31.2304L93.1684 31.3234V31.2968Z" fill="#4EB0A9"/>
<path d="M112.824 100.416C113.624 128.641 115.902 156.839 119.633 184.838C119.753 185.716 119.913 186.673 120.619 187.218C121.152 187.63 121.858 187.697 122.525 187.723C126.949 187.976 131.386 187.763 135.77 187.098C136.369 187.005 137.009 186.886 137.409 186.434C137.822 185.981 137.862 185.317 137.888 184.705C138.075 178.244 136.929 171.836 136.036 165.441C134.704 155.869 133.958 146.204 133.798 136.538C133.584 123.815 134.371 111.012 132.545 98.4088C132.439 97.7042 132.305 96.9464 131.759 96.4811C130.999 95.8296 129.84 96.0822 128.881 96.3747C123.631 97.9568 117.901 98.0764 112.651 99.6585L112.837 100.416H112.824Z" fill="#E25243"/>
<path d="M100.885 42.4514C101.378 45.8548 101.804 49.2716 102.178 52.7016C103.896 52.5288 105.602 52.3161 107.308 52.0901C107.228 48.5935 106.708 45.097 106.308 41.6404C104.483 41.9329 102.671 42.2121 100.885 42.4514Z" fill="#E86B53"/>
<path d="M112.571 46.187C112.477 44.3922 112.571 42.4512 112.051 40.7228C111.251 40.8425 110.452 40.9489 109.679 41.0818C108.933 41.2015 108.187 41.3211 107.454 41.4408C107.854 44.9107 108.373 48.4205 108.467 51.917C109.906 51.7176 111.331 51.4916 112.771 51.2656C112.957 49.6037 112.677 47.809 112.584 46.187H112.571Z" fill="#E86B53"/>
<path d="M94.3554 43.1559C95.1948 46.4397 95.8211 49.7634 96.2342 53.127C97.8332 53.0605 99.4322 52.9409 101.018 52.7946C100.658 49.3779 100.232 45.9877 99.7387 42.5842C97.9398 42.8102 96.1409 43.0097 94.342 43.1426L94.3554 43.1559Z" fill="#E86B53"/>
<path d="M88.8909 49.5771C88.5311 47.5031 88.0647 45.4956 88.0114 43.395C87.0787 43.395 86.1326 43.3551 85.1865 43.3019C85.1865 46.4927 85.6929 49.7499 86.0393 52.9274C87.1053 53.0204 88.1713 53.1002 89.2373 53.1534C89.2373 53.1268 89.2373 53.1135 89.224 53.0869C88.9175 52.0366 89.0908 50.6938 88.8909 49.5771Z" fill="#E86B53"/>
<path d="M89.1583 43.3818C89.2116 45.1367 89.5448 46.8251 89.8646 48.5534C89.9445 48.9523 90.2776 52.9141 90.3576 52.954C90.4642 53.0205 90.5308 53.1003 90.5708 53.18C92.0765 53.2199 93.5689 53.2066 95.0746 53.1667C94.6482 49.8164 94.022 46.506 93.1825 43.2355C91.85 43.3153 90.5042 43.3685 89.145 43.3818H89.1583Z" fill="#E86B53"/>
<path d="M111.17 39.6858C114.595 39.1275 118.246 38.7419 121.91 38.25C122.057 38.1569 122.243 38.1304 122.403 38.1835C125.441 37.7714 128.479 37.2795 131.411 36.5616C131.464 36.535 131.531 36.5217 131.584 36.5217C131.691 36.4951 131.811 36.4552 131.917 36.4286C131.238 35.4315 130.412 34.5275 129.465 33.7431C127.773 32.3737 125.734 31.4032 123.669 30.5789C118.179 28.3587 112.25 26.883 106.267 27.0824C100.284 27.2818 94.2342 29.3026 90.0635 33.2645C88.4112 34.82 87.092 36.6413 85.7728 38.4494C84.9067 39.6327 84.0405 40.8159 83.1877 41.9991C92.7284 42.8899 101.656 41.2413 111.197 39.6858H111.17Z" fill="#E86B53"/>
<path d="M116.209 40.1915C115.196 40.3111 114.197 40.4441 113.211 40.577C113.717 42.3718 113.624 44.3527 113.73 46.2007C113.824 47.8094 114.05 49.4712 113.93 51.0932C115.129 50.8938 116.342 50.6943 117.541 50.4816C117.541 47.118 116.689 43.5019 116.222 40.1915H116.209Z" fill="#E86B53"/>
<path d="M81.3628 42.9434C80.9098 43.3157 80.6433 43.9006 80.7366 44.5521L81.4694 49.4579C81.7226 51.2128 83.135 52.5821 84.894 52.7948C84.5342 49.6174 84.0545 46.3868 84.0545 43.2093C83.175 43.1428 82.2823 43.0498 81.3762 42.9434H81.3628Z" fill="#E86B53"/>
<path d="M133.464 46.7182C134.717 45.8939 135.423 44.4049 135.196 42.8627L134.477 38.0367C134.423 37.6379 134.237 37.3055 133.984 37.0529C133.397 37.2257 132.811 37.3986 132.225 37.5448C132.691 40.5893 133.104 43.6471 133.464 46.7182Z" fill="#E86B53"/>
<path d="M121.725 39.4867C120.259 39.6861 118.793 39.8722 117.341 40.0451C117.794 43.3289 118.633 46.9185 118.673 50.282C118.926 50.2422 119.18 50.189 119.433 50.1491C120.539 49.963 121.645 49.7635 122.751 49.5641C122.684 48.1283 122.338 46.4399 122.284 45.6156C122.138 43.5682 122.071 41.4942 121.738 39.4734L121.725 39.4867Z" fill="#E86B53"/>
<path d="M127.202 38.6483C127.708 41.879 128.135 45.1096 128.521 48.3535C129.814 48.0344 131.106 47.6755 132.372 47.25C131.999 44.1125 131.586 40.9749 131.106 37.8373C129.827 38.1431 128.521 38.409 127.202 38.6483Z" fill="#E86B53"/>
<path d="M126.096 38.8346C125.03 39.0207 123.951 39.1802 122.871 39.3265C123.244 41.56 123.324 43.8467 123.471 46.1068C123.524 46.971 123.777 48.1808 123.884 49.3375C125.07 49.1114 126.243 48.8721 127.415 48.6062C127.029 45.3623 126.602 42.1317 126.096 38.9144C126.096 38.8878 126.096 38.8612 126.096 38.8213V38.8346Z" fill="#E86B53"/>
<path d="M132.078 36.6276H132.052C132.052 36.6276 131.958 36.4947 131.905 36.4282C131.799 36.4548 131.679 36.4947 131.572 36.5213C131.519 36.5213 131.452 36.5479 131.399 36.5612C128.467 37.2791 125.429 37.771 122.391 38.1831C122.231 38.13 122.058 38.1565 121.898 38.2496C118.234 38.7415 114.583 39.1271 111.158 39.6854C101.617 41.2409 92.6897 42.8895 83.149 41.9987C83.0157 42.1849 82.8825 42.371 82.7492 42.5438C82.2162 42.464 81.7232 42.6369 81.3501 42.9427C82.2429 43.049 83.1356 43.1421 84.0284 43.2086C84.0284 46.386 84.5214 49.6166 84.8679 52.7941H84.8945C85.2676 52.834 85.6541 52.8606 86.0272 52.9004C85.6674 49.7097 85.1877 46.4658 85.1744 43.275C86.1204 43.3282 87.0665 43.3548 87.9993 43.3681C88.0526 45.4687 88.5323 47.4895 88.8787 49.5502C89.0653 50.6536 88.9054 52.0097 89.2118 53.06C89.2118 53.0866 89.2119 53.0999 89.2252 53.1265C89.6782 53.1398 90.1179 53.153 90.571 53.1663C90.531 53.0733 90.4644 52.9935 90.3578 52.9403C90.2778 52.8872 89.9447 48.9253 89.8648 48.5398C89.545 46.8247 89.1985 45.123 89.1586 43.3681C90.5044 43.3681 91.8502 43.3149 93.196 43.2219C94.0488 46.4924 94.6751 49.8028 95.0882 53.153C95.4746 53.153 95.8477 53.1265 96.2341 53.1132C95.8077 49.7496 95.1948 46.4259 94.3553 43.1421C96.1542 43.0091 97.9397 42.8097 99.7519 42.5837C100.245 45.9739 100.671 49.3773 101.031 52.7941C101.418 52.7542 101.791 52.7276 102.177 52.6877C101.817 49.2577 101.391 45.8409 100.885 42.4375C102.67 42.1982 104.482 41.919 106.308 41.6265C106.708 45.0964 107.227 48.5796 107.307 52.0762C107.694 52.023 108.067 51.9698 108.453 51.9166C108.36 48.4201 107.84 44.9103 107.44 41.4404C108.173 41.3207 108.92 41.201 109.666 41.0814C110.452 40.9484 111.238 40.8421 112.038 40.7224C112.557 42.4508 112.464 44.3918 112.557 46.1866C112.651 47.8218 112.93 49.6033 112.744 51.2652C113.13 51.1987 113.517 51.1322 113.903 51.0791C114.023 49.4571 113.796 47.7953 113.703 46.1866C113.597 44.3386 113.703 42.3577 113.184 40.5629C114.17 40.4299 115.182 40.297 116.182 40.1773C116.648 43.4877 117.501 47.1039 117.501 50.4675C117.887 50.401 118.26 50.3346 118.647 50.2681C118.607 46.9045 117.767 43.3149 117.314 40.0311C118.767 39.8583 120.232 39.6721 121.698 39.4727C122.031 41.4935 122.111 43.5675 122.245 45.6149C122.298 46.4259 122.644 48.1276 122.711 49.5635C123.084 49.497 123.457 49.4172 123.844 49.3507C123.75 48.1808 123.497 46.971 123.43 46.1201C123.271 43.86 123.191 41.5733 122.831 39.3398C123.91 39.1935 124.989 39.0207 126.055 38.8479C126.055 38.8745 126.055 38.901 126.055 38.9409C126.562 42.1583 126.988 45.4022 127.375 48.6328C127.748 48.5398 128.121 48.46 128.494 48.3669C128.108 45.123 127.681 41.8924 127.175 38.6617C128.494 38.4224 129.786 38.1565 131.079 37.8508C131.559 40.975 131.972 44.1126 132.345 47.2635C132.398 47.2502 132.451 47.2236 132.518 47.2103C132.851 47.0906 133.158 46.9311 133.438 46.745C133.064 43.6872 132.665 40.6294 132.198 37.5716C132.798 37.412 133.384 37.2525 133.957 37.0797C133.478 36.6011 132.758 36.4016 132.065 36.6542L132.078 36.6276Z" fill="#E25243"/>
<path d="M89.0514 38.5027V38.383C89.0514 37.798 88.1453 37.798 88.1453 38.383V38.5027C88.1453 39.0876 89.0514 39.0876 89.0514 38.5027Z" fill="#E25243"/>
<path d="M96.208 33.6635C96.7943 33.6635 96.7943 32.7595 96.208 32.7595C95.6217 32.7595 95.6217 33.6635 96.208 33.6635Z" fill="#E25243"/>
<path d="M97.2332 40.457C97.8195 40.457 97.8195 39.5529 97.2332 39.5529C96.6469 39.5529 96.6469 40.457 97.2332 40.457Z" fill="#E25243"/>
<path d="M102.218 35.4849C102.218 35.4849 102.298 35.5647 102.338 35.6045C102.751 36.0167 103.391 35.3785 102.978 34.9664C102.938 34.9265 102.898 34.8866 102.858 34.8467C102.445 34.4346 101.805 35.0727 102.218 35.4849Z" fill="#E25243"/>
<path d="M104.51 31.1373H104.63C105.216 31.1373 105.216 30.2332 104.63 30.2332H104.51C103.924 30.2332 103.924 31.1373 104.51 31.1373Z" fill="#E25243"/>
<path d="M107.961 37.6912C108.547 37.6912 108.547 36.7871 107.961 36.7871C107.375 36.7871 107.375 37.6912 107.961 37.6912Z" fill="#E25243"/>
<path d="M111.997 33.5566C112.584 33.5566 112.584 32.6526 111.997 32.6526C111.411 32.6526 111.411 33.5566 111.997 33.5566Z" fill="#E25243"/>
<path d="M115.369 31.0046C115.369 31.0046 115.449 31.0844 115.489 31.1243C115.902 31.5364 116.541 30.8982 116.128 30.4861C116.088 30.4462 116.048 30.4063 116.008 30.3665C115.595 29.9543 114.956 30.5925 115.369 31.0046Z" fill="#E25243"/>
<path d="M117.874 36.7736C118.46 36.7736 118.46 35.8696 117.874 35.8696C117.288 35.8696 117.288 36.7736 117.874 36.7736Z" fill="#E25243"/>
<path d="M124.443 34.5803C125.029 34.5803 125.029 33.6763 124.443 33.6763C123.856 33.6763 123.856 34.5803 124.443 34.5803Z" fill="#E25243"/>
<path d="M106.749 112.794C108.161 119.813 115.97 116.915 120.753 115.878C122.339 115.532 124.978 115.346 126.337 114.442C128.962 112.701 128.522 108.938 128.629 106.173C128.775 102.583 128.522 99.0202 127.962 95.4838C126.656 95.7098 125.351 95.9491 124.031 96.1751C121.007 96.7069 117.982 97.2387 114.957 97.7838C112.545 98.0497 110.147 98.3422 107.815 98.9271V98.9936C107.708 99.0069 107.588 99.0335 107.468 99.0468C106.802 103.301 105.883 108.592 106.736 112.794H106.749Z" fill="#E86B53"/>
<path d="M128.188 114.748C137.049 113.219 145.897 111.677 154.678 109.789C155.505 101.772 155.531 94.5264 151.987 90.8305C144.405 92.5056 136.77 93.9149 129.121 95.2842C129.441 97.1322 129.721 99.0599 129.894 101.028C133.238 100.23 136.556 99.379 139.861 98.4617C140.581 98.2623 140.887 99.379 140.167 99.5651C136.783 100.496 133.398 101.373 129.987 102.184C130.094 103.66 130.134 105.136 130.067 106.585C131.373 106.465 132.679 106.266 133.971 106C134.691 105.84 134.997 106.957 134.278 107.103C132.865 107.409 131.44 107.608 130 107.741C129.867 109.523 129.587 111.265 129.094 112.887C128.175 115.878 124.351 116.689 121.006 117.167C121.046 124.187 121.086 131.207 121.126 138.226C121.126 138.971 119.98 138.971 119.98 138.226C119.94 131.26 119.9 124.293 119.86 117.327C119.127 117.42 118.434 117.513 117.835 117.619C117.262 117.726 116.596 117.872 115.889 118.018C115.703 122.299 115.303 126.554 114.69 130.795C114.583 131.526 113.477 131.207 113.584 130.489C114.17 126.434 114.543 122.352 114.73 118.258C111.452 118.936 107.588 119.374 106.162 116.343C105.216 114.322 105.429 111.491 105.509 109.244C103.817 109.855 102.125 110.44 100.406 110.985C99.6994 111.211 99.3929 110.108 100.099 109.882C101.925 109.297 103.737 108.672 105.549 108.021C105.589 106.545 105.669 105.069 105.802 103.607C102.005 104.564 98.167 104.95 94.2495 104.737C93.5166 104.697 93.5033 103.54 94.2495 103.58C98.207 103.793 102.085 103.407 105.922 102.384C106.029 101.333 106.175 100.27 106.322 99.2195C101.765 99.8709 97.181 100.296 92.5839 100.084C87.7336 99.8576 82.9232 98.9137 78.2461 97.5975C76.4339 104.577 77.4333 110.613 78.7525 116.556C83.5762 117.872 88.5197 118.803 93.5166 119.042C98.3136 119.268 103.097 118.829 107.868 118.165C107.948 140.247 108.907 162.343 110.786 184.346C110.866 185.223 110.986 186.194 111.652 186.766C112.158 187.204 112.865 187.297 113.531 187.364C117.928 187.829 122.392 187.829 126.789 187.364C127.389 187.297 128.042 187.204 128.468 186.779C128.894 186.34 128.974 185.689 129.028 185.077C129.521 178.642 128.681 172.181 128.095 165.747C127.229 156.121 126.936 146.429 127.229 136.777C127.455 129.438 128.015 122.086 128.215 114.748H128.188Z" fill="#E86B53"/>
<path d="M94.2507 103.567C93.5045 103.527 93.5178 104.684 94.2507 104.723C98.1683 104.936 102.006 104.551 105.803 103.593C105.67 105.056 105.59 106.531 105.55 108.007C103.751 108.659 101.926 109.284 100.1 109.868C99.3942 110.094 99.7006 111.211 100.407 110.972C102.112 110.427 103.818 109.829 105.51 109.23C105.43 111.477 105.217 114.322 106.163 116.33C107.589 119.361 111.453 118.922 114.731 118.244C114.545 122.339 114.172 126.407 113.585 130.475C113.479 131.193 114.598 131.512 114.691 130.781C115.304 126.54 115.704 122.286 115.891 118.005C116.597 117.845 117.263 117.699 117.836 117.606C118.436 117.5 119.128 117.407 119.861 117.314C119.901 124.28 119.941 131.246 119.981 138.213C119.981 138.957 121.141 138.957 121.127 138.213C121.087 131.193 121.047 124.174 121.007 117.154C124.352 116.689 128.176 115.878 129.096 112.873C129.589 111.251 129.868 109.523 130.002 107.728C131.441 107.595 132.867 107.382 134.279 107.09C134.999 106.93 134.692 105.827 133.973 105.986C132.68 106.266 131.387 106.452 130.068 106.571C130.122 105.122 130.082 103.647 129.988 102.171C133.4 101.36 136.797 100.482 140.169 99.5517C140.888 99.3523 140.582 98.2488 139.862 98.4483C136.558 99.3656 133.226 100.216 129.895 101.014C129.722 99.0465 129.442 97.1188 129.122 95.2708C128.736 95.3373 128.363 95.4038 127.976 95.4702C128.523 99.0066 128.789 102.556 128.643 106.159C128.536 108.925 128.976 112.687 126.351 114.429C124.991 115.333 122.366 115.519 120.767 115.864C115.984 116.915 108.175 119.8 106.763 112.78C105.923 108.579 106.83 103.288 107.496 99.0332C107.109 99.0864 106.71 99.1529 106.323 99.2061C106.177 100.256 106.043 101.307 105.923 102.37C102.086 103.381 98.2082 103.779 94.2507 103.567Z" fill="#E25243"/>
<path d="M84.4807 102.942C85.067 102.942 85.067 102.038 84.4807 102.038C83.8944 102.038 83.8944 102.942 84.4807 102.942Z" fill="#E25243"/>
<path d="M81.2437 114.15V113.99C81.2437 113.405 80.3376 113.405 80.3376 113.99V114.15C80.3376 114.735 81.2437 114.735 81.2437 114.15Z" fill="#E25243"/>
<path d="M89.7041 108.778C90.2904 108.778 90.2904 107.874 89.7041 107.874C89.1178 107.874 89.1178 108.778 89.7041 108.778Z" fill="#E25243"/>
<path d="M97.699 116.144C98.2853 116.144 98.2853 115.24 97.699 115.24C97.1127 115.24 97.1127 116.144 97.699 116.144Z" fill="#E25243"/>
<path d="M112.771 102.184C113.357 102.184 113.357 101.28 112.771 101.28C112.184 101.28 112.184 102.184 112.771 102.184Z" fill="#E25243"/>
<path d="M111.691 113.378C112.277 113.378 112.277 112.474 111.691 112.474C111.104 112.474 111.104 113.378 111.691 113.378Z" fill="#E25243"/>
<path d="M119.22 106.173C119.806 106.173 119.806 105.269 119.22 105.269C118.633 105.269 118.633 106.173 119.22 106.173Z" fill="#E25243"/>
<path d="M124.751 98.6613V98.5018C124.751 97.9168 123.844 97.9168 123.844 98.5018V98.6613C123.844 99.2463 124.751 99.2463 124.751 98.6613Z" fill="#E25243"/>
<path d="M125.377 113.073C125.964 113.073 125.964 112.169 125.377 112.169C124.791 112.169 124.791 113.073 125.377 113.073Z" fill="#E25243"/>
<path d="M133.984 97.2786C134.57 97.2786 134.57 96.3745 133.984 96.3745C133.398 96.3745 133.398 97.2786 133.984 97.2786Z" fill="#E25243"/>
<path d="M140.899 106.013C141.485 106.013 141.485 105.109 140.899 105.109C140.312 105.109 140.312 106.013 140.899 106.013Z" fill="#E25243"/>
<path d="M131.519 112.462C132.106 112.462 132.106 111.558 131.519 111.558C130.933 111.558 130.933 112.462 131.519 112.462Z" fill="#E25243"/>
<path d="M145.043 94.686H144.883C144.297 94.686 144.297 95.59 144.883 95.59H145.043C145.63 95.59 145.63 94.686 145.043 94.686Z" fill="#E25243"/>
<path d="M146.895 109.39C147.481 109.39 147.481 108.486 146.895 108.486C146.309 108.486 146.309 109.39 146.895 109.39Z" fill="#E25243"/>
<path d="M151.2 100.336H151.36C151.946 100.336 151.946 99.4321 151.36 99.4321H151.2C150.613 99.4321 150.613 100.336 151.2 100.336Z" fill="#E25243"/>
<path d="M111.532 121.808C112.118 121.808 112.118 120.904 111.532 120.904C110.945 120.904 110.945 121.808 111.532 121.808Z" fill="#E25243"/>
<path d="M116.461 135.78V135.94C116.461 136.525 117.367 136.525 117.367 135.94V135.78C117.367 135.195 116.461 135.195 116.461 135.78Z" fill="#E25243"/>
<path d="M123.99 121.196C124.576 121.196 124.576 120.292 123.99 120.292C123.404 120.292 123.404 121.196 123.99 121.196Z" fill="#E25243"/>
<path d="M123.378 144.821H123.538C124.125 144.821 124.125 143.917 123.538 143.917H123.378C122.792 143.917 122.792 144.821 123.378 144.821Z" fill="#E25243"/>
<path d="M112.143 144.821C112.729 144.821 112.729 143.917 112.143 143.917C111.557 143.917 111.557 144.821 112.143 144.821Z" fill="#E25243"/>
<path d="M117.528 154.473C118.114 154.473 118.114 153.569 117.528 153.569C116.942 153.569 116.942 154.473 117.528 154.473Z" fill="#E25243"/>
<path d="M112.464 167.674C113.05 167.674 113.05 166.77 112.464 166.77C111.877 166.77 111.877 167.674 112.464 167.674Z" fill="#E25243"/>
<path d="M124.443 161.532C125.029 161.532 125.029 160.628 124.443 160.628C123.856 160.628 123.856 161.532 124.443 161.532Z" fill="#E25243"/>
<path d="M118.447 173.804C119.033 173.804 119.033 172.9 118.447 172.9C117.86 172.9 117.86 173.804 118.447 173.804Z" fill="#E25243"/>
<path d="M114.915 183.309C115.501 183.309 115.501 182.405 114.915 182.405C114.329 182.405 114.329 183.309 114.915 183.309Z" fill="#E25243"/>
<path d="M127.056 180.863C127.642 180.863 127.642 179.959 127.056 179.959C126.469 179.959 126.469 180.863 127.056 180.863Z" fill="#E25243"/>
<path d="M58.8708 150.271C55.2598 154.978 51.6487 159.684 48.0509 164.404C46.372 166.597 43.8402 169.748 46.9716 171.889C46.7584 171.064 46.5319 170.24 46.3187 169.416C43.5471 173.019 40.8421 176.688 38.2437 180.424C35.9518 183.721 33.6733 186.792 33.3668 190.9C33.2735 192.15 34.5927 192.868 35.6587 192.642C36.0185 192.562 36.3916 192.495 36.7513 192.416C36.165 191.405 35.5787 190.395 34.9791 189.384C28.783 196.205 25.5716 204.966 26.0513 214.166C26.0913 214.99 26.5843 215.655 27.3838 215.908C28.3299 216.2 28.7696 216.213 29.7024 215.881C28.9562 215.136 28.21 214.392 27.4638 213.647C26.5444 217.822 26.7442 223.751 30.342 226.756C33.1003 229.056 37.7241 227.62 37.3909 223.685C37.1911 221.385 33.5667 221.358 33.7665 223.685C32.3141 223.672 31.4746 222.967 31.2747 221.598C31.0349 220.946 30.875 220.282 30.7817 219.603C30.4886 217.875 30.5818 216.346 30.9683 214.631C31.2348 213.395 30.1155 211.893 28.7297 212.398C28.5964 212.398 28.4765 212.411 28.3432 212.424C28.783 213.009 29.236 213.594 29.6757 214.166C29.2493 205.91 31.9677 198.079 37.5642 191.95C38.8167 190.581 37.5775 188.56 35.7919 188.919C35.4322 188.999 35.0591 189.065 34.6993 189.145C35.4588 189.73 36.2317 190.315 36.9912 190.887C37.2843 186.925 40.6422 183.242 42.8675 180.105C44.9995 177.1 47.1981 174.135 49.4501 171.224C50.0763 170.413 49.53 169.243 48.7971 168.751C49.4767 169.216 60.8563 153.608 62.0022 152.093C63.4147 150.245 60.27 148.437 58.8708 150.258V150.271Z" fill="#FEB2B6"/>
<path d="M74.1269 133.108C70.6225 136.166 67.1047 139.224 63.6002 142.268C61.9612 143.691 60.1757 145.858 61.215 147.746C58.51 150.351 56.5513 153.609 54.6058 156.813C50.0353 164.391 45.4515 171.969 40.8811 179.56C37.1234 185.782 33.3391 192.057 30.8207 198.877C28.3023 205.698 27.0764 213.169 28.5954 220.282C28.8086 221.266 29.0751 222.236 29.5415 223.114C29.9279 223.818 30.4343 224.443 30.874 225.108C32.0066 226.796 32.7262 228.724 33.6056 230.559C35.4178 234.295 38.1095 237.778 41.8271 239.639C45.5581 241.5 50.4351 241.394 53.5531 238.642C55.8317 236.635 56.8977 233.537 57.0443 230.519C57.1909 227.501 56.5246 224.496 55.8051 221.558C53.9662 213.954 51.8609 206.376 51.168 198.585C50.4751 190.794 51.2879 182.658 55.0189 175.784C57.1376 171.862 62.4942 168.619 63.1605 164.218C63.4403 162.33 60.9885 160.057 61.3349 158.182C62.0811 153.981 65.2525 150.71 68.0374 147.48C70.8223 144.249 73.5007 140.327 72.9677 136.099L74.1269 133.108Z" fill="#FEB2B6"/>
<path d="M157.13 125.078C160.502 128.415 163.873 131.738 167.244 135.075C172.707 140.473 178.384 146.203 180.596 153.555C180.836 154.326 181.022 155.177 180.689 155.922C180.369 156.666 179.303 157.105 178.717 156.546C184.766 159.046 187.845 165.693 189.937 171.875C191.456 176.356 192.761 180.916 194.067 185.476C194.614 187.404 195.173 189.384 194.92 191.379C194.787 192.416 194.44 193.413 194.414 194.463C194.387 195.513 194.707 196.55 195 197.561C197.065 204.886 197.665 212.624 196.732 220.175C196.386 222.994 195.813 225.839 194.414 228.312C193.028 230.784 190.709 232.872 187.911 233.403C186.086 239.28 182.888 244.717 178.65 249.171C178.104 249.743 177.518 250.314 176.785 250.62C175.799 251.032 174.666 250.926 173.6 250.793C168.79 250.235 163.1 249.051 161.288 244.571C159.502 240.184 162.554 235.504 164.912 231.396C172.894 217.436 173.68 200.645 173.96 184.585C174.013 181.527 174.053 178.443 173.307 175.478C172.454 172.101 170.642 169.07 168.99 166.012C162.341 153.635 158.21 139.928 156.917 125.942L157.117 125.104L157.13 125.078Z" fill="#FEB2B6"/>
<path d="M83.4684 56.7828C82.6022 58.3782 81.976 60.0666 81.6162 61.8481C81.4963 62.4198 82.3757 62.6591 82.4956 62.0874C82.8421 60.3857 83.4151 58.777 84.2545 57.2348C84.5344 56.7163 83.7482 56.2643 83.4684 56.7828Z" fill="#D88185"/>
<path d="M82.3498 82.5615C82.3897 84.1435 82.5363 85.7123 82.7895 87.2678C82.8828 87.8395 83.7622 87.6002 83.6689 87.0285C83.4291 85.5528 83.2958 84.0638 83.2559 82.5615C83.2425 81.9765 82.3364 81.9765 82.3498 82.5615Z" fill="#D88185"/>
<path d="M133.464 51.2787C134.663 51.9169 135.609 52.8475 136.276 54.0308C136.556 54.536 137.342 54.0839 137.062 53.5787C136.329 52.2759 135.25 51.2123 133.93 50.5076C133.411 50.2285 132.958 51.0128 133.477 51.292L133.464 51.2787Z" fill="#D88185"/>
<path d="M145.87 72.4576C146.443 74.053 146.723 75.6883 146.723 77.3767C146.723 77.9617 147.629 77.9617 147.629 77.3767C147.629 75.5952 147.336 73.8802 146.75 72.205C146.55 71.6599 145.684 71.8992 145.87 72.4443V72.4576Z" fill="#D88185"/>
<path d="M142.445 85.5526C142.391 86.9353 142.445 88.318 142.565 89.6873C142.618 90.259 143.524 90.2723 143.471 89.6873C143.338 88.3047 143.298 86.9353 143.351 85.5526C143.377 84.9677 142.458 84.9677 142.445 85.5526Z" fill="#D88185"/>
<path d="M94.4344 91.8813C94.541 93.2241 94.6343 94.5668 94.7409 95.8963C94.7808 96.468 95.6869 96.4813 95.647 95.8963C95.5404 94.5535 95.4471 93.2108 95.3405 91.8813C95.3005 91.3096 94.3944 91.2963 94.4344 91.8813Z" fill="#D88185"/>
<path d="M116.248 91.8812L116.395 94.9789C116.421 95.5638 117.327 95.5638 117.301 94.9789C117.248 93.9419 117.194 92.9049 117.154 91.8812C117.128 91.2962 116.221 91.2962 116.248 91.8812Z" fill="#D88185"/>
<path d="M83.2426 122.14C83.4691 123.483 83.4292 124.826 83.136 126.155C83.0028 126.727 83.8822 126.966 84.0155 126.394C84.3486 124.905 84.3886 123.403 84.1221 121.901C84.0288 121.329 83.1493 121.568 83.2426 122.14Z" fill="#D88185"/>
<path d="M96.1008 127.883C96.1408 129.359 96.0208 130.795 95.741 132.244C95.6344 132.816 96.5005 133.055 96.6205 132.483C96.9269 130.968 97.0602 129.439 97.0202 127.883C97.0069 127.298 96.1008 127.298 96.1141 127.883H96.1008Z" fill="#D88185"/>
<path d="M79.4303 143.411C78.9639 144.515 78.4975 145.631 78.0178 146.735C77.7913 147.267 78.5775 147.732 78.804 147.187C79.2704 146.084 79.7368 144.967 80.2165 143.863C80.443 143.331 79.6568 142.866 79.4303 143.411Z" fill="#D88185"/>
<path d="M78.4854 164.178C78.019 165.401 77.5527 166.624 77.0863 167.86C76.8731 168.406 77.7525 168.645 77.9657 168.1C78.4321 166.877 78.8985 165.654 79.3649 164.417C79.5781 163.872 78.6986 163.633 78.4854 164.178Z" fill="#D88185"/>
<path d="M64.7608 172.447C64.3743 173.95 64.2011 175.478 64.2811 177.034C64.3077 177.619 65.2138 177.619 65.1872 177.034C65.1205 175.558 65.2671 174.122 65.6402 172.687C65.7868 172.128 64.9073 171.876 64.7608 172.447Z" fill="#D88185"/>
<path d="M65.7594 193.48C65.4529 194.942 65.2797 196.404 65.2664 197.893C65.2664 198.478 66.1725 198.478 66.1725 197.893C66.1858 196.484 66.3457 195.101 66.6388 193.719C66.7588 193.147 65.8793 192.908 65.7594 193.48Z" fill="#D88185"/>
<path d="M59.1903 159.778C58.524 160.868 57.8844 161.984 57.2848 163.128C57.0183 163.646 57.7911 164.098 58.071 163.58C58.6706 162.45 59.2969 161.333 59.9631 160.23C60.2696 159.724 59.4834 159.272 59.1769 159.778H59.1903Z" fill="#D88185"/>
<path d="M48.9837 175.212C48.3574 176.755 47.8244 178.337 47.4113 179.959C47.2647 180.517 48.1442 180.77 48.2908 180.198C48.7038 178.576 49.2368 176.994 49.8631 175.452C50.0896 174.907 49.2102 174.681 48.9837 175.212Z" fill="#D88185"/>
<path d="M38.9768 186.38C38.8436 187.71 38.7103 189.039 38.5771 190.369C38.5238 190.954 39.4299 190.94 39.4832 190.369C39.6164 189.039 39.7497 187.71 39.8829 186.38C39.9362 185.795 39.0301 185.809 38.9768 186.38Z" fill="#D88185"/>
<path d="M138.421 117.832C138.275 119.268 138.235 120.691 138.301 122.127C138.328 122.712 139.234 122.712 139.208 122.127C139.141 120.691 139.181 119.255 139.328 117.832C139.381 117.247 138.475 117.261 138.421 117.832Z" fill="#D88185"/>
<path d="M150.626 130.21C151.039 131.526 151.825 132.617 152.931 133.454C153.398 133.8 153.851 133.015 153.384 132.67C152.478 131.992 151.839 131.048 151.505 129.971C151.332 129.412 150.453 129.652 150.626 130.21Z" fill="#D88185"/>
<path d="M140.82 143.97C141.473 145.1 142.139 146.23 142.792 147.36C143.086 147.865 143.872 147.413 143.579 146.908C142.926 145.778 142.259 144.648 141.606 143.518C141.313 143.013 140.527 143.465 140.82 143.97Z" fill="#D88185"/>
<path d="M155.398 149.049C156.131 150.418 157.037 151.681 158.103 152.811C158.503 153.236 159.142 152.598 158.742 152.173C157.73 151.083 156.89 149.9 156.184 148.583C155.904 148.065 155.131 148.53 155.398 149.035V149.049Z" fill="#D88185"/>
<path d="M152.918 170.918C153.491 172.408 154.251 173.75 155.25 175C155.61 175.452 156.249 174.814 155.889 174.362C155.01 173.245 154.304 172.009 153.797 170.679C153.598 170.134 152.718 170.373 152.918 170.918Z" fill="#D88185"/>
<path d="M172.333 148.903C173.506 149.501 174.398 150.472 174.865 151.708C175.065 152.253 175.944 152.014 175.744 151.469C175.211 150.02 174.185 148.823 172.799 148.118C172.28 147.852 171.827 148.637 172.346 148.903H172.333Z" fill="#D88185"/>
<path d="M175.652 167.648C176.359 169.456 176.958 171.304 177.465 173.179C177.611 173.737 178.491 173.498 178.344 172.939C177.838 171.065 177.238 169.217 176.532 167.409C176.319 166.877 175.439 167.103 175.652 167.648Z" fill="#D88185"/>
<path d="M164.977 184.253C165.177 185.782 165.217 187.311 165.097 188.853C165.057 189.438 165.963 189.425 166.003 188.853C166.123 187.311 166.083 185.782 165.884 184.253C165.804 183.681 164.897 183.681 164.977 184.253Z" fill="#D88185"/>
<path d="M187.631 185.011C187.617 186.753 187.764 188.481 188.084 190.196C188.19 190.768 189.056 190.528 188.963 189.957C188.67 188.322 188.537 186.673 188.55 185.011C188.55 184.426 187.644 184.426 187.644 185.011H187.631Z" fill="#D88185"/>
</g>
<path d="M61.2495 122.466C61.1503 122.947 61.0455 123.431 60.9539 123.916C60.8528 124.44 60.7669 124.969 60.9613 125.454C61.4506 125.758 61.9051 125.569 62.3561 125.388C63.2139 125.045 64.0528 124.656 64.9295 124.358C66.6177 123.778 68.2876 123.765 69.858 124.483C70.7795 124.905 71.585 125.47 72.0443 126.375C71.9195 126.403 71.7925 126.426 71.6545 126.453C71.6454 127.231 71.6432 127.994 71.6354 128.759C71.609 130.984 71.0812 133.143 70.1992 135.246C69.469 136.995 68.4182 138.597 67.3076 140.164C65.901 142.145 64.4422 144.095 63.2033 146.168C62.5377 147.288 61.9306 148.456 61.7839 149.827C61.9851 149.827 62.1392 149.822 62.2954 149.823C61.9177 150.432 61.5017 151.027 61.1741 151.663C60.9869 152.026 60.9152 152.448 60.8406 152.848C60.783 153.164 60.9708 153.413 61.2738 153.502C61.6741 153.622 62.0992 153.708 62.5221 153.741C63.2942 153.802 64.0729 153.801 64.8429 153.857C66.5314 153.967 67.9901 154.541 69.1886 155.616C69.3043 155.723 69.3896 155.866 69.4873 155.993C69.3132 156.011 69.1298 155.992 68.9649 156.048C67.2698 156.643 65.4864 156.9 63.8159 157.586C63.6552 157.652 63.4821 157.736 63.3169 157.745C62.5938 157.771 61.9692 158.113 61.3144 158.366C60.7372 158.587 60.1812 158.907 59.5876 159.01C58.878 159.131 58.228 159.365 57.5879 159.654C55.7488 160.481 53.8149 161.08 52.0712 162.153C51.1152 162.745 50.0173 163.105 49.019 163.673C47.8405 164.34 46.6495 164.976 45.4935 165.681C43.0935 167.146 40.856 168.798 38.839 170.717C38.5031 171.035 38.1281 171.321 37.586 171.784C37.7021 171.343 37.7337 171.121 37.8168 170.914C38.4274 169.441 39.0457 167.971 39.6563 166.498C39.7058 166.382 39.74 166.261 39.7894 166.145C40.2573 164.892 40.712 163.638 41.1952 162.39C41.6139 161.3 42.0874 160.217 42.4907 159.122C43.1452 157.363 43.7559 155.592 44.3951 153.827C44.9239 152.376 45.4833 150.936 45.9892 149.477C46.6417 147.587 47.2636 145.687 47.8877 143.792C48.6049 141.62 49.3277 139.445 50.0012 137.262C50.3735 136.06 50.7627 134.899 51.6592 133.896C52.1434 133.357 52.5183 132.725 52.9342 132.13C55.105 129.047 57.4235 126.068 60.1318 123.357C60.4669 123.022 60.7407 122.617 61.2363 122.465L61.2495 122.466ZM59.4949 130.913C59.7517 131.235 60.0338 131.445 60.4669 131.456C61.0694 131.469 61.6433 131.427 62.2568 131.263C63.3591 130.961 64.4376 130.633 65.4739 130.156C66.3571 129.749 67.132 129.19 67.7312 128.441C67.8596 128.281 68.0211 128.06 67.9989 127.896C67.8812 127.016 67.5969 126.283 66.5121 126.298C66.2546 126.303 65.9763 126.305 65.747 126.394C64.4429 126.899 63.1185 127.37 62.0343 128.295C61.472 128.772 60.8861 129.223 60.3239 129.7C59.9574 130.007 59.6048 130.331 59.5026 130.915L59.4949 130.913Z" fill="#61B8B2"/>
<path d="M61.2493 122.466C60.7537 122.618 60.4799 123.023 60.1448 123.358C57.4365 126.069 55.1159 129.042 52.9472 132.131C52.5313 132.726 52.1564 133.357 51.6722 133.897C50.7757 134.899 50.381 136.063 50.0142 137.262C49.3407 139.446 48.6158 141.615 47.9007 143.792C47.2766 145.687 46.6602 147.586 46.0022 149.477C45.4963 150.937 44.9369 152.377 44.4081 153.828C43.7689 155.592 43.1526 157.366 42.5037 159.122C42.0948 160.22 41.6269 161.301 41.2082 162.391C40.7306 163.636 40.2703 164.892 39.8024 166.146C39.7606 166.264 39.7188 166.383 39.6693 166.499C39.051 167.969 38.4328 169.439 37.8298 170.915C37.7467 171.122 37.7095 171.346 37.599 171.784C38.1467 171.319 38.5161 171.036 38.852 170.718C40.869 168.799 43.1064 167.146 45.5064 165.682C46.6625 164.977 47.8514 164.335 49.032 163.674C50.0324 163.111 51.1282 162.746 52.0841 162.154C53.8223 161.083 55.7617 160.482 57.6009 159.654C58.241 159.365 58.891 159.132 59.6005 159.011C60.1887 158.91 60.7502 158.588 61.3274 158.367C61.9822 158.113 62.6068 157.771 63.3299 157.746C63.4971 157.742 63.6682 157.653 63.8289 157.586C65.4973 156.895 67.2827 156.644 68.9779 156.049C69.1373 155.995 69.324 156.007 69.5003 155.993L69.524 156.019C69.5663 156.341 69.4684 156.637 69.0979 156.684C67.8112 156.854 66.6945 157.513 65.5018 157.941C65.174 158.059 64.8378 158.157 64.5037 158.259C64.0435 158.402 63.5698 158.497 63.1264 158.681C60.1957 159.883 57.2552 161.077 54.3379 162.327C53.0916 162.861 51.9637 163.65 50.6823 164.115C50.6047 164.147 50.5398 164.21 50.4608 164.255C49.5546 164.779 48.6441 165.293 47.742 165.827C46.9535 166.291 46.151 166.736 45.3967 167.251C44.0576 168.157 42.7261 169.066 41.4387 170.033C39.9727 171.135 38.5563 172.293 37.128 173.438C36.8264 173.682 36.6216 173.987 36.4803 174.367C35.9266 175.852 35.3411 177.339 34.7262 178.802C34.268 179.89 33.7312 180.946 33.2424 182.023C32.797 183.017 32.2487 183.982 31.9945 185.046C31.8895 185.482 31.6254 185.895 31.4065 186.307C31.0713 186.94 30.6825 187.554 30.3723 188.2C29.5104 189.991 28.6923 191.794 27.8325 193.591C27.6172 194.043 27.3179 194.465 27.0894 194.917C26.724 195.633 26.3738 196.356 26.0313 197.081C25.9694 197.214 25.9534 197.363 25.8469 197.764C26.1614 197.474 26.2832 197.375 26.3909 197.259C27.5331 196.066 28.8111 195.013 30.1785 194.066C32.5119 192.456 34.8817 190.903 37.4842 189.724C37.6429 189.652 37.791 189.555 37.9454 189.474C38.4045 189.218 38.8412 188.924 39.3234 188.724C41.8002 187.68 44.2875 186.662 46.765 185.636C47.0477 185.519 47.3296 185.384 47.627 185.303C48.8013 184.971 49.9841 184.66 51.1563 184.323C51.9979 184.081 52.826 183.792 53.6726 183.578C54.517 183.359 55.3701 183.208 56.2237 183.027C56.2962 183.093 56.3666 183.153 56.439 183.218C56.3548 183.312 56.268 183.479 56.1855 183.484C55.5568 183.518 55.0035 183.813 54.4318 184.031C54.1858 184.127 53.9324 184.268 53.6826 184.276C53.0011 184.309 52.4167 184.622 51.8062 184.857C51.1071 185.129 50.4271 185.494 49.7094 185.642C49.0534 185.783 48.4456 185.993 47.8338 186.241C46.4925 186.796 45.1511 187.352 43.8043 187.91C43.5216 188.027 43.1902 188.105 42.9689 188.291C42.2026 188.918 41.2542 189.168 40.3905 189.592C39.3703 190.092 38.3585 190.612 37.3593 191.163C36.5568 191.608 35.8025 192.123 35.014 192.586C33.2811 193.608 31.5965 194.698 30.0138 195.925C28.2948 197.262 26.5822 198.615 24.8751 199.965C24.7423 200.067 24.6047 200.19 24.5206 200.332C24.1471 200.951 23.7813 201.572 23.4383 202.202C23.2118 202.612 23.0735 203.062 22.8219 203.458C21.7354 205.146 21.0341 206.996 20.013 208.716C19.3461 209.85 18.7828 211.029 18.1659 212.19C18.126 212.266 18.0686 212.331 18.0287 212.407C17.4342 213.433 16.8473 214.462 16.2528 215.488C15.6831 216.48 15.1037 217.464 14.534 218.456C14.1518 219.132 13.7848 219.814 13.2711 220.753C13.9594 220.235 14.3896 219.879 14.8519 219.568C16.5918 218.407 18.3135 217.218 20.1057 216.136C20.9212 215.643 21.6883 215.034 22.6373 214.754C22.7988 214.705 22.9775 214.619 23.0984 214.503C23.5263 214.094 24.0697 213.917 24.592 213.688C24.9169 213.548 25.2893 213.459 25.5451 213.246C26.2444 212.677 27.081 212.407 27.8881 212.067C29.713 211.299 31.5518 210.55 33.3808 209.792C33.8704 209.845 34.3362 209.7 34.7628 209.476C35.8971 208.875 37.1996 208.805 38.3599 208.283C39.1721 208.316 39.8557 207.818 40.6198 207.657C42.273 207.305 43.9225 206.914 45.582 206.577C47.5417 206.182 49.5094 205.837 51.472 205.465C51.7314 205.417 51.8742 205.542 51.9909 205.714C51.962 205.786 51.9039 205.834 51.8277 205.853C51.2539 206.067 50.6901 206.336 50.1042 206.49C48.6373 206.883 47.1548 207.223 45.685 207.594C45.0097 207.767 44.3407 207.955 43.676 208.152C42.6792 208.458 41.6963 208.907 40.6857 209.07C39.3332 209.285 38.1479 209.966 36.8137 210.257C35.5149 210.539 34.2759 211.153 32.9888 211.573C31.0377 212.209 29.1676 213.103 27.2673 213.908C27.0456 213.999 26.8862 214.226 26.6995 214.387C25.3035 214.81 24.1245 215.68 22.828 216.312C21.5037 216.956 20.3068 217.844 19.0344 218.597C16.5228 220.09 14.2276 221.886 11.776 223.461C11.4888 223.645 11.3426 223.873 11.2995 224.176C10.407 225.611 9.45664 227.017 8.64053 228.48C7.78106 230.026 6.78106 231.5 5.90419 233.036C5.55153 233.658 5.18359 234.275 4.83648 234.895C4.68842 235.164 4.50404 235.378 4.19919 235.504C3.95532 235.605 3.7254 235.724 3.48573 235.835C3.16657 236.021 2.83379 236.111 2.51985 235.902C2.2602 235.73 2.20065 235.445 2.21049 235.155C2.2209 234.835 2.26324 234.514 2.29238 234.193C2.78242 233.4 3.27246 232.608 3.77014 231.819C4.6931 230.347 5.63899 228.884 6.5501 227.399C7.3909 226.027 8.18715 224.626 9.0182 223.246C9.18288 222.97 9.22486 222.726 9.1611 222.431C8.98191 221.607 8.79163 220.787 8.68526 219.95C8.52159 218.708 8.46267 217.453 8.29901 216.211C8.03801 214.296 7.734 212.386 7.43554 210.474C7.10222 208.368 6.75782 206.267 6.21024 204.208C6.03454 203.549 5.90529 202.876 5.74832 202.215C5.52283 201.278 5.34378 200.329 5.04413 199.417C4.71845 198.427 4.65062 197.354 4.12807 196.422C4.0728 196.32 4.09511 196.186 4.06544 196.067C3.96935 195.678 3.90098 195.278 3.75501 194.91C3.22008 193.524 3.01293 192.021 2.31859 190.69C2.26331 190.587 2.27246 190.453 2.23724 190.336C2.11513 189.869 2.01728 189.398 1.85637 188.947C1.37707 187.586 0.592166 186.333 0.433009 184.852C0.407698 184.618 0.269991 184.396 0.171855 184.174C-0.518328 182.68 -0.972283 181.083 -1.92297 179.697C-2.39726 179.007 -2.59118 178.146 -2.93189 177.371C-3.07632 177.038 -3.25191 176.724 -3.42406 176.402C-3.63675 176.014 -3.90831 175.656 -4.0801 175.257C-4.58361 174.073 -5.25818 172.978 -5.97842 171.913C-6.24177 171.528 -6.37609 171.125 -6.28029 170.651C-6.20136 170.607 -6.12033 170.567 -6.04694 170.525C-5.75147 170.956 -5.46706 171.392 -5.1605 171.818C-3.91608 173.553 -2.69385 175.296 -1.82536 177.252C-1.79379 177.328 -1.7712 177.414 -1.72168 177.471C-1.00345 178.233 -0.769329 179.237 -0.341988 180.143C-0.171739 180.507 0.0151294 180.864 0.205444 181.214C0.418137 181.602 0.684158 181.962 0.850405 182.364C1.48573 183.85 2.09677 185.341 2.70438 186.839C2.82854 187.139 3.01099 187.439 3.01722 187.751C3.03197 188.43 3.32808 189.004 3.56664 189.595C3.9112 190.458 4.38956 191.284 4.57394 192.184C4.74836 193.028 5.04396 193.805 5.34376 194.591C5.44554 194.852 5.59664 195.123 5.59711 195.391C5.59693 195.986 5.86146 196.484 6.05948 197.009C6.17256 197.313 6.36056 197.61 6.36678 197.923C6.37958 198.471 6.58847 198.944 6.7773 199.431C6.86435 199.657 6.9216 199.89 6.98094 200.127C7.21198 201.061 7.42637 202.002 7.66295 202.934C7.86067 203.709 8.1125 204.473 8.27696 205.262C8.51514 206.402 8.71242 207.552 8.9097 208.703C9.22304 210.525 9.56276 212.349 9.822 214.182C10.0943 216.14 10.2806 218.11 10.5175 220.078C10.529 220.168 10.6321 220.245 10.7696 220.42C10.858 220.163 10.9101 220.022 10.9601 219.877C11.6238 218.798 12.3007 217.72 12.9491 216.636C13.3591 215.948 13.744 215.247 14.1269 214.541C14.6736 213.541 15.1745 212.524 15.7539 211.54C16.6117 210.084 17.475 208.625 18.1888 207.103C18.2782 206.911 18.3426 206.706 18.4668 206.535C19.497 205.15 19.939 203.521 20.8788 202.09C21.5028 201.135 21.8457 200.035 22.3674 199.021C22.7019 198.371 22.7722 197.788 22.4287 197.163C21.7661 195.955 21.5776 194.575 21.195 193.275C20.8364 192.049 20.6614 190.764 20.1413 189.587C20.1097 189.51 20.0671 189.439 20.0598 189.358C20.014 188.574 19.707 187.88 19.4366 187.164C19.174 186.452 19.0686 185.68 18.7913 184.979C17.6932 182.25 16.5507 179.539 15.4228 176.816C15.3007 176.521 15.2048 176.18 14.9956 175.957C14.5836 175.526 14.4264 174.99 14.173 174.488C13.7032 173.558 13.277 172.591 12.6736 171.746C12.2888 171.209 12.0746 170.613 11.7307 170.065C11.2246 169.251 10.6908 168.449 10.1993 167.623C9.48053 166.42 8.79293 165.199 8.07761 163.99C7.75247 163.44 7.41413 162.89 7.05783 162.359C6.47242 161.494 5.86141 160.646 5.44284 159.682C5.40686 159.549 5.37298 159.42 5.34255 159.284C5.63109 159.557 5.96741 159.804 6.20684 160.116C7.50591 161.81 8.79388 163.508 10.0639 165.226C10.7837 166.196 11.4669 167.187 12.1445 168.18C12.8479 169.204 13.5478 170.235 14.2201 171.278C14.654 171.95 15.0756 172.638 15.4195 173.359C15.9505 174.484 16.7613 175.469 17.1137 176.681C17.1468 176.792 17.2485 176.881 17.3114 176.986C17.5499 177.405 17.8196 177.805 18.0193 178.24C18.3711 179.011 18.6952 179.793 18.9915 180.587C19.4893 181.899 20.2353 183.119 20.372 184.563C20.3809 184.678 20.4535 184.791 20.4998 184.903C20.9181 185.944 21.4326 186.951 21.5452 188.1C21.554 188.216 21.6378 188.324 21.6841 188.436C22.0115 189.508 22.4041 190.566 22.6497 191.661C22.7644 192.173 22.9102 192.666 23.0471 193.169C23.2651 193.977 23.4144 194.808 23.5992 195.63C23.6296 195.766 23.7044 195.884 23.8286 196.184C24.1348 195.575 24.339 195.127 24.5793 194.689C24.8423 194.211 25.1721 193.753 25.4122 193.266C26.3335 191.414 27.0713 189.496 28.1957 187.727C30.3495 182.971 32.771 178.314 34.6592 173.466C34.8199 173.055 34.8551 172.701 34.7409 172.284C34.484 171.319 34.2958 170.331 34.0777 169.35C33.9743 168.881 33.8709 168.412 33.7676 167.943C33.6401 167.353 33.5147 166.768 33.3982 166.174C33.162 164.992 33.0241 163.781 32.6804 162.638C32.2253 161.1 32.0004 159.491 31.3782 158.005C31.3319 157.893 31.2815 157.771 31.2858 157.656C31.3235 157.057 31.0402 156.561 30.8401 156.031C30.753 155.805 30.6187 155.575 30.6198 155.343C30.6238 154.663 30.3055 154.098 30.0759 153.497C29.8758 152.967 29.5564 152.462 29.4964 151.91C29.4184 151.204 29.1505 150.589 28.8951 149.956C28.2988 148.501 27.697 147.048 27.0875 145.592C26.1392 143.318 25.1874 141.052 24.2335 138.781C24.1954 138.642 24.1629 138.5 24.1248 138.361C24.3117 138.076 24.1753 137.84 24.0445 137.603L24.0382 137.588C24.1481 137.649 24.3037 137.68 24.3548 137.772C24.8613 138.681 25.3511 139.597 25.8354 140.516C25.9278 140.692 25.9621 140.916 26.0925 141.058C26.674 141.662 26.9002 142.444 27.2275 143.171C27.3404 143.428 27.501 143.659 27.6361 143.907C27.8522 144.287 28.1092 144.657 28.2755 145.058C29.4566 147.879 30.6211 150.706 31.7856 153.533C31.9077 153.827 32.0922 154.132 32.0963 154.44C32.1111 155.118 32.4051 155.687 32.6381 156.281C32.7399 156.542 32.9243 156.799 32.9324 157.069C32.9494 158.271 33.6811 159.253 33.8327 160.434C34.0029 161.739 34.5053 162.983 34.7504 164.28C34.8634 164.882 35.0033 165.455 35.2382 166.007C35.3233 167.215 35.5575 168.392 35.8624 169.552C35.8758 169.6 35.9876 169.619 36.1184 169.684C36.2217 169.51 36.3404 169.342 36.4208 169.159C37.024 167.731 37.614 166.302 38.2095 164.871C38.2418 164.792 38.2532 164.71 38.2855 164.631C38.7555 163.383 39.2047 162.132 39.6955 160.887C40.2035 159.605 40.7401 158.329 41.2634 157.053C41.2957 156.974 41.3147 156.895 41.3394 156.813C41.72 155.757 42.0798 154.697 42.4757 153.646C42.8716 152.595 43.3168 151.554 43.7182 150.501C43.9866 149.8 44.2188 149.091 44.4642 148.382C44.7781 147.478 45.0789 146.574 45.4005 145.673C45.6898 144.851 46.0131 144.032 46.2948 143.207C46.7478 141.871 47.1854 140.529 47.6308 139.19C48.0041 138.053 48.5621 136.923 47.9504 135.76C47.9175 135.696 47.9545 135.598 47.9417 135.52C47.7921 134.814 47.6371 134.11 47.482 133.407C47.507 133.247 47.5895 133.07 47.5424 132.941C47.0517 131.662 46.9721 130.279 46.5819 128.976C46.3121 128.058 46.2127 127.081 45.8875 126.186C45.4786 125.058 45.3885 123.822 44.796 122.752C44.7204 122.616 44.7425 122.435 44.7058 122.283C44.6189 121.932 44.5618 121.575 44.4305 121.242C44.0734 120.349 43.6864 119.462 43.3104 118.57C43.3807 118.285 43.4454 118.002 43.5178 117.722C43.6514 117.809 43.8473 117.859 43.911 117.982C44.1735 118.474 44.4726 118.945 44.7606 119.421C45.1669 120.104 45.477 120.869 45.6428 121.645C45.7632 122.202 45.9217 122.726 46.1308 123.246C46.4416 124.028 46.8718 124.785 47.0336 125.599C47.1818 126.317 47.4124 126.983 47.6603 127.66C47.7692 127.954 47.7949 128.283 47.8837 128.592C48.1591 129.507 48.1801 130.498 48.628 131.36C48.5629 132.191 48.9507 132.923 49.07 133.713C49.075 133.741 49.2034 133.753 49.2965 133.774C49.3655 133.674 49.463 133.58 49.4958 133.471C49.9409 132.084 50.3805 130.7 50.8124 129.313C51.4271 127.332 52.0452 125.344 52.6445 123.358C53.2343 121.411 53.8297 119.462 54.3757 117.504C55.0987 114.907 55.7856 112.301 56.4614 109.7C56.9467 107.814 57.3826 105.92 57.8582 104.026C57.9271 103.754 58.0738 103.497 58.1899 103.228C58.3081 103.263 58.4207 103.299 58.5367 103.329C58.5225 103.733 58.5368 104.144 58.4907 104.55C58.4102 105.202 58.2694 105.85 58.1813 106.499C57.9229 108.368 57.5646 110.231 57.1381 112.086C56.3935 115.305 55.6566 118.527 54.6904 121.713C53.7865 124.688 52.9132 127.675 52.0322 130.659C51.9898 130.807 51.8941 130.984 52.1644 131.056C52.4128 130.715 52.6612 130.374 52.9151 130.031C54.5222 127.86 56.2073 125.751 58.26 123.919C59.071 123.196 59.8939 122.486 60.6993 121.765C60.9545 121.535 61.2136 121.439 61.5184 121.611L61.2071 122.489L61.2493 122.466Z" fill="#4E979B"/>
<path d="M21.6908 188.421C21.6445 188.309 21.5684 188.204 21.5519 188.086C21.4393 186.936 20.9248 185.929 20.5066 184.888C20.4603 184.776 20.3897 184.668 20.3787 184.548C20.242 183.105 19.4961 181.884 18.9982 180.572C18.6963 179.781 18.3723 178.998 18.026 178.225C17.8263 177.79 17.5622 177.388 17.3181 176.971C17.2552 176.866 17.1535 176.777 17.1204 176.666C16.7681 175.455 15.9572 174.469 15.4262 173.344C15.0823 172.623 14.6552 171.937 14.2268 171.263C13.5545 170.221 12.8546 169.189 12.1512 168.165C11.468 167.174 10.7828 166.178 10.0706 165.212C8.80271 163.499 7.51261 161.795 6.21354 160.101C5.97411 159.79 5.6399 159.547 5.34926 159.269C4.56314 156.148 4.53971 153.003 5.74062 149.851C6.55172 147.718 7.94252 145.933 9.96141 144.615C10.7788 144.08 11.6704 143.693 12.6232 143.5C15.6218 142.901 17.728 144.082 19.0295 146.174C19.5376 146.993 19.9267 147.886 20.3359 148.764C20.7766 149.718 21.1231 150.711 21.6117 151.64C21.9294 152.234 22.3642 152.798 22.8715 153.255C23.5886 153.904 24.4672 153.737 25.1224 152.935C25.6313 152.314 25.8329 151.594 25.9546 150.853C26.1921 149.451 26.1278 148.073 25.8519 146.717C25.4729 144.814 25.0344 142.925 24.6312 141.026C24.4724 140.283 24.1979 139.557 24.2479 138.769C25.2018 141.04 26.1535 143.306 27.1018 145.58C27.7037 147.033 28.3055 148.486 28.9095 149.944C29.1704 150.574 29.4272 151.194 29.5107 151.897C29.5763 152.448 29.8902 152.955 30.0903 153.485C30.3199 154.086 30.6381 154.651 30.6342 155.331C30.6331 155.563 30.7674 155.793 30.8544 156.019C31.0524 156.544 31.3434 157.043 31.3002 157.644C31.2903 157.761 31.3463 157.881 31.3926 157.993C32.0147 159.479 32.2341 161.09 32.6948 162.626C33.0329 163.771 33.1784 164.985 33.4126 166.162C33.5269 166.751 33.66 167.339 33.7819 167.931C32.1321 169.686 30.4725 171.433 29.2223 173.462C28.9436 173.37 28.7469 173.302 28.5501 173.235C28.0639 172.359 27.5867 171.473 27.0839 170.604C26.581 169.735 25.9993 168.911 25.5519 168.019C24.9931 166.905 24.5197 165.762 23.8978 164.668C23.1418 163.345 22.8165 161.807 21.872 160.561C21.6396 159.64 21.0173 158.921 20.5315 158.14C20.0458 157.36 19.3778 156.672 18.5939 156.128C17.2552 155.2 15.4198 155.472 14.2697 156.74C13.4352 157.657 13.163 158.74 13.0992 159.856C12.9675 162.125 13.4031 164.289 14.2574 166.352C14.5352 167.023 14.8296 167.686 15.0908 168.364C15.5079 169.465 16.2019 170.404 16.8246 171.39C17.6451 172.681 18.5881 173.891 19.5767 175.071C21.3817 177.234 23.3754 179.194 25.8991 180.63C25.9336 180.902 26.0612 181.194 25.9796 181.436C25.6823 182.333 25.3913 183.245 24.9487 184.089C24.4318 185.083 23.8099 186.043 23.1392 186.964C22.7508 187.5 22.1807 187.926 21.6921 188.408L21.6908 188.421Z" fill="#59ABA3"/>
<path d="M-6.27693 170.643C-6.37273 171.118 -6.23841 171.52 -5.97506 171.905C-5.25482 172.97 -4.57682 174.058 -4.07675 175.25C-3.9105 175.651 -3.63684 176.014 -3.42071 176.394C-3.24512 176.709 -3.07297 177.03 -2.92854 177.363C-2.59338 178.141 -2.3918 179.004 -1.91961 179.689C-0.963384 181.073 -0.51498 182.673 0.175203 184.167C0.278882 184.385 0.408942 184.605 0.436357 184.844C0.595514 186.326 1.38597 187.576 1.85972 188.939C2.02064 189.39 2.11848 189.861 2.24059 190.329C2.27026 190.447 2.26666 190.58 2.32194 190.682C3.01627 192.013 3.22343 193.517 3.75836 194.902C3.89879 195.272 3.9727 195.67 4.06879 196.059C4.09846 196.178 4.0706 196.314 4.13142 196.414C4.65186 197.341 4.7197 198.414 5.04748 199.41C5.34713 200.321 5.52618 201.271 5.75167 202.207C5.90864 202.868 6.03791 203.541 6.21361 204.2C6.76119 206.259 7.10558 208.36 7.4389 210.466C7.73736 212.378 8.04691 214.285 8.30237 216.203C8.47157 217.443 8.53048 218.698 8.6886 219.942C8.79498 220.779 8.98737 221.604 9.16446 222.423C9.22821 222.718 9.18624 222.962 9.02156 223.239C8.19052 224.618 7.39215 226.015 6.55346 227.392C5.64789 228.874 4.702 230.337 3.77349 231.811C3.27581 232.6 2.78576 233.393 2.29572 234.185C2.22222 232.769 2.15217 231.346 2.06759 229.934C1.80397 225.347 1.20394 220.81 0.314713 216.328C-0.193475 213.752 -0.796665 211.199 -1.46847 208.668C-2.22773 205.816 -3.31689 203.077 -4.476 200.372C-5.29994 198.446 -6.14605 196.529 -6.99427 194.606C-7.71069 192.986 -8.51234 191.396 -9.17333 189.753C-10.1402 187.356 -10.9013 184.892 -11.1791 182.293C-11.4246 179.96 -11.2612 177.642 -10.2784 175.39C-9.44147 173.46 -8.21886 171.787 -6.28669 170.635L-6.27693 170.643Z" fill="#59ABA3"/>
<path d="M56.2163 183.025C55.3627 183.206 54.5117 183.362 53.6652 183.576C52.8207 183.794 51.9926 184.084 51.1489 184.32C49.9746 184.652 48.7918 184.963 47.6196 185.3C47.3243 185.387 47.0403 185.516 46.7576 185.633C44.2745 186.662 41.7872 187.68 39.3159 188.722C38.8337 188.921 38.3991 189.22 37.938 189.471C37.7857 189.558 37.6354 189.65 37.4768 189.721C34.8743 190.901 32.499 192.456 30.1711 194.063C28.8016 195.005 27.5235 196.058 26.3835 197.257C26.2736 197.368 26.154 197.471 25.8395 197.762C25.946 197.361 25.962 197.211 26.0239 197.078C26.3664 196.353 26.7165 195.631 27.082 194.914C27.3125 194.467 27.6098 194.041 27.8251 193.588C28.6793 191.794 29.503 189.989 30.3648 188.197C30.6751 187.551 31.066 186.943 31.3991 186.305C31.618 185.893 31.8821 185.48 31.9871 185.043C32.2413 183.98 32.7896 183.015 33.235 182.021C33.7183 180.945 34.2585 179.882 34.7188 178.799C35.3371 177.329 35.9192 175.849 36.4729 174.364C36.6142 173.984 36.819 173.679 37.1205 173.435C38.5488 172.29 39.9653 171.132 41.4312 170.031C42.7187 169.063 44.0481 168.149 45.3893 167.248C46.1457 166.739 46.9461 166.288 47.7346 165.825C48.6388 165.295 49.5471 164.776 50.4534 164.252C50.5268 164.21 50.5952 164.14 50.6749 164.113C51.9618 163.645 53.0841 162.859 54.3305 162.325C57.2423 161.077 60.1828 159.883 63.119 158.678C63.5624 158.495 64.0361 158.4 64.4963 158.257C64.8304 158.154 65.1666 158.056 65.4944 157.938C66.6871 157.51 67.8037 156.851 69.0905 156.681C69.461 156.635 69.5568 156.333 69.5166 156.016C70.064 156.444 70.4577 156.972 70.6633 157.625C70.4997 157.669 70.272 157.668 70.1954 157.765C70.0194 157.999 69.9019 158.279 69.7879 158.553C69.0046 160.377 67.959 162.054 66.6784 163.65C65.1804 165.521 63.416 167.109 61.4691 168.522C59.5332 169.931 57.5156 171.237 55.5873 172.649C54.1821 173.677 52.8273 174.78 51.5114 175.914C50.8026 176.523 50.2026 177.254 49.53 178.045C49.7833 178.029 49.9033 178.021 50.0289 178.011C49.7923 178.192 49.5642 178.394 49.3157 178.562C48.3351 179.236 47.402 179.962 46.7176 180.912C46.4499 181.285 46.2339 181.719 46.1059 182.147C45.9547 182.644 46.2745 183.071 46.8145 183.074C47.4996 183.082 48.2024 183.023 48.8856 182.901C49.8766 182.722 50.8499 182.438 51.8346 182.245C53.3041 181.951 54.6942 182.078 55.9557 182.787C56.058 182.846 56.1431 182.942 56.235 183.023L56.2163 183.025Z" fill="#61B8B2"/>
<path d="M33.3918 209.787C31.5627 210.545 29.726 211.3 27.899 212.062C27.0898 212.398 26.2553 212.672 25.5561 213.241C25.2926 213.451 24.9279 213.543 24.603 213.684C24.0806 213.912 23.5317 214.092 23.1094 214.499C22.9884 214.614 22.8153 214.698 22.6482 214.749C21.6992 215.029 20.9322 215.639 20.1167 216.131C18.3244 217.213 16.6027 218.402 14.8628 219.563C14.4005 219.874 13.9704 220.23 13.282 220.748C13.7978 219.814 14.1572 219.129 14.545 218.451C15.107 217.456 15.692 216.47 16.2638 215.483C16.8583 214.457 17.4452 213.428 18.0397 212.402C18.0817 212.331 18.1369 212.261 18.1769 212.185C18.7882 211.027 19.357 209.845 20.0239 208.712C21.0395 206.993 21.7408 205.143 22.8329 203.453C23.0866 203.062 23.2248 202.612 23.4493 202.198C23.7922 201.568 24.1581 200.946 24.5315 200.327C24.6156 200.185 24.7553 200.067 24.886 199.96C26.5931 198.61 28.3058 197.258 30.0247 195.921C31.6075 194.694 33.2921 193.603 35.0249 192.582C35.8135 192.118 36.5733 191.601 37.3703 191.158C38.3618 190.604 39.3736 190.084 40.4014 189.587C41.2651 189.164 42.2135 188.914 42.9798 188.287C43.2088 188.103 43.5326 188.022 43.8152 187.905C45.1566 187.349 46.4979 186.794 47.8447 186.236C48.4544 185.983 49.0622 185.773 49.7203 185.638C50.438 185.489 51.1159 185.119 51.8172 184.852C52.4276 184.617 53.0121 184.304 53.6935 184.272C53.9413 184.258 54.1947 184.117 54.4428 184.027C55.0144 183.808 55.5622 183.515 56.1964 183.479C56.279 183.474 56.3657 183.307 56.45 183.213C57.7553 184.107 58.462 185.421 58.9782 186.809C59.5541 188.356 59.8104 189.993 59.7171 191.681C59.7109 191.838 59.654 191.999 59.6214 192.155C59.509 192.166 59.3457 192.132 59.2863 192.193C59.1024 192.376 58.975 192.601 58.7988 192.787C57.0006 194.717 55.0223 196.447 52.7282 197.837C51.5389 198.556 50.423 199.405 49.0974 199.889C49.0198 199.921 48.9311 199.958 48.8696 200.013C48.3131 200.535 47.5887 200.746 46.9077 201.046C46.5884 201.184 46.2321 201.296 45.9665 201.501C44.9502 202.262 43.6912 202.593 42.6469 203.317C41.9058 203.832 41.0391 204.185 40.2784 204.685C38.796 205.668 37.3317 206.679 35.8954 207.726C35.0278 208.36 34.1804 209.026 33.4161 209.783L33.3918 209.787ZM50.0339 187.68C49.4361 187.946 48.6481 188.207 47.9911 188.753C47.5955 189.083 47.1358 189.369 46.6655 189.581C45.4463 190.134 44.4386 190.962 43.4247 191.775C42.7503 192.31 42.1116 192.932 41.7667 193.729C41.2032 195.034 41.8894 196.095 43.3291 196.279C44.659 196.448 45.9059 196.056 47.1592 195.68C47.8759 195.467 48.4722 194.993 49.1329 194.66C50.2056 194.115 51.1069 193.39 52.0366 192.672C53.2631 191.729 53.9998 190.513 54.5255 189.165C54.7232 188.654 54.4559 187.664 54.0008 187.412C53.2202 186.985 52.3867 186.682 51.4272 187.109C51.0268 187.287 50.6125 187.446 50.0416 187.683L50.0339 187.68Z" fill="#61B8B2"/>
<path d="M35.2757 166.003C35.0387 165.446 34.8988 164.874 34.7879 164.277C34.5428 162.979 34.0348 161.737 33.8702 160.431C33.7186 159.249 32.989 158.272 32.9699 157.066C32.9673 156.793 32.7774 156.538 32.6756 156.277C32.4426 155.683 32.1465 155.109 32.1338 154.436C32.1276 154.123 31.9452 153.824 31.8231 153.529C30.6531 150.704 29.4885 147.877 28.313 145.055C28.1467 144.653 27.8841 144.286 27.6735 143.903C27.533 143.658 27.3779 143.424 27.265 143.168C26.9356 142.435 26.7115 141.659 26.13 141.054C25.994 140.914 25.9653 140.688 25.8729 140.512C25.383 139.596 24.8932 138.68 24.3923 137.768C24.3412 137.677 24.1856 137.646 24.0756 137.584C23.9778 137.113 23.8502 136.648 23.7953 136.171C23.5414 134.115 23.5032 132.048 23.846 129.959C24.1672 128.023 24.8263 126.196 26.0782 124.547C26.8959 123.464 27.8963 122.556 29.1424 121.974C30.9545 121.128 32.7698 121.043 34.4821 121.994C35.182 122.383 35.7541 122.902 36.2578 123.491C36.8627 124.199 37.4295 124.94 38.0634 125.624C38.417 126.007 38.8349 126.358 39.2818 126.637C39.8058 126.961 40.3987 126.841 40.7811 126.337C41.1137 125.902 41.41 125.41 41.5855 124.909C41.9413 123.887 42.204 122.843 42.493 121.801C42.7882 120.726 43.0681 119.646 43.3556 118.569C43.7294 119.456 44.1219 120.341 44.4736 121.237C44.6104 121.567 44.664 121.931 44.7488 122.277C44.7877 122.434 44.7655 122.616 44.839 122.746C45.4315 123.816 45.5195 125.047 45.9305 126.18C46.2557 127.075 46.3495 128.054 46.6249 128.97C47.0096 130.275 47.0947 131.656 47.5855 132.935C47.6381 133.062 47.5521 133.247 47.525 133.401C47.4462 133.32 47.3675 133.24 47.2434 133.113C47.0699 133.274 46.9283 133.434 46.7643 133.555C46.0316 134.091 45.3352 134.683 44.5536 135.131C43.8086 135.559 42.9412 135.769 42.2475 136.337C41.966 136.566 41.6768 136.448 41.5075 136.149C41.3486 135.53 41.2286 134.896 41.0198 134.298C40.7569 133.537 40.3943 132.819 40.1203 132.063C39.8955 131.442 39.4782 130.936 39.0369 130.482C38.5697 129.997 37.9877 129.595 37.2175 129.492C35.9668 129.325 35.0333 129.831 34.2711 130.766C33.5124 131.693 33.4156 132.745 33.4133 133.806C33.4217 136.052 34.3454 137.937 35.824 139.563C36.8359 140.673 38.0531 141.574 39.4629 142.234C39.5462 142.545 39.6648 142.847 39.6995 143.166C39.9576 145.529 40.1969 147.894 40.1949 150.287C40.1904 152.283 40.0263 154.286 39.6636 156.263C39.2684 158.445 38.5969 160.586 37.5466 162.628C36.9279 163.831 36.2124 164.972 35.2812 166.001L35.2757 166.003Z" fill="#59ABA3"/>
<path d="M10.9691 219.866C10.919 220.012 10.8669 220.153 10.7785 220.41C10.6444 220.227 10.5379 220.158 10.5264 220.068C10.2916 218.105 10.1032 216.13 9.83092 214.171C9.57721 212.336 9.23407 210.52 8.91862 208.692C8.72135 207.542 8.52406 206.392 8.28588 205.252C8.12141 204.463 7.87171 203.704 7.67189 202.923C7.43531 201.992 7.2209 201.051 6.98986 200.117C6.93263 199.885 6.87329 199.647 6.78624 199.421C6.60295 198.932 6.38851 198.461 6.37571 197.913C6.36948 197.6 6.18148 197.303 6.06841 196.999C5.87039 196.474 5.60585 195.976 5.60603 195.381C5.60345 195.108 5.45446 194.842 5.35268 194.581C5.04734 193.797 4.75728 193.018 4.58285 192.174C4.39847 191.274 3.92012 190.448 3.57557 189.585C3.3349 188.988 3.04089 188.42 3.02614 187.741C3.01992 187.428 2.83746 187.129 2.7133 186.829C2.09461 185.336 1.48911 183.842 0.859329 182.353C0.690977 181.947 0.419426 181.589 0.21438 181.204C0.0219611 180.849 -0.164929 180.492 -0.333073 180.133C-0.754871 179.225 -0.988979 178.22 -1.71275 177.461C-1.76782 177.406 -1.78485 177.318 -1.81642 177.242C-2.67727 175.289 -3.90717 173.543 -5.15158 171.808C-5.45815 171.382 -5.74254 170.946 -6.03802 170.515C-3.40422 168.549 0.345106 168.68 2.5978 170.842C3.24602 171.466 3.80366 172.17 4.14667 172.998C4.60964 174.116 5.03171 175.244 5.48913 176.364C5.79083 177.108 6.08355 177.862 6.44068 178.583C6.6178 178.933 6.89336 179.253 7.19298 179.522C7.57483 179.863 8.09646 179.79 8.43676 179.358C8.67005 179.059 8.86013 178.718 9.003 178.373C9.31069 177.627 9.39894 176.852 9.41358 176.072C9.44682 174.303 9.16449 172.586 8.68318 170.923C8.05183 168.756 7.31307 166.627 6.65191 164.467C6.20756 163.002 5.82627 161.517 5.42837 160.039C5.39736 159.933 5.44607 159.8 5.45387 159.677C5.87033 160.636 6.48345 161.489 7.06886 162.354C7.4307 162.882 7.7635 163.435 8.08864 163.985C8.80396 165.194 9.49155 166.415 10.2103 167.617C10.7019 168.444 11.2412 169.244 11.7417 170.06C12.0779 170.606 12.2999 171.204 12.6847 171.741C13.288 172.586 13.7087 173.555 14.184 174.483C14.4375 174.985 14.5946 175.521 15.0067 175.952C15.2235 176.177 15.3117 176.516 15.4338 176.811C16.5597 179.529 17.7042 182.245 18.8024 184.974C19.0872 185.678 19.1871 186.452 19.4477 187.159C19.7125 187.877 20.0272 188.574 20.0708 189.353C20.076 189.429 20.1207 189.505 20.1523 189.582C19.8696 189.699 19.5772 189.808 19.2987 189.935C17.5981 190.705 15.8524 190.833 14.0799 190.567C12.9798 190.404 11.8844 190.221 10.783 190.07C10.0107 189.961 9.62021 190.194 9.42203 190.907C9.27922 191.425 9.13719 191.96 9.13947 192.483C9.14284 193.416 9.27734 194.336 9.32028 195.271C9.39173 196.854 9.83629 198.366 10.1685 199.889C10.6394 202.045 11.0508 204.214 11.3782 206.4C11.832 209.408 11.8397 212.452 11.5227 215.512C11.4108 216.606 11.156 217.7 10.9859 218.794C10.934 219.155 10.9613 219.518 10.949 219.881L10.9691 219.866ZM12.9887 178.448C11.9986 179.162 12.0356 180.004 12.2683 180.848C12.4052 181.351 12.6793 181.808 12.8383 182.302C13.2378 183.517 14.2294 184.25 15.2299 184.972C15.4165 185.109 15.6903 185.174 15.9348 185.216C16.9919 185.385 17.9407 184.415 17.611 183.462C17.0886 181.934 16.3406 180.536 15.2282 179.324C14.6354 178.677 13.9613 178.319 12.9887 178.448Z" fill="#59ABA3"/>
<path d="M48.6635 131.352C48.2134 130.485 48.1945 129.499 47.9191 128.583C47.8269 128.282 47.8012 127.953 47.6957 127.652C47.4478 126.975 47.2117 126.311 47.069 125.59C46.9051 124.771 46.4771 124.02 46.1662 123.238C45.9626 122.715 45.8042 122.191 45.6782 121.637C45.5069 120.862 45.2023 120.096 44.7961 119.413C44.508 118.937 44.2089 118.466 43.9465 117.973C43.8828 117.851 43.6868 117.801 43.5532 117.713C43.8293 116.718 44.0615 115.711 44.3967 114.733C45.1745 112.441 46.1218 110.197 47.5657 108.165C48.1824 107.302 48.8736 106.462 49.6345 105.713C51.441 103.929 53.6273 102.952 56.2008 102.91C56.4527 102.906 56.7022 102.976 56.9557 103.008C57.1403 103.485 56.8422 103.894 56.6378 104.294C55.8691 105.809 55.395 107.392 54.9863 109.008C54.5108 110.901 54.2977 112.816 53.9562 114.72C53.6033 116.705 53.3031 118.693 52.8557 120.669C52.3266 123.013 51.5425 125.291 50.7111 127.563C50.2207 128.903 49.4334 130.122 48.6635 131.352Z" fill="#59ABA3"/>
<path d="M61.5553 121.59C61.2505 121.418 60.9935 121.519 60.7363 121.744C59.9252 122.467 59.1024 123.177 58.2969 123.898C56.2442 125.73 54.5557 127.846 52.952 130.01C52.6981 130.353 52.4497 130.694 52.2014 131.035C51.9234 130.96 52.0212 130.789 52.0691 130.638C52.9501 127.654 53.8255 124.672 54.7273 121.692C55.6935 118.506 56.4326 115.289 57.1751 112.065C57.6036 110.215 57.9619 108.352 58.2182 106.479C58.3063 105.829 58.4471 105.181 58.5276 104.529C58.5814 104.126 58.5615 103.717 58.5736 103.308C60.6067 103.811 61.9213 105.088 62.7867 106.8C63.7326 108.676 63.958 110.726 63.7965 112.828C63.711 113.923 63.5395 115.03 63.2882 116.116C62.8652 117.964 62.2985 119.794 61.5622 121.575L61.5553 121.59Z" fill="#61B8B2"/>
<path d="M33.392 209.787C34.1508 209.033 34.9981 208.366 35.8713 207.731C37.3076 206.683 38.7719 205.672 40.2544 204.689C41.0129 204.184 41.8817 203.836 42.6229 203.321C43.6671 202.597 44.9261 202.266 45.9424 201.506C46.2157 201.303 46.5664 201.194 46.8836 201.05C47.5646 200.75 48.289 200.54 48.8455 200.017C48.907 199.962 48.9936 199.92 49.0733 199.893C50.4045 199.407 51.5148 198.561 52.7041 197.842C54.9927 196.453 56.9765 194.721 58.7748 192.792C58.9509 192.606 59.0763 192.375 59.2622 192.197C59.3216 192.137 59.4849 192.17 59.5973 192.159C59.64 193.516 59.2667 194.826 58.7872 196.114C58.1292 197.88 57.2182 199.537 56.0693 201.09C54.8549 202.736 53.5569 204.322 52.002 205.71C51.8832 205.533 51.7425 205.412 51.4831 205.46C49.5205 205.833 47.5529 206.178 45.5931 206.573C43.9336 206.909 42.2841 207.3 40.631 207.652C39.8668 207.814 39.1832 208.311 38.371 208.279C37.2128 208.806 35.9103 208.875 34.7739 209.471C34.3418 209.697 33.8815 209.841 33.392 209.787Z" fill="#59ABA3"/>
<path d="M50.0177 178.015C49.8976 178.023 49.772 178.033 49.5188 178.049C50.1913 177.258 50.7913 176.527 51.5001 175.918C52.8181 174.789 54.173 173.686 55.5761 172.653C57.5043 171.241 59.5198 169.93 61.4578 168.526C63.4048 167.112 65.1692 165.525 66.6672 163.654C67.9422 162.061 68.9934 160.381 69.7767 158.557C69.8928 158.288 70.0102 158.008 70.1841 157.769C70.2607 157.672 70.4884 157.673 70.652 157.629C71.6723 159.527 71.5546 161.517 70.7784 163.546C70.0449 165.475 68.7337 167.06 67.1685 168.47C65.252 170.192 63.1045 171.624 60.7655 172.765C58.0858 174.071 55.3816 175.334 52.6977 176.631C51.7876 177.067 50.9041 177.552 50.0121 178.017L50.0177 178.015Z" fill="#59ABA3"/>
<path d="M62.2842 149.828C62.128 149.827 61.974 149.831 61.7727 149.831C61.9194 148.461 62.5244 147.288 63.1921 146.172C64.431 144.099 65.8898 142.15 67.2964 140.169C68.407 138.601 69.4578 137 70.188 135.251C71.0701 133.147 71.6 130.993 71.6243 128.763C71.632 127.998 71.6398 127.233 71.6434 126.458C71.7869 126.428 71.9117 126.4 72.0331 126.38C72.8697 127.224 73.2256 128.302 73.4511 129.411C74.2214 133.199 73.3917 136.793 71.1271 140.183C69.9817 141.901 68.5912 143.436 67.129 144.922C65.5155 146.561 63.8998 148.194 62.2842 149.828Z" fill="#59ABA3"/>
<path d="M48.6633 131.352C49.4298 130.13 50.2205 128.903 50.711 127.563C51.5423 125.29 52.3264 123.013 52.8555 120.669C53.3029 118.692 53.6031 116.705 53.956 114.72C54.292 112.819 54.5051 110.903 54.9861 109.007C55.3948 107.392 55.8711 105.814 56.6376 104.294C56.8399 103.889 57.138 103.479 56.9555 103.007C57.3799 103.076 57.7987 103.146 58.2252 103.22C58.1146 103.486 57.9623 103.745 57.8934 104.018C57.4234 105.909 56.9875 107.803 56.4967 109.691C55.823 112.298 55.134 114.898 54.411 117.495C53.8649 119.454 53.2675 121.397 52.6798 123.349C52.0804 125.335 51.4657 127.316 50.8477 129.304C50.4157 130.691 49.9762 132.076 49.5311 133.462C49.4982 133.571 49.3952 133.668 49.3318 133.765C49.2387 133.744 49.1123 133.737 49.1053 133.704C48.9914 132.912 48.5982 132.182 48.6633 131.352Z" fill="#60B8B2"/>
<path d="M24.071 137.604C24.2018 137.841 24.3382 138.076 24.1513 138.362C24.015 138.127 23.916 137.888 24.071 137.604Z" fill="#59ABA3"/>
<path d="M59.4914 130.92C59.5937 130.336 59.9463 130.011 60.3128 129.704C60.875 129.228 61.4609 128.777 62.0231 128.3C63.1074 127.374 64.4318 126.903 65.7358 126.399C65.9707 126.307 66.249 126.305 66.501 126.302C67.5858 126.287 67.8756 127.018 67.9877 127.9C68.01 128.064 67.8485 128.285 67.7201 128.446C67.1154 129.196 66.3439 129.748 65.4628 130.16C64.4286 130.642 63.3501 130.97 62.2457 131.267C61.6321 131.432 61.0604 131.478 60.4558 131.461C60.0226 131.45 59.7406 131.239 59.4838 130.917L59.4914 130.92Z" fill="#6BCCC2"/>
<path d="M10.9692 219.867C10.9815 219.505 10.9522 219.136 11.0061 218.78C11.1686 217.683 11.4256 216.595 11.5429 215.499C11.8545 212.441 11.8488 209.402 11.3984 206.386C11.0689 204.195 10.6597 202.032 10.1887 199.876C9.85654 198.353 9.41408 196.845 9.34052 195.257C9.29968 194.327 9.16308 193.402 9.15971 192.469C9.15953 191.951 9.29946 191.411 9.44227 190.894C9.6349 190.183 10.0309 189.947 10.8032 190.056C11.9068 190.212 13 190.39 14.1002 190.553C15.8726 190.819 17.6184 190.691 19.319 189.921C19.5975 189.794 19.8899 189.685 20.1726 189.568C20.6927 190.745 20.8677 192.03 21.2263 193.256C21.6054 194.563 21.7974 195.936 22.46 197.144C22.8014 197.764 22.7276 198.354 22.3987 199.002C21.877 200.016 21.534 201.116 20.91 202.071C19.9779 203.505 19.5304 205.137 18.4981 206.517C18.3739 206.687 18.3095 206.892 18.2201 207.084C17.5063 208.606 16.6464 210.057 15.7852 211.521C15.2057 212.505 14.7049 213.522 14.1582 214.522C13.7732 215.224 13.3904 215.93 12.9804 216.617C12.3265 217.704 11.6551 218.779 10.9914 219.858L10.9692 219.867Z" fill="#61B8B2"/>
<path d="M41.4964 136.153C41.6636 136.447 41.955 136.57 42.2365 136.341C42.9246 135.776 43.792 135.565 44.5425 135.136C45.3241 134.687 46.026 134.093 46.7532 133.559C46.9227 133.435 47.0588 133.278 47.2323 133.117C47.3564 133.244 47.4352 133.324 47.5139 133.405C47.669 134.108 47.8241 134.812 47.9736 135.518C47.992 135.594 47.9494 135.695 47.9823 135.758C48.594 136.922 48.036 138.051 47.6627 139.188C47.2229 140.525 46.7853 141.867 46.3268 143.206C46.0451 144.031 45.7273 144.847 45.4324 145.671C45.1108 146.572 44.8101 147.477 44.4961 148.38C44.2507 149.089 44.0185 149.798 43.7502 150.499C43.3487 151.552 42.9091 152.591 42.5076 153.644C42.1117 154.695 41.7464 155.757 41.3713 156.811C41.3446 156.888 41.3276 156.972 41.2953 157.051C40.772 158.327 40.2334 159.598 39.7274 160.885C39.2421 162.128 38.7874 163.381 38.3174 164.63C38.2907 164.706 38.2737 164.791 38.2414 164.869C37.6459 166.301 37.0559 167.729 36.4527 169.158C36.3779 169.338 36.2537 169.508 36.1503 169.682C36.0195 169.617 35.9022 169.6 35.8943 169.55C35.5839 168.393 35.3497 167.216 35.2702 166.005C36.2013 164.976 36.9147 163.83 37.5355 162.632C38.5879 160.595 39.2573 158.449 39.6525 156.267C40.0076 154.287 40.1793 152.287 40.1838 150.292C40.1858 147.898 39.9465 145.533 39.6884 143.17C39.6537 142.851 39.5295 142.551 39.4518 142.238C39.5738 142.188 39.6999 142.147 39.8197 142.092C41.2157 141.496 41.7352 140.774 41.6743 139.389C41.6339 138.382 41.6794 137.363 41.403 136.382C41.3833 136.319 41.4565 136.229 41.4888 136.15L41.4964 136.153Z" fill="#61B8B2"/>
<path d="M28.5581 173.238C28.7549 173.305 28.9516 173.372 29.2303 173.465C30.475 171.438 32.1346 169.691 33.7899 167.934C33.8933 168.403 33.9967 168.872 34.1001 169.341C34.316 170.317 34.4987 171.307 34.7632 172.275C34.8775 172.692 34.8367 173.048 34.6816 173.457C32.7933 178.305 30.3718 182.962 28.218 187.717C27.0937 189.487 26.3504 191.407 25.4346 193.257C25.1889 193.746 24.8626 194.196 24.6016 194.679C24.3592 195.113 24.1571 195.566 23.8509 196.175C23.7268 195.875 23.6554 195.75 23.6215 195.621C23.4368 194.799 23.2895 193.973 23.0694 193.159C22.9326 192.657 22.7868 192.163 22.6721 191.651C22.4265 190.557 22.0394 189.497 21.7064 188.427C22.1972 187.949 22.7672 187.523 23.1535 186.982C23.8186 186.064 24.4405 185.104 24.963 184.107C25.4056 183.263 25.6966 182.351 25.9939 181.454C26.0755 181.212 25.9458 180.915 25.9134 180.648C26.211 180.787 26.506 180.951 26.8196 181.065C27.7198 181.388 28.603 181.451 29.5727 181.002C30.2529 180.684 30.6383 180.251 30.7855 179.618C30.9414 178.929 30.9795 178.252 30.6663 177.591C29.9874 176.14 29.5572 174.568 28.5776 173.254L28.5581 173.238Z" fill="#61B8B2"/>
<path d="M28.5579 173.237C29.5374 174.552 29.9655 176.118 30.6465 177.574C30.9541 178.239 30.9161 178.915 30.7657 179.602C30.6262 180.237 30.2408 180.671 29.553 180.985C28.5777 181.437 27.7001 181.372 26.7998 181.049C26.4863 180.934 26.1989 180.774 25.8936 180.632C23.3699 179.196 21.3742 177.231 19.5713 175.073C18.5826 173.893 17.6417 172.688 16.8191 171.392C16.1964 170.406 15.5058 169.459 15.0853 168.366C14.8242 167.688 14.5298 167.025 14.252 166.354C13.3955 164.286 12.962 162.127 13.0937 159.858C13.1597 158.747 13.4319 157.664 14.2642 156.742C15.4144 155.474 17.2497 155.202 18.5885 156.13C19.3745 156.679 20.0403 157.361 20.5261 158.142C21.0119 158.923 21.6362 159.647 21.8665 160.563C22.8089 161.804 23.1363 163.347 23.8924 164.67C24.5121 165.759 24.9877 166.907 25.5464 168.021C25.9938 168.913 26.5756 169.737 27.0784 170.606C27.5813 171.475 28.0564 172.356 28.5447 173.237L28.5579 173.237Z" fill="#6BCCC2"/>
<path d="M50.0362 187.685C50.6071 187.449 51.0159 187.291 51.4219 187.111C52.389 186.687 53.2148 186.987 53.9955 187.414C54.4505 187.666 54.7179 188.656 54.5202 189.167C54.0021 190.518 53.2633 191.729 52.0312 192.674C51.1015 193.392 50.2003 194.117 49.1275 194.662C48.4724 194.993 47.8706 195.469 47.1539 195.682C45.9006 196.059 44.6515 196.445 43.3237 196.281C41.8786 196.1 41.1923 195.039 41.7613 193.732C42.1063 192.934 42.747 192.317 43.4193 191.777C44.4333 190.964 45.441 190.136 46.6601 189.583C47.1305 189.371 47.5901 189.085 47.9857 188.755C48.6427 188.209 49.4342 187.94 50.0286 187.682L50.0362 187.685Z" fill="#6BCCC2"/>
<path d="M41.4962 136.154C41.464 136.232 41.3963 136.32 41.4105 136.386C41.6847 137.361 41.6358 138.387 41.6818 139.392C41.7371 140.78 41.2232 141.499 39.8272 142.095C39.7052 142.145 39.5833 142.196 39.4593 142.241C38.0495 141.581 36.8323 140.681 35.8203 139.57C34.3418 137.945 33.4126 136.062 33.4097 133.813C33.4065 132.755 33.5067 131.695 34.2675 130.773C35.0352 129.836 35.9631 129.333 37.2139 129.499C37.9841 129.603 38.564 129.999 39.0332 130.49C39.4746 130.944 39.8918 131.449 40.1166 132.071C40.3906 132.826 40.7554 133.55 41.0162 134.305C41.2271 134.908 41.345 135.538 41.5039 136.156L41.4962 136.154Z" fill="#6BCCC2"/>
<path d="M12.9867 178.444C13.9614 178.32 14.6355 178.677 15.2262 179.319C16.3441 180.529 17.0942 181.932 17.609 183.457C17.931 184.407 16.9899 185.38 15.9328 185.211C15.6827 185.172 15.4145 185.104 15.2279 184.967C14.2273 184.245 13.2413 183.511 12.8363 182.297C12.6696 181.801 12.4011 181.341 12.2663 180.843C12.0315 179.994 11.9966 179.157 12.9867 178.444Z" fill="#6BCCC2"/>
<path d="M15.9038 190.359C15.6633 190.187 15.5271 189.962 15.519 189.656C15.5095 189.184 15.4705 188.709 15.4664 188.236C15.4564 186.789 15.4195 185.336 15.4606 183.891C15.535 181.328 15.7759 178.78 16.3421 176.269C16.9369 173.638 17.9655 171.182 19.4066 168.908C20.2835 167.523 21.263 166.212 22.3046 164.941C23.1577 163.905 24.0704 162.938 25.0264 162.003C25.3219 161.713 25.6662 161.466 26.0134 161.242C26.187 161.131 26.4259 161.115 26.6348 161.054C26.6353 161.108 26.652 161.172 26.6308 161.216C26.2638 161.936 25.8995 162.659 25.3813 163.289C25.3016 163.386 25.276 163.526 25.2233 163.645C24.9819 163.983 24.7296 164.31 24.4963 164.656C23.6216 165.974 22.8656 167.366 22.1932 168.793C21.4839 170.295 20.8313 171.826 20.2541 173.394C19.5248 175.377 18.9113 177.394 18.3625 179.432C17.9436 180.985 17.5706 182.551 17.211 184.12C16.8047 185.877 16.4037 187.634 16.1562 189.425C16.1106 189.742 16.154 190.105 15.8932 190.37L15.9038 190.359Z" fill="#ED8BA0"/>
<path d="M25.2339 163.64C25.2839 163.518 25.3095 163.379 25.3919 163.284C25.9128 162.656 26.2771 161.933 26.6414 161.21C26.6626 161.167 26.6459 161.103 26.6454 161.049C27.221 161.146 27.3102 161.213 27.3944 161.631C27.4112 161.711 27.42 161.794 27.4207 161.88C27.4134 162.581 27.2958 163.254 26.9493 163.872C26.8751 163.985 26.7713 164.091 26.7268 164.218C26.4538 164.945 26.1917 165.678 25.9268 166.413C25.4338 167.771 24.9381 169.132 24.4531 170.492C24.0966 171.489 23.7589 172.488 23.4023 173.485C23.1874 174.088 22.9697 174.689 22.7224 175.277C21.8988 177.22 21.0616 179.156 20.2326 181.099C20.059 181.509 19.9042 181.927 19.7709 182.35C19.7343 182.463 19.8054 182.607 19.8307 182.738C19.0304 184.593 18.2329 186.45 17.43 188.302C17.3299 188.529 17.211 188.747 17.1001 188.969C17.0879 188.808 17.0381 188.636 17.069 188.485C17.3756 186.992 17.6956 185.502 18.021 184.011C18.2378 183.01 18.452 182.007 18.7011 181.011C18.9788 179.91 19.3238 178.822 19.5854 177.716C20.0335 175.819 20.7643 174.013 21.4117 172.184C21.7996 171.09 22.2872 170.03 22.7532 168.96C23.1192 168.122 23.5094 167.296 23.9132 166.474C24.3379 165.603 24.7924 164.745 25.2279 163.879C25.2596 163.814 25.2373 163.718 25.2366 163.637L25.2339 163.64Z" fill="#EDA7B6"/>
<path d="M25.234 163.64C25.2321 163.723 25.2571 163.817 25.2254 163.881C24.7898 164.747 24.3354 165.605 23.9106 166.476C23.5096 167.296 23.1166 168.124 22.7507 168.963C22.2846 170.028 21.7944 171.09 21.4092 172.186C20.7618 174.016 20.0309 175.821 19.5829 177.719C19.3213 178.825 18.9736 179.91 18.6985 181.013C18.4494 182.009 18.2353 183.013 18.0184 184.014C17.693 185.504 17.3757 186.992 17.0665 188.488C17.0356 188.639 17.0854 188.81 17.0976 188.971C17.0907 189.103 17.1161 189.25 17.066 189.361C16.9132 189.701 16.7281 190.03 16.5381 190.408C16.3231 190.393 16.1135 190.379 15.9065 190.362C16.1674 190.097 16.124 189.734 16.1695 189.417C16.4198 187.629 16.8208 185.872 17.2243 184.112C17.5839 182.543 17.957 180.977 18.3758 179.424C18.9247 177.386 19.5382 175.369 20.2675 173.386C20.842 171.821 21.4974 170.292 22.2066 168.785C22.879 167.358 23.6376 165.969 24.5097 164.648C24.7376 164.302 24.9925 163.972 25.2367 163.637L25.234 163.64Z" fill="#F8D8DF"/>
<path d="M19.828 182.736C19.8054 182.607 19.7343 182.457 19.7682 182.347C19.9015 181.924 20.0563 181.506 20.23 181.097C21.0563 179.156 21.8961 177.218 22.7197 175.274C22.967 174.686 23.182 174.083 23.3996 173.482C23.7562 172.485 24.0939 171.486 24.4504 170.489C24.9354 169.129 25.4338 167.771 25.9241 166.411C26.189 165.68 26.4512 164.948 26.7241 164.215C26.7713 164.091 26.8698 163.985 26.9467 163.869C26.9534 164.03 27.0033 164.202 26.9616 164.347C26.2813 166.719 25.6926 169.117 24.9263 171.468C24.2384 173.582 23.4158 175.639 22.4395 177.634C21.6347 179.277 20.8057 180.906 19.9821 182.541C19.9451 182.611 19.8784 182.668 19.8226 182.73L19.828 182.736Z" fill="#F4BCC7"/>
<path d="M17.6875 191.638C17.5332 191.503 17.4298 191.343 17.487 191.127C17.5234 190.993 17.5625 190.861 17.607 190.729C18.4419 188.221 19.3764 185.753 20.5103 183.364C21.2145 181.883 22.0914 180.503 23.0951 179.195C24.1333 177.84 25.3422 176.653 26.5783 175.498C27.4494 174.688 28.4154 173.981 29.3624 173.25C30.3921 172.452 31.438 171.675 32.4894 170.897C33.4926 170.153 34.5041 169.422 35.5074 168.682C36.1772 168.19 36.8334 167.674 37.5249 167.209C37.8666 166.981 38.2655 166.835 38.6481 166.673C38.8756 166.577 39.0857 166.65 39.2432 166.848C38.623 167.479 37.9946 168.102 37.3825 168.741C37.1669 168.966 36.9321 169.145 36.6512 169.269C36.3476 169.556 36.0629 169.867 35.7375 170.122C34.7505 170.888 33.8368 171.737 32.9122 172.575C32.6031 172.857 32.3484 173.208 32.0066 173.437C31.4379 173.81 30.9991 174.31 30.517 174.768C30.1734 175.096 29.8706 175.475 29.4889 175.744C29.0992 176.022 28.7528 176.336 28.4282 176.677C27.6804 177.46 26.8946 178.2 26.2362 179.076C25.7238 179.76 25.0655 180.332 24.5668 181.04C23.9779 181.878 23.2836 182.644 22.7191 183.5C21.2242 185.769 19.7672 188.065 18.4127 190.424C18.1773 190.831 17.9337 191.231 17.6901 191.636L17.6875 191.638Z" fill="#ED8BA0"/>
<path d="M36.6484 169.271C36.9293 169.148 37.1668 168.971 37.3796 168.744C37.9917 168.105 38.6201 167.482 39.2403 166.851C39.5187 167.055 39.5857 167.344 39.497 167.646C39.4005 167.977 39.2475 168.295 39.1188 168.621C39.0652 168.633 38.9872 168.62 38.9633 168.655C38.5146 169.247 38.0525 169.837 37.6281 170.447C37.0473 171.288 36.4908 172.146 35.8587 172.952C35.5878 173.298 35.317 173.655 35.0623 174.012C34.6007 174.666 34.1743 175.349 33.6046 175.923C33.5646 175.964 33.5166 176.002 33.4929 176.048C33.232 176.622 32.7466 177.013 32.3288 177.455C32.0601 177.739 31.7535 177.997 31.5414 178.315C31.0431 179.066 30.4471 179.705 29.686 180.193C29.5711 180.266 29.4727 180.372 29.3714 180.464C28.2847 181.494 27.2901 182.615 26.1222 183.575C25.0502 184.455 24.1439 185.534 23.1751 186.536C23.0686 186.645 23.0298 186.82 22.9586 186.963C22.4608 187.475 21.9603 187.973 21.403 188.426C20.8323 188.893 20.3648 189.483 19.8538 190.019C19.797 189.963 19.74 189.902 19.6858 189.843C20.6897 188.247 21.6775 186.646 22.7003 185.064C23.209 184.275 23.6935 183.468 24.2967 182.735C24.6979 182.245 25.0342 181.697 25.4192 181.191C25.6714 180.859 25.9643 180.561 26.2273 180.239C26.4372 179.982 26.6201 179.704 26.8409 179.458C27.2346 179.024 27.7174 178.658 28.0409 178.182C28.4864 177.528 29.043 176.994 29.5833 176.434C29.8921 176.114 30.1762 175.744 30.542 175.507C31.0174 175.197 31.3979 174.799 31.7893 174.406C32.6945 173.501 33.5915 172.583 34.494 171.675C34.7842 171.38 35.0987 171.114 35.4376 170.861C35.9019 170.513 36.2819 170.056 36.6864 169.634C36.8009 169.517 36.746 169.378 36.6483 169.261L36.6484 169.271Z" fill="#EDA7B6"/>
<path d="M36.6485 169.272C36.7462 169.389 36.7984 169.525 36.6866 169.644C36.2794 170.064 35.8993 170.521 35.4378 170.872C35.1016 171.122 34.7897 171.391 34.4942 171.686C33.5917 172.593 32.6947 173.512 31.7895 174.417C31.3981 174.809 31.0203 175.21 30.5422 175.518C30.1764 175.755 29.8923 176.125 29.5835 176.445C29.0459 177.003 28.4866 177.539 28.0411 178.193C27.7176 178.668 27.2348 179.035 26.8411 179.468C26.6176 179.712 26.4374 179.993 26.2275 180.25C25.9617 180.569 25.669 180.872 25.4194 181.202C25.0344 181.708 24.7035 182.256 24.2969 182.745C23.6963 183.476 23.2119 184.283 22.7005 185.074C21.6777 186.657 20.6899 188.258 19.686 189.854C19.4283 190.176 19.176 190.503 19.0991 190.923C19.0942 190.977 19.1083 191.054 19.0763 191.081C18.7617 191.342 18.4363 191.597 18.0736 191.885C17.9493 191.806 17.817 191.724 17.6847 191.641C17.9256 191.239 18.1718 190.837 18.4046 190.427C19.7617 188.07 21.2161 185.772 22.7109 183.503C23.2728 182.65 23.9671 181.884 24.5586 181.043C25.06 180.333 25.7157 179.763 26.228 179.079C26.8864 178.203 27.6722 177.463 28.42 176.68C28.7447 176.339 29.0911 176.025 29.4808 175.747C29.8624 175.478 30.1653 175.099 30.5089 174.771C30.991 174.313 31.4297 173.813 31.9985 173.44C32.343 173.214 32.595 172.86 32.9041 172.578C33.8287 171.74 34.7424 170.891 35.7294 170.126C36.0575 169.873 36.3421 169.556 36.6431 169.272L36.6485 169.272Z" fill="#F8D8DF"/>
<path d="M22.9615 186.971C23.0328 186.828 23.0715 186.653 23.178 186.544C24.1468 185.542 25.0532 184.463 26.1251 183.583C27.293 182.622 28.2876 181.502 29.3744 180.472C29.4756 180.374 29.5714 180.272 29.6889 180.201C30.45 179.713 31.0487 179.077 31.5444 178.323C31.7564 178.005 32.0657 177.744 32.3318 177.462C32.7495 177.016 33.2349 176.63 33.4958 176.056C33.5169 176.007 33.5676 175.972 33.6075 175.931C34.1745 175.354 34.601 174.677 35.0652 174.02C35.3199 173.658 35.5907 173.306 35.8616 172.96C36.4938 172.154 37.0503 171.295 37.6311 170.455C38.0527 169.842 38.5149 169.258 38.9663 168.663C38.9902 168.633 39.0681 168.641 39.1218 168.629C39.0432 168.861 38.9889 169.106 38.8834 169.322C38.0763 170.999 37.1692 172.616 36.084 174.132C35.6144 174.783 35.1015 175.403 34.6588 176.07C33.959 177.123 33.0074 177.945 32.1505 178.85C31.4799 179.554 30.785 180.239 30.0927 180.922C29.837 181.172 29.5408 181.381 29.2634 181.609C29.1995 181.663 29.13 181.707 29.0687 181.764C28.3439 182.409 27.6326 183.068 26.8942 183.7C26.2225 184.275 25.5073 184.803 24.8383 185.381C24.3772 185.779 23.9595 186.231 23.5201 186.657C23.3629 186.806 23.2358 187.011 22.9723 186.981L22.9615 186.971Z" fill="#F4BCC7"/>
<path d="M11.8892 186.723C11.7984 186.783 11.7132 186.864 11.6141 186.895C10.9284 187.11 10.8045 187.068 10.509 186.437C9.34621 183.985 8.57722 181.419 8.27969 178.714C8.06952 176.788 8.16843 174.888 8.61125 173.007C8.95315 171.565 9.53217 170.211 10.2137 168.906C10.7393 167.899 11.3081 166.914 11.9012 165.942C12.1289 165.569 12.4619 165.258 12.7571 164.93C12.9327 164.735 13.1601 164.639 13.4317 164.683C13.4424 164.981 13.4799 165.278 13.461 165.574C13.4276 166.058 13.2947 166.518 13.0783 166.955C13.0843 167.036 13.0904 167.116 13.0938 167.194L13.0991 167.188C13.0599 167.31 13.018 167.434 12.9815 167.557L12.9814 167.547C12.8325 167.725 12.7752 167.924 12.8685 168.149L12.8658 168.147C12.7816 168.346 12.6651 168.54 12.6213 168.753C11.933 172.049 11.4706 175.375 11.492 178.751C11.4995 179.919 11.499 181.09 11.5279 182.258C11.5625 183.452 11.6186 184.647 11.6881 185.839C11.7068 186.139 11.8222 186.428 11.8919 186.726L11.8892 186.723Z" fill="#ED8A9E"/>
<path d="M13.0701 166.952C13.2865 166.515 13.4168 166.052 13.4529 165.571C13.4745 165.278 13.4369 164.975 13.4236 164.68C13.9814 164.589 14.2318 164.968 14.4287 165.375C14.5627 165.645 14.6271 165.953 14.7209 166.242C14.3415 166.764 14.4058 167.365 14.4859 167.934C14.5545 168.406 14.5693 168.873 14.5815 169.343C14.6239 170.817 14.5857 172.286 14.5019 173.758C14.4948 173.869 14.4877 173.979 14.4698 174.089C14.1239 176.305 13.7727 178.521 13.4268 180.737C13.3072 181.503 13.1877 182.27 13.0923 183.039C13.0748 183.187 13.1675 183.347 13.2065 183.502C13.0229 184.003 13.0145 184.581 12.5423 184.948C12.4736 183.842 12.3727 182.736 12.3388 181.627C12.293 180.07 12.3035 178.51 12.29 176.952C12.288 176.732 12.2861 176.506 12.2975 176.283C12.3557 175.26 12.4193 174.236 12.4883 173.212C12.5335 172.548 12.5734 171.885 12.6509 171.226C12.7533 170.347 12.888 169.468 13.0092 168.591C13.0345 168.413 12.9849 168.264 12.8522 168.138L12.8549 168.141C13.0376 167.941 13.0743 167.741 12.9652 167.541L12.9653 167.552C13.0664 167.449 13.138 167.338 13.0829 167.183L13.0776 167.188C13.12 167.124 13.1624 167.059 13.2048 166.994C13.1563 166.978 13.1105 166.965 13.0621 166.95L13.0701 166.952Z" fill="#EDA7B6"/>
<path d="M13.212 183.502C13.173 183.347 13.0776 183.184 13.0978 183.038C13.1931 182.27 13.3127 181.503 13.4322 180.737C13.7781 178.521 14.1294 176.305 14.4753 174.089C14.4931 173.979 14.5002 173.868 14.5073 173.758C14.5939 172.288 14.6294 170.816 14.5869 169.342C14.5748 168.872 14.56 168.405 14.4914 167.933C14.4086 167.367 14.3442 166.761 14.7264 166.242C14.9671 166.441 14.9296 166.75 15.0016 167.008C15.3593 168.291 15.5695 169.605 15.6724 170.931C15.715 171.511 15.7819 172.093 15.7869 172.673C15.7998 174.144 15.6487 175.609 15.3094 177.038C15.0038 178.33 14.6174 179.606 14.2284 180.88C13.9856 181.674 13.6781 182.448 13.3895 183.229C13.3555 183.329 13.2702 183.41 13.212 183.502Z" fill="#F4BCC7"/>
<path d="M12.8605 168.141C12.9905 168.263 13.0401 168.413 13.0175 168.593C12.8936 169.473 12.7616 170.349 12.6592 171.228C12.5817 171.887 12.5392 172.553 12.4966 173.214C12.4276 174.238 12.3641 175.262 12.3059 176.286C12.2917 176.506 12.2963 176.729 12.2983 176.954C12.3119 178.512 12.304 180.07 12.3471 181.63C12.3783 182.736 12.4792 183.841 12.5507 184.95L12.5506 184.939C12.554 185.022 12.5547 185.108 12.5581 185.192C12.496 185.77 12.283 186.284 11.8947 186.723C11.8223 186.428 11.707 186.134 11.6909 185.836C11.6188 184.641 11.56 183.449 11.5308 182.254C11.4991 181.084 11.5023 179.916 11.4948 178.747C11.4707 175.369 11.9358 172.046 12.6241 168.75C12.6679 168.537 12.7898 168.343 12.8713 168.141L12.8605 168.141Z" fill="#F8D8DF"/>
<path d="M12.9734 167.544C13.0826 167.744 13.0449 167.944 12.8605 168.147C12.7672 167.922 12.8219 167.725 12.9734 167.544Z" fill="#F8D8DF"/>
<path d="M13.0911 167.185C13.1488 167.338 13.0746 167.451 12.9734 167.554C13.0127 167.433 13.0518 167.307 13.0911 167.185Z" fill="#F8D8DF"/>
<path d="M13.0701 166.952C13.1186 166.968 13.1644 166.981 13.2129 166.996C13.1704 167.061 13.1308 167.129 13.0883 167.193C13.0823 167.113 13.0762 167.032 13.0728 166.955L13.0701 166.952Z" fill="#F4BCC7"/>
<path d="M19.2457 193.873C19.1499 193.672 19.2156 193.497 19.3349 193.327C19.701 192.803 20.04 192.257 20.4385 191.765C21.0841 190.967 21.7568 190.185 22.4511 189.43C23.1268 188.693 23.8349 187.978 24.5567 187.287C26.9483 184.983 29.6911 183.238 32.8233 182.099C35.1925 181.238 37.6347 180.736 40.1241 180.413C40.8377 180.321 41.5625 180.288 42.2875 180.271C42.5855 180.265 42.903 180.327 43.1779 180.437C43.504 180.572 43.7237 180.825 43.5984 181.229C43.2155 181.369 42.8382 181.52 42.4499 181.644C42.0615 181.769 41.6622 181.866 41.2657 181.977C41.1878 181.975 41.1073 181.976 41.0294 181.974L41.0428 181.971C40.8549 181.989 40.656 181.969 40.4793 182.024C37.9831 182.803 35.5555 183.751 33.2214 184.934C31.8631 185.623 30.505 186.327 29.1768 187.078C27.5627 187.994 25.9813 188.964 24.4489 190.014C23.3517 190.762 22.2517 191.502 21.198 192.314C20.5444 192.822 19.8447 193.274 19.2591 193.87L19.2457 193.873Z" fill="#ED8BA0"/>
<path d="M41.2551 181.977C41.6489 181.869 42.0482 181.772 42.4392 181.645C42.8276 181.52 43.2049 181.369 43.5877 181.229C43.6097 181.591 43.4269 181.88 43.198 182.113C42.7535 182.571 42.2765 182.997 41.8157 183.439C41.5324 183.288 41.3275 183.507 41.1298 183.622C40.1011 184.219 39.0914 184.851 38.0627 185.453C36.7749 186.211 35.4926 186.99 34.1775 187.7C31.3896 189.204 28.5058 190.502 25.581 191.712C24.5053 192.157 23.468 192.692 22.4087 193.179C22.2697 193.245 22.1763 193.318 22.1992 193.485C21.688 193.685 21.1822 193.886 20.671 194.086C20.6919 194.011 20.6882 193.901 20.7362 193.863C21.1764 193.529 21.6356 193.218 22.0731 192.882C22.8201 192.311 23.5453 191.703 24.3032 191.149C25.2212 190.48 26.1799 189.867 27.0952 189.196C28.8004 187.943 30.6282 186.896 32.4832 185.891C34.8595 184.606 37.3398 183.55 39.8667 182.599C40.2816 182.442 40.7073 182.296 41.0267 181.966C41.0267 181.966 41.0133 181.969 41.016 181.966C41.0939 181.968 41.1745 181.967 41.2524 181.969L41.2551 181.977Z" fill="#EDA7B6"/>
<path d="M41.0265 181.971C40.7017 182.301 40.2814 182.447 39.8665 182.604C37.3396 183.555 34.8593 184.611 32.483 185.896C30.628 186.901 28.8002 187.948 27.095 189.201C26.1797 189.872 25.2209 190.485 24.3029 191.154C23.5424 191.711 22.8199 192.316 22.0729 192.887C21.6354 193.223 21.1762 193.534 20.736 193.868C20.688 193.906 20.6916 194.016 20.6708 194.091C20.2995 194.323 19.8765 194.163 19.4796 194.23C19.3161 194.261 19.2123 194.069 19.2455 193.873C19.8311 193.277 20.5281 192.822 21.1844 192.317C22.2354 191.502 23.3381 190.765 24.4353 190.017C25.9677 188.967 27.5491 187.997 29.1632 187.08C30.4887 186.327 31.8441 185.625 33.2078 184.937C35.5393 183.756 37.9695 182.806 40.4657 182.027C40.6425 181.971 40.8387 181.988 41.0292 181.973L41.0265 181.971Z" fill="#F8D8DF"/>
<path d="M22.1965 193.487C22.1709 193.318 22.2642 193.245 22.406 193.182C23.4652 192.695 24.5026 192.159 25.5783 191.715C28.5031 190.505 31.3895 189.204 34.1748 187.703C35.4899 186.993 36.7695 186.217 38.06 185.456C39.086 184.851 40.0956 184.219 41.1271 183.625C41.3248 183.51 41.5297 183.291 41.813 183.441C40.7844 184.369 39.6825 185.197 38.5562 186.002C37.3125 186.889 36.0224 187.697 34.697 188.456C33.4864 189.146 32.2375 189.75 30.9641 190.309C28.2592 191.49 25.4775 192.473 22.6765 193.405C22.5239 193.458 22.3547 193.462 22.1939 193.49L22.1965 193.487Z" fill="#F4BCC7"/>
</g>
<defs>
<clipPath id="clip0_81_5144">
<rect width="173.278" height="262.625" fill="white" transform="translate(26 14)"/>
</clipPath>
</defs>
</svg>
