<svg width="257" height="257" viewBox="0 0 257 257" fill="none" xmlns="http://www.w3.org/2000/svg">
<mask id="mask0_80_4751" style="mask-type:alpha" maskUnits="userSpaceOnUse" x="0" y="0" width="257" height="257">
<rect width="257" height="257" rx="30" fill="white"/>
</mask>
<g mask="url(#mask0_80_4751)">
<g clip-path="url(#clip0_80_4751)">
<path d="M218.674 38.7421C219.239 29.7487 217.927 20.3511 214.857 11.6609C214.09 12.0247 214.029 13.2979 214.09 14.3286C214.494 20.6745 215.14 27.1012 214.393 33.2653C214.292 34.0737 214.171 34.9023 214.433 35.7107C214.777 36.802 215.726 37.5093 216.654 37.8529L218.674 38.7219V38.7421Z" fill="#3A3B3C"/>
<path d="M208.758 37.1663C207.284 28.0718 203.932 19.1997 199.106 11.5806C198.46 12.1869 198.702 13.4601 198.985 14.4504C200.782 20.5942 202.842 26.7582 203.528 33.1041C203.609 33.9327 203.69 34.8017 204.114 35.5091C204.679 36.4792 205.729 36.8833 206.678 36.944L208.758 37.1663Z" fill="#3A3B3C"/>
<path d="M213.465 36.6405C213.041 27.5056 210.699 18.3101 206.741 10.0645C206.014 10.5495 206.115 11.8227 206.297 12.8534C207.387 19.1589 208.74 25.5048 208.699 31.8305C208.699 32.6591 208.679 33.5079 209.002 34.2759C209.447 35.3066 210.456 35.8927 211.405 36.0948L213.465 36.6607V36.6405Z" fill="#3A3B3C"/>
<path d="M117.85 58.1042C117.164 59.0743 116.78 60.206 116.498 61.3378C115.771 64.3895 115.831 67.6635 116.922 70.6141C118.012 73.5648 120.173 76.1314 123 77.5057C124.494 78.2332 126.129 78.6172 127.785 78.8395C130.35 79.1831 132.975 79.1629 135.559 79.1225C137.639 79.1023 139.719 79.0618 141.799 79.0416C142.122 77.1621 142.162 75.2422 142.041 73.3424C141.738 68.1485 140.405 63.0758 138.83 58.1042C138.144 55.9417 137.377 53.7591 136.448 51.6572C131.501 51.7179 126.574 52.8294 122.111 54.9312C120.475 55.6992 118.86 56.6289 117.83 58.1042H117.85Z" fill="#E25243"/>
<path d="M135.56 79.1223C132.956 79.1628 130.351 79.183 127.786 78.8394C126.13 78.6171 124.495 78.2331 123.001 77.5056C120.174 76.1313 118.013 73.5646 116.923 70.614C115.832 67.6633 115.772 64.3893 116.499 61.3376C116.781 60.1857 117.165 59.0539 117.852 58.1041C118.881 56.6287 120.517 55.6991 122.132 54.9311C126.595 52.8293 131.522 51.7177 136.469 51.6571C134.732 47.6555 132.451 43.9571 129.038 41.3096C122.031 35.853 112.258 36.1561 103.414 37.0656C89.0369 38.5409 74.5387 39.6524 60.404 42.5424C57.9809 45.5941 55.7799 48.8277 54.0433 52.2836C57.9001 52.324 61.7569 53.0112 65.3713 54.3248C67.0675 54.9311 68.7636 55.7193 69.9348 57.0936C70.7021 57.9828 71.1867 59.0741 71.5704 60.2059C72.58 63.1767 72.8223 66.4508 71.9944 69.4822C71.1666 72.5137 69.2685 75.2825 66.5829 76.8993C65.1694 77.7683 63.554 78.2937 61.9386 78.6575C59.4145 79.2436 56.8097 79.4457 54.2251 79.6478C52.5895 79.7691 50.9539 79.9105 49.2981 80.0318C49.3587 85.0843 49.6212 90.1165 50.0452 95.169C52.5289 95.4519 55.053 95.5934 57.5568 95.7147C75.7502 96.6443 93.9841 97.574 112.157 96.4826C117.993 96.1391 123.95 95.553 129.341 93.2693C134.732 91.0058 139.599 86.7819 141.315 81.1838C141.537 80.4764 141.679 79.7691 141.8 79.0617C139.72 79.0819 137.64 79.1224 135.56 79.1426V79.1223Z" fill="#FFE5B8"/>
<path d="M61.939 78.6371C63.5544 78.2733 65.1698 77.7277 66.5833 76.8788C69.2689 75.262 71.1872 72.4933 71.9949 69.4618C72.8227 66.4303 72.5804 63.1563 71.5708 60.1855C71.1872 59.0739 70.7025 57.9826 69.9352 57.0731C68.7641 55.6989 67.0679 54.9107 65.3717 54.3044C61.7371 52.9907 57.9005 52.3036 54.0437 52.2632C53.3976 53.5364 52.812 54.85 52.3072 56.2041C49.9043 62.6713 49.3389 69.6639 49.2783 76.5555C49.2783 77.7074 49.2783 78.8594 49.2783 80.0114C50.9139 79.8901 52.5495 79.7486 54.2053 79.6274C56.7899 79.4253 59.3948 79.2232 61.9188 78.6371H61.939Z" fill="#E25243"/>
<path d="M90.7137 58.8918C88.5127 58.912 86.2309 58.9525 84.2723 59.9832C82.2934 61.0139 80.6982 63.2976 81.0213 65.7632C81.304 67.9459 83.0001 69.7041 84.878 70.4115C86.7559 71.1188 88.755 70.9975 90.6935 70.7348C93.1368 70.4115 95.58 69.9264 97.8012 68.7543C98.4272 68.4309 99.033 68.0267 99.4772 67.4608C100.648 65.9855 100.507 63.5199 99.4166 61.8627C98.3262 60.2055 96.5089 59.3162 94.7118 59.1141C94.7118 59.1141 91.7637 58.8716 90.7137 58.8918Z" fill="#3A3B3C"/>
<path d="M70.5819 48.666C70.5415 48.4841 70.4607 48.3022 70.3396 48.1203C68.9261 45.9376 64.0395 45.1494 61.9395 46.3823C61.1924 46.8269 60.9299 47.514 61.0106 48.2011C60.7683 49.3531 62.0203 50.4647 63.1107 50.788C63.1107 50.788 63.151 50.788 63.1712 50.788C63.9386 51.0912 64.9886 51.3337 65.9376 51.3135C67.2905 51.4145 68.6434 51.2326 69.7338 50.5253C70.4001 50.0807 70.804 49.4137 70.6223 48.666H70.5819Z" fill="#FEB2B6"/>
<path d="M54.2653 63.3588C54.7701 63.8236 55.2749 64.2885 55.7797 64.7533C56.3047 65.2383 57.0518 64.4097 56.5268 63.9247C56.022 63.4599 55.5172 62.995 55.0124 62.5302C54.4874 62.0452 53.7403 62.8738 54.2653 63.3588Z" fill="#3C3C3D"/>
<path d="M58.6062 61.297C58.6668 61.9033 58.7273 62.4894 58.7879 63.0957C58.8485 63.8232 59.9793 63.7424 59.8985 63.0148C59.8379 62.4085 59.7773 61.8225 59.7168 61.2162C59.6562 60.4886 58.5254 60.5694 58.6062 61.297Z" fill="#3C3C3D"/>
<path d="M63.3117 62.3477C62.8271 62.7923 62.3223 63.2571 61.8377 63.7017C61.3127 64.1868 62.1406 64.9345 62.6656 64.4495C63.1502 64.0049 63.655 63.5401 64.1396 63.0954C64.6646 62.6104 63.8367 61.8626 63.3117 62.3477Z" fill="#3C3C3D"/>
<path d="M64.6257 67.5824C64.6257 70.432 62.344 72.7562 59.4968 72.7764C56.6497 72.7966 54.3276 70.4927 54.3074 67.6431C54.3074 64.7935 56.5891 62.4693 59.4363 62.4491C62.2834 62.4289 64.6055 64.7328 64.6257 67.5824Z" fill="white"/>
<path d="M62.9289 67.785C62.9289 69.6039 61.4751 71.0792 59.6578 71.0994C57.8404 71.0994 56.3664 69.6443 56.3462 67.8254C56.3462 66.0065 57.8001 64.5312 59.6174 64.511C61.4347 64.511 62.9087 65.9661 62.9289 67.785Z" fill="#3C3C3D"/>
<path d="M60.9681 66.6936C60.9681 67.2999 60.4835 67.785 59.8777 67.785C59.272 67.785 58.7874 67.2999 58.7874 66.6936C58.7874 66.0873 59.272 65.6023 59.8777 65.6023C60.4835 65.6023 60.9681 66.0873 60.9681 66.6936Z" fill="white"/>
<path d="M85.0587 76.0504C85.5231 78.1118 87.3809 79.6275 89.5213 79.5871C91.6819 79.5467 93.378 77.9703 94.1655 76.0504C94.5088 75.242 93.1761 74.8782 92.8328 75.6866C91.6415 78.5766 87.2193 79.284 86.3914 75.6866C86.1895 74.8176 84.877 75.1814 85.0587 76.0504Z" fill="#3A3B3C"/>
<path d="M133.18 61.1354C132.675 61.6003 132.17 62.0651 131.665 62.5299C131.14 63.0149 130.393 62.1863 130.918 61.7013C131.423 61.2365 131.928 60.7717 132.433 60.3068C132.958 59.8218 133.705 60.6504 133.18 61.1354Z" fill="#3C3C3D"/>
<path d="M128.857 59.0536C128.796 59.6599 128.736 60.246 128.675 60.8523C128.615 61.5798 127.484 61.499 127.565 60.7714C127.625 60.1651 127.686 59.579 127.746 58.9727C127.807 58.2452 128.938 58.326 128.857 59.0536Z" fill="#3C3C3D"/>
<path d="M124.131 60.125C124.616 60.5696 125.121 61.0344 125.605 61.4791C126.13 61.9641 125.303 62.7119 124.778 62.2268C124.293 61.7822 123.788 61.3174 123.304 60.8728C122.779 60.3877 123.606 59.64 124.131 60.125Z" fill="#3C3C3D"/>
<path d="M122.82 65.3594C122.82 68.209 125.102 70.5331 127.949 70.5533C130.796 70.5533 133.118 68.2696 133.138 65.42C133.138 62.5704 130.857 60.2463 128.01 60.2261C125.162 60.2261 122.84 62.5098 122.82 65.3594Z" fill="white"/>
<path d="M124.516 65.5614C124.516 67.3802 125.97 68.8556 127.787 68.8758C129.604 68.8758 131.078 67.4207 131.099 65.6018C131.099 63.7829 129.645 62.3076 127.827 62.2874C126.01 62.2874 124.536 63.7425 124.516 65.5614Z" fill="#3C3C3D"/>
<path d="M126.496 64.47C126.496 65.0763 126.98 65.5613 127.586 65.5613C128.192 65.5613 128.677 65.0763 128.677 64.47C128.677 63.8637 128.192 63.3787 127.586 63.3787C126.98 63.3787 126.496 63.8637 126.496 64.47Z" fill="white"/>
<path d="M113.287 50.7683C113.308 50.5864 113.368 50.4045 113.469 50.2024C114.64 47.8783 119.426 46.5646 121.647 47.5751C122.435 47.9389 122.758 48.5856 122.778 49.2728C123.141 50.4045 122.01 51.6171 120.981 52.0617C120.981 52.0617 120.94 52.0617 120.92 52.0819C120.193 52.4659 119.184 52.8095 118.235 52.8903C116.902 53.1329 115.529 53.1126 114.378 52.5064C113.671 52.1426 113.186 51.5161 113.308 50.7481L113.287 50.7683Z" fill="#FEB2B6"/>
<path d="M119.528 70.129C119.65 71.0991 118.155 72.0692 116.217 72.3117C114.278 72.5542 112.602 71.9479 112.502 70.9778C112.38 70.0078 113.875 69.0377 115.813 68.7952C117.752 68.5527 119.428 69.159 119.528 70.129Z" fill="#E86B53"/>
<path d="M74.155 71.7858C74.0742 72.7559 72.4184 73.4228 70.48 73.2611C68.5415 73.0994 67.0271 72.1698 67.1078 71.1997C67.1886 70.2296 68.8444 69.5627 70.7829 69.7244C72.7213 69.886 74.2358 70.8157 74.155 71.7858Z" fill="#E86B53"/>
<path d="M226.102 62.8331C226.062 57.9019 225.799 52.9707 225.193 48.0597C224.628 43.371 223.74 38.6217 221.276 34.5797C218.833 30.5579 214.532 27.3648 209.827 27.4254C204.173 27.486 199.428 32.1949 197.388 37.4899C195.349 42.7647 195.389 48.5852 195.208 54.2641C195.127 57.0329 194.965 59.8017 194.763 62.5704C205.163 63.6617 215.966 64.551 226.122 62.8331H226.102Z" fill="#FEB2B6"/>
<path d="M225.659 75.9475C225.982 71.5822 226.143 67.1967 226.123 62.8313C215.987 64.529 205.164 63.6397 194.764 62.5686C194.441 66.8127 193.977 71.0365 193.371 75.2402C204.194 76.7964 215.118 77.4229 225.659 75.9475Z" fill="#FFE5B8"/>
<path d="M79.8288 31.2447C78.5163 31.4872 77.3855 32.3765 76.8201 33.5891C76.4566 34.3975 77.648 35.0846 78.0115 34.2762C78.4355 33.3465 79.2028 32.7605 80.1923 32.5584C81.0605 32.3967 80.6971 31.0628 79.8288 31.2245V31.2447Z" fill="#D88185"/>
<path d="M58.6666 155.738C48.8329 157.981 44.1886 169.056 41.3415 178.737C32.7395 207.879 26.4394 237.891 25.6519 268.287C25.5712 271.581 25.551 274.976 26.7625 278.048C27.9741 281.12 30.6597 283.828 33.9308 284.071C36.4145 284.252 38.777 283.06 40.8973 281.746C57.5964 271.399 67.5109 252.361 70.7619 232.98C74.0129 213.599 71.3273 193.712 67.5715 174.432L58.6868 155.738H58.6666Z" fill="#E25243"/>
<path d="M137.863 298.46C142.205 282.656 145.698 266.387 145.698 250.037C113.572 254.887 80.1329 254.099 47.6836 250.906C39.6469 250.118 31.3276 249.067 23.8362 246.238C22.1805 249.835 20.9487 253.594 20.3631 257.596C19.2727 265.114 20.7064 272.753 22.2006 280.21C23.1699 285.02 24.1795 289.871 26.1584 294.378C28.743 300.279 32.8623 305.331 36.9815 310.283C44.7758 319.64 53.3778 329.361 65.0693 332.736C70.7837 334.373 76.8617 334.353 82.7983 334.09C96.6301 333.484 110.401 331.604 123.91 328.552C127.484 324.005 130.493 318.993 132.775 313.678C134.895 308.767 136.409 303.613 137.823 298.46H137.863Z" fill="#FFE5B8"/>
<path d="M153.877 141.55C160.601 139.105 167.406 135.952 172.01 130.475C171.546 128.171 171.081 125.847 170.617 123.543L169.789 120.572C167.022 104.081 162.116 87.9735 155.23 72.7352C155.896 73.1799 156.845 72.5938 157.068 71.846C157.29 71.078 157.027 70.2696 156.765 69.5219C153.231 59.4573 149.071 49.6151 144.306 40.0963C142.691 36.8627 140.974 33.6089 138.45 31.022C135.886 28.3745 132.594 26.5152 129.202 25.0601C121.509 21.7861 112.604 20.5129 104.749 23.4029C106.223 22.6955 105.254 20.1289 103.638 19.8662C102.447 19.6641 101.316 20.2299 100.286 20.9575C99.9834 21.2809 99.6604 21.5436 99.2565 21.7457C99.5796 21.483 99.9229 21.2 100.286 20.9575C101.942 19.1588 101.942 15.8242 99.8825 14.3893C97.944 13.015 94.9555 14.0861 93.9055 16.1071C93.8045 16.6528 93.6632 17.1782 93.5218 17.7037C93.5218 17.1176 93.643 16.5922 93.9055 16.1071C94.1478 14.9147 94.2488 13.7224 93.8853 12.5704C93.3603 10.9132 91.4622 9.55912 89.867 10.2867C89.1401 10.61 88.6353 11.2972 88.2314 11.9843C86.6362 14.652 86.0102 17.8856 86.4545 20.9575C84.7987 19.6236 84.7987 16.7134 82.8602 15.8646C80.8612 14.9754 78.7006 17.441 78.9631 19.6236C79.2256 21.8063 80.9419 23.4837 82.5371 24.9591L81.8506 25.1207C75.8938 25.7877 71.2293 30.3551 67.1707 34.7406C64.8485 37.2467 62.5466 39.8133 60.4264 42.5012C74.5813 39.6112 89.0593 38.4997 103.436 37.0244C112.281 36.1149 122.054 35.8118 129.061 41.2684C134.25 45.3104 136.875 51.7978 138.874 58.0629C140.449 63.0143 141.782 68.1072 142.085 73.3011C142.246 75.9284 142.125 78.6163 141.338 81.1426C139.621 86.7407 134.755 90.9646 129.363 93.2281C123.972 95.4916 118.036 96.0777 112.18 96.4414C94.0065 97.5328 75.7525 96.6031 57.5792 95.6735C55.0956 95.5522 52.5715 95.4107 50.0676 95.1278C51.0167 106.385 52.6523 117.621 54.0657 128.858C54.6513 133.426 55.1763 138.013 55.4994 142.621C87.1612 153.353 122.478 152.989 153.897 141.53L153.877 141.55Z" fill="#FEB2B6"/>
<path d="M137.865 298.46C136.451 303.613 134.937 308.767 132.817 313.678C130.535 318.993 127.526 324.005 123.952 328.552C125.568 328.189 127.183 327.805 128.778 327.421L129.283 327.38C128.536 331.483 127.789 335.565 127.042 339.668C126.658 341.77 126.315 344.074 127.405 345.892C128.496 347.732 131.666 348.277 132.595 346.357C135.3 356.2 125.749 365.638 126.234 375.823C126.84 375.985 127.446 376.147 128.051 376.308C128.294 379.239 128.516 382.23 127.708 385.039C126.9 387.848 123.831 386.393 120.964 386.999C119.591 387.282 118.823 388.475 117.874 391.951C117.248 394.315 116.118 396.619 117.894 398.297C119.671 399.974 122.276 400.378 124.699 400.661C131.201 401.389 137.724 401.712 144.266 401.591C147.032 401.551 149.9 401.389 152.383 400.136C154.645 398.984 156.361 397.003 157.734 394.861C159.774 391.668 161.127 388.03 161.672 384.271C161.813 383.341 161.894 382.392 162.237 381.523C162.621 380.532 163.267 379.683 163.853 378.794C167.77 372.751 167.649 365.031 167.386 357.816C171.506 356.664 173.585 352.158 174.979 348.095C181.036 330.311 183.641 311.576 186.125 292.963C188.447 275.501 190.608 257.353 186.125 240.437C173.02 244.843 159.491 247.955 145.72 250.017C145.72 266.367 142.247 282.636 137.885 298.44L137.865 298.46Z" fill="#FEB2B6"/>
<path d="M120.902 162.407C124.718 162.467 128.454 161.295 132.028 159.941C137.177 157.981 142.386 155.394 145.557 150.887C147.111 148.684 148.06 146.097 148.384 143.43C132.936 148.361 116.681 150.665 100.467 150.382C105.798 156.708 112.744 162.306 120.922 162.427L120.902 162.407Z" fill="#FFE5B8"/>
<path d="M68.3425 160.265C75.2079 163.518 83.5878 162.346 90.2311 158.648C93.7244 156.708 96.9552 153.939 98.6312 150.342C85.0821 149.937 71.5733 147.674 58.6299 143.632C57.7818 150.321 62.103 157.334 68.3223 160.265H68.3425Z" fill="#FFE5B8"/>
<path d="M193.373 75.2412C191.334 89.5902 187.699 103.697 182.509 117.217C180.107 123.502 177.138 129.909 172.938 135.083C172.635 133.547 172.312 132.011 172.009 130.475C167.405 135.952 160.621 139.104 153.877 141.55C152.059 142.217 150.222 142.823 148.364 143.429C148.041 146.097 147.092 148.684 145.537 150.887C142.367 155.394 137.157 157.981 132.008 159.941C128.434 161.295 124.719 162.467 120.882 162.406C112.704 162.285 105.758 156.687 100.427 150.361C99.8213 150.361 99.2155 150.361 98.6097 150.361C96.9337 153.959 93.703 156.727 90.2097 158.668C83.5663 162.366 75.1865 163.538 68.321 160.284C62.1219 157.354 57.7805 150.341 58.6286 143.652C57.5786 143.328 56.5084 143.005 55.4786 142.661C59.4565 183.748 31.5303 233.182 23.8572 246.257C31.3486 249.067 39.6679 250.138 47.7045 250.926C80.1336 254.119 113.572 254.907 145.719 250.057C159.49 247.975 173.019 244.863 186.124 240.477C185.76 239.123 185.377 237.769 184.933 236.435L184.63 235C186.609 235.243 187.436 232.535 187.436 230.514C187.457 221.621 186.407 212.729 184.347 204.079C192.787 194.722 199.33 183.586 204.237 171.925C211.364 155.03 215.322 137.003 218.977 119.036C221.885 104.828 224.611 90.4188 225.681 75.9688C215.14 77.4441 204.216 76.8176 193.393 75.2614L193.373 75.2412Z" fill="#E86B53"/>
<path d="M98.993 151.251C101.174 185.385 98.0237 219.56 89.6641 252.664C90.6535 252.583 91.6631 252.523 92.6525 252.502C100.891 219.52 104.001 185.466 101.86 151.473C100.891 151.433 99.942 151.352 98.993 151.231V151.251Z" fill="#E25243"/>
<path d="M156.058 204.827C157.755 211.941 159.794 222.531 156.159 229.402C151.879 237.507 141.358 238.578 133.948 234.455C127.567 230.918 123.266 224.491 121.913 217.357C121.59 215.66 121.449 213.901 121.489 212.184C121.489 211.517 121.731 206.747 121.691 206.788C121.832 206.666 121.146 206.808 121.59 206.525C121.751 206.404 122.478 206.525 122.66 206.525C128.839 205.312 136.25 206.262 142.55 206.141C147.497 206.04 152.444 205.959 157.391 205.858C159.168 205.817 159.168 203.069 157.391 203.109C145.336 203.332 133.281 203.574 121.226 203.796C120.621 203.796 120.055 204.221 119.894 204.807C115.795 219.681 124.659 237.992 141.197 239.588C148.042 240.255 155.251 237.042 158.542 230.817C162.621 223.137 160.642 212.163 158.704 204.12C158.3 202.402 155.634 203.13 156.058 204.847V204.827Z" fill="#E25243"/>
<path d="M48.6541 205.878C46.231 212.911 43.505 222.855 46.6146 230.07C49.3002 236.274 56.0243 239.649 62.5667 239.245C77.2668 238.356 85.99 223.198 83.688 209.678C83.5871 209.031 82.9207 208.728 82.3553 208.667C71.5524 207.394 60.7494 206.141 49.9666 204.868C48.2099 204.666 48.23 207.414 49.9666 207.616C54.1263 208.101 58.2657 208.586 62.4254 209.071C68.16 209.738 75.0053 209.536 80.538 211.193C80.8409 211.295 81.9919 211.153 82.1938 211.396C82.0323 211.214 81.0226 218.974 80.9823 219.217C79.6496 225.401 75.7524 231.262 70.0581 234.233C63.3138 237.769 53.8234 237.386 49.6637 230.049C45.9483 223.461 48.9974 213.275 51.2993 206.606C51.8849 204.928 49.2195 204.201 48.6541 205.878Z" fill="#E25243"/>
<path d="M187.012 200.664C183.983 177.605 180.691 154.566 175.502 131.89C174.896 133.042 174.169 134.133 173.301 135.124C178.309 157.536 181.358 181.283 184.346 204.06C185.215 203.271 186.184 201.493 187.032 200.685L187.012 200.664Z" fill="#E25243"/>
<path d="M127.505 33.2046C129.403 34.013 131.099 35.1448 132.533 36.6201C133.159 37.2466 134.128 36.2765 133.502 35.65C131.967 34.0939 130.19 32.8813 128.191 32.0325C127.384 31.6889 126.677 32.8813 127.505 33.2248V33.2046Z" fill="#D88185"/>
<path d="M145.96 55.3147C146.424 56.9315 146.909 58.5685 147.373 60.1853C147.616 61.0341 148.948 60.6703 148.706 59.8215C148.242 58.2047 147.757 56.5677 147.293 54.9509C147.05 54.1021 145.718 54.4659 145.96 55.3147Z" fill="#D88185"/>
<path d="M147.96 81.1833C147.899 83.0224 148.323 84.7807 149.192 86.4177C149.616 87.2059 150.807 86.4985 150.383 85.7306C149.616 84.3159 149.293 82.8001 149.333 81.2035C149.353 80.3143 147.98 80.3143 147.96 81.2035V81.1833Z" fill="#D88185"/>
<path d="M141.153 95.9569C141.456 97.7758 141.739 99.5745 142.042 101.393C142.183 102.262 143.516 101.899 143.374 101.03C143.072 99.2107 142.789 97.412 142.486 95.5931C142.345 94.7241 141.012 95.0879 141.153 95.9569Z" fill="#D88185"/>
<path d="M156.22 100.06C156.22 102.121 156.766 104.061 157.775 105.84C158.22 106.608 159.411 105.921 158.967 105.153C158.058 103.576 157.614 101.879 157.594 100.06C157.594 99.1705 156.22 99.1705 156.22 100.06Z" fill="#D88185"/>
<path d="M149.656 114.59C150.121 116.106 150.423 117.662 150.545 119.259C150.605 120.128 151.978 120.148 151.918 119.259C151.797 117.541 151.494 115.863 150.989 114.226C150.726 113.377 149.394 113.741 149.656 114.59Z" fill="#D88185"/>
<path d="M124.235 106.648C124.175 108.487 124.478 110.265 125.144 111.963C125.467 112.771 126.8 112.428 126.477 111.599C125.851 110.003 125.568 108.366 125.629 106.648C125.669 105.759 124.276 105.759 124.256 106.648H124.235Z" fill="#D88185"/>
<path d="M103.697 100.827C103.778 102.545 103.859 104.263 103.96 105.981C104 106.87 105.373 106.87 105.333 105.981C105.252 104.263 105.171 102.545 105.07 100.827C105.03 99.9381 103.657 99.9381 103.697 100.827Z" fill="#D88185"/>
<path d="M113.611 120.108C113.611 121.603 113.813 123.058 114.196 124.493C114.439 125.342 115.751 124.978 115.529 124.129C115.166 122.816 114.984 121.482 114.984 120.108C114.984 119.218 113.611 119.218 113.611 120.108Z" fill="#D88185"/>
<path d="M89.0782 110.367C89.3811 111.822 89.482 113.277 89.4417 114.773C89.4215 115.662 90.7946 115.662 90.8147 114.773C90.8753 113.176 90.7138 111.579 90.4109 110.003C90.2292 109.134 88.9167 109.498 89.0782 110.367Z" fill="#D88185"/>
<path d="M70.9659 100.261C70.8852 101.595 70.9054 102.949 71.0467 104.283C71.1477 105.152 72.5208 105.172 72.4198 104.283C72.2785 102.949 72.2583 101.615 72.339 100.261C72.3996 99.3722 71.0265 99.3722 70.9659 100.261Z" fill="#D88185"/>
<path d="M71.6716 122.977C71.813 124.614 72.1159 126.191 72.6409 127.747C72.9236 128.576 74.2563 128.232 73.9736 127.383C73.489 125.948 73.1861 124.493 73.0447 122.977C72.964 122.108 71.5909 122.088 71.6716 122.977Z" fill="#D88185"/>
<path d="M57.6399 110.771C57.862 112.286 58.1245 113.802 58.4677 115.318C58.6495 116.187 59.9822 115.823 59.8005 114.954C59.4774 113.459 59.1947 111.943 58.9726 110.407C58.8514 109.538 57.5187 109.902 57.6399 110.771Z" fill="#D88185"/>
<path d="M61.9781 136.518C62.1598 137.731 62.3618 138.943 62.5435 140.135C62.6848 141.005 63.9973 140.641 63.8762 139.772C63.6945 138.559 63.4925 137.347 63.3108 136.154C63.1695 135.285 61.8569 135.649 61.9781 136.518Z" fill="#D88185"/>
<path d="M98.7914 131.748C98.7914 133.345 98.7106 134.921 98.5491 136.518C98.4683 137.407 99.8414 137.387 99.9222 136.518C100.064 134.941 100.144 133.345 100.164 131.748C100.164 130.859 98.7914 130.859 98.7914 131.748Z" fill="#D88185"/>
<path d="M134.349 128.131C134.753 129.889 135.076 131.648 135.278 133.446C135.379 134.315 136.752 134.336 136.651 133.446C136.429 131.526 136.106 129.647 135.662 127.767C135.46 126.898 134.127 127.262 134.329 128.131H134.349Z" fill="#D88185"/>
<path d="M118.295 142.885C118.497 144.037 118.699 145.168 118.901 146.32C119.063 147.189 120.375 146.826 120.234 145.957C120.032 144.805 119.83 143.673 119.628 142.521C119.466 141.652 118.154 142.016 118.295 142.885Z" fill="#D88185"/>
<path d="M155.796 129.99C156.24 131.526 156.704 133.062 157.149 134.598C157.391 135.447 158.724 135.083 158.481 134.234C158.037 132.698 157.573 131.162 157.128 129.626C156.886 128.778 155.553 129.141 155.796 129.99Z" fill="#D88185"/>
<path d="M151.393 252.907V258.909C151.393 259.798 152.766 259.798 152.766 258.909V252.907C152.766 252.017 151.393 252.017 151.393 252.907Z" fill="#D88185"/>
<path d="M58.6082 77.6871C65.2548 77.6871 70.6429 72.2943 70.6429 65.642C70.6429 58.9897 65.2548 53.5969 58.6082 53.5969C51.9616 53.5969 46.5735 58.9897 46.5735 65.642C46.5735 72.2943 51.9616 77.6871 58.6082 77.6871Z" fill="#4EB0A9"/>
<path d="M128.655 76.9598C135.301 76.9598 140.69 71.567 140.69 64.9147C140.69 58.2624 135.301 52.8696 128.655 52.8696C122.008 52.8696 116.62 58.2624 116.62 64.9147C116.62 71.567 122.008 76.9598 128.655 76.9598Z" fill="#4EB0A9"/>
<path d="M66.3008 65.642C66.3008 70.068 62.7267 73.6451 58.3046 73.6451C53.8824 73.6451 50.3083 70.068 50.3083 65.642C50.3083 61.2161 53.8824 57.6389 58.3046 57.6389C62.7267 57.6389 66.3008 61.2161 66.3008 65.642Z" fill="#3A3B3C"/>
<path d="M136.651 64.9142C136.651 69.3402 133.077 72.9174 128.655 72.9174C124.233 72.9174 120.659 69.3402 120.659 64.9142C120.659 60.4883 124.233 56.9111 128.655 56.9111C133.077 56.9111 136.651 60.4883 136.651 64.9142Z" fill="#3A3B3C"/>
<path d="M68.8849 63.2981C76.0129 58.67 85.9476 57.9627 94.2265 57.4574C102.243 56.9724 111.451 56.6288 117.973 62.0855C119.992 63.7831 122.92 60.8729 120.881 59.1753C113.894 53.3144 104.989 52.8496 96.2457 53.2336C86.6341 53.6378 75.0436 54.3855 66.8051 59.7411C64.5839 61.176 66.6436 64.7532 68.8849 63.2981Z" fill="#4EB0A9"/>
<path d="M137.441 59.5589C141.177 56.8912 144.953 54.2437 148.769 51.6568C150.95 50.1613 148.89 46.5841 146.689 48.0999C142.893 50.6868 139.117 53.3343 135.361 56.002C133.221 57.5379 135.281 61.1151 137.441 59.5589Z" fill="#4EB0A9"/>
</g>
</g>
<defs>
<clipPath id="clip0_80_4751">
<rect width="257.212" height="429.561" fill="white" transform="translate(20 -27)"/>
</clipPath>
</defs>
</svg>
