<svg width="911" height="1080" viewBox="0 0 911 1080" fill="none" xmlns="http://www.w3.org/2000/svg">
<g clip-path="url(#clip0_106_1329)">
<path d="M200.946 474.817C217.154 462.701 233.604 450.963 250.354 439.566C262.493 435.946 276.548 432.699 286.856 439.992L240.962 478.115C233.691 482.433 225.28 484.776 216.84 484.764C209.423 484.754 202.106 483.041 194.914 481.331C194.39 481.216 193.847 481.071 193.286 480.898C195.759 478.745 198.372 476.748 200.975 474.798L200.946 474.817Z" fill="#D88185"/>
<path d="M192.68 465.851C199.326 462.67 206.139 459.75 213.051 457.176C214.17 456.748 215.423 456.275 215.98 455.223C216.526 454.22 216.378 452.963 216.744 451.87C217.467 449.606 220.05 448.651 222.322 447.978C231.525 445.21 240.728 442.442 249.979 439.684C250.114 439.639 250.22 439.612 250.354 439.567C233.634 450.945 217.155 462.702 200.946 474.817C198.343 476.767 195.73 478.764 193.257 480.917C189.48 479.81 185.594 477.829 185.371 474.083C185.131 470.183 189.135 467.543 192.651 465.87L192.68 465.851Z" fill="#FEB2B6"/>
<path d="M770.146 579.573C782.485 576.972 794.165 571.352 803.901 563.331C802.936 562.269 801.243 562.695 799.884 563.195C791.69 566.26 783.506 569.728 774.84 570.965C773.708 571.115 772.499 571.274 771.625 571.955C770.391 572.907 770.013 574.623 770.098 576.165L770.146 579.573Z" fill="#3A3B3C"/>
<path d="M766.214 563.742C777.427 557.97 787.202 549.432 794.447 539.113C793.236 538.372 791.679 539.203 790.543 540.051C783.466 545.187 776.507 550.697 768.448 554.167C767.396 554.635 766.296 555.092 765.599 555.988C764.627 557.222 764.736 558.995 765.263 560.46L766.214 563.742Z" fill="#3A3B3C"/>
<path d="M769.808 570.778C781.718 566.608 792.556 559.479 801.139 550.229C800.066 549.318 798.408 549.927 797.16 550.601C789.433 554.719 781.776 559.201 773.355 561.592C772.239 561.896 771.094 562.218 770.275 562.987C769.163 564.066 769.024 565.834 769.31 567.371L769.789 570.749L769.808 570.778Z" fill="#3A3B3C"/>
<path d="M615.805 548.554C626.648 552.968 637.492 557.381 648.383 561.804C649.484 562.247 650.681 562.71 651.853 562.494C653.072 562.288 654.047 561.379 655.075 560.681C660.593 556.951 667.981 558.454 674.513 559.644C690.296 562.498 706.575 562.538 722.382 559.726C722.086 555.739 727.203 553.944 731.203 553.477C739.385 552.507 747.681 551.588 755.841 552.761C762.961 553.781 770.057 556.494 775.273 561.39C776.683 562.7 777.422 564.562 777.471 566.496C777.483 567.348 777.37 568.198 777.097 568.987C772.002 584.401 760.566 597.643 746.021 604.93C738.444 608.706 730.19 610.909 721.943 612.738C693.164 619.211 663.669 622.129 634.181 621.275C629.217 621.131 624.218 620.803 619.379 619.637C610.815 617.575 603.009 612.982 594.456 610.872C586.446 608.907 578.104 609.242 569.931 608.24C554.846 606.415 540.916 600.247 527.707 592.515C535.501 586.389 543.858 580.886 552.451 576.01C572.522 564.621 594.074 556.256 615.834 548.536L615.805 548.554Z" fill="#FEB2B6"/>
<path d="M507.11 577.385L575.753 525.015C584.276 535.537 597.376 541.046 609.919 546.134C611.894 546.919 613.859 547.752 615.834 548.537C594.074 556.257 572.522 564.622 552.452 576.011C543.858 580.887 535.502 586.39 527.707 592.516C519.559 587.773 511.691 582.441 503.966 577.142C505.027 577.201 506.059 577.278 507.12 577.337L507.11 577.385Z" fill="#D88185"/>
<path d="M570.862 177.483C580.775 169.676 592.593 164.336 605.012 162.052C605.176 163.462 603.797 164.507 602.538 165.229C594.913 169.569 587.035 173.578 580.499 179.432C579.633 180.191 578.774 181.026 577.65 181.252C576.121 181.615 574.559 180.771 573.44 179.725L570.862 177.483Z" fill="#3A3B3C"/>
<path d="M580.453 190.638C592.07 185.754 604.905 183.736 617.478 184.833C617.269 186.236 615.63 186.874 614.254 187.22C605.762 189.37 597.076 191.153 589.219 195.067C588.204 195.593 587.131 196.156 585.993 196.105C584.434 196.036 583.146 194.853 582.35 193.479L580.453 190.638Z" fill="#3A3B3C"/>
<path d="M577.377 183.388C588.211 176.957 600.63 173.199 613.237 172.555C613.247 173.981 611.709 174.841 610.368 175.37C602.246 178.676 593.9 181.634 586.665 186.584C585.724 187.226 584.743 187.934 583.622 188.037C582.069 188.169 580.614 187.174 579.662 185.94L577.377 183.388Z" fill="#3A3B3C"/>
<path d="M495.475 315.672C499.079 304.526 502.637 293.369 506.241 282.223C506.618 281.082 507.005 279.893 507.929 279.097C508.883 278.283 510.198 278.099 511.39 277.787C517.809 275.979 521.393 269.349 524.693 263.557C532.658 249.624 543.085 237.109 555.372 226.802C558.256 229.586 562.913 226.815 565.819 224.058C571.834 218.414 577.851 212.646 582.217 205.639C586.011 199.531 588.496 192.334 588.089 185.225C587.964 183.299 587.032 181.52 585.611 180.258C584.962 179.69 584.263 179.236 583.455 178.933C568.365 172.935 550.875 173.177 535.953 179.681C528.193 183.042 521.235 187.978 514.484 193.11C491.033 210.999 469.852 231.737 451.563 254.885C448.482 258.777 445.513 262.844 443.311 267.28C439.378 275.156 437.902 284.124 434.016 292.011C430.388 299.405 424.774 305.612 420.257 312.51C411.979 325.249 407.78 339.887 405.18 354.977C414.876 352.917 424.444 350.079 433.728 346.605C455.342 338.528 475.579 327.4 495.493 315.701L495.475 315.672Z" fill="#FEB2B6"/>
<path d="M403.554 380.499L487.768 361.537C485.175 348.25 489.363 334.685 493.528 321.788C494.17 319.782 494.823 317.727 495.465 315.72C475.551 327.419 455.303 338.595 433.7 346.624C424.445 350.08 414.877 352.917 405.151 354.996C403.554 364.286 402.595 373.742 401.667 383.055C402.277 382.215 402.916 381.357 403.525 380.517L403.554 380.499Z" fill="#D88185"/>
<path d="M124.725 652.838C132.187 663.301 137.078 675.57 138.82 688.294C137.373 688.4 136.397 686.936 135.733 685.641C131.686 677.704 127.98 669.468 122.305 662.572C121.576 661.687 120.762 660.733 120.564 659.59C120.26 658.024 121.18 656.454 122.34 655.385L124.743 652.867L124.725 652.838Z" fill="#3A3B3C"/>
<path d="M110.902 661.96C115.319 674 116.766 687.159 115.064 699.873C113.624 699.606 113.073 697.911 112.785 696.498C111.012 687.764 109.578 678.855 105.986 670.669C105.518 669.617 105.013 668.506 105.093 667.35C105.238 665.783 106.517 664.516 107.91 663.749L110.902 661.96Z" fill="#3A3B3C"/>
<path d="M118.412 659.169C124.46 670.494 127.685 683.296 127.75 696.15C126.316 696.084 125.496 694.479 125.025 693.101C122.059 684.679 119.443 676.033 114.738 668.477C114.106 667.488 113.456 666.471 113.412 665.312C113.337 663.722 114.427 662.288 115.728 661.376L118.431 659.198L118.412 659.169Z" fill="#3A3B3C"/>
<path d="M376.335 815.282C388.508 811.395 401.664 810.522 414.234 812.768C413.901 814.168 412.216 814.671 410.767 814.901C401.992 816.29 393.072 817.322 384.788 820.567C383.717 821.006 382.57 821.452 381.453 821.306C379.878 821.084 378.669 819.768 378.008 818.349L376.354 815.311L376.335 815.282Z" fill="#3A3B3C"/>
<path d="M380.771 831.197C393.548 830.691 406.455 833.335 417.985 838.824C417.281 840.093 415.529 840.106 414.087 839.963C405.263 838.968 396.37 837.608 387.529 838.507C386.378 838.628 385.169 838.786 384.097 838.325C382.635 837.703 381.833 836.128 381.558 834.543L380.753 831.168L380.771 831.197Z" fill="#3A3B3C"/>
<path d="M380.412 823.201C393.002 820.93 406.125 821.798 418.338 825.664C417.814 827.022 416.058 827.285 414.603 827.314C405.707 827.552 396.724 827.395 388.107 829.543C386.972 829.818 385.827 830.14 384.694 829.84C383.161 829.428 382.137 827.953 381.669 826.451L380.412 823.201Z" fill="#3A3B3C"/>
<path d="M326.623 742.148C333.397 743.716 340.412 743.738 347.389 743.702C352.012 743.696 356.645 743.643 361.245 743.283C359.19 731.864 357.134 720.444 355.079 709.025L280.619 690.517C281.691 700.845 282.715 711.163 283.787 721.492C290.482 725.115 297.226 728.75 303.921 732.374C311.176 736.296 318.592 740.278 326.623 742.148Z" fill="#D88185"/>
<path d="M373.797 803.556C371.387 799.528 370.551 794.822 369.693 790.211C366.868 774.575 364.061 758.969 361.236 743.333C356.617 743.664 351.955 743.735 347.38 743.751C340.432 743.769 333.388 743.766 326.614 742.198C318.583 740.328 311.185 736.374 303.912 732.423C297.217 728.8 290.473 725.165 283.778 721.541C284.363 727.391 284.976 733.221 285.561 739.071C285.89 742.341 286.357 745.891 288.655 748.271C290.953 750.651 295.758 750.611 296.891 747.513C297.741 759.866 299.473 772.188 302.08 784.279C302.598 786.691 303.256 789.259 305.148 790.875C307.021 792.462 310.538 792.263 311.377 789.925C314.365 803.124 317.342 816.37 320.329 829.568C320.991 832.462 321.679 835.461 323.509 837.813C326.758 842.001 332.557 843.005 337.831 843.442C353.262 844.72 368.874 843.589 383.966 840.17C385.437 839.845 386.976 839.435 388.125 838.414C389.39 837.319 389.94 835.616 390.279 833.967C391.267 828.914 390.233 823.515 387.495 819.165C383.819 813.284 377.327 809.53 373.75 803.546L373.797 803.556Z" fill="#FEB2B6"/>
<path d="M253.068 553.773C276.682 529.925 302.207 507.273 332.27 492.365C362.334 477.457 397.632 470.872 429.885 480.153C459.501 488.704 484.192 509.858 502.68 534.566C512.557 547.784 521.133 563.963 520.191 579.917C511.897 587.632 501.858 593.513 492.962 600.671C483.735 608.08 475.715 616.929 469.216 626.813C453.033 651.4 445.827 682.861 422.686 701.043C411.879 709.503 398.639 714.154 385.644 718.485C377.235 721.278 368.731 724.05 359.898 725.026C348.361 726.256 336.712 724.363 325.286 722.369C303.635 718.597 280.672 713.861 264.911 698.547C257.19 691.075 251.767 681.562 246.834 671.981C235.341 649.764 225.88 626.495 218.526 602.617C222.408 592.931 227.535 583.719 233.823 575.362C239.62 567.647 246.312 560.628 253.097 553.755L253.068 553.773Z" fill="#FFE5B8"/>
<path d="M307.859 424.357L310.363 423.535C308.18 420.631 311.698 416.91 314.843 415.105C332.275 405.033 351.236 397.545 370.866 393.028C369.784 391.591 370.344 389.391 371.633 388.076C372.922 386.761 374.704 386.155 376.428 385.586C416.731 372.16 457.035 358.735 497.367 345.29L502.744 343.902C531.008 333.419 560.654 326.638 590.694 323.741C589.415 323.084 589.454 321.094 590.46 320.042C591.437 319.008 592.955 318.693 594.368 318.405C613.28 314.879 632.428 312.554 651.628 311.464C658.152 311.104 664.769 310.888 671.094 312.457C677.55 314.105 683.407 317.568 688.717 321.586C700.77 330.713 710.771 343.483 713.314 358.358C713.113 355.416 717.962 354.611 719.85 356.925C721.223 358.627 721.37 360.908 721.173 363.162C720.958 363.914 720.838 364.687 720.86 365.491C720.999 364.748 721.101 363.946 721.173 363.162C722.499 358.958 727.707 355.959 731.803 357.886C735.702 359.694 736.683 365.331 734.501 368.772C733.732 369.427 733.029 370.122 732.327 370.816C733.236 370.317 733.968 369.604 734.501 368.772C736.165 367.341 737.941 366.083 740.036 365.646C743.101 364.997 746.915 366.737 747.198 369.872C747.333 371.301 746.722 372.715 746.018 373.983C743.291 378.878 738.784 382.781 733.585 384.833C737.147 386.242 741.696 383.623 744.79 385.903C747.97 388.253 746.062 393.852 742.424 395.399C738.785 396.945 734.626 395.754 730.859 394.599L731.189 395.821C735.504 405.715 732.583 417.161 729.339 427.463C727.492 433.351 725.569 439.247 723.274 445.012C715.038 420.264 703.794 396.578 693.138 372.722C686.6 358.066 678.289 342.495 663.44 336.425C652.435 331.951 639.951 333.622 628.351 336.161C619.191 338.165 610.033 340.618 601.634 344.837C597.372 346.946 593.273 349.564 590.038 353.023C582.815 360.749 580.603 372.152 581.892 382.628C583.2 393.134 587.631 402.953 592.337 412.434C606.98 441.89 624.854 469.611 642.642 497.262C645.076 501.071 647.586 504.872 650.252 508.532C631.785 517.177 612.737 524.72 593.893 532.583C570.755 542.247 547.284 552.862 529.558 570.614L525.768 574.1C524.044 576.144 522.198 578.06 520.248 579.879C521.19 563.924 512.614 547.745 502.737 534.527C484.268 509.848 459.559 488.665 429.942 480.115C397.689 470.833 362.391 477.418 332.327 492.326C302.264 507.234 276.74 529.887 253.125 553.735C246.321 560.579 239.629 567.597 233.851 575.342C227.611 583.709 222.465 592.892 218.553 602.597C217.68 599.756 216.818 596.868 216.003 593.991L215.607 593.179C209.866 598.034 204.125 602.889 198.414 607.726C195.494 610.205 192.17 612.82 188.334 612.774C184.497 612.727 180.784 608.262 182.914 605.059C165.062 609.668 158.902 633.092 142.536 641.5C141.738 640.7 140.94 639.9 140.142 639.099C135.37 641.37 130.463 643.686 126.8 647.5C123.137 651.314 128.171 654.772 129.786 659.799C130.582 662.198 129.398 664.51 124.791 669.09C121.659 672.197 119.067 676.022 114.824 674.762C110.609 673.484 107.628 669.779 105.008 666.254C98.034 656.749 91.6338 646.795 85.9686 636.453C83.5369 632.071 81.2054 627.46 80.9396 622.43C80.7223 617.861 82.2833 613.384 84.4007 609.329C87.5622 603.256 92.0215 597.869 97.4249 593.639C98.7566 592.583 100.144 591.615 101.232 590.306C102.457 588.827 103.181 587.013 104.057 585.308C110.005 573.729 122.204 567 133.711 560.917C131.819 553.406 136.976 546.099 142.104 540.284C164.477 514.814 191.442 493.902 218.343 473.276C245.604 452.38 274.28 431.071 307.964 424.331L307.859 424.357Z" fill="#FEB2B6"/>
<path d="M735.485 369.415C734.785 370.435 733.975 371.281 732.909 371.92C731.797 372.549 730.418 371.097 731.403 370.14C732.106 369.445 732.827 368.78 733.577 368.096C734.697 367.093 736.447 368.678 735.326 369.68C734.587 370.317 733.855 371.03 733.152 371.724L731.646 369.943C732.363 369.527 732.946 369.031 733.419 368.361C734.266 367.123 736.361 368.16 735.503 369.444L735.485 369.415Z" fill="#FEB2B6"/>
<path d="M722.25 363.502C722.178 364.286 722.057 365.058 721.937 365.831C721.72 367.157 719.666 366.955 719.635 365.624C719.604 364.743 719.727 363.845 719.963 362.998C720.384 361.542 722.671 362.046 722.25 363.502C722.056 364.159 721.938 364.807 721.952 365.535C721.169 365.462 720.386 365.389 719.65 365.327C719.77 364.554 719.891 363.782 719.963 362.998C720.117 361.508 722.404 362.012 722.25 363.502Z" fill="#FEB2B6"/>
<path d="M647.166 369.137C646.267 371.062 644.857 372.7 643.288 374.152C639.183 378.044 633.989 380.871 628.41 381.815C622.832 382.759 616.853 381.666 612.177 378.512C609.702 376.818 607.621 374.586 605.773 372.205C602.916 368.503 600.604 364.371 598.329 360.297C596.479 357.017 594.676 353.747 592.826 350.466C595.481 348.279 598.444 346.509 601.537 344.942C609.954 340.752 619.094 338.27 628.254 336.266C632.243 335.397 636.382 334.635 640.477 334.189C644.833 341.968 647.535 350.682 648.252 359.559C648.515 362.789 648.497 366.157 647.148 369.108L647.166 369.137Z" fill="#E25243"/>
<path d="M598.341 360.253C600.635 364.355 602.928 368.458 605.785 372.16C607.633 374.541 609.715 376.773 612.189 378.467C616.883 381.65 622.844 382.714 628.423 381.77C634.002 380.826 639.196 377.999 643.301 374.108C644.822 372.644 646.28 371.017 647.179 369.092C648.528 366.142 648.546 362.773 648.283 359.543C647.547 350.638 644.864 341.953 640.508 334.173C648.315 333.32 656.177 333.579 663.374 336.514C678.224 342.585 686.534 358.155 693.072 372.811C703.728 396.667 714.972 420.354 723.208 445.101C720.593 451.644 717.569 457.997 713.714 463.817C710.166 457.814 705.639 452.395 700.31 447.898C697.824 445.802 695.058 443.843 691.892 443.246C689.804 442.86 687.637 443.057 685.572 443.476C680.009 444.574 674.695 447.15 670.694 451.139C666.692 455.128 664.107 460.629 663.958 466.292C663.871 469.295 664.511 472.284 665.374 475.172C666.731 479.668 668.745 483.909 670.758 488.149C672.017 490.825 673.295 493.529 674.554 496.205C666.6 500.672 658.453 504.772 650.204 508.65C647.509 505.008 645.028 501.189 642.595 497.381C624.788 469.7 606.933 442.009 592.289 412.552C587.583 403.071 583.152 393.252 581.845 382.747C580.537 372.241 582.768 360.867 589.991 353.141C590.881 352.164 591.874 351.283 592.886 350.432C594.736 353.713 596.539 356.983 598.389 360.263L598.341 360.253Z" fill="#FFE5B8"/>
<path d="M665.355 475.142C664.464 472.273 663.871 469.295 663.939 466.262C664.088 460.599 666.674 455.099 670.675 451.11C674.677 447.12 679.99 444.544 685.553 443.447C687.637 443.057 689.785 442.831 691.874 443.216C695.068 443.795 697.805 445.772 700.291 447.869C705.62 452.366 710.147 457.785 713.695 463.788C712.276 465.923 710.761 468.037 709.095 470.043C701.137 479.631 690.69 486.796 679.964 493.076C678.183 494.132 676.335 495.148 674.535 496.176C673.276 493.5 671.998 490.795 670.739 488.12C668.726 483.879 666.713 479.638 665.355 475.142Z" fill="#E25243"/>
<path d="M720.97 412.955C720.047 408.305 719.094 403.673 718.17 399.023C717.892 397.563 720.126 396.831 720.423 398.32C721.347 402.971 722.3 407.602 723.224 412.252C723.501 413.712 721.267 414.444 720.97 412.955Z" fill="#FEB2B6"/>
<path d="M670.347 412.34C672.279 415.814 674.286 419.404 674.428 423.407C674.618 427.421 672.443 431.962 668.314 433.7C664.628 435.236 660.352 434.119 657.554 431.854C654.737 429.559 653.154 426.313 651.802 423.042C650.082 418.941 648.683 414.636 648.521 410.153C648.479 408.87 648.562 407.589 649.036 406.345C650.284 403.173 654.294 401.184 657.869 401.397C661.445 401.61 664.467 403.65 666.388 406.272C666.388 406.272 669.412 410.686 670.328 412.311L670.347 412.34Z" fill="#3A3B3C"/>
<path d="M666.147 449.212C664.627 450.101 664.823 453.292 666.572 456.35C668.322 459.409 671.005 461.174 672.525 460.285C674.045 459.396 673.849 456.205 672.099 453.147C670.35 450.088 667.667 448.323 666.147 449.212Z" fill="#E86B53"/>
<path d="M704.47 434.674C704.787 434.594 705.152 434.524 705.544 434.561C710.238 434.796 715.874 441.758 715.826 446.169C715.805 447.738 714.981 448.756 713.842 449.279C712.236 450.674 709.421 449.729 707.908 448.321C707.889 448.292 707.871 448.263 707.852 448.234C706.684 447.302 705.371 445.889 704.53 444.379C703.153 442.352 702.212 440.046 702.372 437.734C702.486 436.31 703.161 435.06 704.517 434.684L704.47 434.674Z" fill="#FEB2B6"/>
<path d="M696.155 473.434C694.966 473.047 693.796 472.69 692.578 472.321C691.342 471.924 691.963 470.012 693.228 470.391C694.417 470.778 695.587 471.136 696.805 471.504C698.041 471.901 697.42 473.813 696.155 473.434Z" fill="#3C3C3D"/>
<path d="M695.463 464.79C694.469 465.22 693.494 465.68 692.5 466.11C691.331 466.652 690.41 464.825 691.626 464.294C692.601 463.835 693.595 463.404 694.589 462.974C695.758 462.432 696.68 464.259 695.463 464.79Z" fill="#3C3C3D"/>
<path d="M689.585 458.345C689.323 459.536 689.042 460.698 688.779 461.889C688.496 463.176 686.566 462.526 686.849 461.239C687.112 460.048 687.393 458.886 687.655 457.695C687.938 456.408 689.869 457.058 689.585 458.345Z" fill="#3C3C3D"/>
<path d="M680.205 461.028C675.725 463.563 674.169 469.265 676.704 473.746C679.239 478.226 684.941 479.783 689.421 477.248C693.902 474.713 695.458 469.011 692.923 464.53C690.388 460.049 684.685 458.493 680.205 461.028Z" fill="white"/>
<path d="M681.413 463.816C678.559 465.436 677.56 469.062 679.179 471.917C680.798 474.772 684.425 475.771 687.28 474.152C690.135 472.533 691.133 468.906 689.514 466.051C687.895 463.196 684.268 462.197 681.413 463.816Z" fill="#3C3C3D"/>
<path d="M684.892 465.93C683.954 466.447 683.615 467.647 684.151 468.614C684.669 469.552 685.868 469.892 686.835 469.356C687.774 468.838 688.113 467.639 687.577 466.671C687.059 465.733 685.86 465.393 684.892 465.93Z" fill="white"/>
<path d="M628.632 347.816C628.341 349.026 628.078 350.217 627.805 351.456C627.522 352.742 629.504 353.154 629.788 351.867C630.079 350.658 630.342 349.467 630.615 348.228C630.898 346.941 628.916 346.529 628.632 347.816Z" fill="#3C3C3D"/>
<path d="M635.764 352.762C634.899 353.396 633.988 354.02 633.124 354.654C632.056 355.418 633.181 357.114 634.249 356.35C635.113 355.717 636.024 355.093 636.888 354.459C637.956 353.695 636.831 351.998 635.764 352.762Z" fill="#3C3C3D"/>
<path d="M638.346 361.098C637.176 360.74 636.035 360.364 634.865 360.006C633.628 359.609 633.217 361.591 634.453 361.989C635.623 362.347 636.764 362.723 637.935 363.081C639.171 363.478 639.583 361.495 638.346 361.098Z" fill="#3C3C3D"/>
<path d="M631.334 367.873C626.891 370.466 621.178 368.957 618.585 364.513C615.992 360.07 617.5 354.357 621.943 351.764C626.387 349.171 632.099 350.68 634.693 355.123C637.286 359.567 635.777 365.28 631.334 367.873Z" fill="white"/>
<path d="M629.507 365.397C626.671 367.045 623.033 366.093 621.385 363.257C619.737 360.421 620.688 356.783 623.524 355.135C626.36 353.487 629.998 354.439 631.646 357.275C633.294 360.111 632.343 363.749 629.507 365.397Z" fill="#3C3C3D"/>
<path d="M629.432 361.307C628.513 361.854 627.284 361.533 626.738 360.613C626.191 359.693 626.511 358.465 627.431 357.918C628.351 357.372 629.579 357.692 630.126 358.612C630.673 359.532 630.352 360.76 629.432 361.307Z" fill="white"/>
<path d="M662.785 369.682C663.075 369.497 663.292 369.195 663.508 368.893C666.092 364.99 663.83 356.323 660.253 353.736C658.96 352.802 657.666 352.892 656.582 353.502C654.506 353.969 653.58 356.812 653.827 358.865C653.827 358.865 653.864 358.923 653.854 358.971C653.901 360.455 654.286 362.339 655.011 363.922C655.827 366.226 657.107 368.356 659.083 369.591C660.312 370.361 661.696 370.542 662.785 369.682Z" fill="#FEB2B6"/>
<path d="M626.835 377.299C625.233 377.995 625.009 381.168 626.39 384.42C627.772 387.672 630.21 389.758 631.842 389.044C633.444 388.348 633.668 385.175 632.286 381.922C630.905 378.67 628.467 376.584 626.835 377.299Z" fill="#E86B53"/>
<path d="M627.381 405.194C626.845 421.913 633.672 436.957 646.683 447.518C647.87 448.479 646.286 450.228 645.099 449.267C631.664 438.363 624.449 422.584 624.986 405.291C625.044 403.78 627.391 403.672 627.333 405.183L627.381 405.194Z" fill="#3A3B3C"/>
<path d="M668.452 324.343C666.047 324.037 663.615 324.076 661.197 324.393C659.681 324.583 659.622 322.247 661.09 322.046C663.738 321.705 666.331 321.727 668.956 322.056C670.465 322.238 669.932 324.544 668.452 324.343Z" fill="#D88185"/>
<path d="M622.717 331.252C620.369 331.934 618.049 332.597 615.701 333.278C614.257 333.709 613.554 331.456 614.998 331.025C617.347 330.343 619.666 329.68 622.014 328.999C623.458 328.568 624.161 330.821 622.717 331.252Z" fill="#D88185"/>
<path d="M574.485 337.906C571.792 338.562 569.1 339.217 566.408 339.873C564.956 340.227 564.224 337.993 565.705 337.62C568.397 336.964 571.09 336.308 573.782 335.653C575.234 335.298 575.966 337.533 574.485 337.906Z" fill="#D88185"/>
<path d="M697.886 348.242C695.905 347.256 693.759 346.908 691.573 347.076C690.068 347.219 689.99 344.853 691.466 344.729C694.064 344.502 696.629 344.993 698.951 346.129C700.326 346.806 699.242 348.891 697.867 348.213L697.886 348.242Z" fill="#D88185"/>
<path d="M720.957 388.52C720.428 391.151 719.908 393.735 719.379 396.366C719.101 397.853 716.766 397.339 717.092 395.862C717.621 393.231 718.141 390.647 718.67 388.016C718.948 386.528 721.283 387.043 720.957 388.52Z" fill="#D88185"/>
<path d="M567.708 400.989C565.937 401.998 564.166 403.006 562.414 404.044C561.097 404.803 559.834 402.826 561.15 402.067C562.921 401.059 564.692 400.05 566.445 399.012C567.761 398.253 569.024 400.23 567.708 400.989Z" fill="#D88185"/>
<path d="M534.186 366.846C530.646 368.289 527.116 369.684 523.576 371.127C522.177 371.693 521.474 369.44 522.873 368.874C526.413 367.431 529.943 366.036 533.484 364.593C534.882 364.027 535.585 366.28 534.186 366.846Z" fill="#D88185"/>
<path d="M605.374 447.707C602.833 448.921 600.282 450.182 597.742 451.396C596.399 452.049 595.106 450.091 596.479 449.419C599.019 448.205 601.57 446.944 604.111 445.73C605.454 445.077 606.717 447.054 605.374 447.707Z" fill="#D88185"/>
<path d="M603.585 497.452C600.469 499.238 597.323 501.043 594.207 502.83C592.891 503.589 591.628 501.612 592.944 500.853L602.322 495.475C603.638 494.716 604.902 496.693 603.585 497.452Z" fill="#D88185"/>
<path d="M563.606 454.29C561.293 455.604 558.999 456.947 556.686 458.261C555.37 459.02 554.107 457.043 555.423 456.284C557.736 454.97 560.03 453.627 562.343 452.313C563.659 451.554 564.922 453.531 563.606 454.29Z" fill="#D88185"/>
<path d="M515.493 421.081C513.028 421.836 510.563 422.592 508.099 423.348C506.655 423.779 505.952 421.526 507.396 421.095C509.861 420.339 512.326 419.583 514.79 418.827C516.234 418.396 516.937 420.649 515.493 421.081Z" fill="#D88185"/>
<path d="M561.988 509.941C559.31 511.325 556.829 512.951 554.533 514.868C553.376 515.812 552.112 513.835 553.27 512.891C555.584 511.003 558.047 509.348 560.725 507.964C562.05 507.282 563.342 509.24 561.988 509.941Z" fill="#D88185"/>
<path d="M638.614 507.169C636.541 507.961 634.45 508.724 632.406 509.498C630.988 510.035 630.286 507.782 631.703 507.245C633.776 506.453 635.868 505.689 637.912 504.916C639.329 504.379 640.032 506.632 638.614 507.169Z" fill="#D88185"/>
<path d="M481.669 384.926C478.972 385.83 476.245 386.753 473.548 387.658C472.093 388.137 471.409 385.912 472.845 385.405C475.543 384.5 478.269 383.577 480.966 382.673C482.421 382.194 483.105 384.418 481.669 384.926Z" fill="#D88185"/>
<path d="M517.266 486.846C514.808 488.253 512.379 489.641 509.921 491.048C508.604 491.807 507.341 489.83 508.657 489.071C511.116 487.664 513.545 486.276 516.003 484.869C517.319 484.11 518.582 486.087 517.266 486.846Z" fill="#D88185"/>
<path d="M455.399 443.258C453.221 444.527 451.054 445.748 448.876 447.017C447.559 447.776 446.296 445.799 447.612 445.04C449.79 443.771 451.958 442.55 454.136 441.281C455.452 440.522 456.715 442.499 455.399 443.258Z" fill="#D88185"/>
<path d="M415.618 403.29C412.734 404.928 409.696 406.132 406.448 406.815C404.977 407.14 404.275 404.887 405.745 404.562C408.763 403.903 411.645 402.839 414.336 401.284C415.652 400.525 416.916 402.502 415.599 403.261L415.618 403.29Z" fill="#D88185"/>
<path d="M412.843 462.257C410.416 463.071 408.017 463.867 405.59 464.681C404.164 465.141 403.48 462.917 404.887 462.427C407.315 461.613 409.713 460.818 412.141 460.004C413.566 459.544 414.25 461.768 412.843 462.257Z" fill="#D88185"/>
<path d="M372.349 438.345C369.856 440.019 367.21 441.26 364.296 442.016C362.833 442.418 362.13 440.165 363.593 439.763C366.296 439.06 368.768 437.931 371.067 436.339C372.328 435.493 373.591 437.47 372.33 438.316L372.349 438.345Z" fill="#D88185"/>
<path d="M333.107 418.83C330.365 420.049 327.634 421.221 324.892 422.44C323.512 423.036 322.828 420.811 324.19 420.187C326.931 418.968 329.662 417.796 332.404 416.577C333.784 415.982 334.468 418.206 333.107 418.83Z" fill="#D88185"/>
<path d="M350.446 468.718C347.85 469.845 345.254 470.971 342.628 472.116C341.248 472.711 340.546 470.458 341.926 469.863C344.522 468.737 347.118 467.61 349.744 466.465C351.124 465.87 351.826 468.123 350.446 468.718Z" fill="#D88185"/>
<path d="M320.973 452.703C318.287 454.009 315.62 455.345 312.934 456.652C311.591 457.305 310.299 455.346 311.671 454.675C314.357 453.368 317.024 452.032 319.71 450.726C321.053 450.072 322.345 452.031 320.973 452.703Z" fill="#D88185"/>
<path d="M276.052 454.671C273.478 456.152 270.903 457.633 268.3 459.133C266.983 459.892 265.72 457.915 267.037 457.156C269.611 455.675 272.186 454.194 274.789 452.694C276.105 451.935 277.369 453.912 276.052 454.671Z" fill="#D88185"/>
<path d="M300.071 499.957C296.887 500.804 294.326 502.563 292.389 505.234C291.494 506.46 289.745 504.876 290.64 503.649C292.794 500.676 295.82 498.62 299.369 497.704C300.831 497.302 301.534 499.555 300.071 499.957Z" fill="#D88185"/>
<path d="M258.402 500.095C255.661 501.314 253.282 503.038 251.212 505.18C250.147 506.269 248.417 504.714 249.463 503.595C251.855 501.125 254.591 499.255 257.729 497.823C259.09 497.199 259.793 499.452 258.431 500.076L258.402 500.095Z" fill="#D88185"/>
<path d="M213.364 493.742C211.264 495.452 209.182 497.192 207.11 498.883C205.953 499.827 204.69 497.85 205.847 496.906C207.948 495.196 210.03 493.456 212.101 491.765C213.258 490.821 214.521 492.798 213.364 493.742Z" fill="#D88185"/>
<path d="M252.398 537.089C250.029 538.316 248.045 539.952 246.443 542.122C245.529 543.32 243.799 541.764 244.694 540.537C246.423 538.245 248.573 536.421 251.135 535.112C252.459 534.43 253.751 536.388 252.398 537.089Z" fill="#D88185"/>
<path d="M210.226 536.312C208.053 537.781 206.125 539.505 204.393 541.471C203.394 542.6 201.664 541.044 202.643 539.886C204.513 537.75 206.616 535.916 208.963 534.334C210.223 533.488 211.486 535.465 210.226 536.312Z" fill="#D88185"/>
<path d="M179.13 534.033C175.739 535.709 172.936 538.114 170.864 541.279C170.036 542.546 167.951 541.462 168.78 540.196C171.078 536.68 174.108 533.926 177.896 532.038C179.239 531.384 180.532 533.343 179.16 534.015L179.13 534.033Z" fill="#D88185"/>
<path d="M208.775 583.83C205.796 585.447 203.031 587.336 200.49 589.574C199.37 590.576 197.621 588.991 198.741 587.989C201.438 585.611 204.34 583.552 207.493 581.824C208.799 581.113 210.091 583.071 208.756 583.801L208.775 583.83Z" fill="#D88185"/>
<path d="M174.009 568.949C171.75 570.924 169.462 572.918 167.203 574.894C166.065 575.867 164.334 574.311 165.454 573.309C167.713 571.334 170.001 569.34 172.278 567.394C173.417 566.421 175.147 567.976 174.027 568.978L174.009 568.949Z" fill="#D88185"/>
<path d="M138.34 574.377C136.201 575.58 134.325 577.065 132.635 578.841C131.618 579.941 129.84 578.375 130.886 577.256C132.684 575.329 134.745 573.685 137.058 572.371C138.374 571.612 139.656 573.618 138.321 574.348L138.34 574.377Z" fill="#D88185"/>
<path d="M160.779 612.897C158.888 614.678 157.044 616.47 155.153 618.252C154.051 619.283 152.321 617.728 153.404 616.667C155.295 614.886 157.138 613.094 159.03 611.312C160.131 610.281 161.862 611.837 160.779 612.897Z" fill="#D88185"/>
<path d="M127.457 609.825C124.218 611.034 121.536 613.116 119.605 615.988C118.758 617.225 116.692 616.17 117.52 614.904C119.827 611.465 122.889 609.018 126.755 607.572C128.172 607.035 128.875 609.288 127.457 609.825Z" fill="#D88185"/>
<path d="M96.5144 622.715C94.5851 625.463 94.3219 629.152 95.7853 632.147C96.4386 633.49 94.4803 634.782 93.8083 633.41C91.8297 629.352 92.1761 624.832 94.7652 621.131C95.6123 619.894 97.3615 621.478 96.5144 622.715Z" fill="#D88185"/>
<path d="M352.066 764.543C351.587 767.51 351.759 770.471 352.468 773.375C352.822 774.827 350.588 775.558 350.215 774.077C349.37 770.768 349.234 767.416 349.779 764.039C350.009 762.541 352.296 763.045 352.066 764.543Z" fill="#D88185"/>
<path d="M322.97 752.835C323.433 755.609 324.165 758.294 325.091 760.896C325.599 762.332 323.375 763.016 322.838 761.598C321.811 758.774 321.073 755.889 320.605 752.913C320.356 751.434 322.703 751.327 322.952 752.805L322.97 752.835Z" fill="#D88185"/>
<path d="M341.529 789.701C341.81 791.936 342.074 794.143 342.327 796.397C342.499 797.883 340.152 797.991 339.98 796.504C339.698 794.269 339.435 792.062 339.182 789.808C339.01 788.321 341.357 788.214 341.529 789.701Z" fill="#D88185"/>
<path d="M364.96 808.178C366.686 810.432 369.007 812.143 371.716 813.114C373.133 813.601 372.647 815.918 371.212 815.401C367.876 814.217 365.139 812.24 362.983 809.441C362.049 808.236 364.045 807.002 364.96 808.178Z" fill="#D88185"/>
<path d="M334.786 817.915C335.687 819.838 337.015 821.404 338.851 822.483C340.156 823.246 339.091 825.359 337.767 824.568C335.6 823.291 333.874 821.487 332.78 819.197C332.156 817.835 334.133 816.572 334.757 817.934L334.786 817.915Z" fill="#D88185"/>
<path d="M604.885 562.862C607.569 564.627 610.345 566.088 613.337 567.247C614.761 567.811 613.678 569.895 612.253 569.331C609.29 568.154 606.485 566.711 603.802 564.946C602.535 564.117 603.619 562.033 604.885 562.862Z" fill="#D88185"/>
<path d="M618.206 590.504C615.845 589.884 613.484 589.264 611.141 588.672C609.674 588.299 610.178 586.012 611.645 586.385C614.006 587.006 616.368 587.626 618.71 588.217C620.177 588.59 619.673 590.877 618.206 590.504Z" fill="#D88185"/>
<path d="M581.381 594.25C578.736 593.443 576.062 592.653 573.417 591.846C571.99 591.406 572.494 589.119 573.921 589.559C576.566 590.366 579.24 591.156 581.885 591.963C583.312 592.403 582.808 594.69 581.381 594.25Z" fill="#D88185"/>
<path d="M657.857 576.056C655.382 575.836 652.926 575.644 650.452 575.424C648.98 575.299 648.854 572.923 650.344 573.077C652.819 573.298 655.275 573.489 657.749 573.71C659.22 573.834 659.346 576.21 657.857 576.056Z" fill="#D88185"/>
<path d="M662.066 605.137C658.057 605.078 654.089 605.402 650.124 606.052C648.645 606.301 648.538 603.954 650.016 603.705C653.963 603.026 657.95 602.731 661.959 602.79C663.451 602.819 663.559 605.166 662.066 605.137Z" fill="#D88185"/>
<path d="M690.109 591.809C686.948 591.987 683.815 592.146 680.653 592.323C679.14 592.389 679.051 590.071 680.546 589.976C683.708 589.799 686.84 589.64 690.002 589.462C691.515 589.396 691.604 591.714 690.109 591.809Z" fill="#D88185"/>
<path d="M710.556 574.858C708.265 574.602 706.003 574.778 703.781 575.338C702.329 575.693 701.616 573.487 703.078 573.085C705.723 572.419 708.358 572.25 711.042 572.542C712.55 572.724 712.046 575.011 710.538 574.829L710.556 574.858Z" fill="#D88185"/>
<path d="M732.338 597.994C729.555 599.854 726.406 600.883 723.091 601.077C721.596 601.172 721.488 598.826 722.983 598.73C725.944 598.558 728.612 597.673 731.075 596.017C732.354 595.2 733.599 597.148 732.338 597.994Z" fill="#D88185"/>
<path d="M751.259 572.438C748.554 573.715 745.85 574.993 743.145 576.27C741.784 576.894 740.521 574.917 741.882 574.293C744.587 573.016 747.291 571.738 749.996 570.461C751.357 569.836 752.62 571.813 751.259 572.438Z" fill="#D88185"/>
<path d="M758.405 559.721C756.001 558.842 753.489 558.563 750.949 558.753C749.426 558.867 749.347 556.501 750.842 556.406C753.813 556.186 756.685 556.644 759.46 557.656C760.895 558.172 759.811 560.256 758.376 559.74L758.405 559.721Z" fill="#D88185"/>
<path d="M772.834 569.747C771.683 571.342 770.911 573.145 770.539 575.062C770.232 576.568 767.926 576.035 768.252 574.558C768.719 572.212 769.707 570.107 771.085 568.162C771.98 566.936 773.7 568.539 772.834 569.747Z" fill="#D88185"/>
<path d="M454.721 309.938C452.83 313.193 451.709 316.693 451.348 320.486C451.213 322.005 448.907 321.472 449.061 319.982C449.453 316.046 450.656 312.289 452.655 308.883C453.417 307.577 455.502 308.661 454.739 309.967L454.721 309.938Z" fill="#D88185"/>
<path d="M447.747 282.297C447.005 284.981 446.293 287.647 445.533 290.302C445.142 291.74 442.825 291.254 443.246 289.798C443.987 287.114 444.7 284.448 445.46 281.792C445.851 280.355 448.167 280.84 447.747 282.297Z" fill="#D88185"/>
<path d="M494.443 283.17C492.282 285.492 490.737 288.199 489.882 291.283C489.491 292.721 487.175 292.235 487.595 290.779C488.534 287.314 490.24 284.218 492.693 281.586C493.71 280.486 495.488 282.052 494.443 283.17Z" fill="#D88185"/>
<path d="M480.73 258.439C478.359 260.814 476.564 263.516 475.26 266.601C474.678 267.997 472.593 266.913 473.176 265.517C474.54 262.271 476.512 259.333 479.01 256.836C480.093 255.776 481.824 257.331 480.759 258.421L480.73 258.439Z" fill="#D88185"/>
<path d="M491.787 224.483C489.403 226.006 487.319 227.87 485.553 230.103C484.592 231.29 482.872 229.687 483.804 228.519C485.726 226.145 487.937 224.159 490.524 222.506C491.803 221.689 493.066 223.666 491.787 224.483Z" fill="#D88185"/>
<path d="M526.407 241.954C524.703 244.926 522.988 247.945 521.284 250.917C520.522 252.223 518.456 251.168 519.2 249.833C520.904 246.861 522.618 243.842 524.322 240.87C525.085 239.564 527.15 240.619 526.407 241.954Z" fill="#D88185"/>
<path d="M529.592 213.554C526.905 214.411 524.879 216.238 523.672 218.769C523.023 220.125 520.91 219.06 521.587 217.686C523.063 214.614 525.652 212.386 528.908 211.33C530.333 210.87 531.036 213.123 529.61 213.583L529.592 213.554Z" fill="#D88185"/>
<path d="M552.325 184.29C549.577 184.858 547.116 185.94 544.825 187.608C543.583 188.483 542.319 186.506 543.562 185.631C545.998 183.87 548.681 182.688 551.641 182.066C553.112 181.74 553.814 183.994 552.344 184.319L552.325 184.29Z" fill="#D88185"/>
<path d="M575.486 195.166C573.085 197.56 570.684 199.953 568.294 202.299C567.211 203.36 565.48 201.804 566.544 200.715C568.945 198.321 571.317 195.946 573.737 193.582C574.819 192.521 576.55 194.077 575.486 195.166Z" fill="#D88185"/>
<path d="M475.837 471.597C472.68 474.024 469.108 475.61 465.199 476.347C463.738 476.625 463.007 474.39 464.496 474.094C468.223 473.391 471.544 471.925 474.574 469.62C475.779 468.686 477.013 470.682 475.837 471.597Z" fill="#D88185"/>
<path d="M528.853 533.69C525.94 535.346 523.046 537.031 520.162 538.669C518.846 539.428 517.583 537.451 518.899 536.692C521.812 535.036 524.706 533.35 527.59 531.713C528.906 530.954 530.169 532.931 528.853 533.69Z" fill="#D88185"/>
</g>
<defs>
<clipPath id="clip0_106_1329">
<rect width="493.12" height="711.367" fill="white" transform="matrix(-0.538381 -0.842702 -0.842702 0.538381 864.957 553.553)"/>
</clipPath>
</defs>
</svg>
