<svg width="455" height="709" viewBox="0 0 455 709" fill="none" xmlns="http://www.w3.org/2000/svg">
<ellipse cx="232" cy="684.5" rx="221" ry="24.5" fill="#3A3B3C" fill-opacity="0.32"/>
<g clip-path="url(#clip0_35_1259)">
<path d="M444.938 604.807C443.331 602.222 441.619 599.707 439.837 597.227C428.377 618.395 406.051 633.729 381.943 635.685C373.768 636.349 365.103 635.475 358.395 630.76C348.857 624.123 345.502 611.199 346.83 599.672C348.158 588.146 353.294 577.457 357.766 566.734C376.318 521.954 385.018 458.976 388.023 408.118C387.464 406.651 386.905 405.184 386.276 403.717C381.21 391.562 374.292 380.21 365.907 370.045C364.719 369.87 363.705 369.102 363.845 367.879L364.823 368.718C365.208 369.172 365.557 369.626 365.907 370.08C367.129 370.255 368.597 369.87 369.261 368.753C370.588 366.587 369.715 363.793 368.806 361.452C356.508 329.177 343.127 296.972 337.397 262.881C330.619 222.502 334.706 179.888 320.032 141.64C313.149 123.686 302.388 107.514 291.173 91.9003C288.168 87.7087 285.094 83.5521 281.215 80.1989C271.433 71.8158 257.842 69.72 244.984 68.9865C231.358 68.1831 217.697 68.4975 204.141 69.8946L190.41 72.2699C180.208 75.0642 169.691 77.9983 161.376 84.5651C145.409 97.1397 141.496 119.39 139.924 139.649C137.094 176.5 138.351 213.525 139.47 250.481C139.784 260.541 140.063 270.74 138.002 280.59C135.242 293.863 128.429 305.879 123.258 318.384C122.105 321.178 121.022 324.113 121.127 327.151C121.197 328.968 121.721 330.784 121.651 332.6C121.511 336.862 118.367 340.32 115.502 343.498C107.64 352.196 100.583 361.662 94.5385 371.722C93.6301 373.224 92.7915 374.9 92.0578 376.612C94.6084 387.51 94.3288 399.072 91.0796 409.76C88.8784 417.025 85.3496 423.872 83.2882 431.172C79.4799 444.69 80.8076 459.046 82.1702 473.018C84.8255 500.053 87.4459 527.089 90.1013 554.124C91.0097 563.381 91.9181 572.742 90.3109 581.893C88.7037 591.045 84.3015 600.092 76.58 605.226C72.5272 607.951 67.7406 609.453 62.954 610.431C54.1145 612.247 44.751 612.317 36.2259 609.418C32.0333 607.986 28.0503 605.75 24.6263 602.886C24.3468 612.352 25.7793 621.643 29.7274 630.41C37.2741 647.142 52.6121 658.843 67.4611 669.671C70.4658 671.872 73.6801 674.142 77.3836 674.422C81.0871 674.701 85.2797 672.117 85.2448 668.379C112.182 679.836 142.265 680.709 171.543 681.408C184.191 681.722 196.944 682.002 209.452 680.08C216.963 678.928 224.3 676.972 231.638 675.016C242.084 672.221 252.531 669.462 263.012 666.667C261.824 666.004 260.637 665.375 259.484 664.676L263.641 666.493C263.432 666.563 263.222 666.598 263.012 666.667C298.51 686.682 341.135 696.253 380.441 685.809C399.762 680.674 417.581 670.964 434.351 660.101C441.444 655.49 448.711 650.285 452.205 642.601C457.725 630.445 452.1 616.194 445.008 604.877L444.938 604.807Z" fill="#FEB2B6"/>
<path d="M346.831 599.672C345.504 611.199 348.858 624.123 358.396 630.76C365.104 635.44 373.804 636.314 381.945 635.685C406.052 633.729 428.378 618.395 439.838 597.227C427.4 579.902 411.223 565.267 392.706 554.683C391.937 554.264 391.134 553.775 390.644 553.076C389.771 551.784 390.12 550.037 390.505 548.501C394.593 531.385 395.082 513.676 395.536 496.071C395.78 487.234 395.99 478.397 396.235 469.525C396.444 460.897 396.689 452.269 396.025 443.642C395.082 431.521 392.356 419.54 388.059 408.153C385.019 459.011 376.355 521.989 357.802 566.769C353.365 577.492 348.194 588.181 346.866 599.707L346.831 599.672Z" fill="#D88185"/>
<path d="M62.9203 610.361C67.7069 609.383 72.4585 607.881 76.5464 605.156C84.2678 599.987 88.705 590.94 90.2772 581.823C91.8495 572.707 90.976 563.31 90.0676 554.054C87.4123 527.019 84.7919 499.983 82.1365 472.947C80.7739 458.976 79.4463 444.62 83.2546 431.102C85.3159 423.802 88.8098 416.955 91.0459 409.69C94.2952 398.967 94.5747 387.405 92.0242 376.542C89.3339 382.934 88.4604 390.199 93.6663 394.076C75.0789 416.466 64.8769 445.633 65.4009 474.694L65.925 477.069C64.6672 504 50.028 528.136 38.5681 552.552C31.196 568.236 25.0818 585.77 24.5927 602.816C27.9817 605.68 31.9647 607.916 36.1923 609.348C44.7522 612.247 54.0808 612.177 62.9203 610.361Z" fill="#D88185"/>
<path d="M363.845 367.879C363.705 369.137 364.718 369.87 365.906 370.045C365.522 369.591 365.172 369.137 364.823 368.683L363.845 367.844V367.879Z" fill="#FEB2B6"/>
<path d="M259.377 664.571C260.53 665.27 261.718 665.899 262.906 666.562C263.116 666.493 263.325 666.458 263.535 666.388L259.377 664.571Z" fill="#FEB2B6"/>
<path d="M127.1 579.762C123.991 567.851 120.846 555.975 117.737 544.064C115.78 536.589 113.788 529.079 113.229 521.36C112.496 511.545 114.033 501.66 116.199 492.054C122.348 464.495 133.249 438.262 144.115 412.205C147.26 404.695 150.404 397.115 154.981 390.339C161.375 380.838 170.249 373.293 179.054 365.958C189.221 357.505 199.912 348.947 212.665 345.524C218.744 343.883 225.103 343.498 231.392 343.603C244.075 343.813 257.176 346.153 267.553 353.453C275.135 358.798 280.76 366.447 286.141 373.992C304.623 399.98 321.918 427.015 334.566 456.251C347.213 485.522 355.109 517.238 354.096 549.094C353.712 561.04 352.035 573.196 346.759 583.954C341.483 594.677 332.19 603.899 320.625 606.903C310.842 609.418 300.396 607.427 290.543 609.627C282.297 611.444 275.03 616.089 267.938 620.63C265.667 622.097 263.221 623.599 260.496 623.459C258.469 623.355 251.831 627.861 250.049 626.882C211.477 605.331 170.494 587.901 127.065 579.658L127.1 579.762Z" fill="#FFE5B8"/>
<path d="M263.257 148.486C262.943 156.555 269.197 163.715 276.604 166.964C282.019 169.374 292.92 170.143 301.515 170.422C303.611 159.07 303.227 147.299 300.327 136.121C299.349 132.349 297.986 128.576 296.239 125.013C287.05 125.747 277.862 128.227 270.944 134.2C266.751 137.833 263.467 142.897 263.257 148.451V148.486Z" fill="#E25243"/>
<path d="M276.601 166.964C269.229 163.68 262.94 156.555 263.255 148.486C263.464 142.932 266.748 137.867 270.941 134.235C277.859 128.262 287.048 125.782 296.237 125.048C292.638 117.818 287.292 111.531 279.781 108.387C274.959 106.361 269.613 105.802 264.338 105.662C259.551 105.558 254.765 105.802 250.013 106.396L244.318 106.85C226.115 108.003 208.017 110.238 190.093 113.452C183.664 114.604 177.236 115.932 171.296 118.551C165.357 121.171 159.906 125.223 156.797 130.777C155.469 133.152 154.596 135.737 154.002 138.357C163.225 138.182 172.589 139.789 180.066 145.028C184.608 148.242 188.346 152.957 189.115 158.441C190.198 166.44 184.678 174.159 177.655 178.141C172.03 181.32 165.636 182.612 159.207 183.486C160.745 185.616 162.527 187.572 164.728 189.074C167.278 190.821 170.178 191.904 173.148 192.847C198.828 200.846 226.604 195.257 253.577 194.523C263.499 194.244 273.562 194.628 283.17 192.323C287.048 191.38 290.926 189.948 293.896 187.363C298.019 183.73 299.905 178.316 301.058 173.042C301.268 172.168 301.408 171.295 301.547 170.422C292.952 170.108 282.052 169.374 276.636 166.964H276.601Z" fill="#FFE5B8"/>
<path d="M189.047 158.476C188.278 152.992 184.54 148.241 179.998 145.063C172.521 139.788 163.157 138.217 153.933 138.391C153.409 140.627 153.06 142.897 152.746 145.133C151.802 152.014 151.208 159.035 152.256 165.916C152.92 170.212 154.178 174.404 156.065 178.316C156.938 180.132 157.951 181.879 159.139 183.52C165.568 182.647 171.962 181.355 177.587 178.176C184.61 174.194 190.165 166.475 189.047 158.476Z" fill="#E25243"/>
<path d="M228.108 137.902C223.81 137.937 219.373 138.007 215.53 140.033C211.687 142.024 208.577 146.495 209.171 151.315C209.73 155.577 213.049 159 216.683 160.362C220.316 161.759 224.23 161.48 228.003 161.026C232.755 160.397 237.541 159.454 241.839 157.148C243.062 156.52 244.215 155.751 245.123 154.634C247.429 151.769 247.114 146.949 245.018 143.701C242.887 140.487 239.358 138.741 235.864 138.321C235.864 138.321 230.099 137.867 228.073 137.867L228.108 137.902Z" fill="#3A3B3C"/>
<path d="M198.164 159C198.374 160.886 195.509 162.807 191.701 163.261C187.927 163.715 184.643 162.563 184.433 160.641C184.224 158.755 187.089 156.834 190.897 156.38C194.705 155.926 197.955 157.079 198.164 159Z" fill="#E86B53"/>
<path d="M184.295 131.545C184.19 131.196 184.051 130.846 183.806 130.462C181.046 126.201 171.508 124.664 167.42 127.074C165.952 127.947 165.463 129.275 165.603 130.602C165.149 132.837 167.56 135.003 169.691 135.632C169.726 135.632 169.761 135.632 169.796 135.632C171.298 136.226 173.324 136.68 175.176 136.645C177.797 136.819 180.487 136.505 182.548 135.108C183.841 134.235 184.645 132.942 184.26 131.475L184.295 131.545Z" fill="#FEB2B6"/>
<path d="M160.536 151.56C161.514 152.468 162.492 153.377 163.506 154.285C164.554 155.228 165.986 153.621 164.973 152.643C163.995 151.735 163.016 150.827 162.003 149.919C160.955 148.975 159.523 150.582 160.536 151.56Z" fill="#3C3C3D"/>
<path d="M168.99 147.508C169.094 148.661 169.199 149.848 169.339 151.001C169.479 152.398 171.645 152.259 171.54 150.861C171.435 149.709 171.331 148.521 171.191 147.368C171.051 145.971 168.885 146.111 168.99 147.508Z" fill="#3C3C3D"/>
<path d="M178.179 149.569C177.201 150.442 176.258 151.35 175.28 152.224C174.231 153.167 175.874 154.634 176.922 153.691C177.9 152.817 178.843 151.909 179.822 151.036C180.87 150.093 179.228 148.626 178.179 149.569Z" fill="#3C3C3D"/>
<path d="M180.732 159.769C180.732 165.322 176.295 169.863 170.705 169.898C165.149 169.898 160.607 165.462 160.572 159.873C160.537 154.285 165.01 149.779 170.6 149.744C176.19 149.709 180.697 154.18 180.732 159.769Z" fill="white"/>
<path d="M177.449 160.187C177.449 163.715 174.619 166.615 171.055 166.649C167.526 166.649 164.626 163.82 164.591 160.257C164.591 156.729 167.421 153.83 170.985 153.795C174.549 153.76 177.414 156.625 177.449 160.187Z" fill="#3C3C3D"/>
<path d="M173.602 158.057C173.602 159.244 172.659 160.188 171.506 160.188C170.318 160.188 169.375 159.244 169.375 158.092C169.375 156.904 170.318 155.961 171.471 155.961C172.624 155.961 173.602 156.904 173.602 158.057Z" fill="white"/>
<path d="M233.942 166.754C236.073 170.072 240.126 171.609 243.934 170.387C247.987 169.059 250.258 164.973 250.398 160.886C250.433 159.349 248.057 159.349 248.022 160.886C247.917 163.82 246.415 166.859 243.55 167.977C240.79 169.059 237.645 168.047 236.038 165.532C235.2 164.239 233.138 165.427 233.977 166.719L233.942 166.754Z" fill="#3A3B3C"/>
<path d="M295.96 139.789C294.982 140.697 294.004 141.605 292.99 142.513C291.942 143.457 290.51 141.85 291.523 140.872C292.501 139.964 293.479 139.055 294.493 138.147C295.541 137.204 296.973 138.811 295.96 139.789Z" fill="#3C3C3D"/>
<path d="M287.507 135.737C287.403 136.89 287.298 138.077 287.158 139.23C287.018 140.627 284.852 140.487 284.957 139.09C285.062 137.938 285.167 136.75 285.306 135.597C285.446 134.2 287.612 134.34 287.507 135.737Z" fill="#3C3C3D"/>
<path d="M278.32 137.798C279.298 138.671 280.242 139.579 281.22 140.452C282.268 141.396 280.626 142.863 279.578 141.919C278.6 141.046 277.656 140.138 276.678 139.265C275.63 138.322 277.272 136.855 278.32 137.798Z" fill="#3C3C3D"/>
<path d="M275.768 148.032C275.768 153.586 280.206 158.127 285.796 158.162C291.386 158.197 295.893 153.726 295.928 148.137C295.928 142.583 291.491 138.042 285.901 138.007C280.31 137.972 275.803 142.443 275.768 148.032Z" fill="white"/>
<path d="M279.051 148.416C279.051 151.944 281.881 154.843 285.444 154.878C288.973 154.878 291.873 152.049 291.908 148.486C291.908 144.958 289.078 142.059 285.514 142.024C281.985 142.024 279.086 144.853 279.051 148.416Z" fill="#3C3C3D"/>
<path d="M282.892 146.286C282.892 147.473 283.836 148.416 284.989 148.416C286.177 148.416 287.12 147.473 287.12 146.321C287.12 145.133 286.177 144.19 285.024 144.19C283.836 144.19 282.892 145.133 282.892 146.286Z" fill="white"/>
<path d="M260.32 123.197C260.355 122.848 260.495 122.464 260.67 122.079C262.941 117.539 272.304 115.024 276.602 116.945C278.174 117.643 278.803 118.901 278.803 120.263C279.502 122.464 277.336 124.839 275.274 125.712C275.239 125.712 275.204 125.712 275.169 125.747C273.737 126.515 271.78 127.179 269.929 127.354C267.343 127.808 264.653 127.773 262.417 126.62C261.054 125.887 260.111 124.664 260.32 123.197Z" fill="#FEB2B6"/>
<path d="M273.951 152.992C274.161 154.878 271.296 156.799 267.487 157.253C263.679 157.707 260.43 156.555 260.22 154.634C260.011 152.747 262.875 150.826 266.684 150.372C270.457 149.918 273.741 151.071 273.951 152.992Z" fill="#E86B53"/>
<path d="M176.118 45.4436C172.903 47.1901 168.571 46.6312 165.916 44.0814C164.728 42.9636 163.854 41.3918 163.959 39.785C164.064 37.5495 165.881 35.7332 167.977 34.9298C170.039 34.1264 172.344 34.1963 174.581 34.2312C172.694 31.5416 171.122 28.5377 170.807 25.2543C170.528 21.9709 171.751 18.443 174.476 16.6267C177.935 14.3562 182.477 15.3343 186.46 16.4171C184.538 12.8892 186.46 7.85934 190.198 6.46215C193.971 5.06497 198.688 7.5799 199.562 11.5269C199.562 6.56694 202.671 1.32749 207.528 0.209747C212.384 -0.908002 218.009 3.70271 216.751 8.523C219.127 6.42722 221.608 4.29651 224.648 3.38834C227.687 2.48017 231.426 3.14384 233.173 5.79849C235.024 8.66272 233.906 12.4351 232.614 15.6137C236.387 12.8543 242.361 13.9371 244.982 17.8143C247.567 21.6915 246.275 27.6295 242.257 30.0746C247.532 29.3061 252.948 34.4059 252.214 39.6802C251.48 44.9895 244.423 48.3079 240.021 45.269L176.118 45.5135V45.4436Z" fill="#4EB0A9"/>
<path d="M227.656 227.043C229.753 301.198 235.727 375.284 245.51 448.846C245.824 451.151 246.244 453.666 248.095 455.098C249.493 456.181 251.345 456.356 253.092 456.426C264.691 457.089 276.326 456.53 287.82 454.784C289.393 454.539 291.07 454.225 292.118 453.037C293.201 451.85 293.306 450.103 293.376 448.496C293.865 431.521 290.86 414.685 288.519 397.883C285.025 372.734 283.069 347.34 282.65 321.946C282.091 288.519 284.152 254.882 279.365 221.768C279.086 219.917 278.736 217.926 277.304 216.703C275.312 214.992 272.273 215.656 269.757 216.424C255.991 220.581 240.968 220.895 227.202 225.052L227.691 227.043H227.656Z" fill="#E25243"/>
<path d="M127.903 579.867C117.771 578.889 107.464 579.448 97.4717 581.439C100.581 576.164 101.979 570.086 104.739 564.637C108.303 557.512 115.186 548.989 117.002 541.235C119.623 553.809 124.549 570.541 128.462 579.832H127.903V579.867Z" fill="#D88185"/>
<path d="M196.351 74.7491C197.644 83.6911 198.762 92.668 199.74 101.68C204.248 101.226 208.72 100.667 213.192 100.073C212.982 90.8866 211.62 81.7001 210.571 72.6184C205.785 73.3869 201.033 74.1204 196.351 74.7491Z" fill="#E86B53"/>
<path d="M226.991 84.5646C226.747 79.8491 226.991 74.7493 225.629 70.2085C223.532 70.5229 221.436 70.8023 219.41 71.1516C217.453 71.466 215.497 71.7803 213.575 72.0947C214.623 81.2113 215.986 90.4328 216.23 99.6192C220.004 99.0953 223.742 98.5015 227.515 97.9077C228.005 93.5415 227.271 88.826 227.026 84.5646H226.991Z" fill="#E86B53"/>
<path d="M179.231 76.6007C181.432 85.2283 183.074 93.9608 184.157 102.798C188.35 102.623 192.543 102.309 196.7 101.925C195.757 92.9478 194.639 84.0407 193.346 75.0988C188.629 75.6926 183.913 76.2165 179.196 76.5658L179.231 76.6007Z" fill="#E86B53"/>
<path d="M164.902 93.4714C163.959 88.0224 162.736 82.748 162.596 77.2291C160.15 77.2291 157.67 77.1243 155.189 76.9846C155.189 85.3677 156.517 93.9255 157.425 102.274C160.22 102.518 163.015 102.728 165.81 102.867C165.81 102.798 165.81 102.763 165.775 102.693C164.972 99.9334 165.426 96.4055 164.902 93.4714Z" fill="#E86B53"/>
<path d="M165.604 77.1945C165.743 81.8052 166.617 86.2413 167.455 90.7822C167.665 91.83 168.538 102.239 168.748 102.344C169.028 102.519 169.202 102.728 169.307 102.938C173.255 103.042 177.168 103.008 181.116 102.903C179.998 94.1005 178.356 85.403 176.155 76.8103C172.661 77.0199 169.132 77.1596 165.569 77.1945H165.604Z" fill="#E86B53"/>
<path d="M223.32 67.484C232.299 66.0169 241.872 65.004 251.48 63.7116C251.864 63.4671 252.354 63.3972 252.773 63.5369C260.739 62.4541 268.705 61.1617 276.391 59.2755C276.531 59.2056 276.706 59.1707 276.845 59.1707C277.125 59.1009 277.439 58.9961 277.719 58.9262C275.937 56.3065 273.771 53.9313 271.29 51.8704C266.853 48.2727 261.507 45.7228 256.092 43.5572C241.697 37.7239 226.15 33.8467 210.462 34.3707C194.775 34.8946 178.913 40.2039 167.977 50.6129C163.644 54.6997 160.186 59.4851 156.727 64.2355C154.456 67.3442 152.185 70.453 149.948 73.5617C174.965 75.902 198.373 71.5707 223.389 67.484H223.32Z" fill="#E86B53"/>
<path d="M236.531 68.8113C233.875 69.1256 231.255 69.4749 228.67 69.8242C229.997 74.5397 229.753 79.7443 230.032 84.5995C230.277 88.826 230.871 93.1922 230.556 97.4536C233.701 96.9296 236.88 96.4057 240.025 95.8468C240.025 87.0096 237.789 77.5088 236.566 68.8113H236.531Z" fill="#E86B53"/>
<path d="M145.163 76.042C143.975 77.02 143.277 78.5569 143.521 80.2685L145.443 93.1575C146.107 97.7682 149.81 101.366 154.422 101.925C153.479 93.5767 152.221 85.0888 152.221 76.7406C149.915 76.5659 147.574 76.3214 145.198 76.042H145.163Z" fill="#E86B53"/>
<path d="M281.775 85.9617C285.059 83.7961 286.911 79.884 286.317 75.8321L284.43 63.1527C284.29 62.1048 283.801 61.2315 283.137 60.5679C281.6 61.022 280.063 61.476 278.525 61.8603C279.748 69.8591 280.831 77.893 281.775 85.9617Z" fill="#E86B53"/>
<path d="M250.994 66.9599C247.151 67.4838 243.307 67.9728 239.499 68.4269C240.687 77.0545 242.888 86.4855 242.993 95.3227C243.657 95.2179 244.321 95.0782 244.984 94.9734C247.884 94.4844 250.784 93.9605 253.684 93.4365C253.509 89.6641 252.601 85.2281 252.461 83.0624C252.077 77.6833 251.902 72.2342 251.029 66.9249L250.994 66.9599Z" fill="#E86B53"/>
<path d="M265.355 64.7594C266.683 73.2473 267.801 81.7352 268.814 90.258C272.203 89.4197 275.592 88.4766 278.911 87.3588C277.933 79.1154 276.85 70.8721 275.592 62.6287C272.238 63.432 268.814 64.1306 265.355 64.7594Z" fill="#E86B53"/>
<path d="M262.455 65.2483C259.66 65.7373 256.83 66.1565 254 66.5407C254.978 72.4089 255.188 78.4168 255.572 84.3548C255.712 86.6252 256.376 89.8038 256.655 92.8427C259.765 92.2489 262.839 91.6202 265.914 90.9216C264.901 82.3988 263.783 73.9109 262.455 65.4579C262.455 65.388 262.455 65.3182 262.455 65.2134V65.2483Z" fill="#E86B53"/>
<path d="M278.142 59.4503H278.072C278.072 59.4503 277.828 59.101 277.688 58.9264C277.408 58.9963 277.094 59.101 276.814 59.1709C276.675 59.1709 276.5 59.2408 276.36 59.2757C268.674 61.1619 260.708 62.4543 252.742 63.5371C252.322 63.3974 251.868 63.4672 251.449 63.7117C241.841 65.0041 232.268 66.0171 223.288 67.4841C198.272 71.5709 174.863 75.9022 149.847 73.5619C149.498 74.0509 149.149 74.5399 148.799 74.994C147.402 74.7844 146.109 75.2385 145.131 76.0419C147.472 76.3213 149.813 76.5659 152.153 76.7405C152.153 85.0887 153.446 93.5766 154.355 101.925H154.424C155.403 102.03 156.416 102.099 157.394 102.204C156.451 93.8211 155.193 85.2983 155.158 76.9152C157.639 77.0549 160.119 77.1247 162.565 77.1597C162.705 82.6785 163.963 87.9878 164.871 93.4019C165.36 96.3011 164.941 99.8639 165.745 102.623C165.745 102.693 165.745 102.728 165.779 102.798C166.967 102.833 168.12 102.868 169.308 102.903C169.203 102.658 169.029 102.449 168.749 102.309C168.54 102.169 167.666 91.7602 167.457 90.7473C166.618 86.2414 165.71 81.7704 165.605 77.1597C169.134 77.1597 172.662 77.0199 176.191 76.7754C178.427 85.3681 180.069 94.0656 181.152 102.868C182.166 102.868 183.144 102.798 184.157 102.763C183.039 93.9259 181.432 85.1935 179.231 76.5659C183.948 76.2166 188.629 75.6926 193.381 75.0988C194.674 84.0059 195.792 92.9479 196.735 101.925C197.748 101.82 198.727 101.75 199.74 101.645C198.796 92.6335 197.678 83.6566 196.351 74.7146C201.032 74.0858 205.784 73.3523 210.571 72.5839C211.619 81.7005 212.981 90.8521 213.191 100.039C214.204 99.8988 215.183 99.7591 216.196 99.6194C215.951 90.4329 214.589 81.2115 213.541 72.0949C215.462 71.7805 217.419 71.4661 219.375 71.1518C221.437 70.8025 223.498 70.523 225.594 70.2087C226.957 74.7495 226.712 79.8492 226.957 84.5647C227.201 88.8611 227.935 93.5417 227.446 97.9079C228.459 97.7332 229.473 97.5586 230.486 97.4188C230.8 93.1574 230.206 88.7912 229.962 84.5647C229.682 79.7095 229.962 74.505 228.599 69.7895C231.185 69.4402 233.84 69.0909 236.46 68.7765C237.683 77.474 239.919 86.9749 239.919 95.8121C240.932 95.6374 241.911 95.4628 242.924 95.2881C242.819 86.4509 240.618 77.0199 239.43 68.3923C243.238 67.9382 247.082 67.4492 250.925 66.9253C251.798 72.2346 252.008 77.6836 252.357 83.0628C252.497 85.1935 253.405 89.6645 253.58 93.4369C254.558 93.2622 255.537 93.0526 256.55 92.878C256.305 89.8042 255.642 86.6256 255.467 84.3901C255.048 78.4521 254.838 72.4442 253.895 66.576C256.725 66.1918 259.555 65.7377 262.35 65.2836C262.35 65.3534 262.35 65.4233 262.35 65.5281C263.677 73.9811 264.795 82.5039 265.809 90.9918C266.787 90.7473 267.765 90.5377 268.743 90.2932C267.73 81.7704 266.612 73.2825 265.285 64.7946C268.743 64.1658 272.133 63.4672 275.522 62.6639C276.779 70.8723 277.862 79.1157 278.841 87.394C278.98 87.3591 279.12 87.2893 279.295 87.2543C280.168 86.94 280.972 86.5208 281.706 86.0318C280.727 77.998 279.679 69.9642 278.456 61.9303C280.029 61.5112 281.566 61.092 283.068 60.6379C281.811 59.3805 279.924 58.8565 278.107 59.5202L278.142 59.4503Z" fill="#E25243"/>
<path d="M165.323 64.3755V64.0611C165.323 62.5242 162.948 62.5242 162.948 64.0611V64.3755C162.948 65.9124 165.323 65.9124 165.323 64.3755Z" fill="#E25243"/>
<path d="M184.088 51.661C185.625 51.661 185.625 49.2858 184.088 49.2858C182.551 49.2858 182.551 51.661 184.088 51.661Z" fill="#E25243"/>
<path d="M186.776 69.51C188.314 69.51 188.314 67.1348 186.776 67.1348C185.239 67.1348 185.239 69.51 186.776 69.51Z" fill="#E25243"/>
<path d="M199.847 56.4466C199.847 56.4466 200.056 56.6562 200.161 56.761C201.244 57.8438 202.921 56.1672 201.838 55.0843C201.734 54.9796 201.629 54.8748 201.524 54.77C200.441 53.6872 198.764 55.3638 199.847 56.4466Z" fill="#E25243"/>
<path d="M205.856 45.0243H206.171C207.708 45.0243 207.708 42.649 206.171 42.649H205.856C204.319 42.649 204.319 45.0243 205.856 45.0243Z" fill="#E25243"/>
<path d="M214.905 62.2447C216.442 62.2447 216.442 59.8695 214.905 59.8695C213.368 59.8695 213.368 62.2447 214.905 62.2447Z" fill="#E25243"/>
<path d="M225.489 51.3817C227.026 51.3817 227.026 49.0065 225.489 49.0065C223.952 49.0065 223.952 51.3817 225.489 51.3817Z" fill="#E25243"/>
<path d="M234.328 44.6754C234.328 44.6754 234.538 44.8849 234.643 44.9897C235.726 46.0725 237.403 44.3959 236.32 43.3131C236.215 43.2083 236.11 43.1035 236.005 42.9987C234.922 41.9159 233.245 43.5925 234.328 44.6754Z" fill="#E25243"/>
<path d="M240.897 59.8344C242.434 59.8344 242.434 57.4592 240.897 57.4592C239.36 57.4592 239.36 59.8344 240.897 59.8344Z" fill="#E25243"/>
<path d="M258.121 54.0714C259.658 54.0714 259.658 51.6962 258.121 51.6962C256.583 51.6962 256.583 54.0714 258.121 54.0714Z" fill="#E25243"/>
<path d="M211.727 259.562C215.43 278.005 235.904 270.391 248.447 267.666C252.605 266.758 259.523 266.269 263.087 263.894C269.97 259.318 268.817 249.433 269.096 242.167C269.48 232.736 268.817 223.375 267.349 214.084C263.925 214.678 260.501 215.307 257.042 215.9C249.111 217.298 241.18 218.695 233.249 220.127C226.925 220.825 220.636 221.594 214.522 223.131V223.305C214.242 223.34 213.928 223.41 213.614 223.445C211.867 234.623 209.456 248.525 211.692 259.562H211.727Z" fill="#E86B53"/>
<path d="M267.942 264.697C291.176 260.68 314.375 256.628 337.4 251.668C339.566 230.606 339.636 211.569 330.342 201.859C310.462 206.26 290.442 209.962 270.388 213.56C271.226 218.415 271.96 223.48 272.414 228.65C281.184 226.554 289.883 224.318 298.548 221.908C300.435 221.384 301.238 224.318 299.352 224.807C290.477 227.252 281.603 229.558 272.659 231.689C272.938 235.566 273.043 239.443 272.868 243.25C276.292 242.936 279.716 242.412 283.105 241.713C284.992 241.294 285.796 244.228 283.909 244.613C280.205 245.416 276.467 245.94 272.694 246.289C272.344 250.97 271.611 255.545 270.318 259.807C267.907 267.666 257.88 269.797 249.11 271.054C249.215 289.497 249.32 307.94 249.424 326.383C249.424 328.339 246.42 328.339 246.42 326.383C246.315 308.08 246.21 289.777 246.105 271.473C244.184 271.718 242.367 271.962 240.795 272.242C239.292 272.521 237.545 272.906 235.694 273.29C235.204 284.537 234.156 295.715 232.549 306.857C232.27 308.778 229.37 307.94 229.649 306.054C231.187 295.4 232.165 284.677 232.654 273.918C224.059 275.7 213.927 276.853 210.188 268.889C207.708 263.579 208.267 256.139 208.476 250.236C204.039 251.843 199.602 253.38 195.095 254.812C193.243 255.406 192.44 252.507 194.291 251.913C199.078 250.376 203.83 248.734 208.581 247.023C208.686 243.145 208.896 239.268 209.245 235.426C199.288 237.941 189.225 238.954 178.953 238.395C177.032 238.29 176.997 235.251 178.953 235.356C189.33 235.915 199.497 234.902 209.56 232.212C209.839 229.453 210.223 226.659 210.608 223.899C198.659 225.611 186.64 226.729 174.586 226.17C161.868 225.576 149.256 223.096 136.992 219.638C132.24 237.976 134.861 253.834 138.32 269.447C150.968 272.906 163.93 275.351 177.032 275.979C189.61 276.573 202.153 275.42 214.661 273.674C214.87 331.692 217.386 389.745 222.312 447.554C222.522 449.859 222.836 452.409 224.583 453.911C225.911 455.064 227.763 455.308 229.509 455.483C241.039 456.705 252.744 456.705 264.273 455.483C265.846 455.308 267.558 455.064 268.676 453.946C269.794 452.793 270.003 451.082 270.143 449.475C271.436 432.569 269.235 415.593 267.697 398.687C265.426 373.398 264.658 347.934 265.426 322.575C266.02 303.294 267.488 283.978 268.012 264.697H267.942Z" fill="#E86B53"/>
<path d="M178.956 235.321C177 235.216 177.035 238.255 178.956 238.36C189.228 238.919 199.291 237.906 209.248 235.391C208.899 239.233 208.689 243.11 208.584 246.987C203.868 248.699 199.081 250.341 194.294 251.878C192.443 252.471 193.246 255.406 195.098 254.777C199.57 253.345 204.042 251.773 208.479 250.201C208.27 256.104 207.711 263.579 210.191 268.853C213.93 276.817 224.062 275.665 232.657 273.883C232.168 284.642 231.19 295.33 229.652 306.019C229.373 307.905 232.308 308.743 232.552 306.822C234.159 295.679 235.207 284.502 235.697 273.255C237.548 272.835 239.295 272.451 240.798 272.207C242.37 271.927 244.187 271.683 246.108 271.438C246.213 289.741 246.318 308.044 246.423 326.348C246.423 328.304 249.462 328.304 249.427 326.348C249.323 307.905 249.218 289.462 249.113 271.019C257.883 269.797 267.91 267.666 270.321 259.772C271.613 255.51 272.347 250.969 272.697 246.254C276.47 245.905 280.208 245.346 283.912 244.577C285.799 244.158 284.995 241.259 283.108 241.678C279.719 242.412 276.33 242.901 272.871 243.215C273.011 239.408 272.906 235.531 272.662 231.653C281.606 229.523 290.515 227.217 299.355 224.772C301.241 224.248 300.438 221.349 298.551 221.873C289.886 224.283 281.152 226.519 272.417 228.614C271.963 223.445 271.229 218.38 270.391 213.525C269.377 213.7 268.399 213.874 267.386 214.049C268.818 223.34 269.517 232.666 269.133 242.132C268.853 249.398 270.006 259.283 263.123 263.859C259.56 266.234 252.677 266.723 248.484 267.631C235.941 270.39 215.467 277.97 211.764 259.527C209.563 248.489 211.938 234.587 213.685 223.41C212.672 223.55 211.624 223.724 210.611 223.864C210.226 226.623 209.877 229.383 209.563 232.177C199.5 234.832 189.333 235.88 178.956 235.321Z" fill="#E25243"/>
<path d="M153.339 233.679C154.877 233.679 154.877 231.304 153.339 231.304C151.802 231.304 151.802 233.679 153.339 233.679Z" fill="#E25243"/>
<path d="M144.852 263.125V262.706C144.852 261.169 142.476 261.169 142.476 262.706V263.125C142.476 264.662 144.852 264.662 144.852 263.125Z" fill="#E25243"/>
<path d="M167.035 249.013C168.572 249.013 168.572 246.638 167.035 246.638C165.498 246.638 165.498 249.013 167.035 249.013Z" fill="#E25243"/>
<path d="M187.998 268.365C189.535 268.365 189.535 265.989 187.998 265.989C186.461 265.989 186.461 268.365 187.998 268.365Z" fill="#E25243"/>
<path d="M227.515 231.688C229.053 231.688 229.053 229.313 227.515 229.313C225.978 229.313 225.978 231.688 227.515 231.688Z" fill="#E25243"/>
<path d="M224.684 261.099C226.221 261.099 226.221 258.724 224.684 258.724C223.146 258.724 223.146 261.099 224.684 261.099Z" fill="#E25243"/>
<path d="M244.425 242.167C245.962 242.167 245.962 239.792 244.425 239.792C242.888 239.792 242.888 242.167 244.425 242.167Z" fill="#E25243"/>
<path d="M258.928 222.432V222.013C258.928 220.476 256.552 220.476 256.552 222.013V222.432C256.552 223.969 258.928 223.969 258.928 222.432Z" fill="#E25243"/>
<path d="M260.571 260.296C262.108 260.296 262.108 257.92 260.571 257.92C259.034 257.92 259.034 260.296 260.571 260.296Z" fill="#E25243"/>
<path d="M283.137 218.799C284.675 218.799 284.675 216.424 283.137 216.424C281.6 216.424 281.6 218.799 283.137 218.799Z" fill="#E25243"/>
<path d="M301.269 241.748C302.806 241.748 302.806 239.373 301.269 239.373C299.731 239.373 299.731 241.748 301.269 241.748Z" fill="#E25243"/>
<path d="M276.675 258.689C278.212 258.689 278.212 256.314 276.675 256.314C275.138 256.314 275.138 258.689 276.675 258.689Z" fill="#E25243"/>
<path d="M312.136 211.988H311.716C310.179 211.988 310.179 214.363 311.716 214.363H312.136C313.673 214.363 313.673 211.988 312.136 211.988Z" fill="#E25243"/>
<path d="M316.991 250.621C318.528 250.621 318.528 248.245 316.991 248.245C315.454 248.245 315.454 250.621 316.991 250.621Z" fill="#E25243"/>
<path d="M328.278 226.833H328.697C330.235 226.833 330.235 224.458 328.697 224.458H328.278C326.741 224.458 326.741 226.833 328.278 226.833Z" fill="#E25243"/>
<path d="M224.267 283.245C225.805 283.245 225.805 280.87 224.267 280.87C222.73 280.87 222.73 283.245 224.267 283.245Z" fill="#E25243"/>
<path d="M237.192 319.956V320.375C237.192 321.912 239.568 321.912 239.568 320.375V319.956C239.568 318.419 237.192 318.419 237.192 319.956Z" fill="#E25243"/>
<path d="M256.934 281.638C258.471 281.638 258.471 279.262 256.934 279.262C255.396 279.262 255.396 281.638 256.934 281.638Z" fill="#E25243"/>
<path d="M255.33 343.708H255.749C257.286 343.708 257.286 341.332 255.749 341.332H255.33C253.792 341.332 253.792 343.708 255.33 343.708Z" fill="#E25243"/>
<path d="M225.871 343.708C227.408 343.708 227.408 341.332 225.871 341.332C224.333 341.332 224.333 343.708 225.871 343.708Z" fill="#E25243"/>
<path d="M239.99 369.067C241.527 369.067 241.527 366.691 239.99 366.691C238.452 366.691 238.452 369.067 239.99 369.067Z" fill="#E25243"/>
<path d="M226.71 403.752C228.248 403.752 228.248 401.377 226.71 401.377C225.173 401.377 225.173 403.752 226.71 403.752Z" fill="#E25243"/>
<path d="M258.121 387.614C259.658 387.614 259.658 385.239 258.121 385.239C256.583 385.239 256.583 387.614 258.121 387.614Z" fill="#E25243"/>
<path d="M242.398 419.854C243.936 419.854 243.936 417.479 242.398 417.479C240.861 417.479 240.861 419.854 242.398 419.854Z" fill="#E25243"/>
<path d="M233.139 444.829C234.676 444.829 234.676 442.454 233.139 442.454C231.601 442.454 231.601 444.829 233.139 444.829Z" fill="#E25243"/>
<path d="M264.972 438.402C266.509 438.402 266.509 436.027 264.972 436.027C263.435 436.027 263.435 438.402 264.972 438.402Z" fill="#E25243"/>
<path d="M86.1891 358.029C76.7207 370.394 67.2524 382.759 57.8189 395.159C53.4167 400.922 46.7783 409.201 54.9889 414.824C54.4299 412.659 53.8359 410.493 53.2769 408.327C46.0097 417.793 38.9172 427.434 32.1041 437.249C26.0947 445.912 20.1202 453.98 19.3166 464.774C19.072 468.057 22.531 469.943 25.326 469.349C26.2694 469.14 27.2477 468.965 28.191 468.756C26.6537 466.101 25.1164 463.446 23.5442 460.792C7.29773 478.711 -1.12247 501.729 0.13532 525.9C0.240136 528.066 1.53286 529.813 3.62918 530.476C6.10982 531.245 7.26279 531.28 9.7085 530.406C7.75193 528.45 5.79537 526.494 3.83881 524.538C1.42805 535.506 1.95213 551.085 11.3855 558.979C18.6178 565.022 30.7415 561.249 29.8681 550.91C29.344 544.867 19.8407 544.797 20.3648 550.91C16.5565 550.875 14.3553 549.024 13.8313 545.426C13.2024 543.715 12.7831 541.968 12.5385 540.187C11.7699 535.646 12.0144 531.629 13.0277 527.123C13.7264 523.875 10.7916 519.928 7.15798 521.255C6.80859 521.255 6.49415 521.29 6.14476 521.325C7.29773 522.862 8.48565 524.399 9.63862 525.9C8.52058 504.209 15.6481 483.636 30.3223 467.533C33.6065 463.935 30.3572 458.626 25.6754 459.569C24.7321 459.779 23.7538 459.953 22.8105 460.163C24.802 461.7 26.8284 463.237 28.8199 464.739C29.5886 454.33 38.3931 444.654 44.2278 436.411C49.818 428.517 55.5829 420.727 61.4875 413.078C63.1296 410.947 61.6971 407.873 59.7755 406.581C61.5574 407.803 91.3949 366.796 94.3997 362.814C98.1031 357.959 89.8576 353.208 86.1891 357.994V358.029Z" fill="#FEB2B6"/>
<path d="M322.061 606.588L350.012 604.737V593.839L322.061 606.588Z" fill="#D88185"/>
<path d="M265.177 666.772C275.554 666.702 285.931 664.082 295.085 659.192C294.491 658.179 293.023 658.249 291.87 658.424C284.743 659.541 277.58 661.008 270.383 660.589C269.44 660.519 268.461 660.449 267.623 660.869C266.47 661.428 265.876 662.755 265.701 664.012L265.177 666.772Z" fill="#3A3B3C"/>
<path d="M264.583 653.359C274.575 650.53 283.869 645.255 291.381 638.095C290.542 637.292 289.145 637.711 288.096 638.2C281.528 641.169 275.029 644.487 267.972 645.989C267.063 646.199 266.085 646.373 265.386 647.002C264.408 647.84 264.198 649.272 264.373 650.565L264.618 653.359H264.583Z" fill="#3A3B3C"/>
<path d="M266.33 659.612C276.602 658.179 286.525 654.232 294.98 648.19C294.246 647.281 292.814 647.526 291.696 647.84C284.778 649.901 277.895 652.276 270.698 652.8C269.754 652.87 268.776 652.905 267.973 653.429C266.889 654.128 266.47 655.525 266.47 656.817L266.33 659.612Z" fill="#3A3B3C"/>
<path d="M265.46 646.303C262.769 639.422 257.284 633.275 251.379 627.581C251.274 627.546 251.205 627.476 251.1 627.441C249.597 626.813 248.13 626.184 246.698 625.415C244.811 624.437 243.029 623.32 241.177 622.272C249.353 629.747 258.786 637.99 262.385 647.421C263.783 651.089 264.621 655.001 264.551 658.948C264.796 661.672 264.272 664.257 263.084 666.737C263.154 666.772 263.224 666.807 263.293 666.842C264.027 667.331 264.831 667.75 265.634 668.134C266.578 666.632 267.311 665.165 267.556 663.768C268.394 658.529 267.451 651.263 265.495 646.303H265.46Z" fill="#D88185"/>
<path d="M70.7088 573.195C78.6399 585.91 83.4265 600.545 84.5096 615.46C82.8325 615.46 81.7494 613.679 81.0856 612.142C76.9628 602.606 73.2244 592.756 67.1451 584.303C66.3415 583.22 65.503 582.067 65.3283 580.705C65.1187 578.854 66.2716 577.107 67.7041 575.955L70.6739 573.195H70.7088Z" fill="#3A3B3C"/>
<path d="M53.9743 582.801C58.2368 597.157 58.9706 612.526 56.0357 627.196C54.3936 626.777 53.8695 624.751 53.625 623.11C52.1925 612.805 51.2142 602.327 47.5806 592.581C47.1264 591.324 46.6023 589.996 46.777 588.634C47.0565 586.818 48.6287 585.421 50.3407 584.652L53.9394 582.766L53.9743 582.801Z" fill="#3A3B3C"/>
<path d="M62.9196 580.111C69.1037 593.734 71.9337 608.893 71.0603 623.808C69.3832 623.634 68.5796 621.713 68.1254 620.071C65.2954 610.081 62.8846 599.812 57.9583 590.66C57.3294 589.472 56.6306 588.215 56.6306 586.853C56.6306 585.001 58.0282 583.43 59.6004 582.452L62.9196 580.111Z" fill="#3A3B3C"/>
<path d="M126.191 312.935C117.002 320.968 107.779 329.002 98.5897 337.001C94.2923 340.739 89.6105 346.432 92.3357 351.392C85.2432 358.238 80.1072 366.796 75.0062 375.214C63.0222 395.124 51.0033 415.034 39.0194 434.979C29.1667 451.326 19.2442 467.813 12.6408 485.731C6.03736 503.65 2.82301 523.281 6.80601 541.968C7.36503 544.553 8.0638 547.103 9.28665 549.408C10.2999 551.259 11.6275 552.901 12.7805 554.648C15.7503 559.084 17.637 564.149 19.9429 568.969C24.6946 578.784 31.7522 587.936 41.5 592.826C51.2829 597.716 64.0704 597.436 72.246 590.206C78.2205 584.932 81.0156 576.793 81.3999 568.864C81.7842 560.935 80.0373 553.041 78.1506 545.321C73.3291 525.342 67.8088 505.432 65.992 484.963C64.1752 464.494 66.3065 443.117 76.0893 425.059C81.6445 414.754 95.6898 406.232 97.4367 394.67C98.1705 389.71 91.7418 383.737 92.6502 378.812C94.6067 367.774 102.922 359.181 110.224 350.694C117.526 342.206 124.549 331.901 123.152 320.794L126.191 312.935Z" fill="#FEB2B6"/>
<path d="M363.636 600.126C355.705 612.806 350.918 627.476 349.835 642.391C351.512 642.391 352.595 640.61 353.259 639.073C357.382 629.537 361.12 619.687 367.165 611.234C367.968 610.151 368.807 608.999 368.982 607.636C369.191 605.785 368.038 604.039 366.606 602.886L363.636 600.126Z" fill="#3A3B3C"/>
<path d="M380.409 609.732C376.147 624.088 375.413 639.457 378.348 654.128C379.99 653.708 380.514 651.682 380.759 650.041C382.191 639.737 383.17 629.258 386.803 619.512C387.257 618.255 387.782 616.927 387.607 615.565C387.327 613.749 385.755 612.352 384.043 611.583L380.444 609.697L380.409 609.732Z" fill="#3A3B3C"/>
<path d="M371.465 607.042C365.28 620.665 362.45 635.824 363.324 650.739C365.001 650.565 365.805 648.644 366.259 647.002C369.089 637.012 371.5 626.743 376.426 617.591C377.055 616.404 377.754 615.146 377.754 613.784C377.754 611.933 376.356 610.361 374.784 609.383L371.465 607.042Z" fill="#3A3B3C"/>
<path d="M343.829 291.837C352.669 300.605 361.508 309.337 370.348 318.104C384.673 332.286 399.556 347.341 405.356 366.657C405.985 368.683 406.474 370.918 405.601 372.874C404.762 374.83 401.967 375.983 400.43 374.516C416.292 381.083 424.363 398.547 429.848 414.79C433.831 426.561 437.255 438.542 440.679 450.523C442.112 455.588 443.579 460.792 442.915 466.031C442.566 468.756 441.657 471.376 441.588 474.135C441.518 476.895 442.356 479.619 443.125 482.274C448.54 501.52 450.113 521.849 447.667 541.689C446.759 549.094 445.256 556.569 441.588 563.066C437.954 569.563 431.875 575.047 424.538 576.444C419.751 591.883 411.366 606.169 400.255 617.871C398.823 619.373 397.285 620.875 395.364 621.678C392.778 622.761 389.809 622.481 387.014 622.132C374.401 620.665 359.482 617.556 354.73 605.785C350.048 594.258 358.049 581.963 364.234 571.17C385.162 534.494 387.223 490.377 387.957 448.182C388.097 440.149 388.201 432.045 386.245 424.256C384.009 415.384 379.257 407.42 374.925 399.386C357.49 366.866 346.659 330.854 343.27 294.108L343.794 291.907L343.829 291.837Z" fill="#FEB2B6"/>
<path d="M150.685 112.404C148.414 116.595 146.772 121.031 145.828 125.712C145.514 127.214 147.82 127.842 148.134 126.341C149.043 121.87 150.545 117.643 152.746 113.591C153.48 112.229 151.418 111.041 150.685 112.404Z" fill="#D88185"/>
<path d="M147.751 180.132C147.856 184.289 148.24 188.41 148.904 192.497C149.148 193.999 151.454 193.371 151.21 191.869C150.581 187.991 150.232 184.079 150.127 180.132C150.092 178.595 147.716 178.595 147.751 180.132Z" fill="#D88185"/>
<path d="M281.774 97.9429C284.919 99.6196 287.399 102.065 289.146 105.173C289.88 106.501 291.941 105.313 291.208 103.986C289.286 100.563 286.456 97.7683 282.997 95.917C281.635 95.1835 280.447 97.2443 281.809 97.9779L281.774 97.9429Z" fill="#D88185"/>
<path d="M314.303 153.586C315.806 157.777 316.539 162.074 316.539 166.51C316.539 168.047 318.915 168.047 318.915 166.51C318.915 161.829 318.146 157.323 316.609 152.922C316.085 151.49 313.814 152.119 314.303 153.551V153.586Z" fill="#D88185"/>
<path d="M305.322 187.991C305.182 191.624 305.322 195.257 305.636 198.854C305.776 200.356 308.152 200.391 308.012 198.854C307.663 195.222 307.558 191.624 307.698 187.991C307.768 186.454 305.357 186.454 305.322 187.991Z" fill="#D88185"/>
<path d="M179.437 204.618C179.717 208.146 179.962 211.674 180.241 215.167C180.346 216.669 182.722 216.704 182.617 215.167C182.337 211.639 182.093 208.111 181.813 204.618C181.708 203.116 179.333 203.081 179.437 204.618Z" fill="#D88185"/>
<path d="M236.634 204.618L237.018 212.756C237.088 214.293 239.464 214.293 239.394 212.756C239.254 210.032 239.115 207.307 239.01 204.618C238.94 203.081 236.564 203.081 236.634 204.618Z" fill="#D88185"/>
<path d="M150.093 284.118C150.687 287.646 150.582 291.174 149.813 294.667C149.464 296.169 151.77 296.797 152.119 295.295C152.993 291.383 153.097 287.436 152.399 283.489C152.154 281.987 149.848 282.616 150.093 284.118Z" fill="#D88185"/>
<path d="M183.807 299.207C183.911 303.084 183.597 306.857 182.863 310.664C182.584 312.166 184.855 312.795 185.169 311.293C185.973 307.311 186.322 303.294 186.217 299.207C186.182 297.67 183.807 297.67 183.842 299.207H183.807Z" fill="#D88185"/>
<path d="M140.096 340.005C138.873 342.905 137.651 345.839 136.393 348.738C135.799 350.135 137.86 351.358 138.454 349.925C139.677 347.026 140.9 344.092 142.158 341.193C142.752 339.796 140.69 338.573 140.096 340.005Z" fill="#D88185"/>
<path d="M137.619 394.565C136.396 397.779 135.173 400.992 133.95 404.241C133.391 405.673 135.697 406.302 136.256 404.87C137.479 401.656 138.702 398.442 139.925 395.194C140.484 393.762 138.178 393.133 137.619 394.565Z" fill="#D88185"/>
<path d="M101.632 416.292C100.619 420.239 100.165 424.256 100.374 428.342C100.444 429.879 102.82 429.879 102.75 428.342C102.575 424.465 102.96 420.693 103.938 416.92C104.322 415.453 102.016 414.79 101.632 416.292Z" fill="#D88185"/>
<path d="M104.251 471.55C103.448 475.393 102.993 479.235 102.958 483.147C102.958 484.684 105.334 484.684 105.334 483.147C105.369 479.444 105.788 475.812 106.557 472.179C106.871 470.677 104.566 470.048 104.251 471.55Z" fill="#D88185"/>
<path d="M87.0267 383.003C85.2797 385.868 83.6027 388.802 82.0304 391.806C81.3317 393.168 83.3581 394.356 84.0918 392.993C85.6641 390.024 87.3062 387.09 89.0531 384.191C89.8567 382.864 87.7953 381.676 86.9917 383.003H87.0267Z" fill="#D88185"/>
<path d="M60.2642 423.557C58.6221 427.609 57.2245 431.765 56.1414 436.027C55.7571 437.494 58.063 438.157 58.4474 436.655C59.5305 432.394 60.928 428.237 62.5701 424.186C63.1641 422.753 60.8581 422.16 60.2642 423.557Z" fill="#D88185"/>
<path d="M34.0259 452.898C33.6765 456.391 33.3271 459.884 32.9777 463.377C32.838 464.914 35.2138 464.879 35.3536 463.377C35.7029 459.884 36.0523 456.391 36.4017 452.898C36.5415 451.361 34.1656 451.396 34.0259 452.898Z" fill="#D88185"/>
<path d="M52.9991 492.403C52.8244 496.036 53.1389 499.634 53.9075 503.196C54.222 504.698 56.5279 504.07 56.2135 502.568C55.4798 499.214 55.2352 495.861 55.4099 492.403C55.4798 490.866 53.104 490.866 53.0341 492.403H52.9991Z" fill="#D88185"/>
<path d="M11.4566 507.388C10.6181 510.252 10.3735 513.187 10.7229 516.19C10.8976 517.692 13.2734 517.727 13.0987 516.19C12.7842 513.396 12.9589 510.707 13.7276 508.017C14.1468 506.55 11.8409 505.921 11.4216 507.388H11.4566Z" fill="#D88185"/>
<path d="M36.8583 537.043C37.9064 540.536 38.9895 544.029 40.0377 547.522C40.4919 548.989 42.7629 548.36 42.3436 546.893C41.2955 543.4 40.2124 539.907 39.1642 536.414C38.71 534.947 36.439 535.576 36.8583 537.043Z" fill="#D88185"/>
<path d="M62.2243 566.908C63.2025 569.388 63.9363 571.903 64.4254 574.523C64.7049 576.025 67.0109 575.396 66.7313 573.894C66.2422 571.274 65.5085 568.759 64.5302 566.279C63.9712 564.882 61.6652 565.476 62.2243 566.908Z" fill="#D88185"/>
<path d="M294.773 272.8C294.389 276.573 294.284 280.31 294.459 284.083C294.529 285.62 296.904 285.62 296.835 284.083C296.66 280.31 296.765 276.538 297.149 272.8C297.289 271.263 294.913 271.298 294.773 272.8Z" fill="#D88185"/>
<path d="M326.774 305.32C327.857 308.778 329.919 311.642 332.819 313.843C334.042 314.751 335.229 312.69 334.007 311.782C331.631 310.001 329.954 307.521 329.08 304.691C328.626 303.224 326.32 303.853 326.774 305.32Z" fill="#D88185"/>
<path d="M301.062 341.472C302.774 344.441 304.521 347.41 306.233 350.379C307.002 351.707 309.063 350.519 308.295 349.192C306.583 346.223 304.836 343.254 303.124 340.285C302.355 338.957 300.294 340.145 301.062 341.472Z" fill="#D88185"/>
<path d="M339.286 354.815C341.208 358.413 343.584 361.731 346.379 364.7C347.427 365.818 349.104 364.141 348.056 363.024C345.401 360.159 343.199 357.051 341.348 353.593C340.614 352.23 338.588 353.453 339.286 354.78V354.815Z" fill="#D88185"/>
<path d="M332.784 412.275C334.286 416.187 336.278 419.715 338.898 422.998C339.841 424.186 341.518 422.509 340.575 421.322C338.269 418.387 336.417 415.139 335.09 411.646C334.566 410.214 332.26 410.843 332.784 412.275Z" fill="#D88185"/>
<path d="M383.69 354.431C386.765 356.003 389.105 358.553 390.328 361.801C390.852 363.233 393.158 362.605 392.634 361.173C391.237 357.365 388.546 354.222 384.913 352.37C383.55 351.672 382.362 353.733 383.725 354.431H383.69Z" fill="#D88185"/>
<path d="M392.394 403.682C394.246 408.432 395.818 413.288 397.145 418.213C397.53 419.68 399.836 419.051 399.451 417.584C398.124 412.659 396.552 407.804 394.7 403.053C394.141 401.656 391.835 402.25 392.394 403.682Z" fill="#D88185"/>
<path d="M364.403 447.309C364.928 451.326 365.032 455.343 364.718 459.395C364.613 460.932 366.989 460.897 367.094 459.395C367.408 455.343 367.303 451.326 366.779 447.309C366.57 445.807 364.194 445.807 364.403 447.309Z" fill="#D88185"/>
<path d="M358.713 492.299C359.307 496.071 359.866 499.843 360.46 503.616C360.704 505.118 362.976 504.489 362.766 502.987C362.172 499.215 361.613 495.442 361.019 491.67C360.774 490.168 358.503 490.797 358.713 492.299Z" fill="#D88185"/>
<path d="M423.802 449.3C423.767 453.876 424.151 458.417 424.99 462.923C425.269 464.425 427.54 463.796 427.296 462.294C426.527 457.998 426.178 453.666 426.212 449.3C426.212 447.763 423.837 447.763 423.837 449.3H423.802Z" fill="#D88185"/>
<path d="M401.198 496.036C401.407 500.332 401.302 504.628 400.918 508.925C400.778 510.462 403.154 510.427 403.294 508.925C403.678 504.628 403.748 500.332 403.573 496.036C403.504 494.499 401.128 494.499 401.198 496.036Z" fill="#D88185"/>
<path d="M432.673 525.447C432.813 528.939 432.289 532.293 431.031 535.576C430.472 537.008 432.778 537.637 433.337 536.205C434.665 532.747 435.224 529.149 435.049 525.447C434.979 523.91 432.603 523.91 432.673 525.447Z" fill="#D88185"/>
<path d="M403.638 552.517C402.765 556.394 401.332 560.062 399.341 563.52C398.572 564.847 400.634 566.035 401.402 564.707C403.499 561.075 405.001 557.232 405.909 553.146C406.259 551.644 403.953 551.015 403.603 552.517H403.638Z" fill="#D88185"/>
<path d="M369.998 586.923C368.461 590.136 366.958 593.315 365.421 596.528C364.757 597.891 366.819 599.113 367.483 597.716C369.02 594.502 370.522 591.324 372.059 588.11C372.723 586.748 370.662 585.525 369.998 586.923Z" fill="#D88185"/>
<path d="M402.139 597.262C401.021 600.196 399.903 603.13 398.82 606.099C398.296 607.531 400.567 608.16 401.126 606.728C402.244 603.794 403.362 600.86 404.445 597.891C404.969 596.459 402.698 595.83 402.139 597.262Z" fill="#D88185"/>
<path d="M102.224 530.372C101.595 533.55 101.315 536.729 101.385 539.942C101.385 541.479 103.796 541.479 103.761 539.942C103.691 536.938 103.936 533.969 104.53 531C104.809 529.498 102.538 528.87 102.224 530.372Z" fill="#D88185"/>
<path d="M102.576 594.747H115.468C117.005 594.747 117.005 592.372 115.468 592.372H102.576C101.038 592.372 101.038 594.747 102.576 594.747Z" fill="#D88185"/>
<path d="M110.331 626.009C113.79 627.022 117.284 628.035 120.743 629.048C122.21 629.467 122.839 627.196 121.372 626.742C117.913 625.729 114.419 624.716 110.96 623.703C109.492 623.284 108.864 625.555 110.331 626.009Z" fill="#D88185"/>
<path d="M39.0567 624.193C40.5241 627.825 43.0047 630.794 46.3938 632.785C47.7214 633.554 48.9093 631.493 47.5817 630.725C44.7866 629.083 42.5855 626.603 41.3626 623.564C40.8036 622.167 38.4976 622.761 39.0567 624.193Z" fill="#D88185"/>
<path d="M82.6263 649.761C85.2816 651.682 87.9719 653.569 90.6272 655.49C91.885 656.398 93.0729 654.302 91.8151 653.429C89.1598 651.508 86.4695 649.621 83.8142 647.7C82.5564 646.792 81.3685 648.888 82.6263 649.761Z" fill="#D88185"/>
<path d="M134.682 654.092C138.316 656.258 142.264 657.376 146.491 657.516C148.029 657.551 148.029 655.175 146.491 655.14C142.683 655.036 139.154 653.988 135.905 652.032C134.577 651.263 133.389 653.289 134.717 654.092H134.682Z" fill="#D88185"/>
<path d="M138.04 607.671C141.289 607.461 144.539 607.566 147.788 608.02C149.29 608.23 149.919 605.924 148.417 605.715C144.958 605.261 141.499 605.086 138.04 605.296C136.503 605.4 136.503 607.776 138.04 607.671Z" fill="#D88185"/>
<path d="M169.172 634.462C172.456 634.951 175.635 635.685 178.78 636.698C180.247 637.152 180.876 634.881 179.409 634.392C176.264 633.379 173.05 632.646 169.801 632.157C168.298 631.947 167.669 634.218 169.172 634.462Z" fill="#D88185"/>
<path d="M180.836 662.79C183.386 663.593 185.937 664.397 188.487 665.2C189.955 665.654 190.583 663.384 189.116 662.895C186.566 662.091 184.015 661.288 181.464 660.484C179.997 660.03 179.368 662.301 180.836 662.79Z" fill="#D88185"/>
<path d="M179.649 605.435C182.059 606.134 184.47 606.867 186.881 607.566C188.348 607.985 188.977 605.715 187.51 605.261C185.099 604.562 182.688 603.829 180.277 603.13C178.81 602.711 178.181 604.981 179.649 605.435Z" fill="#D88185"/>
<path d="M213.468 632.96C216.123 633.694 218.604 634.846 220.91 636.383C222.202 637.221 223.39 635.161 222.098 634.322C219.617 632.681 216.962 631.458 214.097 630.655C212.629 630.236 212 632.541 213.468 632.96Z" fill="#D88185"/>
<path d="M216.229 659.122C218.709 659.227 221.12 659.541 223.531 660.065C225.033 660.38 225.662 658.074 224.16 657.76C221.539 657.201 218.884 656.852 216.229 656.747C214.691 656.677 214.691 659.052 216.229 659.122Z" fill="#D88185"/>
<path d="M440.428 627.965C438.367 631.458 435.537 634.322 432.043 636.418C430.715 637.221 431.938 639.247 433.231 638.479C437.074 636.173 440.184 633.03 442.49 629.188C443.258 627.86 441.232 626.673 440.428 628V627.965Z" fill="#D88185"/>
<path d="M410.765 660.799C406.748 662.79 402.66 664.606 398.467 666.178C397.035 666.702 397.664 669.008 399.096 668.484C403.498 666.842 407.761 664.991 411.953 662.895C413.316 662.196 412.128 660.17 410.765 660.834V660.799Z" fill="#D88185"/>
<path d="M334.706 652.311C338.34 652.486 341.973 652.416 345.607 652.136C347.109 652.032 347.144 649.656 345.607 649.761C341.973 650.041 338.34 650.076 334.706 649.936C333.169 649.866 333.169 652.241 334.706 652.311Z" fill="#D88185"/>
<path d="M297.916 625.59C302.109 623.948 306.441 623.04 310.948 622.935C312.485 622.935 312.485 620.525 310.948 620.56C306.231 620.665 301.689 621.573 297.287 623.284C295.89 623.843 296.484 626.149 297.916 625.59Z" fill="#D88185"/>
<path d="M303.788 674.387C307.142 674.98 310.496 675.609 313.815 676.203C315.317 676.482 315.946 674.177 314.444 673.898C311.09 673.304 307.736 672.675 304.417 672.081C302.914 671.802 302.285 674.107 303.788 674.387Z" fill="#D88185"/>
</g>
<defs>
<clipPath id="clip0_35_1259">
<rect width="454.342" height="690" fill="white"/>
</clipPath>
</defs>
</svg>
