<svg width="202" height="150" viewBox="0 0 202 150" fill="none" xmlns="http://www.w3.org/2000/svg">
<g clip-path="url(#clip0_73_642)">
<path d="M98.7747 55.7579C96.7236 55.3728 94.8735 54.5569 93.399 53.4384C91.097 51.6944 89.6738 49.2185 89.6738 46.4283C89.6738 43.6381 91.097 41.1622 93.399 39.4182C95.4882 37.8335 98.333 36.8552 101.435 36.8552C104.538 36.8552 107.381 37.8349 109.47 39.4182C111.772 41.1622 113.195 43.6381 113.195 46.4283C113.195 49.2185 111.772 51.6944 109.47 53.4384C107.996 54.5554 106.146 55.3728 104.095 55.7579V62.7149C110.462 61.5655 112.7 56.5193 112.707 56.503C113.31 55.1589 114.883 54.5598 116.219 55.1648C117.556 55.7712 118.152 57.3529 117.549 58.6971C117.537 58.7252 113.291 68.2953 101.435 68.2953C89.5784 68.2953 85.3324 58.7237 85.3207 58.6971C84.7177 57.3529 85.3134 55.7712 86.65 55.1648C87.9866 54.5583 89.5594 55.1589 90.1624 56.503C90.1697 56.5193 92.4071 61.5655 98.7747 62.7149V55.7579ZM88.9916 1.06624e-05H89.4655H113.402H113.876C124.295 1.06624e-05 133.765 4.28488 140.629 11.1873C147.492 18.0897 151.753 27.6141 151.753 38.0917L151.751 38.2835L151.753 38.5697C151.753 38.6789 151.75 38.7881 151.744 38.8944C151.533 49.0562 147.317 58.2707 140.629 64.9961C133.765 71.8985 124.295 76.1833 113.876 76.1833H88.9901C78.5717 76.1833 69.1012 71.8985 62.2377 64.9961C55.5269 58.2471 51.3044 48.9912 51.121 38.7866C51.1166 38.7143 51.1136 38.642 51.1136 38.5683L51.1151 38.282L51.1136 38.0902C51.1136 27.6126 55.3743 18.0882 62.2377 11.1858C69.1012 4.28341 78.5717 -0.00146484 88.9901 -0.00146484L88.9916 1.06624e-05ZM65.5389 15.4441C62.2465 18.8894 59.6922 23.0518 58.1385 27.6672L72.5901 25.572C73.2078 25.482 73.7961 25.4392 74.3521 25.4392C77.1867 25.4392 79.7528 26.4499 81.7247 28.1822C83.6848 29.9056 85.0317 32.3298 85.4381 35.1702C85.5247 35.7796 85.5701 36.3875 85.5701 36.985C85.5701 40.4466 84.2042 43.7783 82.0034 46.356C79.7968 48.9411 76.7304 50.7914 73.3369 51.2827L59.9651 52.8748C61.535 55.9674 63.5787 58.7798 65.9996 61.2143C71.902 67.1503 80.0404 70.8346 88.9916 70.8346H113.878C122.829 70.8346 130.967 67.1503 136.87 61.2143C139.205 58.8653 141.192 56.1622 142.738 53.1964L129.532 51.2827C126.139 50.7914 123.071 48.9396 120.866 46.356C118.665 43.7783 117.299 40.4466 117.299 36.985C117.299 36.386 117.345 35.7781 117.433 35.1687C117.841 32.3284 119.186 29.9041 121.146 28.1807C123.118 26.4485 125.684 25.4377 128.519 25.4377C129.075 25.4377 129.663 25.4805 130.281 25.5705L144.732 27.6658C143.179 23.0504 140.624 18.8894 137.33 15.4427C132.258 15.6271 126.246 16.3693 120.32 18.3332C114.178 20.3679 108.147 23.7217 103.43 29.1442L101.435 31.4371L99.4408 29.1442C94.7238 23.7217 88.6937 20.3679 82.5507 18.3332C76.6233 16.3693 70.6123 15.6271 65.5389 15.4427V15.4441ZM56.4365 38.2791C56.4556 41.7022 57.0043 45.0059 58.0035 48.1089L72.5886 45.9945C74.6661 45.6935 76.5734 44.5249 77.9731 42.8856C79.3787 41.2389 80.2502 39.1393 80.2502 36.9836C80.2502 36.5955 80.2267 36.2414 80.1798 35.9197C79.9597 34.3823 79.254 33.0897 78.2328 32.1926C77.2219 31.3058 75.8721 30.7864 74.3507 30.7864C74 30.7864 73.6611 30.8101 73.3369 30.8558L56.8547 33.2461C56.7637 33.8142 56.686 34.3926 56.6229 34.9798C56.5084 36.0348 56.4453 37.1341 56.4365 38.2776V38.2791ZM144.866 48.1089C145.866 45.0044 146.415 41.7008 146.434 38.2791C146.425 37.1355 146.362 36.0363 146.248 34.9813C146.185 34.3941 146.107 33.8157 146.016 33.2476L129.534 30.8573C129.21 30.8101 128.871 30.7879 128.52 30.7879C126.997 30.7879 125.649 31.3058 124.638 32.1941C123.617 33.0912 122.911 34.3837 122.691 35.9212C122.644 36.2414 122.621 36.597 122.621 36.9836C122.621 39.1393 123.494 41.2389 124.898 42.8856C126.297 44.5249 128.205 45.6935 130.282 45.9945L144.867 48.1089H144.866ZM72.4918 33.5737C73.9369 33.5737 75.118 34.7615 75.118 36.2148V39.8136C75.118 41.267 73.9369 42.4548 72.4918 42.4548C71.0466 42.4548 69.8655 41.267 69.8655 39.8136V36.2148C69.8655 34.7629 71.0466 33.5737 72.4918 33.5737ZM130.38 33.5737C131.826 33.5737 133.007 34.7615 133.007 36.2148V39.8136C133.007 41.267 131.826 42.4548 130.38 42.4548C128.935 42.4548 127.754 41.267 127.754 39.8136V36.2148C127.754 34.7629 128.935 33.5737 130.38 33.5737ZM101.436 5.3502H89.4669C85.1168 5.3502 80.9617 6.20451 77.1603 7.7538C75.2633 8.52696 73.4513 9.47128 71.7465 10.5691C75.7328 11.0294 79.9934 11.8572 84.213 13.256C90.3223 15.2804 96.3641 18.4955 101.435 23.5092C106.505 18.497 112.547 15.2804 118.656 13.256C122.876 11.8572 127.135 11.0294 131.123 10.5691C129.418 9.47128 127.607 8.52696 125.71 7.7538C121.909 6.20451 117.754 5.3502 113.404 5.3502H101.435H101.436ZM96.6003 49.1742C97.8049 50.0861 99.5126 50.6512 101.436 50.6512C103.361 50.6512 105.067 50.0861 106.272 49.1742C107.264 48.4232 107.878 47.4479 107.878 46.4283C107.878 45.4087 107.264 44.4334 106.272 43.6824C105.067 42.7705 103.361 42.2054 101.436 42.2054C99.5112 42.2054 97.8034 42.7705 96.6003 43.6824C95.6085 44.4334 94.9952 45.4102 94.9952 46.4283C94.9952 47.4479 95.61 48.4232 96.6003 49.1742Z" fill="white"/>
<path d="M34.1721 130.548C31.05 132.09 26.9727 132.861 21.9491 132.861C15.4774 132.861 10.3511 130.92 6.54821 127.019C2.75411 123.128 0.852661 117.942 0.852661 111.454C0.852661 104.633 2.97125 99.0567 7.22018 94.7187C11.4588 90.3807 16.927 88.2103 23.6349 88.2103C27.8354 88.2103 31.3449 88.7533 34.1736 89.8569V98.7439C31.27 97.0308 27.9777 96.1839 24.3068 96.1839C20.1063 96.1839 16.7568 97.5251 14.2406 100.218C11.7332 102.92 10.4744 106.44 10.4744 110.788C10.4744 115.022 11.6657 118.437 14.0513 121.017C16.4355 123.594 19.6618 124.888 23.72 124.888C27.5508 124.888 31.0323 123.966 34.1736 122.101V130.55L34.1721 130.548ZM48.3904 103.147C49.771 102.366 51.6255 101.739 53.9437 101.254C56.2618 100.768 58.2483 100.531 59.8945 100.531C68.4657 100.531 72.7513 104.85 72.7513 113.49V132.11H64.2461V127.62H64.1332C62.0424 131.121 58.9863 132.862 54.956 132.862C52.0613 132.862 49.7329 132.034 47.984 130.37C46.2425 128.704 45.3637 126.441 45.3637 123.577C45.3637 117.669 48.8731 114.234 55.8745 113.273L64.2946 112.122C64.2946 108.535 62.44 106.747 58.731 106.747C55.0705 106.747 51.627 107.861 48.3904 110.088V103.151V103.147ZM58.5036 118.141C55.2685 118.569 53.6502 120.034 53.6502 122.545C53.6502 123.696 54.0478 124.629 54.8328 125.333C55.6177 126.036 56.6785 126.389 58.0019 126.389C59.8373 126.389 61.3411 125.741 62.5237 124.438C63.7062 123.144 64.2931 121.527 64.2931 119.596V117.388L58.5036 118.139V118.141ZM87.0533 132.108V86.478H95.9752V132.108H87.0533ZM158.839 132.108H149.908V114.516C149.908 109.797 148.205 107.436 144.781 107.436C143.192 107.436 141.877 108.15 140.816 109.587C139.766 111.014 139.236 112.766 139.236 114.83V132.108H130.314V114.297C130.314 109.722 128.621 107.438 125.244 107.438C123.559 107.438 122.217 108.122 121.213 109.493C120.201 110.853 119.699 112.661 119.699 114.907V132.108H110.75V101.282H119.699V106.105H119.814C120.882 104.335 122.302 102.965 124.08 101.986C125.85 101.015 127.723 100.531 129.68 100.531C133.985 100.531 136.927 102.473 138.517 106.353C140.882 102.471 144.317 100.531 148.828 100.531C155.498 100.531 158.838 104.67 158.838 112.956V132.108H158.839ZM201.912 101.282L189.272 134.867C186.337 142.667 181.941 147.267 176.075 147.267C173.767 147.267 171.979 147.02 170.701 146.536V139.323C171.903 140.008 173.228 140.35 174.665 140.35C177.107 140.35 178.826 138.472 179.822 136.093L181.516 132.051L169.122 101.28H179.046L185.034 120.595C185.404 121.765 185.668 123.078 185.838 124.524H185.999C186.131 123.544 186.435 122.25 186.916 120.652L193.037 101.28H201.912V101.282Z" fill="white"/>
<path d="M19.0641 147.274H17.7112L16.7439 144.679H12.7954L11.8832 147.274H10.5303L14.1422 137.792H15.4522L19.0641 147.274ZM16.3644 143.607L14.9319 139.665C14.887 139.538 14.838 139.318 14.785 139.004H14.7543C14.7095 139.289 14.6584 139.51 14.6013 139.665L13.1811 143.607H16.3644ZM26.0123 147.274H24.8185V143.424C24.8185 142.032 24.3104 141.336 23.2942 141.336C22.7677 141.336 22.3351 141.532 21.9964 141.924C21.6577 142.316 21.4883 142.811 21.4883 143.411V147.274H20.2884V140.503H21.4883V141.624H21.5128C22.0229 140.771 22.7637 140.344 23.735 140.344C24.4777 140.344 25.043 140.583 25.4307 141.061C25.8184 141.534 26.0123 142.226 26.0123 143.136V147.274ZM33.138 140.503L30.873 143.913L33.1074 147.274H31.7116L30.4199 145.119C30.3506 145.005 30.2526 144.83 30.1261 144.593H30.1016C30.0975 144.617 29.9955 144.793 29.7955 145.119L28.4793 147.274H27.1019L29.4037 143.95L27.206 140.503H28.6018L29.869 142.769C29.9465 142.907 30.0404 143.087 30.1506 143.307H30.1751L31.8218 140.503H33.138ZM34.2216 138.116C34.2216 137.904 34.293 137.726 34.4358 137.583C34.5827 137.436 34.7623 137.363 34.9745 137.363C35.1908 137.363 35.3725 137.434 35.5194 137.577C35.6704 137.72 35.7459 137.9 35.7459 138.116C35.7459 138.328 35.6704 138.506 35.5194 138.649C35.3725 138.787 35.1908 138.857 34.9745 138.857C34.7582 138.857 34.5787 138.787 34.4358 138.649C34.293 138.506 34.2216 138.328 34.2216 138.116ZM34.3624 147.274V140.503H35.5622V147.274H34.3624ZM43.2267 144.195H38.4884C38.5088 144.917 38.7068 145.476 39.0822 145.872C39.4577 146.264 39.9821 146.46 40.6555 146.46C41.4146 146.46 42.1105 146.217 42.7431 145.731V146.803C42.1472 147.223 41.3575 147.433 40.3739 147.433C39.3945 147.433 38.6292 147.123 38.0783 146.503C37.5314 145.882 37.258 145.021 37.258 143.919C37.258 142.883 37.5579 142.028 38.1579 141.354C38.7619 140.681 39.5108 140.344 40.4045 140.344C41.2902 140.344 41.9819 140.63 42.4798 141.201C42.9777 141.769 43.2267 142.564 43.2267 143.589V144.195ZM42.0268 143.234C42.0227 142.622 41.8778 142.148 41.5922 141.814C41.3065 141.479 40.9045 141.312 40.3862 141.312C39.9087 141.312 39.4944 141.489 39.1435 141.844C38.7966 142.199 38.5782 142.662 38.4884 143.234H42.0268ZM48.0751 147.207C47.8139 147.35 47.4609 147.421 47.0161 147.421C45.8039 147.421 45.1979 146.75 45.1979 145.407V141.495H44.0348V140.503H45.1979V138.875L46.3916 138.496V140.503H48.0751V141.495H46.3916V145.193C46.3916 145.638 46.4671 145.956 46.6181 146.148C46.7691 146.34 47.0201 146.435 47.3711 146.435C47.6405 146.435 47.8751 146.36 48.0751 146.209V147.207ZM55.0111 140.503L51.938 148.297C51.3666 149.741 50.5606 150.464 49.5199 150.464C49.2219 150.464 48.9669 150.431 48.7546 150.366V149.313C48.9873 149.403 49.2117 149.447 49.428 149.447C49.9708 149.447 50.3769 149.129 50.6463 148.492L51.1666 147.262L48.5098 140.503H49.8382L51.6074 145.591L51.7543 146.148H51.7849C51.8094 146.021 51.8584 145.84 51.9318 145.603L53.7806 140.503H55.0111ZM60.0003 147.274V137.792H62.7061C64.1427 137.792 65.3365 138.21 66.2874 139.047C67.2424 139.883 67.7199 141.005 67.7199 142.413C67.7199 143.883 67.2424 145.06 66.2874 145.946C65.3365 146.831 64.1101 147.274 62.6082 147.274H60.0003ZM61.2247 138.881V146.191H62.6021C63.806 146.191 64.7447 145.862 65.4181 145.205C66.0956 144.548 66.4343 143.628 66.4343 142.444C66.4343 141.261 66.0874 140.371 65.3936 139.775C64.6998 139.179 63.7876 138.881 62.6572 138.881H61.2247ZM69.2503 138.116C69.2503 137.904 69.3217 137.726 69.4646 137.583C69.6115 137.436 69.7911 137.363 70.0033 137.363C70.2196 137.363 70.4012 137.434 70.5481 137.577C70.6991 137.72 70.7746 137.9 70.7746 138.116C70.7746 138.328 70.6991 138.506 70.5481 138.649C70.4012 138.787 70.2196 138.857 70.0033 138.857C69.787 138.857 69.6074 138.787 69.4646 138.649C69.3217 138.506 69.2503 138.328 69.2503 138.116ZM69.3911 147.274V140.503H70.591V147.274H69.3911ZM72.3602 145.811C72.9642 146.248 73.6151 146.466 74.313 146.466C75.2476 146.466 75.7149 146.16 75.7149 145.548C75.7149 145.287 75.6129 145.072 75.4088 144.905C75.2047 144.734 74.7905 144.532 74.1661 144.299C73.4151 143.997 72.9274 143.699 72.703 143.405C72.4785 143.107 72.3663 142.748 72.3663 142.328C72.3663 141.728 72.6193 141.248 73.1254 140.889C73.6355 140.526 74.262 140.344 75.0048 140.344C75.5802 140.344 76.1148 140.444 76.6087 140.644V141.801C76.1026 141.475 75.5292 141.312 74.8885 141.312C74.5048 141.312 74.1926 141.395 73.9518 141.563C73.711 141.73 73.5906 141.95 73.5906 142.224C73.5906 142.493 73.6763 142.703 73.8478 142.854C74.0232 143.005 74.4089 143.199 75.0048 143.436C75.7598 143.717 76.2699 144.009 76.5352 144.311C76.8005 144.613 76.9331 144.987 76.9331 145.432C76.9331 146.052 76.678 146.542 76.1679 146.901C75.6618 147.256 75.0048 147.433 74.1967 147.433C73.4947 147.433 72.8826 147.301 72.3602 147.035V145.811ZM78.0901 143.962C78.0901 142.844 78.4023 141.963 79.0268 141.318C79.6512 140.669 80.498 140.344 81.5673 140.344C82.5835 140.344 83.3793 140.657 83.9548 141.281C84.5343 141.901 84.8241 142.76 84.8241 143.858C84.8241 144.927 84.5159 145.791 83.8997 146.448C83.2834 147.105 82.457 147.433 81.4204 147.433C80.4082 147.433 79.6002 147.115 78.9962 146.478C78.3921 145.842 78.0901 145.003 78.0901 143.962ZM79.3145 143.926C79.3145 144.705 79.5104 145.319 79.9022 145.768C80.298 146.217 80.8286 146.442 81.4938 146.442C82.1795 146.442 82.7019 146.223 83.061 145.787C83.4201 145.346 83.5997 144.715 83.5997 143.895C83.5997 143.071 83.4201 142.438 83.061 141.997C82.7019 141.556 82.1795 141.336 81.4938 141.336C80.8204 141.336 80.2878 141.567 79.8961 142.028C79.5083 142.489 79.3145 143.122 79.3145 143.926ZM90.1439 141.691C89.9439 141.548 89.6684 141.477 89.3175 141.477C88.8522 141.477 88.4686 141.695 88.1666 142.132C87.8646 142.564 87.7136 143.136 87.7136 143.846V147.274H86.5137V140.503H87.7136V141.881H87.738C88.0809 140.885 88.6726 140.387 89.5133 140.387C89.7868 140.387 89.997 140.418 90.1439 140.479V141.691ZM97.1778 147.274H95.9779V146.148H95.9535C95.4596 147.005 94.6924 147.433 93.6517 147.433C92.7946 147.433 92.1131 147.129 91.607 146.521C91.1009 145.909 90.8479 145.085 90.8479 144.048C90.8479 142.93 91.1336 142.034 91.7049 141.361C92.2763 140.683 93.0232 140.344 93.9455 140.344C94.8679 140.344 95.5372 140.703 95.9535 141.422H95.9779V137.253H97.1778V147.274ZM95.9841 143.246C95.9841 142.703 95.8045 142.25 95.4453 141.887C95.0903 141.52 94.6516 141.336 94.1292 141.336C93.4925 141.336 92.9905 141.575 92.6232 142.052C92.2559 142.526 92.0723 143.173 92.0723 143.993C92.0723 144.748 92.2477 145.346 92.5987 145.787C92.9538 146.223 93.4252 146.442 94.0129 146.442C94.5924 146.442 95.0658 146.227 95.4331 145.799C95.8004 145.366 95.9841 144.83 95.9841 144.189V143.246ZM104.836 144.195H100.098C100.118 144.917 100.316 145.476 100.692 145.872C101.067 146.264 101.592 146.46 102.265 146.46C103.024 146.46 103.72 146.217 104.353 145.731V146.803C103.757 147.223 102.967 147.433 101.983 147.433C101.004 147.433 100.239 147.123 99.6877 146.503C99.1408 145.882 98.8674 145.021 98.8674 143.919C98.8674 142.883 99.1674 142.028 99.7673 141.354C100.371 140.681 101.12 140.344 102.014 140.344C102.9 140.344 103.591 140.63 104.089 141.201C104.587 141.769 104.836 142.564 104.836 143.589V144.195ZM103.636 143.234C103.632 142.622 103.487 142.148 103.202 141.814C102.916 141.479 102.514 141.312 101.996 141.312C101.518 141.312 101.104 141.489 100.753 141.844C100.406 142.199 100.188 142.662 100.098 143.234H103.636ZM110.064 141.691C109.864 141.548 109.589 141.477 109.238 141.477C108.772 141.477 108.389 141.695 108.087 142.132C107.785 142.564 107.634 143.136 107.634 143.846V147.274H106.434V140.503H107.634V141.881H107.658C108.001 140.885 108.593 140.387 109.434 140.387C109.707 140.387 109.917 140.418 110.064 140.479V141.691ZM12.8382 159.73V163.274H11.6139V153.792H14.3075C15.3318 153.792 16.1256 154.038 16.6888 154.532C17.2561 155.026 17.5397 155.732 17.5397 156.65C17.5397 157.581 17.2092 158.336 16.548 158.915C15.8869 159.491 15.0604 159.762 14.0687 159.73H12.8382ZM12.8382 154.869V158.652H13.9708C14.7176 158.652 15.2849 158.485 15.6726 158.15C16.0603 157.812 16.2542 157.328 16.2542 156.699C16.2542 155.479 15.5318 154.869 14.0871 154.869H12.8382ZM19.1314 163.274V153.253H20.3313V163.274H19.1314ZM22.6392 156.975C23.3126 156.555 24.09 156.344 24.9716 156.344C26.604 156.344 27.4203 157.201 27.4203 158.915V163.274H26.2327V162.227H26.202C25.7327 163.031 25.041 163.433 24.1268 163.433C23.4697 163.433 22.9473 163.256 22.5596 162.901C22.1719 162.546 21.978 162.066 21.978 161.462C21.978 160.197 22.7269 159.46 24.2247 159.252L26.2327 158.971C26.2327 157.865 25.7756 157.312 24.8614 157.312C24.0492 157.312 23.3085 157.585 22.6392 158.132V156.975ZM24.6471 160.091C24.0921 160.164 23.7084 160.303 23.4962 160.507C23.2881 160.711 23.184 160.997 23.184 161.364C23.184 161.687 23.2983 161.95 23.5268 162.154C23.7554 162.358 24.0574 162.46 24.4329 162.46C24.9552 162.46 25.3858 162.276 25.7245 161.909C26.0633 161.542 26.2327 161.081 26.2327 160.525V159.877L24.6471 160.091ZM32.6605 163.207C32.3993 163.35 32.0463 163.421 31.6014 163.421C30.3893 163.421 29.7833 162.75 29.7833 161.407V157.495H28.6201V156.503H29.7833V154.875L30.977 154.496V156.503H32.6605V157.495H30.977V161.193C30.977 161.638 31.0525 161.956 31.2035 162.148C31.3545 162.34 31.6055 162.435 31.9565 162.435C32.2259 162.435 32.4605 162.36 32.6605 162.209V163.207ZM37.5579 154.275C37.3335 154.157 37.0906 154.098 36.8294 154.098C36.0785 154.098 35.703 154.563 35.703 155.493V156.503H37.2886V157.495H35.703V163.274H34.5154V157.495H33.3584V156.503H34.5154V155.438C34.5154 154.712 34.7235 154.143 35.1398 153.73C35.5602 153.314 36.0928 153.106 36.7376 153.106C37.0804 153.106 37.3539 153.145 37.5579 153.222V154.275ZM37.9803 159.962C37.9803 158.844 38.2925 157.963 38.917 157.318C39.5414 156.669 40.3882 156.344 41.4575 156.344C42.4737 156.344 43.2695 156.657 43.845 157.281C44.4245 157.901 44.7143 158.76 44.7143 159.858C44.7143 160.927 44.4061 161.791 43.7899 162.448C43.1736 163.105 42.3472 163.433 41.3106 163.433C40.2984 163.433 39.4904 163.115 38.8863 162.478C38.2823 161.842 37.9803 161.003 37.9803 159.962ZM39.2047 159.926C39.2047 160.705 39.4006 161.319 39.7924 161.768C40.1882 162.217 40.7188 162.442 41.384 162.442C42.0697 162.442 42.5921 162.223 42.9512 161.787C43.3103 161.346 43.4899 160.715 43.4899 159.895C43.4899 159.071 43.3103 158.438 42.9512 157.997C42.5921 157.556 42.0697 157.336 41.384 157.336C40.7106 157.336 40.178 157.567 39.7862 158.028C39.3985 158.489 39.2047 159.122 39.2047 159.926ZM50.0341 157.691C49.8341 157.548 49.5586 157.477 49.2076 157.477C48.7424 157.477 48.3588 157.695 48.0568 158.132C47.7547 158.564 47.6037 159.136 47.6037 159.846V163.274H46.4039V156.503H47.6037V157.881H47.6282C47.971 156.885 48.5628 156.387 49.4035 156.387C49.677 156.387 49.8872 156.418 50.0341 156.479V157.691ZM60.9369 163.274H59.7371V159.387C59.7371 158.652 59.6228 158.128 59.3943 157.814C59.1657 157.495 58.7902 157.336 58.2679 157.336C57.8271 157.336 57.4496 157.542 57.1353 157.954C56.8211 158.367 56.664 158.854 56.664 159.417V163.274H55.4641V159.264C55.4641 157.979 54.9682 157.336 53.9765 157.336C53.5194 157.336 53.1399 157.532 52.8378 157.924C52.5399 158.316 52.391 158.815 52.391 159.424V163.274H51.1911V156.503H52.391V157.575H52.4154C52.897 156.754 53.601 156.344 54.5275 156.344C54.9805 156.344 55.3804 156.469 55.7273 156.718C56.0742 156.967 56.315 157.303 56.4497 157.728C56.9517 156.806 57.7026 156.344 58.7025 156.344C60.1921 156.344 60.9369 157.263 60.9369 159.099V163.274Z" fill="white"/>
</g>
<defs>
<clipPath id="clip0_73_642">
<rect width="201.059" height="150" fill="white" transform="translate(0.852539)"/>
</clipPath>
</defs>
</svg>
